<svg xmlns="http://www.w3.org/2000/svg" xmlns:xlink="http://www.w3.org/1999/xlink" width="400" height="412" viewBox="0 0 400 412">
  <defs>
    <clipPath id="clip-path">
      <rect id="Rectángulo_414506" data-name="Rectángulo 414506" width="400" height="412" transform="translate(1020.461 2542)" fill="#fff" stroke="#707070" stroke-width="1"/>
    </clipPath>
    <clipPath id="clip-path-2">
      <rect id="Rectángulo_414474" data-name="Rectángulo 414474" width="411.965" height="274.643" fill="#cee29d"/>
    </clipPath>
    <clipPath id="clip-path-3">
      <rect id="Rectángulo_414505" data-name="Rectángulo 414505" width="748.983" height="499.322"/>
    </clipPath>
    <clipPath id="clip-path-4">
      <path id="Trazado_1027230" data-name="Trazado 1027230" d="M394.571,227.567H502.016l57.347,138.694H451.918Z" transform="translate(-394.571 -227.567)"/>
    </clipPath>
  </defs>
  <g id="Enmascarar_grupo_1098788" data-name="Enmascarar grupo 1098788" transform="translate(-1020.461 -2542)" clip-path="url(#clip-path)">
    <g id="Grupo_1172711" data-name="Grupo 1172711" transform="translate(1020 2678.357)" clip-path="url(#clip-path-2)">
      <path id="Trazado_1027133" data-name="Trazado 1027133" d="M34.946,266.564c.683-17.966,5.538-36.578,17.891-49.64,11.021-11.654,26.341-17.217,41.617-20.777,14.123-3.291,34.083-2.586,46.433-10.574,12.787-8.271,5.885-24.605,8.911-36.893,2.884-11.709,14.433-19.539,26.189-22.214,10.408-2.369,19.374.946,29.729-.175a51.205,51.205,0,0,0,28.534-12.584c15.994-14.366,25.843-36.491,48.494-41.652,18.326-4.175,38.034,3.874,47.28,20.435,10.455,18.726,13.884,40.258,22.646,59.694,9.426,20.91,26.042,31.4,42.338,46.476,24.347,22.528,28.3,57.923,14.014,87.352-6.8,14.005-17.025,26.064-28.877,36.063-11.925,10.06-26.309,17.571-37.191,28.756-6.7,6.884-11.911,15.482-13.515,24.952l-193.8,11.695a241.5,241.5,0,0,0-27.042-21.367C91.96,354.8,72.828,352.049,58.206,336.443,40.974,318.05,33.988,291.749,34.946,266.564Z" transform="translate(-24.471 -31.986)" fill="#cee29d"/>
    </g>
    <g id="Grupo_1172765" data-name="Grupo 1172765" transform="translate(826.564 2438.032)">
      <g id="Grupo_1172764" data-name="Grupo 1172764" transform="translate(7.453 16.302)" clip-path="url(#clip-path-3)">
        <g id="Grupo_1172745" data-name="Grupo 1172745" transform="translate(243.962 383.228)">
          <path id="Trazado_1027161" data-name="Trazado 1027161" d="M386.6,509.608s-36.555,72.48-41.009,104.329c-1.267,9.06-2.685,36.693,14.3,109.288,11.107,47.478,35.785,143.521,35.785,143.521h82.488L440.025,632.922l57.107-118.8" transform="translate(-336.54 -383.919)" fill="#f18c76"/>
          <g id="Grupo_1172743" data-name="Grupo 1172743" transform="translate(0 416.029)">
            <path id="Trazado_1027162" data-name="Trazado 1027162" d="M423.628,889.341c-9.321,8.987-58.773,15.882-58.773,15.882h0a281.505,281.505,0,0,0,21.185-21.07c21.78-25.367,11.478-57.6,11.478-57.6l75.113-26.208,12.176,44.005C476.407,848.788,432.949,880.355,423.628,889.341Z" transform="translate(-344.147 -800.342)" fill="#f18c76"/>
            <path id="Trazado_1027163" data-name="Trazado 1027163" d="M355.9,925.406c1.848-4.848,9.928-12.451,18.415-20.128h0s35.358-5.976,57.1-21.938c10.531-7.733,24.549-21.729,31.137-27.572,5.845-5.183,30.526-16.123,30.526-16.123,9.365,18.339,12.428,55.966,12.428,55.966l-26.094,7.307-5.531-31.292s-14.4,6.436-18.311,13.537c-1.34,2.436-3.7,8.9-6.224,16.35A21.649,21.649,0,0,1,434.459,915.5L354.132,938S352.142,935.258,355.9,925.406Z" transform="translate(-353.605 -800.395)" fill="#2b1a12"/>
          </g>
          <path id="Trazado_1027164" data-name="Trazado 1027164" d="M368.784,500.964l-22.108,123.3-6.929,246.97H261.306s-9.877-202.909-11.688-240.441S263.962,487.65,263.962,487.65" transform="translate(-112.9 -383.889)" fill="#f18c76"/>
          <path id="Trazado_1027165" data-name="Trazado 1027165" d="M458.034,384.252s22.557,32.535,30.542,52.61c8.648,21.743,9.611,46.094,8.152,64.141s-16.873,98.5-16.873,98.5H246.368s46.619-114.292,73.688-152.64c0,0,4.477-34.24,17.025-62.612" transform="translate(-238.299 -383.749)" fill="#625cd1"/>
          <g id="Grupo_1172744" data-name="Grupo 1172744" transform="translate(66.624 466.569)">
            <path id="Trazado_1027166" data-name="Trazado 1027166" d="M339.244,923.44c-11.4,6.14-60.879-.554-60.879-.554h0a281.647,281.647,0,0,0,26.083-14.577c27.813-18.554,26.586-52.375,26.586-52.375l79.4-4.982-.141,45.659C401,898.62,350.643,917.3,339.244,923.44Z" transform="translate(-250.021 -850.951)" fill="#f18c76"/>
            <path id="Trazado_1027167" data-name="Trazado 1027167" d="M282.306,937.358c3.087-4.17,12.917-9.312,23.16-14.416h0s35.66,3.781,60.9-5.729c12.225-4.607,29.5-14.306,37.418-18.154,7.025-3.415,33.742-7.3,33.742-7.3,4.073,20.186-3.124,57.244-3.124,57.244H407.3l3.112-31.625s-15.606,2.314-21.283,8.1c-1.947,1.984-5.964,7.576-10.4,14.066a21.651,21.651,0,0,1-18.1,9.46H277.21S276.032,945.834,282.306,937.358Z" transform="translate(-277.122 -851.006)" fill="#2b1a12"/>
          </g>
          <path id="Trazado_1027168" data-name="Trazado 1027168" d="M388.246,449.176q15.61,3.561,30.9,8.355" transform="translate(-301.848 -383.837)" fill="none" stroke="#2a282c" stroke-linejoin="round" stroke-miterlimit="10" stroke-width="1.5"/>
          <path id="Trazado_1027169" data-name="Trazado 1027169" d="M416.268,445.245a139.459,139.459,0,0,1-18.346-2.343" transform="translate(-308.629 -383.828)" fill="none" stroke="#2a282c" stroke-linejoin="round" stroke-miterlimit="10" stroke-width="1.5"/>
          <path id="Trazado_1027170" data-name="Trazado 1027170" d="M265.962,384.191c9.358,15.414,23.8,37.079,28.759,54.892,8.478,30.481,1.9,62.158-3.717,92.481-4.2,22.713-8.822,45.329-13.49,67.939" transform="translate(-59.357 -383.749)" fill="none" stroke="#9a9af7" stroke-linejoin="round" stroke-miterlimit="10" stroke-width="1.5"/>
          <path id="Trazado_1027171" data-name="Trazado 1027171" d="M333.841,429.6c-25.958-6.591-48.519-23.7-60.466-45.85" transform="translate(-101.824 -383.748)" fill="none" stroke="#9a9af7" stroke-linejoin="round" stroke-miterlimit="10" stroke-width="1.5"/>
        </g>
        <g id="Grupo_1172750" data-name="Grupo 1172750" transform="translate(298.819 105.899)">
          <g id="Grupo_1172746" data-name="Grupo 1172746" transform="translate(0 6.976)">
            <path id="Trazado_1027172" data-name="Trazado 1027172" d="M301.405,114.564c8.139-3.223,18.423-1.488,23.31,6.293a17.386,17.386,0,0,1,.724,16.606c-3.382,6.853-10.753,9.864-17.979,10.7a25.869,25.869,0,0,1-22.709-8.633C283.813,125.645,292.58,118.058,301.405,114.564Z" transform="translate(-161.337 -113.028)" fill="#441533"/>
            <path id="Trazado_1027173" data-name="Trazado 1027173" d="M318.535,124.92c2.79,3.687,2.84,11.553.3,15.908a21.168,21.168,0,0,1-14.6,10.15,25.9,25.9,0,0,1-19-4.416" transform="translate(-155.371 -113.044)" fill="none" stroke="#441533" stroke-miterlimit="10" stroke-width="1.5"/>
            <path id="Trazado_1027174" data-name="Trazado 1027174" d="M325.3,119.305a16.173,16.173,0,0,1-9.435,17.047c-7.962,3.755-18.214,3.2-26.5.919" transform="translate(-164.311 -113.037)" fill="none" stroke="#704162" stroke-miterlimit="10" stroke-width="1.5"/>
            <path id="Trazado_1027175" data-name="Trazado 1027175" d="M271.728,135.377a31.977,31.977,0,0,0-13.255,15.21c-3,7.246-3.836,15.95-11.611,19.79-7.15,3.531-11.559,10.481-8.471,19.047.474,1.315,1.108,2.822.4,4.026a4.5,4.5,0,0,1-2.126,1.529c-10.228,4.809-17.226,15.291-19.053,26.444s1.153,22.78,6.971,32.47,14.321,17.558,23.695,23.871c10.152,6.835,23.957,11.781,31.947,21.13,7.9,9.244,16.347,13.86,28.367,16.689a150.3,150.3,0,0,0,54.069,2.6c9.571-1.269,19.179-3.018,28.209-6.537,9.389-3.658,16.792-9.685,24.954-15.371,6.937-4.831,15.016-8.436,20.972-14.544,7.543-7.738,12.833-17.923,13.579-28.7,1.023-14.792-6.9-23.947-20.36-28.127-9.91-3.077-21.66-4.727-27.1-14.6-4.681-8.491,2.3-19.058.5-28.586-1.308-6.921-7.152-12.205-13.54-15.172s-13.442-4.11-20.211-6.057a87.087,87.087,0,0,1-12.158-4.5,19.393,19.393,0,0,1-5.668-3.533c-2.981-2.928-4.012-7.25-4.912-11.331" transform="translate(-217.073 -113.059)" fill="#441533"/>
            <path id="Trazado_1027176" data-name="Trazado 1027176" d="M241.485,153.321a13.41,13.41,0,0,0,5.773,8.144c9.452,6.623,24.771,6.831,31.721,16.765,3.456,4.941,3.534,11.375,2.865,17.311s-1.955,11.955-.785,17.818a22.264,22.264,0,0,0,6.3,11.515c10.782,10.486,27.346,10.314,34,25.644,6.459,14.878-1.3,33.188-11.686,44.29" transform="translate(-114.713 -113.083)" fill="none" stroke="#704162" stroke-miterlimit="10" stroke-width="1.5"/>
            <path id="Trazado_1027177" data-name="Trazado 1027177" d="M209.562,147.544c4.95,6.46,13,7.131,20.242,8.48s14.648,2.037,21.571,4.63,13.5,7.487,16.175,14.681c3.823,10.3-.824,23.526,5.859,32.065a20.38,20.38,0,0,0,7.23,5.459c7.281,3.592,15.306,5.083,22.444,9.179,10.861,6.232,18.411,17.979,17.414,31.328-.907,12.141-8.806,22.219-18.1,28.817q-1.741,1.236-3.568,2.332c-5.191,3.118-10.664,5.66-16.047,8.377-2.546,1.284-5.017,2.9-7.607,4.062-3.007,1.349-6.324,2.128-9.4,3.309" transform="translate(-79.698 -113.075)" fill="none" stroke="#441533" stroke-miterlimit="10" stroke-width="1.5"/>
          </g>
          <path id="Trazado_1027178" data-name="Trazado 1027178" d="M379.752,168.447l2.317,16.652,5.983,24.282s-8.119,18.105-32.423,18.105c-18.582,0-21.631-14.315-21.631-14.315l-.075-28.073" transform="translate(-271.358 -106.128)" fill="#f18c76"/>
          <path id="Trazado_1027179" data-name="Trazado 1027179" d="M366.913,118.277c-5.061.714-14.442,4.707-19.295,13.257-3.509,6.184-4.6,12.458-5.013,21.443-.36,7.822.758,26.885,3.456,34.609,1.753,5.017,7.7,11.6,18.8,12.382,14.233,1.008,28-7.748,34.03-17.421s8.8-25.781,6.2-38C401.452,127.43,385.509,115.651,366.913,118.277Z" transform="translate(-297.985 -106.059)" fill="#f18c76"/>
          <g id="Grupo_1172747" data-name="Grupo 1172747" transform="translate(36.623 41.47)">
            <path id="Trazado_1027180" data-name="Trazado 1027180" d="M366.864,160.391c.791,6.316,6.115,10.85,11.892,10.127s9.82-6.43,9.029-12.746-6.115-10.85-11.892-10.127S366.074,154.074,366.864,160.391Z" transform="translate(-340.61 -147.569)" fill="none" stroke="#ffe8bb" stroke-miterlimit="10" stroke-width="1.5"/>
            <ellipse id="Elipse_12024" data-name="Elipse 12024" cx="11.526" cy="8.881" rx="11.526" ry="8.881" transform="translate(2.863 27.343) rotate(-97.134)" fill="none" stroke="#ffe8bb" stroke-miterlimit="10" stroke-width="1.5"/>
            <line id="Línea_672" data-name="Línea 672" y1="0.943" x2="7.53" transform="translate(18.647 10.727)" fill="none" stroke="#ffe8bb" stroke-miterlimit="10" stroke-width="1.5"/>
            <line id="Línea_673" data-name="Línea 673" x2="23.182" y2="2.255" transform="translate(46.755 8.152)" fill="none" stroke="#ffe8bb" stroke-miterlimit="10" stroke-width="1.5"/>
          </g>
          <g id="Grupo_1172748" data-name="Grupo 1172748" transform="translate(45.301)">
            <path id="Trazado_1027181" data-name="Trazado 1027181" d="M351.925,106.565a46.319,46.319,0,0,1,33.9,8.362,48.334,48.334,0,0,1,10.372,10.2,45.315,45.315,0,0,1,8.989,23.645,40.677,40.677,0,0,1-5.99,24.493c-1.641,2.6-8.243,8.791-8.243,8.791l-6.81-26.207c-13.417-1.9-31.012-11.571-37.98-29.949,0,0-17.579-.624-23.483,17.7C319.791,120.583,340.116,108.439,351.925,106.565Z" transform="translate(-322.406 -106.043)" fill="#441533"/>
            <path id="Trazado_1027182" data-name="Trazado 1027182" d="M370.917,142.947a16.139,16.139,0,0,1-8.482,2.751,42.491,42.491,0,0,1-22.47-4.741,65.619,65.619,0,0,1-18.263-14.2" transform="translate(-287.321 -106.071)" fill="none" stroke="#704162" stroke-miterlimit="10" stroke-width="1.5"/>
            <path id="Trazado_1027183" data-name="Trazado 1027183" d="M348.535,147.379a24.222,24.222,0,0,1-26.257,6.831" transform="translate(-265.514 -106.099)" fill="none" stroke="#704162" stroke-miterlimit="10" stroke-width="1.5"/>
          </g>
          <g id="Grupo_1172749" data-name="Grupo 1172749" transform="translate(98.174 45.243)">
            <path id="Trazado_1027184" data-name="Trazado 1027184" d="M334.275,160c.992-3.823,3.907-7.852,8.034-8.552,3.914-.663,7.694,2.1,9.083,5.657,1.906,4.885,1.067,10.852-1.33,15.416-2.445,4.655-7.835,9.046-13.278,6.416a7.794,7.794,0,0,1-4.2-5.08" transform="translate(-332.582 -151.347)" fill="#f18c76"/>
            <path id="Trazado_1027185" data-name="Trazado 1027185" d="M348.218,159.741a109.275,109.275,0,0,0-8.673,10.1" transform="translate(-335.313 -151.358)" fill="none" stroke="#2a282c" stroke-linejoin="round" stroke-miterlimit="10" stroke-width="1.5"/>
            <path id="Trazado_1027186" data-name="Trazado 1027186" d="M350.957,154.014a18.988,18.988,0,0,0-3.4,6.6" transform="translate(-346.049 -151.351)" fill="none" stroke="#2a282c" stroke-linejoin="round" stroke-miterlimit="10" stroke-width="1.5"/>
            <path id="Trazado_1027187" data-name="Trazado 1027187" d="M352.041,179.131a8.512,8.512,0,0,1-10.141-3.345" transform="translate(-341.488 -151.38)" fill="none" stroke="#2a282c" stroke-linejoin="round" stroke-miterlimit="10" stroke-width="1.5"/>
          </g>
          <path id="Trazado_1027188" data-name="Trazado 1027188" d="M395.867,166.138a9.884,9.884,0,0,1-1.047,5.256c-.934,1.677-3.65,2.719-1.448,4.719a13.625,13.625,0,0,0,3.329,2.093" transform="translate(-338.538 -106.125)" fill="none" stroke="#2a282c" stroke-linejoin="round" stroke-miterlimit="10" stroke-width="1.5"/>
          <path id="Trazado_1027189" data-name="Trazado 1027189" d="M378.2,161.777c.115,1.594,1.042,2.825,2.07,2.751s1.77-1.426,1.655-3.02-1.042-2.825-2.07-2.751S378.085,160.183,378.2,161.777Z" transform="translate(-309.448 -106.115)" fill="#2a282c"/>
          <path id="Trazado_1027190" data-name="Trazado 1027190" d="M401,162.578c.115,1.594,1.042,2.825,2.07,2.751s1.77-1.426,1.655-3.02-1.042-2.825-2.07-2.751S400.881,160.985,401,162.578Z" transform="translate(-355.009 -106.116)" fill="#2a282c"/>
          <path id="Trazado_1027191" data-name="Trazado 1027191" d="M381.618,182.623l6.965-6.031s5.173,7.921.856,10.637C385.837,189.494,381.618,182.623,381.618,182.623Z" transform="translate(-322.095 -106.139)" fill="#fff"/>
          <path id="Trazado_1027192" data-name="Trazado 1027192" d="M386.381,144.211a11.854,11.854,0,0,0-10.993.795" transform="translate(-311.096 -106.094)" fill="none" stroke="#2a282c" stroke-linejoin="round" stroke-miterlimit="10" stroke-width="1.5"/>
          <path id="Trazado_1027193" data-name="Trazado 1027193" d="M408.379,147.917c-3.409-2.224-6.615-2.054-8.932-.009" transform="translate(-357.12 -106.098)" fill="none" stroke="#2a282c" stroke-linejoin="round" stroke-miterlimit="10" stroke-width="1.5"/>
          <path id="Trazado_1027194" data-name="Trazado 1027194" d="M388.044,190.041c-7.745,7.879-17.806,11.487-29.614,10.162" transform="translate(-295.824 -106.157)" fill="none" stroke="#2a282c" stroke-linejoin="round" stroke-miterlimit="10" stroke-width="1.5"/>
        </g>
        <g id="Grupo_1172754" data-name="Grupo 1172754" transform="translate(208.631 196.452)">
          <g id="Grupo_1172751" data-name="Grupo 1172751" transform="translate(0 17.716)">
            <path id="Trazado_1027195" data-name="Trazado 1027195" d="M477.9,304.932l-6.26,16.406-33.99-28.861-19.833,36.164C433.531,361.172,461,394.187,477.9,397.56s31.161-11.612,36.811-21.536c8.274-14.53,26.206-60.87,26.206-60.87" transform="translate(-417.818 -214.565)" fill="#f18c76"/>
            <path id="Trazado_1027196" data-name="Trazado 1027196" d="M453.534,321.378c.072,0,27.977,22.809,33.61,36.459" transform="translate(-399.711 -214.604)" fill="none" stroke="#2a282c" stroke-linejoin="round" stroke-miterlimit="10" stroke-width="1.5"/>
            <path id="Trazado_1027197" data-name="Trazado 1027197" d="M484.155,218.922s-17.373-5.791-29.585-4.179c-16.1,2.125-25.964,15.728-33.267,31.334s-23.533,60.848-23.533,60.848l67.758,19.087L486,260.178" transform="translate(-342.876 -214.459)" fill="#fff"/>
            <line id="Línea_674" data-name="Línea 674" x1="66.995" y1="18.467" transform="translate(61.309 74.91)" fill="none" stroke="#625cd1" stroke-miterlimit="10" stroke-width="1.5"/>
          </g>
          <path id="Trazado_1027198" data-name="Trazado 1027198" d="M303.106,246.074c-5.031,8.617-10.09,17.293-13.489,26.676s-5.075,19.611-3.138,29.4,8.983,19.687,16.905,26.383l15.126,55.486H439.464s.653-75.111-6.915-130.329l-37.674-42.213L354.84,220.9l-35.38-2.061" transform="translate(-184.398 -196.739)" fill="#fff"/>
          <path id="Trazado_1027199" data-name="Trazado 1027199" d="M376.358,220.469c-2.7,48.32-13.581,66.07-2.7,100.71,3.017,9.6,9.376,62.851,9.376,62.851" transform="translate(-211.1 -196.751)" fill="none" stroke="#2a282c" stroke-linejoin="round" stroke-miterlimit="10" stroke-width="1.5"/>
          <path id="Trazado_1027200" data-name="Trazado 1027200" d="M369.94,318.416a2.639,2.639,0,1,0,2.639-2.639A2.639,2.639,0,0,0,369.94,318.416Z" transform="translate(-204.305 -196.88)" fill="#625cd1"/>
          <path id="Trazado_1027201" data-name="Trazado 1027201" d="M361.879,361.98a2.639,2.639,0,1,0,2.639-2.639A2.639,2.639,0,0,0,361.879,361.98Z" transform="translate(-188.194 -196.94)" fill="#625cd1"/>
          <path id="Trazado_1027202" data-name="Trazado 1027202" d="M373.166,277.466a2.639,2.639,0,1,0,2.639-2.639A2.639,2.639,0,0,0,373.166,277.466Z" transform="translate(-210.753 -196.825)" fill="#625cd1"/>
          <path id="Trazado_1027203" data-name="Trazado 1027203" d="M369.354,233.3a2.639,2.639,0,1,0,2.639-2.639A2.64,2.64,0,0,0,369.354,233.3Z" transform="translate(-203.134 -196.765)" fill="#625cd1"/>
          <path id="Trazado_1027204" data-name="Trazado 1027204" d="M439.663,246.121c-5.031,8.617-10.09,17.294-13.489,26.676s-5.075,19.611-3.138,29.4a40.48,40.48,0,0,0,5.729,13.612" transform="translate(-320.956 -196.786)" fill="none" stroke="#2a282c" stroke-linejoin="round" stroke-miterlimit="10" stroke-width="1.5"/>
          <g id="Grupo_1172752" data-name="Grupo 1172752" transform="translate(198.047 10.075)">
            <path id="Trazado_1027205" data-name="Trazado 1027205" d="M309.34,309.147s6.994,36.728,7.4,45.573,1.573,22.883-6.619,28.514-66.2-16.583-66.2-16.583l-3-54.33" transform="translate(-215.338 -206.947)" fill="#f18c76"/>
            <path id="Trazado_1027206" data-name="Trazado 1027206" d="M242.424,206.808l17.2,6.45s13.408-1.727,21.571-1.727,24.174-.326,34.6,17.3c9.227,15.6,10.611,24.97,16.576,45.749s10.267,40.244,10.267,40.244l-77.14,11.931-5.873-72.211" transform="translate(-242.424 -206.808)" fill="#fff"/>
            <line id="Línea_675" data-name="Línea 675" x1="4.326" y1="72.585" transform="translate(18.744 47.361)" fill="none" stroke="#2a282c" stroke-linejoin="round" stroke-miterlimit="10" stroke-width="1.5"/>
          </g>
          <path id="Trazado_1027207" data-name="Trazado 1027207" d="M366.4,196.719,325.55,220.531l18.681,25.006,30.527-32.293Z" transform="translate(-159.514 -196.719)" fill="#fff"/>
          <path id="Trazado_1027208" data-name="Trazado 1027208" d="M384.526,207.416l15.056,13.129L381.482,241l-6.658-22.086Z" transform="translate(-233.545 -196.734)" fill="#fff"/>
          <path id="Trazado_1027209" data-name="Trazado 1027209" d="M325.55,220.553l18.681,25.006,30.527-32.293" transform="translate(-159.514 -196.741)" fill="none" stroke="#2a282c" stroke-linejoin="round" stroke-miterlimit="10" stroke-width="1.5"/>
          <path id="Trazado_1027210" data-name="Trazado 1027210" d="M399.581,220.561l-18.1,20.453-6.658-22.086" transform="translate(-233.545 -196.749)" fill="none" stroke="#2a282c" stroke-linejoin="round" stroke-miterlimit="10" stroke-width="1.5"/>
          <g id="Grupo_1172753" data-name="Grupo 1172753" transform="translate(145.298 23.133)">
            <path id="Trazado_1027211" data-name="Trazado 1027211" d="M347.959,219.883l27.183,6.286-3.871,6.411-24.025-9.365Z" transform="translate(-326.863 -219.883)" fill="#f99c6e"/>
            <path id="Trazado_1027212" data-name="Trazado 1027212" d="M395.264,219.883l-21.1,3.887,2.026,6.888,19.368-7.335Z" transform="translate(-374.168 -219.883)" fill="#f99c6e"/>
            <path id="Trazado_1027213" data-name="Trazado 1027213" d="M365.679,220.246c.153.141,9.842,46.306,9.842,46.306s-7.119,2.2-7.434,1.989-4.4-44.938-4.4-44.938Z" transform="translate(-343.663 -219.884)" fill="#f99c6e"/>
            <path id="Trazado_1027214" data-name="Trazado 1027214" d="M392.013,223.22c-.172.117-18.22,51.938-18.22,51.938s6.718,3.223,7.059,3.062,14.279-54.355,14.279-54.355Z" transform="translate(-373.363 -219.888)" fill="#f99c6e"/>
            <path id="Trazado_1027215" data-name="Trazado 1027215" d="M376.909,220.666a9.816,9.816,0,0,1-.355,1.348,9.03,9.03,0,0,0-.337,1.99c0,.058-.034.137-.09.12.047.068-.065-.006-.148,0q-1.79.069-3.583.027a6.062,6.062,0,0,1-.3-3.931" transform="translate(-353.251 -219.883)" fill="none" stroke="#ea7a4e" stroke-miterlimit="10" stroke-width="1.5"/>
          </g>
          <line id="Línea_676" data-name="Línea 676" x1="74.26" y2="10.732" transform="translate(220.059 101.543)" fill="none" stroke="#2a282c" stroke-linejoin="round" stroke-miterlimit="10" stroke-width="1.5"/>
        </g>
        <g id="Grupo_1172763" data-name="Grupo 1172763" transform="translate(190.155 209.645)">
          <g id="Grupo_1172758" data-name="Grupo 1172758" transform="translate(108.169 30.183)">
            <g id="Grupo_1172755" data-name="Grupo 1172755" transform="translate(11.034 0)">
              <rect id="Rectángulo_414504" data-name="Rectángulo 414504" width="6.547" height="78.357" transform="translate(7.441 72.211) rotate(-151.913)" fill="#ea7a4e"/>
              <line id="Línea_677" data-name="Línea 677" x1="36.891" y2="69.132" transform="translate(3.136 0.839)" fill="none" stroke="#f99c6e" stroke-miterlimit="10" stroke-width="1"/>
              <line id="Línea_678" data-name="Línea 678" x1="36.89" y2="69.132" transform="translate(5.564 2.09)" fill="none" stroke="#f99c6e" stroke-miterlimit="10" stroke-width="1"/>
              <path id="Trazado_1027216" data-name="Trazado 1027216" d="M440.212,312.476l-7.426,6.464,1.65-9.546" transform="translate(-432.786 -240.248)" fill="#7d7dd3"/>
            </g>
            <path id="Trazado_1027217" data-name="Trazado 1027217" d="M425.489,370.707c-1.037,13.408-6.077,20.346-15.912,24.323s-24.967,1.9-35.366-.2c-17.17-3.47-33.648-14.382-48.647-23.43s-55.854-39.944-55.854-39.944l-28.323-43.8c7-2.2,14.12-4.425,21.458-4.585,17.11-.372,35.757,8.257,51.456,14.27,16.637,6.372,32.918,13.634,49.054,21.175l43.279,20.227" transform="translate(-215.889 -240.212)" fill="#f18c76"/>
            <g id="Grupo_1172756" data-name="Grupo 1172756" transform="translate(0 40.4)">
              <path id="Trazado_1027218" data-name="Trazado 1027218" d="M451.151,294.468c-9.886-3.938-16.122-6.624-26.471-9.647-5.1-1.488-13.656-3.7-18.942-4.138a38.247,38.247,0,0,0-11.143,1.17c-9.031,1.955-17.146,6.353-22.427,14.8a79.35,79.35,0,0,0-6.078,12.753,68.954,68.954,0,0,0-2.682,7.658c-.476,1.776-1.68,5.24-.724,6.977,1.989,3.615,8.127-1.361,9.758-3.188,3.206-3.589,4.251-8.174,6.807-12.061a21.836,21.836,0,0,1,3.785-4.353,31.062,31.062,0,0,0-1.9,9.31c-.132,2.552-.572,5.613.979,7.765,1.613,2.239,2.114,2.329,4.767,2.493a5.588,5.588,0,0,0,6.072,5.013c-.41.066,1.37,3.031,1.559,3.238a10.26,10.26,0,0,0,2.6,2.214c2.423,1.145,6.05-.929,8.329-1.843a8.622,8.622,0,0,1,2.657-.729,7.771,7.771,0,0,1,2.259.282c8.414,2.016,16.076,7.81,24.722,7.491Z" transform="translate(-362.325 -280.608)" fill="#f18c76"/>
              <path id="Trazado_1027219" data-name="Trazado 1027219" d="M413.117,324.483a35.877,35.877,0,0,1,13.82-24.427" transform="translate(-388.835 -280.635)" fill="none" stroke="#2a282c" stroke-linejoin="round" stroke-miterlimit="10" stroke-width="1.5"/>
              <path id="Trazado_1027220" data-name="Trazado 1027220" d="M405.009,329.281A12.4,12.4,0,0,1,407.242,325,40.92,40.92,0,0,1,420.4,313.329" transform="translate(-374.2 -280.653)" fill="none" stroke="#2a282c" stroke-linejoin="round" stroke-miterlimit="10" stroke-width="1.5"/>
              <path id="Trazado_1027221" data-name="Trazado 1027221" d="M398.044,333.85a2.3,2.3,0,0,1,1.331-.817q5.83-1.878,11.789-3.229" transform="translate(-358.009 -280.675)" fill="none" stroke="#2a282c" stroke-linejoin="round" stroke-miterlimit="10" stroke-width="1.5"/>
              <path id="Trazado_1027222" data-name="Trazado 1027222" d="M419.6,304.714c2.959-5.567,6.261-10.551,11.069-14.372" transform="translate(-399.051 -280.621)" fill="none" stroke="#2a282c" stroke-linejoin="round" stroke-miterlimit="10" stroke-width="1.5"/>
            </g>
            <path id="Trazado_1027223" data-name="Trazado 1027223" d="M294.119,338.645a284.955,284.955,0,0,0-31.381-15.674" transform="translate(-105.842 -240.266)" fill="none" stroke="#2a282c" stroke-linejoin="round" stroke-miterlimit="10" stroke-width="1.5"/>
            <g id="Grupo_1172757" data-name="Grupo 1172757" transform="translate(71.34 49.894)">
              <path id="Trazado_1027224" data-name="Trazado 1027224" d="M370.172,290.115l9.466,3.9a128.41,128.41,0,0,1-10.25,57.5l-9.15-6.051A125.2,125.2,0,0,0,370.172,290.115Z" transform="translate(-360.239 -290.115)" fill="#7a4a44"/>
              <path id="Trazado_1027225" data-name="Trazado 1027225" d="M368.844,324.478c4.178-1.632,6.065-6.8,4.212-11.544s-6.742-7.266-10.92-5.634-6.065,6.8-4.212,11.544S364.665,326.11,368.844,324.478Z" transform="translate(-351.177 -290.138)" fill="#995f56"/>
              <path id="Trazado_1027226" data-name="Trazado 1027226" d="M372.136,325.039c-3.087.732-7.395-1.013-8.86-3.907" transform="translate(-355.6 -290.157)" fill="none" stroke="#2a282c" stroke-linejoin="round" stroke-miterlimit="10" stroke-width="1.5"/>
              <path id="Trazado_1027227" data-name="Trazado 1027227" d="M370.13,308.7a10.433,10.433,0,0,0-7.188-2.229,4.714,4.714,0,0,0-2.471.767" transform="translate(-350.793 -290.137)" fill="none" stroke="#2a282c" stroke-linejoin="round" stroke-miterlimit="10" stroke-width="1.5"/>
              <path id="Trazado_1027228" data-name="Trazado 1027228" d="M365.76,310.22l3.847,5.892-4.3,2.829" transform="translate(-355.101 -290.142)" fill="none" stroke="#2a282c" stroke-linejoin="round" stroke-miterlimit="10" stroke-width="1.5"/>
            </g>
          </g>
          <g id="Grupo_1172762" data-name="Grupo 1172762">
            <g id="Grupo_1172761" data-name="Grupo 1172761">
              <path id="Trazado_1027229" data-name="Trazado 1027229" d="M394.571,227.567H502.016l57.347,138.694H451.918Z" transform="translate(-394.571 -209.953)" fill="#fcde9d"/>
              <g id="Grupo_1172760" data-name="Grupo 1172760" transform="translate(0 17.614)">
                <g id="Grupo_1172759" data-name="Grupo 1172759" clip-path="url(#clip-path-4)">
                  <line id="Línea_679" data-name="Línea 679" x2="60.647" y2="146.675" transform="translate(99.016 -3.462)" fill="none" stroke="#ffeac0" stroke-miterlimit="10" stroke-width="2"/>
                  <line id="Línea_680" data-name="Línea 680" x2="60.648" y2="146.675" transform="translate(75.167 -3.462)" fill="none" stroke="#ffeac0" stroke-miterlimit="10" stroke-width="2"/>
                  <line id="Línea_681" data-name="Línea 681" x2="60.648" y2="146.675" transform="translate(51.317 -3.462)" fill="none" stroke="#ffeac0" stroke-miterlimit="10" stroke-width="2"/>
                  <line id="Línea_682" data-name="Línea 682" x1="114.947" transform="translate(48.905 131.57)" fill="none" stroke="#ffeac0" stroke-miterlimit="10" stroke-width="2"/>
                  <line id="Línea_683" data-name="Línea 683" x2="60.647" y2="146.675" transform="translate(27.469 -3.462)" fill="none" stroke="#ffeac0" stroke-miterlimit="10" stroke-width="2"/>
                  <line id="Línea_684" data-name="Línea 684" x2="60.648" y2="146.675" transform="translate(3.619 -3.462)" fill="none" stroke="#ffeac0" stroke-miterlimit="10" stroke-width="2"/>
                  <line id="Línea_685" data-name="Línea 685" x1="114.946" transform="translate(37.426 100.423)" fill="none" stroke="#ffeac0" stroke-miterlimit="10" stroke-width="2"/>
                  <line id="Línea_686" data-name="Línea 686" x1="114.947" transform="translate(25.947 69.274)" fill="none" stroke="#ffeac0" stroke-miterlimit="10" stroke-width="2"/>
                  <line id="Línea_687" data-name="Línea 687" x1="114.946" transform="translate(12.471 38.125)" fill="none" stroke="#ffeac0" stroke-miterlimit="10" stroke-width="2"/>
                  <line id="Línea_688" data-name="Línea 688" x1="114.947" transform="translate(0.992 6.977)" fill="none" stroke="#ffeac0" stroke-miterlimit="10" stroke-width="2"/>
                </g>
              </g>
              <path id="Trazado_1027231" data-name="Trazado 1027231" d="M468.366,224.316h71.291l5.045,12.2H473.411Z" transform="translate(-453.605 -209.949)" fill="#d3a585"/>
              <path id="Trazado_1027232" data-name="Trazado 1027232" d="M502.355,217.806c-1.433-4.712,1.342-8.226,6.2-7.849a13.982,13.982,0,0,1,11.387,9.212c1.432,4.712-1.343,8.226-6.2,7.849A13.982,13.982,0,0,1,502.355,217.806Zm12.646.979a6.126,6.126,0,0,0-4.989-4.037,2.472,2.472,0,0,0-2.716,3.44,6.127,6.127,0,0,0,4.989,4.037A2.472,2.472,0,0,0,515,218.785Z" transform="translate(-462.786 -209.929)" fill="#d3a585"/>
            </g>
            <path id="Trazado_1027233" data-name="Trazado 1027233" d="M540.605,341.716c1.814-8.027,2.621-15.51-.9-23.169-2.99-6.5-6.514-12.774-1.159-19.172,1.682-2.008,3.564-4.671,5.7-6.19,3.837-2.732,7.029-5.592,7.386-10.289a3.449,3.449,0,0,0-.45-2.354c-.74-.986-2.206-1.025-3.409-.756a27.824,27.824,0,0,0-3.578,1.321s6.167-4.521,7.916-7.623a5.871,5.871,0,0,0,.9-4.218c-.365-1.429-3.328-2.039-3.328-2.039a11.836,11.836,0,0,0,2.563-2.057,2.866,2.866,0,0,0,.331-3.1,4.03,4.03,0,0,0-2.942-1.459,35.343,35.343,0,0,0-8.026-.37c2.786.088,6.08-3.423,5.131-5.355s-14.672.8-22.038,3.177c-3.737,1.2-7.511,2.784-10.174,5.67-7.329,7.941-8.242,16.8-8.246,26.825a75.834,75.834,0,0,0,1.708,12.723,57.193,57.193,0,0,0,3.25,9.868,188.077,188.077,0,0,0,15.254,29.546" transform="translate(-499.891 -209.989)" fill="#f18c76"/>
            <path id="Trazado_1027234" data-name="Trazado 1027234" d="M532.238,280.782c-6.44,4.555-14.87,8.007-17.36,16.2" transform="translate(-487.59 -210.025)" fill="none" stroke="#2a282c" stroke-linejoin="round" stroke-miterlimit="10" stroke-width="1.5"/>
            <path id="Trazado_1027235" data-name="Trazado 1027235" d="M541.043,267.03a75.43,75.43,0,0,0-16.678,6.025c-4.88,2.54-12.09,8.888-15.484,16.386" transform="translate(-490.406 -210.007)" fill="none" stroke="#2a282c" stroke-linejoin="round" stroke-miterlimit="10" stroke-width="1.5"/>
            <path id="Trazado_1027236" data-name="Trazado 1027236" d="M547,260.241c-10.723,1.484-24.173,6.78-29.529,17.206" transform="translate(-504.935 -209.998)" fill="none" stroke="#2a282c" stroke-linejoin="round" stroke-miterlimit="10" stroke-width="1.5"/>
            <path id="Trazado_1027237" data-name="Trazado 1027237" d="M518.1,330.377c.416,2.871-.759,9.59-1.167,11.882" transform="translate(-475.583 -210.093)" fill="none" stroke="#2a282c" stroke-linejoin="round" stroke-miterlimit="10" stroke-width="1.5"/>
            <line id="Línea_689" data-name="Línea 689" x1="60.084" transform="translate(22.338 18.382)" fill="none" stroke="#2a282c" stroke-linejoin="round" stroke-miterlimit="10" stroke-width="1.5"/>
          </g>
        </g>
      </g>
    </g>
  </g>
</svg>
