<svg xmlns="http://www.w3.org/2000/svg" xmlns:xlink="http://www.w3.org/1999/xlink" width="113" height="113" viewBox="0 0 113 113">
  <defs>
    <filter id="Trazado_982547" x="0" y="0" width="113" height="113" filterUnits="userSpaceOnUse">
      <feOffset dy="3" input="SourceAlpha"/>
      <feGaussianBlur stdDeviation="3" result="blur"/>
      <feFlood flood-opacity="0.161"/>
      <feComposite operator="in" in2="blur"/>
      <feComposite in="SourceGraphic"/>
    </filter>
  </defs>
  <g id="Grupo_1172710" data-name="Grupo 1172710" transform="translate(-171.461 -2981)">
    <g id="Grupo_1166845" data-name="Grupo 1166845" transform="translate(180.461 2987)">
      <g id="Grupo_1166720" data-name="Grupo 1166720">
        <g id="Grupo_1164305" data-name="Grupo 1164305" transform="translate(0)">
          <g id="Grupo_1163948" data-name="Grupo 1163948">
            <g id="Grupo_1158168" data-name="Grupo 1158168">
              <g id="Grupo_1152576" data-name="Grupo 1152576">
                <g id="Grupo_1148633" data-name="Grupo 1148633">
                  <g id="Grupo_1148525" data-name="Grupo 1148525">
                    <g transform="matrix(1, 0, 0, 1, -9, -6)" filter="url(#Trazado_982547)">
                      <g id="Trazado_982547-2" data-name="Trazado 982547" transform="translate(9 6)" fill="#e9f9fd">
                        <path d="M 47.5 93.5 C 41.28937149047852 93.5 35.26533508300781 92.28397369384766 29.59518623352051 89.88570404052734 C 24.11771965026855 87.56893157958984 19.19813346862793 84.25196075439453 14.97309303283691 80.02691650390625 C 10.74804019927979 75.80186462402344 7.431066513061523 70.88229370117188 5.114293098449707 65.40481567382812 C 2.716026782989502 59.73468017578125 1.5 53.71062850952148 1.5 47.5 C 1.5 41.28937149047852 2.716026782989502 35.26533508300781 5.114293098449707 29.59518623352051 C 7.431066513061523 24.11771965026855 10.74804019927979 19.19813346862793 14.97309303283691 14.97309303283691 C 19.19813346862793 10.74804019927979 24.11771965026855 7.431066513061523 29.59518623352051 5.114293098449707 C 35.26533508300781 2.716026782989502 41.28937149047852 1.5 47.5 1.5 C 53.71062850952148 1.5 59.73468017578125 2.716026782989502 65.40481567382812 5.114293098449707 C 70.88229370117188 7.431066513061523 75.80186462402344 10.74804019927979 80.02691650390625 14.97309303283691 C 84.25196075439453 19.19813346862793 87.56893157958984 24.11771965026855 89.88570404052734 29.59518623352051 C 92.28397369384766 35.26533508300781 93.5 41.28937149047852 93.5 47.5 C 93.5 53.71062850952148 92.28397369384766 59.73468017578125 89.88570404052734 65.40481567382812 C 87.56893157958984 70.88229370117188 84.25196075439453 75.80186462402344 80.02691650390625 80.02691650390625 C 75.80186462402344 84.25196075439453 70.88229370117188 87.56893157958984 65.40481567382812 89.88570404052734 C 59.73468017578125 92.28397369384766 53.71062850952148 93.5 47.5 93.5 Z" stroke="none"/>
                        <path d="M 47.5 3 C 41.49121475219727 3 35.66376876831055 4.176155090332031 30.17950439453125 6.495796203613281 C 24.88084411621094 8.736953735351562 20.12152099609375 11.94598388671875 16.03375244140625 16.03375244140625 C 11.94598388671875 20.12152099609375 8.736953735351562 24.88084411621094 6.495796203613281 30.17950439453125 C 4.176155090332031 35.66376876831055 3 41.49121475219727 3 47.5 C 3 53.50878524780273 4.176155090332031 59.33623123168945 6.495796203613281 64.82049560546875 C 8.736953735351562 70.11915588378906 11.94598388671875 74.87847900390625 16.03375244140625 78.96624755859375 C 20.12152099609375 83.05401611328125 24.88084411621094 86.26304626464844 30.17950439453125 88.50419616699219 C 35.66376876831055 90.82384490966797 41.49121475219727 92 47.5 92 C 53.50878524780273 92 59.33623123168945 90.82384490966797 64.82049560546875 88.50419616699219 C 70.11915588378906 86.26304626464844 74.87847900390625 83.05401611328125 78.96624755859375 78.96624755859375 C 83.05401611328125 74.87847900390625 86.26304626464844 70.11915588378906 88.50419616699219 64.82049560546875 C 90.82384490966797 59.33623123168945 92 53.50878524780273 92 47.5 C 92 41.49121475219727 90.82384490966797 35.66376876831055 88.50419616699219 30.17950439453125 C 86.26304626464844 24.88084411621094 83.05401611328125 20.12152099609375 78.96624755859375 16.03375244140625 C 74.87847900390625 11.94598388671875 70.11915588378906 8.736953735351562 64.82049560546875 6.495796203613281 C 59.33623123168945 4.176155090332031 53.50878524780273 3 47.5 3 M 47.5 0 C 73.7335205078125 0 95 21.2664794921875 95 47.5 C 95 73.7335205078125 73.7335205078125 95 47.5 95 C 21.2664794921875 95 0 73.7335205078125 0 47.5 C 0 21.2664794921875 21.2664794921875 0 47.5 0 Z" stroke="none" fill="#1d7083"/>
                      </g>
                    </g>
                  </g>
                </g>
              </g>
            </g>
          </g>
        </g>
      </g>
    </g>
    <g id="puzzle_470243" transform="translate(195.239 3001.761)">
      <path id="Trazado_1027116" data-name="Trazado 1027116" d="M105.908,348.65V346.1a2.922,2.922,0,0,0-2.922-2.922h0v9.6a3.913,3.913,0,0,0,1.258,2.875l1.04.96v2.572h10.731v-2.572l1.163-1.436a5.431,5.431,0,0,0,1.21-3.417v-3.089Z" transform="translate(-89.822 -299.296)" fill="#ffc89f"/>
      <path id="Trazado_1027117" data-name="Trazado 1027117" d="M105.908,348.65V346.1a2.922,2.922,0,0,0-2.922-2.922v2.551a2.922,2.922,0,0,1,2.922,2.922h0a2.554,2.554,0,0,0,2.55,2.554l9.93.013v-2.551Z" transform="translate(-89.822 -299.296)" fill="#f7b081"/>
      <path id="Trazado_1027118" data-name="Trazado 1027118" d="M356.628,290.846l-1.436-1.163a5.431,5.431,0,0,0-3.417-1.21h-3.089v12.48h-2.567a2.922,2.922,0,0,0-2.922,2.922h9.6a3.913,3.913,0,0,0,2.875-1.258l.96-1.04H359.2V290.846Z" transform="translate(-299.329 -251.583)" fill="#ffc89f"/>
      <g id="Grupo_1172707" data-name="Grupo 1172707" transform="translate(43.868 36.89)">
        <path id="Trazado_1027119" data-name="Trazado 1027119" d="M348.67,386.112h-2.551a2.922,2.922,0,0,0-2.922,2.922h2.551A2.922,2.922,0,0,1,348.67,386.112Z" transform="translate(-343.197 -373.632)" fill="#f7b081"/>
        <path id="Trazado_1027120" data-name="Trazado 1027120" d="M388.686,288.473h-2.551v12.48h0a2.551,2.551,0,0,0,2.551-2.551Z" transform="translate(-380.647 -288.473)" fill="#f7b081"/>
      </g>
      <rect id="Rectángulo_414464" data-name="Rectángulo 414464" width="12.668" height="4.617" transform="translate(14.396 59.885)" fill="#efe7e4"/>
      <rect id="Rectángulo_414465" data-name="Rectángulo 414465" width="2.551" height="4.617" transform="translate(24.513 59.885)" fill="#d8d1d0"/>
      <path id="Trazado_1027121" data-name="Trazado 1027121" d="M473.011,309.75v3.145h-4.617V300.227h4.617v9.523Z" transform="translate(-408.523 -261.835)" fill="#efe7e4"/>
      <rect id="Rectángulo_414466" data-name="Rectángulo 414466" width="4.617" height="2.551" transform="translate(59.871 48.509)" fill="#d8d1d0"/>
      <path id="Trazado_1027122" data-name="Trazado 1027122" d="M125.9,272.58h16.629v-6.652a2.943,2.943,0,1,0,0-3.316V255.96H135.9a2.943,2.943,0,1,1-3.384,0H125.9Z" transform="translate(-109.806 -223.226)" fill="#68b9d8"/>
      <path id="Trazado_1027123" data-name="Trazado 1027123" d="M255.995,225.908a2.943,2.943,0,1,1,0,3.384v6.618h16.629V219.29h-6.652a2.943,2.943,0,1,0-3.316,0H256v6.618Z" transform="translate(-223.273 -186.556)" fill="#f2464f"/>
      <rect id="Rectángulo_414467" data-name="Rectángulo 414467" width="2.551" height="16.62" transform="translate(46.799 32.734)" fill="#d3333c"/>
      <path id="Trazado_1027124" data-name="Trazado 1027124" d="M226.011,142.549a2.943,2.943,0,1,1,3.384,0h6.618V125.928H219.384v6.652a2.943,2.943,0,1,0,0,3.316v6.652Z" transform="translate(-186.663 -109.815)" fill="#f7cb4f"/>
      <rect id="Rectángulo_414468" data-name="Rectángulo 414468" width="2.551" height="16.62" transform="translate(46.799 16.113)" fill="#ffae47"/>
      <path id="Trazado_1027125" data-name="Trazado 1027125" d="M142.528,135.931a2.943,2.943,0,1,1,0-3.384v-6.618H125.9v16.621h6.652a2.943,2.943,0,1,0,3.316,0h6.661v-6.618Z" transform="translate(-109.806 -109.815)" fill="#546f7a"/>
      <rect id="Rectángulo_414469" data-name="Rectángulo 414469" width="4.617" height="12.668" transform="translate(0.957 14.417)" fill="#efe7e4"/>
      <rect id="Rectángulo_414470" data-name="Rectángulo 414470" width="4.617" height="2.551" transform="translate(0.957 24.534)" fill="#d8d1d0"/>
      <path id="Trazado_1027126" data-name="Trazado 1027126" d="M50.013,103.031a3.913,3.913,0,0,0-2.875,1.258l-.96,1.04H43.606V116.06h2.572l1.436,1.163a5.431,5.431,0,0,0,3.417,1.21h3.089v-12.48l0,0v0h2.569a2.922,2.922,0,0,0,2.922-2.922Z" transform="translate(-38.032 -89.845)" fill="#ffc89f"/>
      <g id="Grupo_1172708" data-name="Grupo 1172708" transform="translate(13.537 13.186)">
        <path id="Trazado_1027127" data-name="Trazado 1027127" d="M108.455,125.894l0,0v0c-1.409.01-2.549,3.367-2.549,4.779v7.7h2.551v-12.48Z" transform="translate(-105.904 -122.972)" fill="#f7b081"/>
        <path id="Trazado_1027128" data-name="Trazado 1027128" d="M128.908,103.031a2.922,2.922,0,0,1-2.922,2.922h2.551a2.922,2.922,0,0,0,2.922-2.922Z" transform="translate(-123.419 -103.031)" fill="#f7b081"/>
      </g>
      <rect id="Rectángulo_414471" data-name="Rectángulo 414471" width="12.668" height="4.617" transform="translate(38.389 0.976)" fill="#efe7e4"/>
      <rect id="Rectángulo_414472" data-name="Rectángulo 414472" width="2.551" height="4.617" transform="translate(48.506 0.976)" fill="#d8d1d0"/>
      <path id="Trazado_1027129" data-name="Trazado 1027129" d="M303.981,50.032a3.913,3.913,0,0,0-1.258-2.875l-1.04-.96V43.625H290.952V46.2l-1.163,1.436a5.431,5.431,0,0,0-1.21,3.417V54.14h12.48l0,0h0v2.569a2.922,2.922,0,0,0,2.922,2.922v-9.6Z" transform="translate(-251.692 -38.032)" fill="#ffc89f"/>
      <g id="Grupo_1172709" data-name="Grupo 1172709" transform="translate(36.887 13.556)">
        <path id="Trazado_1027130" data-name="Trazado 1027130" d="M301.061,108.474l0,0h0c-.01-1.409-3.367-2.549-4.778-2.549h-7.7v2.551h12.48Z" transform="translate(-288.581 -105.923)" fill="#f7b081"/>
        <path id="Trazado_1027131" data-name="Trazado 1027131" d="M389.141,128.927a2.922,2.922,0,0,1-2.922-2.922v2.551a2.922,2.922,0,0,0,2.922,2.922v-2.551Z" transform="translate(-373.739 -123.438)" fill="#f7b081"/>
      </g>
      <path id="Trazado_1027132" data-name="Trazado 1027132" d="M64.488,45.683a.957.957,0,0,0,.957-.957V38.392a.957.957,0,0,0-.957-.957H59.871a.956.956,0,0,0-.952.87H57.638l-1.173-.95a6.409,6.409,0,0,0-4.019-1.423H50.308v-7.84a.957.957,0,0,0-1.913,0v3.684H44.659a3.889,3.889,0,0,0,.281-1.45s0-.008,0-.012,0-.008,0-.012a3.9,3.9,0,1,0-7.8,0s0,.008,0,.012,0,.008,0,.012a3.889,3.889,0,0,0,.281,1.45H33.679v-5.7a.957.957,0,0,0-1.746-.54,1.986,1.986,0,1,1,0-2.237.957.957,0,0,0,1.746-.54v-5.7H48.394V24.9a.957.957,0,1,0,1.913,0v-2.9a3.854,3.854,0,0,0,1.981.546.957.957,0,0,0,.957-.957V12A4.884,4.884,0,0,0,51.68,8.422l-.732-.676v-1.2h.109a.957.957,0,0,0,.957-.957V.976a.957.957,0,0,0-.957-.957H38.39a.957.957,0,0,0-.957.957V5.593a.956.956,0,0,0,.87.952V7.826L37.353,9a6.408,6.408,0,0,0-1.423,4.019v2.138H21.994a3.853,3.853,0,0,0,.539-1.97.957.957,0,0,0-.957-.957h-9.6A4.884,4.884,0,0,0,8.4,13.8l-.676.732H6.53v-.109a.957.957,0,0,0-.957-.957H.957A.957.957,0,0,0,0,14.418v2.847a.957.957,0,0,0,1.913,0v-1.89h2.7V26.129h-2.7V20.454a.957.957,0,1,0-1.913,0v6.632a.957.957,0,0,0,.957.957H5.574a.956.956,0,0,0,.952-.87H7.807l1.173.95A6.408,6.408,0,0,0,13,29.545h2.136v7.721a.957.957,0,0,0,1.913,0V33.69h3.735a3.891,3.891,0,0,0-.281,1.45s0,.008,0,.012,0,.008,0,.012a3.9,3.9,0,1,0,7.8,0s0-.008,0-.012,0-.008,0-.012a3.891,3.891,0,0,0-.281-1.45h3.743v5.7a.957.957,0,0,0,1.747.54,1.986,1.986,0,1,1,0,2.237.957.957,0,0,0-1.747.54v5.7H17.049V40.456a.957.957,0,1,0-1.913,0v3.01a3.852,3.852,0,0,0-1.972-.541.957.957,0,0,0-.957.957v9.6a4.884,4.884,0,0,0,1.566,3.578l.732.676v1.2H14.4a.957.957,0,0,0-.957.957V64.5a.957.957,0,0,0,.957.957H27.063a.957.957,0,0,0,.957-.957V59.885a.956.956,0,0,0-.87-.952V57.652l.95-1.173a6.408,6.408,0,0,0,1.423-4.019V50.311H43.457a3.854,3.854,0,0,0-.546,1.981.957.957,0,0,0,.957.957h9.6a4.884,4.884,0,0,0,3.578-1.566l.676-.732h1.2v.109a.957.957,0,0,0,.957.957h4.617a.957.957,0,0,0,.957-.957V47.916a.957.957,0,1,0-1.913,0V50.1h-2.7V39.349h2.7v5.377A.957.957,0,0,0,64.488,45.683ZM39.346,1.932H50.1v2.7H39.346v-2.7Zm-1.5,11.086a4.488,4.488,0,0,1,1-2.815L40,8.767a.956.956,0,0,0,.213-.6V6.549h8.818V8.165a.957.957,0,0,0,.308.7l1.039.96A2.965,2.965,0,0,1,51.332,12v8.39a1.967,1.967,0,0,1-1.008-1.716V15.425a.958.958,0,0,0-.852-.951,10.752,10.752,0,0,1-2.93-.838c-1.718-.8-2.589-1.924-2.589-3.35a.957.957,0,1,0-1.913,0A5.394,5.394,0,0,0,45.29,15.15H37.844V13.018h0ZM13,27.631a4.487,4.487,0,0,1-2.815-1L8.748,25.472a.957.957,0,0,0-.6-.213H6.53V16.44H8.146a.956.956,0,0,0,.7-.308l.96-1.039a2.965,2.965,0,0,1,2.172-.951h8.39a1.967,1.967,0,0,1-1.716,1.008H15.407a.958.958,0,0,0-.951.852,10.752,10.752,0,0,1-.838,2.93c-.8,1.718-1.924,2.589-3.35,2.589a.957.957,0,0,0,0,1.913,5.394,5.394,0,0,0,4.864-3.25v7.446Zm13.1,4.145h-.034a.957.957,0,0,0-.54,1.747,1.986,1.986,0,1,1-2.237,0,.957.957,0,0,0-.54-1.747h-5.7V17.07H31.765v3.736a3.918,3.918,0,0,0-1.459-.282H30.3a3.9,3.9,0,0,0,0,7.8h.007a3.913,3.913,0,0,0,1.459-.282v3.736H26.1Zm.012,31.769H15.352v-2.7H26.106v2.7Zm1.5-11.086a4.488,4.488,0,0,1-1,2.815L25.45,56.711a.956.956,0,0,0-.213.6v1.615H16.418V57.313a.957.957,0,0,0-.308-.7l-1.04-.96a2.965,2.965,0,0,1-.951-2.172v-8.39A1.967,1.967,0,0,1,15.128,46.8v3.248a.958.958,0,0,0,.852.951,10.752,10.752,0,0,1,2.93.838c1.718.8,2.589,1.924,2.589,3.35a.957.957,0,0,0,1.913,0,5.394,5.394,0,0,0-3.25-4.864h7.446v2.132Zm6.069-7.8a3.917,3.917,0,0,0,1.459.282h.007a3.9,3.9,0,1,0,0-7.8h-.007a3.912,3.912,0,0,0-1.459.282V33.691h5.7a.957.957,0,0,0,.54-1.747,1.986,1.986,0,1,1,2.237,0,.957.957,0,0,0,.54,1.747h5.7V48.4H33.679V44.662ZM57.3,49.037a.956.956,0,0,0-.7.308l-.96,1.039a2.965,2.965,0,0,1-2.172.951h-8.39a1.967,1.967,0,0,1,1.716-1.008h3.248a.958.958,0,0,0,.951-.852,10.746,10.746,0,0,1,.838-2.93c.8-1.718,1.924-2.589,3.35-2.589a.957.957,0,1,0,0-1.913,5.394,5.394,0,0,0-4.864,3.251V37.846h2.132a4.488,4.488,0,0,1,2.815,1L56.7,40.006a.957.957,0,0,0,.6.213h1.615v8.818H57.3Z" transform="translate(0 0)"/>
    </g>
  </g>
</svg>
