<svg xmlns="http://www.w3.org/2000/svg" xmlns:xlink="http://www.w3.org/1999/xlink" width="113" height="113" viewBox="0 0 113 113">
  <defs>
    <filter id="Trazado_982547" x="0" y="0" width="113" height="113" filterUnits="userSpaceOnUse">
      <feOffset dy="3" input="SourceAlpha"/>
      <feGaussianBlur stdDeviation="3" result="blur"/>
      <feFlood flood-opacity="0.161"/>
      <feComposite operator="in" in2="blur"/>
      <feComposite in="SourceGraphic"/>
    </filter>
    <clipPath id="clip-path">
      <path id="path6177" d="M0-682.665H57v57H0Z" transform="translate(0 682.665)"/>
    </clipPath>
  </defs>
  <g id="Grupo_1172803" data-name="Grupo 1172803" transform="translate(-189.17 -5282.832)">
    <g id="Grupo_1172067" data-name="Grupo 1172067" transform="translate(-6.475 3810.832)">
      <g id="Grupo_1164308" data-name="Grupo 1164308" transform="translate(204.645 1478)">
        <g id="Grupo_1163948" data-name="Grupo 1163948" transform="translate(0)">
          <g id="Grupo_1158168" data-name="Grupo 1158168" transform="translate(0)">
            <g id="Grupo_1152576" data-name="Grupo 1152576">
              <g id="Grupo_1148633" data-name="Grupo 1148633">
                <g id="Grupo_1148525" data-name="Grupo 1148525">
                  <g transform="matrix(1, 0, 0, 1, -9, -6)" filter="url(#Trazado_982547)">
                    <g id="Trazado_982547-2" data-name="Trazado 982547" transform="translate(9 6)" fill="#e9f9fd">
                      <path d="M 47.5 93.5 C 41.28937149047852 93.5 35.26533508300781 92.28397369384766 29.59518623352051 89.88570404052734 C 24.11771965026855 87.56893157958984 19.19813346862793 84.25196075439453 14.97309303283691 80.02691650390625 C 10.74804019927979 75.80186462402344 7.431066513061523 70.88229370117188 5.114293098449707 65.40481567382812 C 2.716026782989502 59.73468017578125 1.5 53.71062850952148 1.5 47.5 C 1.5 41.28937149047852 2.716026782989502 35.26533508300781 5.114293098449707 29.59518623352051 C 7.431066513061523 24.11771965026855 10.74804019927979 19.19813346862793 14.97309303283691 14.97309303283691 C 19.19813346862793 10.74804019927979 24.11771965026855 7.431066513061523 29.59518623352051 5.114293098449707 C 35.26533508300781 2.716026782989502 41.28937149047852 1.5 47.5 1.5 C 53.71062850952148 1.5 59.73468017578125 2.716026782989502 65.40481567382812 5.114293098449707 C 70.88229370117188 7.431066513061523 75.80186462402344 10.74804019927979 80.02691650390625 14.97309303283691 C 84.25196075439453 19.19813346862793 87.56893157958984 24.11771965026855 89.88570404052734 29.59518623352051 C 92.28397369384766 35.26533508300781 93.5 41.28937149047852 93.5 47.5 C 93.5 53.71062850952148 92.28397369384766 59.73468017578125 89.88570404052734 65.40481567382812 C 87.56893157958984 70.88229370117188 84.25196075439453 75.80186462402344 80.02691650390625 80.02691650390625 C 75.80186462402344 84.25196075439453 70.88229370117188 87.56893157958984 65.40481567382812 89.88570404052734 C 59.73468017578125 92.28397369384766 53.71062850952148 93.5 47.5 93.5 Z" stroke="none"/>
                      <path d="M 47.5 3 C 41.49121475219727 3 35.66376876831055 4.176155090332031 30.17950439453125 6.495796203613281 C 24.88084411621094 8.736953735351562 20.12152099609375 11.94598388671875 16.03375244140625 16.03375244140625 C 11.94598388671875 20.12152099609375 8.736953735351562 24.88084411621094 6.495796203613281 30.17950439453125 C 4.176155090332031 35.66376876831055 3 41.49121475219727 3 47.5 C 3 53.50878524780273 4.176155090332031 59.33623123168945 6.495796203613281 64.82049560546875 C 8.736953735351562 70.11915588378906 11.94598388671875 74.87847900390625 16.03375244140625 78.96624755859375 C 20.12152099609375 83.05401611328125 24.88084411621094 86.26304626464844 30.17950439453125 88.50419616699219 C 35.66376876831055 90.82384490966797 41.49121475219727 92 47.5 92 C 53.50878524780273 92 59.33623123168945 90.82384490966797 64.82049560546875 88.50419616699219 C 70.11915588378906 86.26304626464844 74.87847900390625 83.05401611328125 78.96624755859375 78.96624755859375 C 83.05401611328125 74.87847900390625 86.26304626464844 70.11915588378906 88.50419616699219 64.82049560546875 C 90.82384490966797 59.33623123168945 92 53.50878524780273 92 47.5 C 92 41.49121475219727 90.82384490966797 35.66376876831055 88.50419616699219 30.17950439453125 C 86.26304626464844 24.88084411621094 83.05401611328125 20.12152099609375 78.96624755859375 16.03375244140625 C 74.87847900390625 11.94598388671875 70.11915588378906 8.736953735351562 64.82049560546875 6.495796203613281 C 59.33623123168945 4.176155090332031 53.50878524780273 3 47.5 3 M 47.5 0 C 73.7335205078125 0 95 21.2664794921875 95 47.5 C 95 73.7335205078125 73.7335205078125 95 47.5 95 C 21.2664794921875 95 0 73.7335205078125 0 47.5 C 0 21.2664794921875 21.2664794921875 0 47.5 0 Z" stroke="none" fill="#36ceef"/>
                    </g>
                  </g>
                </g>
              </g>
            </g>
          </g>
        </g>
      </g>
    </g>
    <g id="g6171" transform="translate(213.857 5990.997)">
      <g id="g6173" transform="translate(0 -682.665)">
        <g id="g6175" clip-path="url(#clip-path)">
          <g id="g6181" transform="translate(13.309 11.237)">
            <path id="path6183" d="M-88.1-83.082c-.674.674-3.595,2.855-4.545,2.855-1.923,0-3.481-2.334-3.481-5.213s1.559-5.211,3.481-5.211c1.564,0,2.887,1.545,3.326,3.67a.094.094,0,0,0,.133.065c.923-.445,1.788-.485,2.257-.016.739.739.215,2.463-1.172,3.85" transform="translate(96.121 90.652)" fill="#ffcebf"/>
          </g>
          <g id="g6185" transform="translate(15.064 11.237)">
            <path id="path6187" d="M-81.7-40.826c-.469-.469-1.334-.429-2.257.016a.094.094,0,0,1-.134-.066c-.439-2.125-1.762-3.669-3.326-3.669a2.622,2.622,0,0,0-1.67.638,4.46,4.46,0,0,1,1.142,1.5,2.233,2.233,0,0,0,2,1.245,1.255,1.255,0,0,1,.9.335c.739.739.215,2.463-1.172,3.85a19.811,19.811,0,0,1-2.931,2.168,2.644,2.644,0,0,0,1.727.687c.95,0,3.871-2.181,4.545-2.855,1.387-1.387,1.912-3.111,1.172-3.85" transform="translate(89.145 44.545)" fill="#ffb09e"/>
          </g>
          <g id="g6189" transform="translate(13.184 20.454)">
            <path id="path6191" d="M-471.785-312.682v6.112a1.113,1.113,0,0,1-1.113,1.113h-31.173a1.113,1.113,0,0,1-1.113-1.113v-3.877a3.366,3.366,0,0,0-1.283-2.641c-3.179-2.511-10.917-10.572-7.4-27.611a.592.592,0,0,1,.586-.471l3.958.039a.593.593,0,0,1,.586.618c-.42,10.717,4.857,15.581,7.116,17.163a3.412,3.412,0,0,0,1.958.614h17.829a10.053,10.053,0,0,1,10.053,10.053" transform="translate(514.768 341.169)" fill="#5f99d7"/>
          </g>
          <g id="g6193" transform="translate(14.472 20.454)">
            <path id="path6195" d="M-8.912-.432a.593.593,0,0,1,.586.618C-8.746,10.9-3.469,15.767-1.209,17.349a3.412,3.412,0,0,0,1.958.614h3.34a3.412,3.412,0,0,1-1.958-.614C-.129,15.767-5.406,10.9-4.986.186a.593.593,0,0,0-.586-.618L-9.53-.471a.6.6,0,0,0-.194.031Z" transform="translate(9.724 0.471)" fill="#3c87d0"/>
          </g>
          <g id="g6197" transform="translate(42.774 38.888)">
            <path id="path6199" d="M-36.66,0H-40A10.053,10.053,0,0,1-29.947,10.053v6.112a1.113,1.113,0,0,1-1.113,1.113h3.34a1.113,1.113,0,0,0,1.113-1.113V10.053A10.053,10.053,0,0,0-36.66,0" transform="translate(40)" fill="#3c87d0"/>
          </g>
          <g id="g6201" transform="translate(33.618 42.831)">
            <path id="path6203" d="M-64.2,0l6.175,1.924-3.619,11.412h-5.2L-70.05,1.89Z" transform="translate(70.05)" fill="#b3ceec"/>
          </g>
          <path id="path6205" d="M439.345-288.935h-6.68V-299.8h6.68Z" transform="translate(-396.538 331.766)" fill="#ffcebf"/>
          <path id="path6207" d="M472.666-288.935h3.34V-299.8h-3.34Z" transform="translate(-433.198 331.766)" fill="#ffb09e"/>
          <g id="g6209" transform="translate(32.326 36.27)">
            <path id="path6211" d="M-41.723,0a8.727,8.727,0,0,0,3.34,6.561s-2.081,2.324-4.186,1.585c-1.668-.585-2.612-3.7-2.931-4.962a.782.782,0,0,1,.32-.839Z" transform="translate(45.524)" fill="#e5eef9"/>
          </g>
          <g id="g6213" transform="translate(39.467 36.27)">
            <path id="path6215" d="M-36.66,0A8.727,8.727,0,0,1-40,6.561s2.081,2.324,4.186,1.585c1.668-.585,2.612-3.7,2.932-4.962a.783.783,0,0,0-.32-.839Z" transform="translate(40)" fill="#e5eef9"/>
          </g>
          <g id="g6217" transform="translate(23.983 16.449)">
            <path id="path6219" d="M-68.406-48.409c0,2.436-1.49,4.41-3.327,4.41s-2.9-2.268-2.9-4.7,1.067-4.117,2.9-4.117,3.327,1.975,3.327,4.41" transform="translate(74.638 52.82)" fill="#ffb09e"/>
          </g>
          <g id="g6221" transform="translate(48.72 16.449)">
            <path id="path6223" d="M0-48.409C0-45.974,1.49-44,3.327-44s2.9-2.268,2.9-4.7-1.067-4.117-2.9-4.117S0-50.845,0-48.409" transform="translate(0 52.82)" fill="#ffb09e"/>
          </g>
          <g id="g6225" transform="translate(28.729 5.327)">
            <path id="path6227" d="M0-198.071v-7.307a10.739,10.739,0,0,1,10.738-10.739,10.739,10.739,0,0,1,10.739,10.739v7.267a10.759,10.759,0,0,1-10.759,10.759A10.718,10.718,0,0,1,0-198.071" transform="translate(0 216.117)" fill="#ffcebf"/>
          </g>
          <g id="g6229" transform="translate(37.779 5.327)">
            <path id="path6231" d="M-18.533,0h0A10.809,10.809,0,0,0-20.2.129a10.741,10.741,0,0,1,9.069,10.609v7.267a10.761,10.761,0,0,1-9.087,10.629,10.8,10.8,0,0,0,1.668.129A10.759,10.759,0,0,0-7.794,18.005V10.739A10.739,10.739,0,0,0-18.533,0" transform="translate(20.221)" fill="#ffb09e"/>
          </g>
          <g id="g6233" transform="translate(27.125 0.835)">
            <path id="path6235" d="M-259.339-192.6a13,13,0,0,0-.547,2.68s-2.477-1.845-2.4-2.546c.118-1.121.767-8.008-2.065-7.359s-4,1.121-6.365,1.121-3.533-.472-6.365-1.121-2.182,6.238-2.065,7.359c.074.7-2.213,2.539-2.213,2.539a18.8,18.8,0,0,0-.736-2.673c-.29-.623-3.438-10.221,4.392-13.717a14.073,14.073,0,0,0,3.434-2.189,8.36,8.36,0,0,1,5.318-1.641c3.54,0,6.409,1.663,6.409,3.716v.005a1.011,1.011,0,0,0,.452.856c5.949,3.881,3.156,12.106,2.754,12.969" transform="translate(282.966 210.146)" fill="#9b5e5e"/>
          </g>
          <g id="g6237" transform="translate(39.468 0.835)">
            <path id="path6239" d="M-93.632-50.244a1.011,1.011,0,0,1-.452-.856V-51.1c0-2.053-2.869-3.716-6.409-3.716a10.839,10.839,0,0,0-1.669.128c2.73.426,4.738,1.87,4.738,3.588v.005a1.011,1.011,0,0,0,.452.856c4.593,3,3.975,8.58,3.27,11.368-.033.8-.1,1.452-.126,1.735-.073.7,2.4,2.546,2.4,2.546a13,13,0,0,1,.547-2.68c.4-.863,3.195-9.089-2.754-12.969" transform="translate(102.162 54.821)" fill="#855151"/>
          </g>
          <g id="g6241" transform="translate(28.004 38.178)">
            <path id="path6243" d="M-58.289,0l4.033,17.989h-2.5l-4.189-5.5a.445.445,0,0,1-.089-.313l.394-4.029a.446.446,0,0,0-.177-.4l-2.6-1.933a.445.445,0,0,1-.166-.467l1.006-3.962a.445.445,0,0,1,.317-.32Z" transform="translate(63.599)" fill="#0078c8"/>
          </g>
          <g id="g6245" transform="translate(41.587 38.17)">
            <path id="path6247" d="M-44.134,0l-4.021,18h2.5l4.189-5.5a.446.446,0,0,0,.089-.313l-.394-4.029a.446.446,0,0,1,.177-.4l2.6-1.933a.445.445,0,0,0,.166-.467l-1.006-3.962a.445.445,0,0,0-.316-.32Z" transform="translate(48.155)" fill="#0078c8"/>
          </g>
          <g id="g6249" transform="translate(0.835 0.835)">
            <path id="path6251" d="M-84.76-10.146l.575,1.167a1.956,1.956,0,0,0,1.473,1.071l1.285.187a1.659,1.659,0,0,1,.918,2.829l-.93.908A1.961,1.961,0,0,0-82-2.25l.22,1.282A1.656,1.656,0,0,1-84.185.78l-1.15-.605a1.954,1.954,0,0,0-1.82,0L-88.3.78a1.656,1.656,0,0,1-2.4-1.748l.22-1.282a1.961,1.961,0,0,0-.563-1.734l-.93-.908a1.659,1.659,0,0,1,.918-2.829l1.285-.187A1.956,1.956,0,0,0-88.3-8.979l.575-1.167a1.655,1.655,0,0,1,2.97,0" transform="translate(92.482 11.07)" fill="#ffc344"/>
          </g>
          <g id="g6253" transform="translate(4.982 0.835)">
            <path id="path6255" d="M-75.826-36.765l-1.285-.187a1.956,1.956,0,0,1-1.473-1.072l-.575-1.166a1.655,1.655,0,0,0-2.97,0l-.575,1.166c-.01.02-.02.039-.031.058.008.014.016.028.023.043l.575,1.167a1.957,1.957,0,0,0,1.473,1.072l1.285.187a1.659,1.659,0,0,1,.918,2.829l-.93.908a1.961,1.961,0,0,0-.562,1.734l.2,1.146.023.011,1.15.605a1.656,1.656,0,0,0,2.4-1.748l-.22-1.282a1.96,1.96,0,0,1,.563-1.734l.93-.908a1.659,1.659,0,0,0-.918-2.829" transform="translate(82.734 40.115)" fill="#feb237"/>
          </g>
          <g id="g6257" transform="translate(13.309 11.237)">
            <path id="path6259" d="M-13.2-100.457a6.532,6.532,0,0,1-1.2-3.941c0-2.878,1.559-5.211,3.481-5.211,1.564,0,2.887,1.545,3.326,3.67a.094.094,0,0,0,.133.065c.923-.445,1.788-.485,2.257-.016.739.739.215,2.463-1.172,3.85A18.5,18.5,0,0,1-8.64-100.3" transform="translate(14.403 109.609)" fill="none" stroke="#000" stroke-linecap="round" stroke-linejoin="round" stroke-miterlimit="10" stroke-width="1.5"/>
          </g>
          <g id="g6261" transform="translate(13.184 20.454)">
            <path id="path6263" d="M-18.931-206.529c-1.657-4.39-2.47-10.389-.829-18.345a.592.592,0,0,1,.586-.471l3.958.039a.594.594,0,0,1,.586.618c-.42,10.716,4.857,15.581,7.116,17.163a3.412,3.412,0,0,0,1.958.614h2.347" transform="translate(20.656 225.345)" fill="none" stroke="#000" stroke-linecap="round" stroke-linejoin="round" stroke-miterlimit="10" stroke-width="1.5"/>
          </g>
          <g id="g6265" transform="translate(16.579 39.655)">
            <path id="path6267" d="M-366.531,0a10.056,10.056,0,0,1,6.195,9.286V15.4a1.113,1.113,0,0,1-1.113,1.113h-31.173a1.113,1.113,0,0,1-1.113-1.113V11.521a3.366,3.366,0,0,0-1.283-2.641,20.481,20.481,0,0,1-4.905-5.748" transform="translate(399.924)" fill="none" stroke="#000" stroke-linecap="round" stroke-linejoin="round" stroke-miterlimit="10" stroke-width="1.5"/>
          </g>
          <g id="g6269" transform="translate(36.127 33.723)">
            <path id="path6271" d="M0-27.957V-30.5" transform="translate(0 30.504)" fill="none" stroke="#000" stroke-linecap="round" stroke-linejoin="round" stroke-miterlimit="10" stroke-width="1.5"/>
          </g>
          <g id="g6273" transform="translate(42.807 33.755)">
            <path id="path6275" d="M0,0V2.516" fill="none" stroke="#000" stroke-linecap="round" stroke-linejoin="round" stroke-miterlimit="10" stroke-width="1.5"/>
          </g>
          <g id="g6277" transform="translate(33.314 36.27)">
            <path id="path6279" d="M0-20.936l2.813-1.907a8.726,8.726,0,0,0,3.34,6.561S4.072-13.96,1.967-14.7a2.119,2.119,0,0,1-.592-.329" transform="translate(0 22.844)" fill="none" stroke="#000" stroke-linecap="round" stroke-linejoin="round" stroke-miterlimit="10" stroke-width="1.5"/>
          </g>
          <g id="g6281" transform="translate(39.467 36.27)">
            <path id="path6283" d="M-67.4-20.847l-2.8-1.9a8.726,8.726,0,0,1-3.34,6.561s2.081,2.324,4.186,1.585a2.121,2.121,0,0,0,.592-.329" transform="translate(73.544 22.747)" fill="none" stroke="#000" stroke-linecap="round" stroke-linejoin="round" stroke-miterlimit="10" stroke-width="1.5"/>
          </g>
          <g id="g6285" transform="translate(23.983 16.449)">
            <path id="path6287" d="M-38.224-.733A2.506,2.506,0,0,0-38.8-.8c-1.838,0-2.9,1.681-2.9,4.117s1.067,4.7,2.9,4.7a2.792,2.792,0,0,0,1.9-.788" transform="translate(41.707 0.8)" fill="none" stroke="#000" stroke-linecap="round" stroke-linejoin="round" stroke-miterlimit="10" stroke-width="1.5"/>
          </g>
          <g id="g6289" transform="translate(50.144 16.449)">
            <path id="path6291" d="M-12.964-1.136a2.573,2.573,0,0,1,.721-.1c1.838,0,2.9,1.681,2.9,4.117s-1.067,4.7-2.9,4.7a2.792,2.792,0,0,1-1.9-.793" transform="translate(14.145 1.24)" fill="none" stroke="#000" stroke-linecap="round" stroke-linejoin="round" stroke-miterlimit="10" stroke-width="1.5"/>
          </g>
          <g id="g6293" transform="translate(28.729 21.055)">
            <path id="path6295" d="M-235.723-.073V2.2a10.758,10.758,0,0,1-10.758,10.759,10.68,10.68,0,0,1-7.578-3.14,10.68,10.68,0,0,1-3.14-7.578V-.08" transform="translate(257.199 0.08)" fill="none" stroke="#000" stroke-linecap="round" stroke-linejoin="round" stroke-miterlimit="10" stroke-width="1.5"/>
          </g>
          <g id="g6297" transform="translate(27.125 0.835)">
            <path id="path6299" d="M-266.68-102.925a14.4,14.4,0,0,1-.669,8.17,13,13,0,0,0-.547,2.68s-2.477-1.845-2.4-2.546c.118-1.121.767-8.008-2.065-7.359s-4,1.121-6.365,1.121-3.533-.472-6.365-1.121-2.182,6.238-2.065,7.359c.075.7-2.213,2.539-2.213,2.539a18.808,18.808,0,0,0-.736-2.673c-.291-.623-3.438-10.221,4.392-13.717a14.07,14.07,0,0,0,3.434-2.189,8.36,8.36,0,0,1,5.318-1.641c3.54,0,6.409,1.663,6.409,3.716v.006a1.011,1.011,0,0,0,.452.856,8.174,8.174,0,0,1,1.631,1.39" transform="translate(290.976 112.302)" fill="none" stroke="#000" stroke-linecap="round" stroke-linejoin="round" stroke-miterlimit="10" stroke-width="1.5"/>
          </g>
          <g id="g6301" transform="translate(38.799 25.345)">
            <path id="path6303" d="M0,0A2.22,2.22,0,0,0,1.336,0" fill="none" stroke="#000" stroke-linecap="round" stroke-linejoin="round" stroke-miterlimit="10" stroke-width="1.5"/>
          </g>
          <g id="g6305" transform="translate(33.889 16.339)">
            <path id="path6307" d="M-31.542-2.429a4.776,4.776,0,0,0-2.874,0" transform="translate(34.416 2.65)" fill="none" stroke="#000" stroke-linecap="round" stroke-linejoin="round" stroke-miterlimit="10" stroke-width="1.5"/>
          </g>
          <g id="g6309" transform="translate(42.172 16.339)">
            <path id="path6311" d="M0-2.429a4.776,4.776,0,0,1,2.874,0" transform="translate(0 2.65)" fill="none" stroke="#000" stroke-linecap="round" stroke-linejoin="round" stroke-miterlimit="10" stroke-width="1.5"/>
          </g>
          <g id="g6313" transform="translate(37.369 28.121)">
            <path id="path6315" d="M-46.068,0a4.357,4.357,0,0,1-4.2,0" transform="translate(50.265)" fill="none" stroke="#000" stroke-linecap="round" stroke-linejoin="round" stroke-miterlimit="10" stroke-width="1.5"/>
          </g>
          <g id="g6317" transform="translate(34.791 20.449)">
            <path id="path6319" d="M0,0V.668" fill="none" stroke="#000" stroke-linecap="round" stroke-linejoin="round" stroke-miterlimit="10" stroke-width="1.5"/>
          </g>
          <g id="g6321" transform="translate(44.143 20.449)">
            <path id="path6323" d="M0,0V.668" fill="none" stroke="#000" stroke-linecap="round" stroke-linejoin="round" stroke-miterlimit="10" stroke-width="1.5"/>
          </g>
          <g id="g6325" transform="translate(28.004 38.178)">
            <path id="path6327" d="M-58.289,0l4.033,17.989h-2.5l-4.189-5.5a.445.445,0,0,1-.089-.313l.394-4.029a.446.446,0,0,0-.177-.4l-2.6-1.933a.445.445,0,0,1-.166-.467l1.006-3.962a.445.445,0,0,1,.317-.32Z" transform="translate(63.599)" fill="none" stroke="#000" stroke-linecap="round" stroke-linejoin="round" stroke-miterlimit="10" stroke-width="1.5"/>
          </g>
          <g id="g6329" transform="translate(41.587 38.17)">
            <path id="path6331" d="M-44.134,0l-4.021,18h2.5l4.189-5.5a.446.446,0,0,0,.089-.313l-.394-4.029a.446.446,0,0,1,.177-.4l2.6-1.933a.445.445,0,0,0,.166-.467l-1.006-3.962a.445.445,0,0,0-.316-.32Z" transform="translate(48.155)" fill="none" stroke="#000" stroke-linecap="round" stroke-linejoin="round" stroke-miterlimit="10" stroke-width="1.5"/>
          </g>
          <g id="g6333" transform="translate(0.835 0.835)">
            <path id="path6335" d="M-84.76-10.146l.575,1.167a1.956,1.956,0,0,0,1.473,1.071l1.285.187a1.659,1.659,0,0,1,.918,2.829l-.93.908A1.961,1.961,0,0,0-82-2.25l.22,1.282A1.656,1.656,0,0,1-84.185.78l-1.15-.605a1.954,1.954,0,0,0-1.82,0L-88.3.78a1.656,1.656,0,0,1-2.4-1.748l.22-1.282a1.961,1.961,0,0,0-.563-1.734l-.93-.908a1.659,1.659,0,0,1,.918-2.829l1.285-.187A1.956,1.956,0,0,0-88.3-8.979l.575-1.167A1.655,1.655,0,0,1-84.76-10.146Z" transform="translate(92.482 11.07)" fill="none" stroke="#000" stroke-linecap="round" stroke-linejoin="round" stroke-miterlimit="10" stroke-width="1.5"/>
          </g>
        </g>
      </g>
    </g>
  </g>
</svg>
