<svg xmlns="http://www.w3.org/2000/svg" xmlns:xlink="http://www.w3.org/1999/xlink" width="113" height="113" viewBox="0 0 113 113">
  <defs>
    <filter id="Trazado_982547" x="0" y="0" width="113" height="113" filterUnits="userSpaceOnUse">
      <feOffset dy="3" input="SourceAlpha"/>
      <feGaussianBlur stdDeviation="3" result="blur"/>
      <feFlood flood-opacity="0.161"/>
      <feComposite operator="in" in2="blur"/>
      <feComposite in="SourceGraphic"/>
    </filter>
    <clipPath id="clip-path">
      <path id="path2148" d="M0-682.665H55.933v55.933H0Z" transform="translate(0 682.665)"/>
    </clipPath>
  </defs>
  <g id="Grupo_1172817" data-name="Grupo 1172817" transform="translate(-272.025 -9746.395)">
    <g id="Grupo_1172426" data-name="Grupo 1172426" transform="translate(0.525 4126.75)">
      <g id="Grupo_1171928" data-name="Grupo 1171928" transform="translate(0 4321.5)">
        <g id="Grupo_1171046" data-name="Grupo 1171046" transform="translate(280.5 1304.145)">
          <g id="Grupo_1148525" data-name="Grupo 1148525" transform="translate(0)">
            <g transform="matrix(1, 0, 0, 1, -9, -6)" filter="url(#Trazado_982547)">
              <g id="Trazado_982547-2" data-name="Trazado 982547" transform="translate(9 6)" fill="#f2f7e5">
                <path d="M 47.5 93.5 C 41.28937149047852 93.5 35.26533508300781 92.28397369384766 29.59518623352051 89.88570404052734 C 24.11771965026855 87.56893157958984 19.19813346862793 84.25196075439453 14.97309303283691 80.02691650390625 C 10.74804019927979 75.80186462402344 7.431066513061523 70.88229370117188 5.114293098449707 65.40481567382812 C 2.716026782989502 59.73468017578125 1.5 53.71062850952148 1.5 47.5 C 1.5 41.28937149047852 2.716026782989502 35.26533508300781 5.114293098449707 29.59518623352051 C 7.431066513061523 24.11771965026855 10.74804019927979 19.19813346862793 14.97309303283691 14.97309303283691 C 19.19813346862793 10.74804019927979 24.11771965026855 7.431066513061523 29.59518623352051 5.114293098449707 C 35.26533508300781 2.716026782989502 41.28937149047852 1.5 47.5 1.5 C 53.71062850952148 1.5 59.73468017578125 2.716026782989502 65.40481567382812 5.114293098449707 C 70.88229370117188 7.431066513061523 75.80186462402344 10.74804019927979 80.02691650390625 14.97309303283691 C 84.25196075439453 19.19813346862793 87.56893157958984 24.11771965026855 89.88570404052734 29.59518623352051 C 92.28397369384766 35.26533508300781 93.5 41.28937149047852 93.5 47.5 C 93.5 53.71062850952148 92.28397369384766 59.73468017578125 89.88570404052734 65.40481567382812 C 87.56893157958984 70.88229370117188 84.25196075439453 75.80186462402344 80.02691650390625 80.02691650390625 C 75.80186462402344 84.25196075439453 70.88229370117188 87.56893157958984 65.40481567382812 89.88570404052734 C 59.73468017578125 92.28397369384766 53.71062850952148 93.5 47.5 93.5 Z" stroke="none"/>
                <path d="M 47.5 3 C 41.49121475219727 3 35.66376876831055 4.176155090332031 30.17950439453125 6.495796203613281 C 24.88084411621094 8.736953735351562 20.12152099609375 11.94598388671875 16.03375244140625 16.03375244140625 C 11.94598388671875 20.12152099609375 8.736953735351562 24.88084411621094 6.495796203613281 30.17950439453125 C 4.176155090332031 35.66376876831055 3 41.49121475219727 3 47.5 C 3 53.50878524780273 4.176155090332031 59.33623123168945 6.495796203613281 64.82049560546875 C 8.736953735351562 70.11915588378906 11.94598388671875 74.87847900390625 16.03375244140625 78.96624755859375 C 20.12152099609375 83.05401611328125 24.88084411621094 86.26304626464844 30.17950439453125 88.50419616699219 C 35.66376876831055 90.82384490966797 41.49121475219727 92 47.5 92 C 53.50878524780273 92 59.33623123168945 90.82384490966797 64.82049560546875 88.50419616699219 C 70.11915588378906 86.26304626464844 74.87847900390625 83.05401611328125 78.96624755859375 78.96624755859375 C 83.05401611328125 74.87847900390625 86.26304626464844 70.11915588378906 88.50419616699219 64.82049560546875 C 90.82384490966797 59.33623123168945 92 53.50878524780273 92 47.5 C 92 41.49121475219727 90.82384490966797 35.66376876831055 88.50419616699219 30.17950439453125 C 86.26304626464844 24.88084411621094 83.05401611328125 20.12152099609375 78.96624755859375 16.03375244140625 C 74.87847900390625 11.94598388671875 70.11915588378906 8.736953735351562 64.82049560546875 6.495796203613281 C 59.33623123168945 4.176155090332031 53.50878524780273 3 47.5 3 M 47.5 0 C 73.7335205078125 0 95 21.2664794921875 95 47.5 C 95 73.7335205078125 73.7335205078125 95 47.5 95 C 21.2664794921875 95 0 73.7335205078125 0 47.5 C 0 21.2664794921875 21.2664794921875 0 47.5 0 Z" stroke="none" fill="#86b60c"/>
              </g>
            </g>
          </g>
        </g>
      </g>
    </g>
    <g id="g2142" transform="translate(300.559 10454.594)">
      <g id="g2144" transform="translate(0 -682.665)">
        <g id="g2146" clip-path="url(#clip-path)">
          <g id="g2152" transform="translate(2.634 0.819)">
            <path id="path2154" d="M-230.4-466.418l-16.136-16.136a14.969,14.969,0,0,1-.151-21.1,14.865,14.865,0,0,1,20.456-.607.9.9,0,0,0,1.2,0,14.865,14.865,0,0,1,20.456.607,14.969,14.969,0,0,1-.151,21.1l-16.136,16.136v2.715H-230.4Z" transform="translate(250.96 508.043)" fill="#fc5b5b"/>
          </g>
          <g id="g2156" transform="translate(9.868 10.4)">
            <path id="path2158" d="M-134.214-226.7l-3.922-7.845a.453.453,0,0,0-.4-.25h-6.746a.9.9,0,0,1-.9-.9v-1.81a.9.9,0,0,1,.9-.9h8.7a.9.9,0,0,1,.809.5l1.55,3.1a.452.452,0,0,0,.828-.043l4.307-11.486a.9.9,0,0,1,1.644-.111l5.393,10.016a.452.452,0,0,0,.786.018l.932-1.553a.9.9,0,0,1,.776-.439h8.656a.9.9,0,0,1,.9.9v1.81a.9.9,0,0,1-.9.9h-6.863a.453.453,0,0,0-.388.22l-2.874,4.79a.9.9,0,0,1-1.573-.037l-4.727-8.779a.452.452,0,0,0-.822.056l-4.409,11.758a.9.9,0,0,1-1.657.087" transform="translate(146.192 246.933)" fill="#e3f5ff"/>
          </g>
          <g id="g2160" transform="translate(30.22 0.82)">
            <path id="path2162" d="M-210.712-49.195a14.832,14.832,0,0,0-11.809-4.337,14.805,14.805,0,0,1,9.292,4.337,14.969,14.969,0,0,1-.151,21.1L-229.517-11.96v2.715H-227V-11.96L-210.863-28.1a14.969,14.969,0,0,0,.151-21.1" transform="translate(229.517 53.585)" fill="#e64040"/>
          </g>
          <g id="g2164" transform="translate(42.642 18.917)">
            <path id="path2166" d="M-28.205,0h-2.517a.9.9,0,0,1,.9.9v1.81a.9.9,0,0,1-.9.9h2.517a.9.9,0,0,0,.9-.9V.9a.9.9,0,0,0-.9-.9" transform="translate(30.723)" fill="#c5e6f0"/>
          </g>
          <g id="g2168" transform="translate(2.629 37.92)">
            <path id="path2170" d="M-63.285-162.232h-3.9a1.748,1.748,0,0,1-1.748-1.748v-10.983a1.748,1.748,0,0,1,1.748-1.748h3.9Z" transform="translate(68.933 176.71)" fill="#3d4566"/>
          </g>
          <path id="path2172" d="M67.632-205.365h2.736v-14.478H67.632Z" transform="translate(-62.091 257.764)" fill="#2e2e4d"/>
          <g id="g2174" transform="translate(8.058 35.206)">
            <path id="path2176" d="M-102.089-223.069h-7.363a1.748,1.748,0,0,1-1.748-1.748v-16.412a1.748,1.748,0,0,1,1.748-1.748h7.363a1.748,1.748,0,0,1,1.748,1.748v16.412a1.748,1.748,0,0,1-1.748,1.748" transform="translate(111.2 242.977)" fill="#4d5e80"/>
          </g>
          <path id="path2178" d="M240.312-159.193h-19.8v-5.429h19.8Z" transform="translate(-202.447 207.067)" fill="#e3f5ff"/>
          <g id="g2180" transform="translate(14.652 35.205)">
            <path id="path2182" d="M-28.205,0h-2.517a1.748,1.748,0,0,1,1.748,1.748V18.16a1.748,1.748,0,0,1-1.748,1.748h2.517a1.748,1.748,0,0,0,1.748-1.748V1.748A1.748,1.748,0,0,0-28.205,0" transform="translate(30.723)" fill="#3d4566"/>
          </g>
          <path id="path2184" d="M421.054-159.193h3.367v-5.429h-3.367Z" transform="translate(-386.556 207.067)" fill="#c5e6f0"/>
          <g id="g2186" transform="translate(47.656 37.92)">
            <path id="path2188" d="M0,0H3.9A1.748,1.748,0,0,1,5.648,1.748V12.73A1.748,1.748,0,0,1,3.9,14.478H0Z" fill="#3d4566"/>
          </g>
          <g id="g2190" transform="translate(49.038 37.92)">
            <path id="path2192" d="M-28.205,0h-2.517a1.748,1.748,0,0,1,1.748,1.748V12.73a1.748,1.748,0,0,1-1.748,1.748h2.517a1.748,1.748,0,0,0,1.748-1.748V1.748A1.748,1.748,0,0,0-28.205,0" transform="translate(30.723)" fill="#2e2e4d"/>
          </g>
          <g id="g2194" transform="translate(37.015 35.205)">
            <path id="path2196" d="M-121.674-30.419v-.967a1.748,1.748,0,0,0-1.748-1.748h-7.363a1.748,1.748,0,0,0-1.748,1.748v16.412a1.748,1.748,0,0,0,1.748,1.748h7.363a1.748,1.748,0,0,0,1.748-1.748v-.967l-1.253-7.239Z" transform="translate(132.533 33.133)" fill="#4d5e80"/>
          </g>
          <g id="g2198" transform="translate(43.609 35.205)">
            <path id="path2200" d="M-28.205,0h-2.517a1.748,1.748,0,0,1,1.748,1.748V18.16a1.748,1.748,0,0,1-1.748,1.748h2.517a1.748,1.748,0,0,0,1.748-1.748V1.748A1.748,1.748,0,0,0-28.205,0" transform="translate(30.723)" fill="#3d4566"/>
          </g>
          <g id="g2202" transform="translate(2.634 6.591)">
            <path id="path2204" d="M-34.323,0a15,15,0,0,0,1.362,19.717l8.9,8.9" transform="translate(37.386)" fill="none" stroke="#000" stroke-linecap="round" stroke-linejoin="round" stroke-miterlimit="10" stroke-width="1"/>
          </g>
          <g id="g2206" transform="translate(8.404 0.819)">
            <path id="path2208" d="M-353.766-385.3l8.9-8.9a14.969,14.969,0,0,0,.151-21.1,14.865,14.865,0,0,0-20.456-.607.9.9,0,0,1-1.2,0,14.869,14.869,0,0,0-18.96-.712" transform="translate(385.338 419.688)" fill="none" stroke="#000" stroke-linecap="round" stroke-linejoin="round" stroke-miterlimit="10" stroke-width="1"/>
          </g>
          <g id="g2210" transform="translate(32.737 38.166)">
            <path id="path2212" d="M0-47.94l4.278-4.278" transform="translate(0 52.219)" fill="none" stroke="#000" stroke-linecap="round" stroke-linejoin="round" stroke-miterlimit="10" stroke-width="1"/>
          </g>
          <g id="g2214" transform="translate(18.917 38.166)">
            <path id="path2216" d="M0,0,4.278,4.278" fill="none" stroke="#000" stroke-linecap="round" stroke-linejoin="round" stroke-miterlimit="10" stroke-width="1"/>
          </g>
          <g id="g2218" transform="translate(8.058 35.206)">
            <path id="path2220" d="M-102.089-223.069h-7.363a1.748,1.748,0,0,1-1.748-1.748v-16.412a1.748,1.748,0,0,1,1.748-1.748h7.363a1.748,1.748,0,0,1,1.748,1.748v16.412A1.748,1.748,0,0,1-102.089-223.069Z" transform="translate(111.2 242.977)" fill="none" stroke="#000" stroke-linecap="round" stroke-linejoin="round" stroke-miterlimit="10" stroke-width="1"/>
          </g>
          <g id="g2222" transform="translate(2.629 37.92)">
            <path id="path2224" d="M-60.837-162.232h-3.681a1.748,1.748,0,0,1-1.748-1.748v-10.983a1.748,1.748,0,0,1,1.748-1.748h3.681Z" transform="translate(66.267 176.71)" fill="none" stroke="#000" stroke-linecap="round" stroke-linejoin="round" stroke-miterlimit="10" stroke-width="1"/>
          </g>
          <g id="g2226" transform="translate(37.015 35.205)">
            <path id="path2228" d="M-19.585,0h7.363a1.748,1.748,0,0,1,1.748,1.748V18.16a1.748,1.748,0,0,1-1.748,1.748h-7.363a1.748,1.748,0,0,1-1.748-1.748V1.748A1.748,1.748,0,0,1-19.585,0Z" transform="translate(21.333)" fill="none" stroke="#000" stroke-linecap="round" stroke-linejoin="round" stroke-miterlimit="10" stroke-width="1"/>
          </g>
          <g id="g2230" transform="translate(47.874 37.92)">
            <path id="path2232" d="M0,0H3.681A1.748,1.748,0,0,1,5.429,1.748V12.73a1.748,1.748,0,0,1-1.748,1.748H0Z" fill="none" stroke="#000" stroke-linecap="round" stroke-linejoin="round" stroke-miterlimit="10" stroke-width="1"/>
          </g>
          <g id="g2234" transform="translate(18.917 42.445)">
            <path id="path2236" d="M-39.121-60.837h-3.491v-5.429h18.1v5.429H-35.3" transform="translate(42.612 66.267)" fill="none" stroke="#000" stroke-linecap="round" stroke-linejoin="round" stroke-miterlimit="10" stroke-width="1"/>
          </g>
          <g id="g2238" transform="translate(15.298 35.205)">
            <path id="path2240" d="M0,0V19.908" fill="none" stroke="#000" stroke-linecap="round" stroke-linejoin="round" stroke-miterlimit="10" stroke-width="1"/>
          </g>
          <g id="g2242" transform="translate(40.635 35.205)">
            <path id="path2244" d="M0,0V19.908" fill="none" stroke="#000" stroke-linecap="round" stroke-linejoin="round" stroke-miterlimit="10" stroke-width="1"/>
          </g>
          <g id="g2246" transform="translate(9.868 10.4)">
            <path id="path2248" d="M-134.214-226.7l-3.922-7.845a.453.453,0,0,0-.4-.25h-6.746a.9.9,0,0,1-.9-.9v-1.81a.9.9,0,0,1,.9-.9h8.7a.9.9,0,0,1,.809.5l1.55,3.1a.452.452,0,0,0,.828-.043l4.307-11.486a.9.9,0,0,1,1.644-.111l5.393,10.016a.452.452,0,0,0,.786.018l.932-1.553a.9.9,0,0,1,.776-.439h8.656a.9.9,0,0,1,.9.9v1.81a.9.9,0,0,1-.9.9h-6.863a.453.453,0,0,0-.388.22l-2.874,4.79a.9.9,0,0,1-1.573-.037l-4.727-8.779a.452.452,0,0,0-.822.056l-4.409,11.758A.9.9,0,0,1-134.214-226.7Z" transform="translate(146.192 246.933)" fill="none" stroke="#000" stroke-linecap="round" stroke-linejoin="round" stroke-miterlimit="10" stroke-width="1"/>
          </g>
        </g>
      </g>
    </g>
  </g>
</svg>
