<svg xmlns="http://www.w3.org/2000/svg" xmlns:xlink="http://www.w3.org/1999/xlink" width="400" height="298" viewBox="0 0 400 298">
  <defs>
    <clipPath id="clip-path">
      <rect id="Rectángulo_414523" data-name="Rectángulo 414523" width="400" height="298" transform="translate(179.525 10115)" fill="#fff" stroke="#707070" stroke-width="1" opacity="0.59"/>
    </clipPath>
  </defs>
  <g id="Enmascarar_grupo_1098790" data-name="Enmascarar grupo 1098790" transform="translate(-179.525 -10115)" clip-path="url(#clip-path)">
    <g id="Grupo_1173046" data-name="Grupo 1173046">
      <g id="OBJECTS" transform="translate(97.873 10069.449)">
        <g id="Grupo_1172881" data-name="Grupo 1172881" transform="translate(105.653 50.397)">
          <g id="Grupo_1172834" data-name="Grupo 1172834" transform="translate(121.259 246.194)">
            <path id="Trazado_1027396" data-name="Trazado 1027396" d="M386.575,474.023H289.529s1.649-32.274,3.845-50.3c0,0,40.253,10.109,90.029,0,0,0,.125,1.524.323,4.082C384.465,437.224,386.225,460.688,386.575,474.023Z" transform="translate(-289.529 -423.725)" fill="#ada894"/>
            <g id="Grupo_1172830" data-name="Grupo 1172830" transform="translate(36.489 30.112)" opacity="0.33">
              <g id="Grupo_1172828" data-name="Grupo 1172828">
                <path id="Trazado_1027397" data-name="Trazado 1027397" d="M357.132,472.672c-7.906,0-11.687-1.919-11.919-2.042a.66.66,0,0,1,.613-1.168c.09.046,8.421,4.213,26.359-.057a.659.659,0,1,1,.305,1.283A66.478,66.478,0,0,1,357.132,472.672Z" transform="translate(-344.861 -469.387)" fill="#494949"/>
              </g>
              <g id="Grupo_1172829" data-name="Grupo 1172829" transform="translate(13.774 1.954)">
                <path id="Trazado_1027398" data-name="Trazado 1027398" d="M366.407,491.244a.659.659,0,0,1-.659-.659V473.01a.659.659,0,0,1,1.319,0v17.574A.659.659,0,0,1,366.407,491.244Z" transform="translate(-365.748 -472.351)" fill="#494949"/>
              </g>
            </g>
            <g id="Grupo_1172833" data-name="Grupo 1172833" transform="translate(3 7.657)" opacity="0.44">
              <g id="Grupo_1172831" data-name="Grupo 1172831" transform="translate(0 0)">
                <path id="Trazado_1027399" data-name="Trazado 1027399" d="M294.738,459.343a.659.659,0,0,1-.121-1.307h0c.125-.024,12.517-2.6,16.928-22.185a.659.659,0,1,1,1.287.289c-4.614,20.483-17.429,23.092-17.972,23.192A.693.693,0,0,1,294.738,459.343Z" transform="translate(-294.079 -435.336)" fill="#494949"/>
              </g>
              <g id="Grupo_1172832" data-name="Grupo 1172832" transform="translate(71.654)">
                <path id="Trazado_1027400" data-name="Trazado 1027400" d="M420.844,459.343a.633.633,0,0,1-.121-.011c-.543-.1-13.359-2.71-17.972-23.192a.659.659,0,1,1,1.287-.29c4.424,19.643,16.8,22.162,16.926,22.185a.659.659,0,0,1-.119,1.308Z" transform="translate(-402.734 -435.335)" fill="#494949"/>
              </g>
            </g>
            <path id="Trazado_1027401" data-name="Trazado 1027401" d="M383.727,427.808a166.665,166.665,0,0,1-31.688,5.289c-25.58,2.057-42.6-3.159-46.782,2.585-3.317,4.55-5.018,19.17-4.352,38.342H289.529s1.649-32.274,3.845-50.3c0,0,40.253,10.109,90.029,0C383.4,423.725,383.528,425.249,383.727,427.808Z" transform="translate(-289.529 -423.725)" fill="#000e63" opacity="0.12"/>
          </g>
          <g id="Grupo_1172835" data-name="Grupo 1172835" transform="translate(97.331)">
            <path id="Trazado_1027402" data-name="Trazado 1027402" d="M294.392,258.778c-60.063-16.684-40.629-67.74-26.563-92.146,9.345-16.209,13.928-34.14,14.508-56.324.528-19.968-.989-45.173,23.6-56.4,12.6-5.757,22.738-3.4,29.128-.3v.007a28.684,28.684,0,0,1,7.544,5.124c4.326-1.959,15.932-4.906,26.609,8.791,10.736,13.783,5,36.672,5,61.554,0,19.83,6.746,33.85,12.912,48.338a134.679,134.679,0,0,1,7.755,22.276C400.6,224.156,375.1,281.2,294.392,258.778Z" transform="translate(-253.246 -50.397)" fill="#414887"/>
            <path id="Trazado_1027403" data-name="Trazado 1027403" d="M327.029,103.964a95.246,95.246,0,0,0,35.94-23.575S342.443,98.08,327.029,103.964Z" transform="translate(-278.372 -60.611)" fill="#5a72ff" opacity="0.63"/>
            <path id="Trazado_1027404" data-name="Trazado 1027404" d="M406.612,64.221s18.808,6.807,18.9,34.391C425.514,98.612,422.439,77.41,406.612,64.221Z" transform="translate(-305.473 -55.105)" fill="#5a72ff" opacity="0.33"/>
            <path id="Trazado_1027405" data-name="Trazado 1027405" d="M294.392,258.778c-60.063-16.684-40.629-67.74-26.563-92.146,9.345-16.209,13.928-34.14,14.508-56.324.528-19.968-.989-45.173,23.6-56.4,12.6-5.757,22.738-3.4,29.128-.3v.007c-15.689-5.427-38.427,8.125-41.144,33.151s13.156,43.524,32.5,46.492S363.628,118.7,363.628,118.7s-1.386,12.259-6,16.546-12.774,7.063-12.774,7.063-.9,4.5.5,4.821,6.719,4.979,8.341,11.059a141.258,141.258,0,0,1,33.435,19.243,134.679,134.679,0,0,1,7.755,22.276C400.6,224.156,375.1,281.2,294.392,258.778Z" transform="translate(-253.246 -50.397)" fill="#000e63" opacity="0.29"/>
          </g>
          <g id="Grupo_1172859" data-name="Grupo 1172859" transform="translate(0 96.727)">
            <g id="Grupo_1172839" data-name="Grupo 1172839" transform="translate(268.425 37.251)">
              <g id="Grupo_1172836" data-name="Grupo 1172836">
                <path id="Trazado_1027406" data-name="Trazado 1027406" d="M540.773,255.376v3.792H517.692v-3.792a1.812,1.812,0,0,1,1.814-1.814H538.96A1.813,1.813,0,0,1,540.773,255.376Z" transform="translate(-514.394 -253.562)" fill="#9e6a57"/>
                <path id="Trazado_1027407" data-name="Trazado 1027407" d="M541.422,262.062l-.237,2.6-.066.692-.112,1.26-.336,3.686-1.3,14.178-.376,4.089-.376,4.1H519.495l-.752-8.191-1.3-14.178L517,265.359l-.3-3.3Z" transform="translate(-514.053 -256.457)" fill="#c4a18a"/>
                <path id="Trazado_1027408" data-name="Trazado 1027408" d="M541.058,274.562l-1.3,14.178H519.131l-1.3-14.178Z" transform="translate(-514.442 -260.713)" fill="#fff4dc"/>
                <path id="Trazado_1027409" data-name="Trazado 1027409" d="M543.027,258.876v2.968a1.812,1.812,0,0,1-1.814,1.814H514.506a1.813,1.813,0,0,1-1.814-1.814v-2.968a1.812,1.812,0,0,1,1.814-1.814h26.708A1.813,1.813,0,0,1,543.027,258.876Z" transform="translate(-512.691 -254.754)" fill="#79453a"/>
                <path id="Trazado_1027410" data-name="Trazado 1027410" d="M547.747,262.465h-1.233a23.806,23.806,0,0,0,.013-3.3c-.231-3.02-1.167-3.3-1.167-3.3.072-2.156-.468-2.308-.468-2.308h1.484a5.051,5.051,0,0,1,.6,2.308,7.171,7.171,0,0,1,.843,3.3A20.615,20.615,0,0,1,547.747,262.465Z" transform="translate(-523.657 -253.562)" fill="#fff" opacity="0.34"/>
                <path id="Trazado_1027411" data-name="Trazado 1027411" d="M539.822,261.773l-.066.692-.112,1.26-20.41.745.475,2.941L522,281.589l.528,3.252,15.1.837-.376,4.1H518.132l-.752-8.191-1.3-14.178-.448-4.946H514.5a1.812,1.812,0,0,1-1.814-1.814v-2.968a1.812,1.812,0,0,1,1.814-1.814h1.484v-.495a1.813,1.813,0,0,1,1.814-1.814h2.875l-.423,2.308-.033.178-1.978.317.3,2.8.356,3.3Z" transform="translate(-512.691 -253.562)" fill="#3f0c00" opacity="0.2"/>
              </g>
              <g id="Grupo_1172837" data-name="Grupo 1172837" transform="translate(34.344)">
                <path id="Trazado_1027412" data-name="Trazado 1027412" d="M592.851,255.376v3.792H569.77v-3.792a1.812,1.812,0,0,1,1.813-1.814h19.454A1.812,1.812,0,0,1,592.851,255.376Z" transform="translate(-566.473 -253.562)" fill="#9e6a57"/>
                <path id="Trazado_1027413" data-name="Trazado 1027413" d="M593.5,262.062l-.237,2.6-.066.692-.112,1.26-.336,3.686-1.3,14.178-.376,4.089-.376,4.1H571.573l-.752-8.191-1.3-14.178-.448-4.946-.3-3.3Z" transform="translate(-566.132 -256.457)" fill="#c4a18a"/>
                <path id="Trazado_1027414" data-name="Trazado 1027414" d="M593.136,274.562l-1.3,14.178H571.209l-1.3-14.178Z" transform="translate(-566.52 -260.713)" fill="#fff4dc"/>
                <path id="Trazado_1027415" data-name="Trazado 1027415" d="M595.105,258.876v2.968a1.812,1.812,0,0,1-1.814,1.814H566.583a1.812,1.812,0,0,1-1.813-1.814v-2.968a1.812,1.812,0,0,1,1.813-1.814h26.708A1.813,1.813,0,0,1,595.105,258.876Z" transform="translate(-564.77 -254.754)" fill="#79453a"/>
                <path id="Trazado_1027416" data-name="Trazado 1027416" d="M599.825,262.465h-1.233a23.94,23.94,0,0,0,.013-3.3c-.231-3.02-1.167-3.3-1.167-3.3.072-2.156-.468-2.308-.468-2.308h1.484a5.051,5.051,0,0,1,.6,2.308,7.17,7.17,0,0,1,.844,3.3A20.437,20.437,0,0,1,599.825,262.465Z" transform="translate(-575.735 -253.562)" fill="#fff" opacity="0.34"/>
                <path id="Trazado_1027417" data-name="Trazado 1027417" d="M591.9,261.773l-.066.692-.112,1.26-20.41.745.475,2.941,2.3,14.178.528,3.252,15.1.837-.376,4.1H570.211l-.752-8.191-1.3-14.178-.448-4.946h-1.128a1.813,1.813,0,0,1-1.814-1.814v-2.968a1.813,1.813,0,0,1,1.814-1.814h1.484v-.495a1.812,1.812,0,0,1,1.813-1.814h2.875l-.423,2.308-.033.178-1.978.317.3,2.8.356,3.3Z" transform="translate(-564.77 -253.562)" fill="#3f0c00" opacity="0.2"/>
              </g>
              <g id="Grupo_1172838" data-name="Grupo 1172838" transform="translate(68.687)">
                <path id="Trazado_1027418" data-name="Trazado 1027418" d="M644.929,255.376v3.792H621.848v-3.792a1.812,1.812,0,0,1,1.813-1.814h19.454A1.812,1.812,0,0,1,644.929,255.376Z" transform="translate(-618.55 -253.562)" fill="#9e6a57"/>
                <path id="Trazado_1027419" data-name="Trazado 1027419" d="M645.578,262.062l-.237,2.6-.067.692-.112,1.26-.336,3.686-1.3,14.178-.377,4.089-.376,4.1H623.651l-.752-8.191-1.3-14.178-.449-4.946-.3-3.3Z" transform="translate(-618.209 -256.457)" fill="#c4a18a"/>
                <path id="Trazado_1027420" data-name="Trazado 1027420" d="M645.214,274.562l-1.3,14.178H623.287l-1.3-14.178Z" transform="translate(-618.598 -260.713)" fill="#fff4dc"/>
                <path id="Trazado_1027421" data-name="Trazado 1027421" d="M647.183,258.876v2.968a1.812,1.812,0,0,1-1.813,1.814H618.661a1.813,1.813,0,0,1-1.814-1.814v-2.968a1.812,1.812,0,0,1,1.814-1.814H645.37A1.812,1.812,0,0,1,647.183,258.876Z" transform="translate(-616.847 -254.754)" fill="#79453a"/>
                <path id="Trazado_1027422" data-name="Trazado 1027422" d="M651.9,262.465H650.67a23.94,23.94,0,0,0,.013-3.3c-.231-3.02-1.167-3.3-1.167-3.3.073-2.156-.468-2.308-.468-2.308h1.484a5.051,5.051,0,0,1,.6,2.308,7.179,7.179,0,0,1,.844,3.3A20.476,20.476,0,0,1,651.9,262.465Z" transform="translate(-627.813 -253.562)" fill="#fff" opacity="0.34"/>
                <path id="Trazado_1027423" data-name="Trazado 1027423" d="M643.978,261.773l-.067.692-.112,1.26-20.41.745.475,2.941,2.294,14.178.528,3.252,15.1.837-.376,4.1H622.288l-.752-8.191-1.3-14.178-.449-4.946H618.66a1.812,1.812,0,0,1-1.813-1.814v-2.968a1.812,1.812,0,0,1,1.813-1.814h1.484v-.495a1.813,1.813,0,0,1,1.814-1.814h2.875l-.422,2.308-.034.178-1.978.317.3,2.8.356,3.3Z" transform="translate(-616.847 -253.562)" fill="#3f0c00" opacity="0.2"/>
              </g>
            </g>
            <g id="Grupo_1172840" data-name="Grupo 1172840" transform="translate(266.724 70.66)">
              <path id="Trazado_1027424" data-name="Trazado 1027424" d="M612.988,306.53v1.042a2.306,2.306,0,0,1-2.308,2.308H512.421a2.306,2.306,0,0,1-2.308-2.308V306.53a2.394,2.394,0,0,1,.053-.487,2.313,2.313,0,0,1,2.255-1.821H610.68a2.306,2.306,0,0,1,2.189,1.6A2.126,2.126,0,0,1,612.988,306.53Z" transform="translate(-510.113 -304.222)" fill="#feb662"/>
              <path id="Trazado_1027425" data-name="Trazado 1027425" d="M612.9,305.818l-102.7.225a2.313,2.313,0,0,1,2.255-1.821h98.259A2.306,2.306,0,0,1,612.9,305.818Z" transform="translate(-510.14 -304.222)" fill="#ffe388" opacity="0.67"/>
            </g>
            <g id="Grupo_1172843" data-name="Grupo 1172843" transform="translate(222.485 69.726)">
              <g id="Grupo_1172842" data-name="Grupo 1172842" transform="translate(0 4.831)">
                <g id="Grupo_1172841" data-name="Grupo 1172841">
                  <path id="Trazado_1027426" data-name="Trazado 1027426" d="M565.749,313.075a10.16,10.16,0,0,1-1.438,1.18c-3.3,2.308-13.077,3.666-16.045,4.985S537.549,324.7,530.625,328a63.745,63.745,0,0,0-5.948,3.607c-.007.007-.02.007-.026.014-12.147,7.92-36.982,25.152-56.014,28.581-21.98,3.957-25.607-31.654-25.607-31.654l30.995-5.935s2.638,8.573,4.286,10.881c.284.4,1.4.165,3.073-.508,6.753-2.731,22.619-12.642,30.065-17.166,1.4-.844,2.5-1.5,3.185-1.893,5.276-2.968,43.524-4.286,47.811-3.627C565.913,310.833,567.153,311.586,565.749,313.075Z" transform="translate(-443.029 -310.133)" fill="#e09170"/>
                  <path id="Trazado_1027427" data-name="Trazado 1027427" d="M601.079,313.075a462.929,462.929,0,0,0-54.3,2.743c1.4-.844,2.5-1.5,3.185-1.893,5.276-2.968,43.524-4.286,47.811-3.627C601.244,310.833,602.484,311.586,601.079,313.075Z" transform="translate(-478.36 -310.133)" fill="#e09170" opacity="0.12"/>
                  <path id="Trazado_1027428" data-name="Trazado 1027428" d="M524.65,338.063c-12.147,7.92-36.982,25.152-56.014,28.581-21.98,3.957-25.607-31.654-25.607-31.654l30.995-5.935s2.638,8.573,4.286,10.881c.284.4,1.4.165,3.073-.508a56.7,56.7,0,0,1-2.084,12.384C476.991,359.383,511.673,345.133,524.65,338.063Z" transform="translate(-443.029 -316.576)" fill="#e09170" opacity="0.12"/>
                </g>
              </g>
              <path id="Trazado_1027429" data-name="Trazado 1027429" d="M565.1,314.455c.433-4.362,5.605-6.644,11.211-8.028s7.914-3.876,10.881-3.6,2.638,2.768-1.319,4.43-6.924,4.429-12.2,7.2S564.767,317.777,565.1,314.455Z" transform="translate(-484.591 -302.807)" fill="#e09170"/>
            </g>
            <g id="Grupo_1172844" data-name="Grupo 1172844" transform="translate(119.663 10.169)">
              <path id="Trazado_1027430" data-name="Trazado 1027430" d="M383.858,351.68c-.91,2.493-15.332,4.629-32.643,5.6-1.332.072-2.683.138-4.042.2h-.04c-2.625.119-5.289.211-7.966.27h-.224l-.89.02c-1.1.019-2.2.033-3.3.046-19.461.178-38.486-1.306-43.814-5.473-3.785-2.961-5.2-121.67-2.236-125.3s24.73-13.354,30.005-14.178c2.348-.369,9-.409,16.045-.343l3.3.04c7.749.106,15.266.3,17.429.3,1.827,0,6.172,1.385,10.934,3.324,6.838,2.776,14.527,6.68,16.763,9.206C386.965,229.68,386.028,345.745,383.858,351.68Z" transform="translate(-287.11 -212.494)" fill="#79b2bc"/>
              <path id="Trazado_1027431" data-name="Trazado 1027431" d="M378.189,432.243q2.087-.129,4.043-.2C380.9,432.118,379.547,432.184,378.189,432.243Z" transform="translate(-318.126 -287.26)" fill="#000e63" opacity="0.12"/>
              <path id="Trazado_1027432" data-name="Trazado 1027432" d="M359.788,233.934c-8.988,8.448-17.9,10.314-17.9,10.314l-5.7-10.314-7.366,10.314s-8.409-4.24-11.349-7.023c-17.133-16.221-21.825-.578-20.632,53.391,1.279,57.922,4.528,67.132,42.1,67.132l-.89.02c-1.1.019-2.2.033-3.3.046-19.461.178-38.486-1.306-43.814-5.474-3.785-2.961-5.2-121.67-2.236-125.3s24.73-13.354,30.005-14.178c2.348-.369,9-.409,16.045-.343l3.3.04c7.749.106,15.266.3,17.43.3,1.827,0,6.172,1.385,10.934,3.324C366.68,220.092,366.238,227.867,359.788,233.934Z" transform="translate(-287.11 -212.495)" fill="#000e63" opacity="0.12"/>
              <path id="Trazado_1027433" data-name="Trazado 1027433" d="M362.656,212.575V357.781c-1.1.019-2.2.033-3.3.046V212.535Z" transform="translate(-311.714 -212.508)" fill="#000e63" opacity="0.12"/>
            </g>
            <g id="Grupo_1172847" data-name="Grupo 1172847" transform="translate(141.865)">
              <g id="Grupo_1172846" data-name="Grupo 1172846">
                <g id="Grupo_1172845" data-name="Grupo 1172845">
                  <path id="Trazado_1027434" data-name="Trazado 1027434" d="M347.736,250.588c-6.037,0-20.879-19.856-25.291-32.024-2.51-6.922-2.187-11.764.959-14.391,6.7-5.592,23.942-8.57,36.9-6.372,6.54,1.109,11.052,3.457,13.048,6.79,3.581,5.983-1.9,17.494-5.493,23.824C362.794,237.357,352.892,250.588,347.736,250.588Zm3.341-50.214c-10.175,0-20.952,2.483-25.56,6.33h0c-2.581,2.155-1.09,7.651.028,10.736,2.122,5.852,6.5,13.316,11.721,19.967,5.858,7.468,9.584,9.883,10.47,9.883,2.217,0,10.627-8.8,17.259-20.5,5.423-9.565,7.491-17.231,5.532-20.5-1.464-2.446-5.289-4.3-10.77-5.233A52.5,52.5,0,0,0,351.077,200.374Z" transform="translate(-320.776 -197.074)" fill="#494949"/>
                </g>
              </g>
              <path id="Trazado_1027435" data-name="Trazado 1027435" d="M364,278.725H348.057a2.919,2.919,0,0,0-2.644,1.689,2.853,2.853,0,0,0-.284,1.246v27.407A2.931,2.931,0,0,0,348.057,312H364a2.933,2.933,0,0,0,2.935-2.935V281.66A2.937,2.937,0,0,0,364,278.725Zm-7.676,1.919a1.49,1.49,0,1,1-1.49,1.49A1.489,1.489,0,0,1,356.32,280.644Z" transform="translate(-329.069 -224.88)" fill="#fff"/>
              <path id="Trazado_1027436" data-name="Trazado 1027436" d="M361.464,312.873H348.057a2.931,2.931,0,0,1-2.928-2.935V282.531a2.855,2.855,0,0,1,.284-1.246Z" transform="translate(-329.069 -225.751)" fill="#000e63" opacity="0.14"/>
              <path id="Trazado_1027437" data-name="Trazado 1027437" d="M360.41,279.634h1.378l.768-8.246h-3.2Z" transform="translate(-333.915 -222.381)" fill="#f0ae57"/>
            </g>
            <g id="Grupo_1172851" data-name="Grupo 1172851" transform="translate(151.915 21.07)">
              <g id="Grupo_1172848" data-name="Grupo 1172848" transform="translate(1.868 49.919)">
                <path id="Trazado_1027438" data-name="Trazado 1027438" d="M390.735,325.3v72.639a4.067,4.067,0,0,1-4.069,4.069H342.918a4.067,4.067,0,0,1-4.069-4.069V325.3a4.04,4.04,0,0,1,1.952-3.469,3.984,3.984,0,0,1,2.117-.6h43.748A4.067,4.067,0,0,1,390.735,325.3Z" transform="translate(-338.849 -310.345)" fill="#494949"/>
                <path id="Trazado_1027439" data-name="Trazado 1027439" d="M373.345,402.322H342.918a4.067,4.067,0,0,1-4.069-4.069V325.614a4.04,4.04,0,0,1,1.952-3.469Z" transform="translate(-338.849 -310.655)" fill="#2d2d2d" opacity="0.25"/>
                <path id="Trazado_1027440" data-name="Trazado 1027440" d="M383.829,309.777H373.2a5.056,5.056,0,0,0-10.112,0H352.451a2.089,2.089,0,0,0-2.089,2.089v5.056a2.088,2.088,0,0,0,2.089,2.088h31.378a2.088,2.088,0,0,0,2.089-2.088v-5.056A2.089,2.089,0,0,0,383.829,309.777Zm-15.689,0a1.484,1.484,0,1,1,1.484-1.484A1.485,1.485,0,0,1,368.14,309.777Z" transform="translate(-342.77 -304.722)" fill="#262525"/>
              </g>
              <g id="Grupo_1172849" data-name="Grupo 1172849" transform="translate(0 62.885)">
                <path id="Trazado_1027441" data-name="Trazado 1027441" d="M427.03,365.251c-13.7,5.032-60.518,17.792-78.218,20.76-3.884.652-5.117,1.279-6.786.363a9.6,9.6,0,0,1-4.141-4.26c-2.335-3.119-.963-4.267-.613-4.491.046-.026.073-.04.073-.04-1.761-2.2-.943-5.718-.943-5.718-1.378-3.073,1.385-7.472,1.385-7.472a9.791,9.791,0,0,0,3.073,5.718c2.638,2.2,8.355-.884,6.786-2.638-.106-.119-.218-.264-.343-.422a14.093,14.093,0,0,1-2.915-7.313.1.1,0,0,1-.007-.046,5.358,5.358,0,0,1,1.147-3.653c1.306-1.589,2.559-1.213,3.759,0l.013.013c1.912,1.945,3.7,6.008,5.368,7.656a1,1,0,0,0,.119.119,2.818,2.818,0,0,0,.356.291.709.709,0,0,0,.125.086c.079.046.158.086.237.125h.007a.958.958,0,0,0,.125.045,1.082,1.082,0,0,0,.646.02c3.113-.877,45.964-15.82,48.846-19.784s0-11.428,0-11.428l30.691-8.8a87.932,87.932,0,0,1,1.642,11.547C438.281,346.635,437.4,361.447,427.03,365.251Z" transform="translate(-336.016 -324.384)" fill="#f1a180"/>
                <path id="Trazado_1027442" data-name="Trazado 1027442" d="M437.463,335.932a68.381,68.381,0,0,1-12.081,2.084c-11.211.989-9.206,4.689-13.519,9.892s-50.132,19.586-53.423,20.839-9.384.923-11.778,8.177c-.89,2.7.3,6,2.15,9.087-3.884.652-5.117,1.279-6.786.363a9.6,9.6,0,0,1-4.141-4.26c-2.335-3.119-.963-4.267-.613-4.491.046-.026.073-.04.073-.04-1.761-2.2-.943-5.718-.943-5.718-1.378-3.073,1.385-7.472,1.385-7.472a9.791,9.791,0,0,0,3.073,5.717c2.638,2.2,8.355-.884,6.786-2.638-.106-.119-.218-.264-.343-.422a16.563,16.563,0,0,1-2.915-7.313.1.1,0,0,1-.007-.046,4.208,4.208,0,0,1,1.147-3.653,2.531,2.531,0,0,1,3.759,0l.013.013c2.051,1.8,3.726,5.975,5.368,7.656a1,1,0,0,0,.119.119,2.815,2.815,0,0,0,.356.291.706.706,0,0,0,.125.086,1.374,1.374,0,0,0,.237.125h.007a.48.48,0,0,0,.125.046,1.082,1.082,0,0,0,.646.02c3.113-.877,45.964-15.82,48.846-19.784s0-11.428,0-11.428l30.691-8.8A87.978,87.978,0,0,1,437.463,335.932Z" transform="translate(-336.016 -324.384)" fill="#a5482b" opacity="0.12"/>
              </g>
              <g id="Grupo_1172850" data-name="Grupo 1172850" transform="translate(61.384)">
                <path id="Trazado_1027443" data-name="Trazado 1027443" d="M472.248,297.958a46.069,46.069,0,0,1-4.767,1.86c-.007,0-.014.007-.02.007a80.687,80.687,0,0,1-33.718,3.739L429.1,229.025a37.283,37.283,0,0,1,5.546,2.961C449.062,241.179,469.056,264.6,472.248,297.958Z" transform="translate(-429.099 -229.025)" fill="#79b2bc"/>
                <path id="Trazado_1027444" data-name="Trazado 1027444" d="M467.46,299.824a80.687,80.687,0,0,1-33.718,3.739L429.1,229.025a37.285,37.285,0,0,1,5.546,2.961c-1.141,8.738,2.242,33.619,5.619,52.011C444.22,305.529,456.763,302.588,467.46,299.824Z" transform="translate(-429.099 -229.025)" fill="#000e63" opacity="0.12"/>
              </g>
            </g>
            <g id="Grupo_1172857" data-name="Grupo 1172857" transform="translate(0 22.89)">
              <g id="Grupo_1172855" data-name="Grupo 1172855" transform="translate(0 24.657)">
                <path id="Trazado_1027445" data-name="Trazado 1027445" d="M228.031,316.531s-2.638,27.321-17.805,31.964-73.952-37.813-73.952-37.813-12.826-9.463-14.752-13.037c-1.167-2.17,3.35-9.087,7.083-14.2-1.424.87-3.106,1.543-4.722.706-3.172-1.649-3.291-2.507.514-5.79.152-.132.31-.27.475-.409,4.286-3.627,7.584-4.616,13.519,0s10.551,14.178,11.963,15.5c0,0,5.823,3.62,13.13,8.171,12.1,7.524,28.278,17.588,28.937,17.97,1.062.607,5.572-8.81,5.572-8.81Z" transform="translate(-110.993 -271.108)" fill="#e09170"/>
                <path id="Trazado_1027446" data-name="Trazado 1027446" d="M228.031,318.344s-2.638,27.321-17.805,31.964S136.274,312.5,136.274,312.5s-12.826-9.463-14.752-13.038c-1.167-2.17,3.35-9.087,7.083-14.2-1.424.87-3.106,1.543-4.722.706-3.172-1.649-3.291-2.507.514-5.79a14.684,14.684,0,0,1,2.473.547c4.379,1.4,8.085,5.83,7.182,10.334a3.742,3.742,0,0,1-1.391,2.427c-1.068.739-2.888.87-3.027,2.17-.106.943.87,1.616,1.721,2.031a56.977,56.977,0,0,0,26.622,5.8c1.708-.053,3.614-.013,5.506-.046,12.1,7.524,28.278,17.588,28.937,17.97,1.062.607,5.572-8.81,5.572-8.81Z" transform="translate(-110.993 -272.921)" fill="#8c3d25" opacity="0.12"/>
                <g id="Grupo_1172853" data-name="Grupo 1172853">
                  <g id="Grupo_1172852" data-name="Grupo 1172852">
                    <path id="Trazado_1027447" data-name="Trazado 1027447" d="M146.339,273.955l-2.513,1.24-3.7,1.827-28.449,14.033-1.108-1.945-.877-1.543,28.086-14.858,3.785-2,2.447-1.293a2.034,2.034,0,0,1,2.757.857l.435.844.046.086A2.027,2.027,0,0,1,146.339,273.955Z" transform="translate(-107.029 -269.175)" fill="#feb662"/>
                    <path id="Trazado_1027448" data-name="Trazado 1027448" d="M162.8,273.955l-2.513,1.24-.976-1.945-1.286-2.546,2.447-1.293a2.034,2.034,0,0,1,2.757.857l.435.844.046.086A2.027,2.027,0,0,1,162.8,273.955Z" transform="translate(-123.487 -269.175)" fill="#e09170"/>
                    <path id="Trazado_1027449" data-name="Trazado 1027449" d="M158.33,275.984l-3.7,1.827-1.042-1.919-1.306-2.394,3.785-2,1.286,2.546Z" transform="translate(-121.532 -269.964)" fill="#8c8b91"/>
                    <path id="Trazado_1027450" data-name="Trazado 1027450" d="M110.3,300.553l-2.407.224-2.242.2.646-.949.679-1,1.339-1.971.877,1.543Z" transform="translate(-105.653 -278.672)" fill="#e09170"/>
                    <path id="Trazado_1027451" data-name="Trazado 1027451" d="M107.9,301.795l-2.242.2.646-.949.679-1,.277.528Z" transform="translate(-105.653 -279.69)" fill="#515151"/>
                  </g>
                  <path id="Trazado_1027452" data-name="Trazado 1027452" d="M144.963,274.956l-2.513,1.24-3.7,1.827L110.3,292.056l-2.407.224-2.242.2.646-.949.956-.468,1.939-.956L137.709,276.1l3.766-1.853,4.352-2.137.046.086A2.027,2.027,0,0,1,144.963,274.956Z" transform="translate(-105.653 -270.176)" fill="#912c11" opacity="0.12"/>
                </g>
                <g id="Grupo_1172854" data-name="Grupo 1172854" transform="translate(3.97 6.012)">
                  <path id="Trazado_1027453" data-name="Trazado 1027453" d="M120.424,279.3c-2.561,2.676-.989,6.428,3.627,11.045s6.595-.33,4.616-3.627S124.051,275.506,120.424,279.3Z" transform="translate(-114.236 -278.291)" fill="#e09170"/>
                  <path id="Trazado_1027454" data-name="Trazado 1027454" d="M115.719,288.5c-1.827,2.633.024,5.627,4.592,8.948s5.591-1.173,3.455-3.723S118.306,284.768,115.719,288.5Z" transform="translate(-112.813 -281.379)" fill="#e09170"/>
                  <path id="Trazado_1027455" data-name="Trazado 1027455" d="M112.287,296.907c-1.614,2.325.02,4.971,4.057,7.9s4.939-1.036,3.052-3.289S114.573,293.612,112.287,296.907Z" transform="translate(-111.672 -284.288)" fill="#e09170"/>
                </g>
                <path id="Trazado_1027456" data-name="Trazado 1027456" d="M139.84,291.935a3.767,3.767,0,0,1-1.642.87c-1.84.33-11.837,2.638-14.752,0a3.534,3.534,0,0,1,.356-3.8,7.861,7.861,0,0,1,3.653-2.42c6.265-2.354,12.859-2.592,14.178,0C142.59,288.466,141.317,290.721,139.84,291.935Z" transform="translate(-111.577 -274.472)" fill="#e09170"/>
                <path id="Trazado_1027457" data-name="Trazado 1027457" d="M139.84,294.143a3.767,3.767,0,0,1-1.642.87c-1.84.33-11.837,2.638-14.752,0a3.534,3.534,0,0,1,.356-3.8,3.845,3.845,0,0,0,1.213,1.952c1.965,1.814,6.087,2.354,9.622,1.649A21.807,21.807,0,0,1,139.84,294.143Z" transform="translate(-111.577 -276.68)" fill="#8c3d25" opacity="0.12"/>
                <path id="Trazado_1027458" data-name="Trazado 1027458" d="M134.031,277.685a5.371,5.371,0,0,1-.138.541c-.508,1.754-1.431,2.248-3.014,3.4a10.615,10.615,0,0,1-5.276,2.045,3.757,3.757,0,0,1-3.858-2.2,1.925,1.925,0,0,1-.086-1.5c.33-.752,1.358-1.4,3.284-2.466a20.567,20.567,0,0,0,4.676-3.436,3.81,3.81,0,0,1,4.174.158C134.737,274.929,134.506,275.476,134.031,277.685Z" transform="translate(-111.064 -270.648)" fill="#e09170"/>
                <path id="Trazado_1027459" data-name="Trazado 1027459" d="M133.893,280.666c-.508,1.753-1.431,2.248-3.014,3.4a10.615,10.615,0,0,1-5.276,2.045,3.757,3.757,0,0,1-3.858-2.2,1.925,1.925,0,0,1-.086-1.5,8.045,8.045,0,0,0,3.159,2.129c2.123.673,5.2-.943,6.931-2.123A17.464,17.464,0,0,0,133.893,280.666Z" transform="translate(-111.064 -273.088)" fill="#8c3d25" opacity="0.12"/>
              </g>
              <g id="Grupo_1172856" data-name="Grupo 1172856" transform="translate(81.473)">
                <path id="Trazado_1027460" data-name="Trazado 1027460" d="M271.22,231.785l-.29,5.961L267.711,304.5a80.569,80.569,0,0,1-25.218-1.4,65.164,65.164,0,0,1-13.295-4.2c2.981-31.146,19.85-52.4,33.639-62.286l.013-.013A43.674,43.674,0,0,1,271.22,231.785Z" transform="translate(-229.199 -231.785)" fill="#79b2bc"/>
                <path id="Trazado_1027461" data-name="Trazado 1027461" d="M270.93,237.746c-13.684,14.1-31.192,37.859-28.436,65.352a65.164,65.164,0,0,1-13.295-4.2c2.981-31.146,19.85-52.4,33.639-62.286l.013-.013a43.672,43.672,0,0,1,8.369-4.814Z" transform="translate(-229.199 -231.785)" fill="#000e63" opacity="0.12"/>
              </g>
            </g>
            <g id="Grupo_1172858" data-name="Grupo 1172858" transform="translate(141.303 0.214)">
              <path id="Trazado_1027462" data-name="Trazado 1027462" d="M373.99,219.587c-4.946,11.2-18.623,16.242-19.045,16.393a.02.02,0,0,1-.013.007l-7.683-12.036-2.321,3.5-5.652,8.534s-14.033-6.5-18.32-17.285A13.133,13.133,0,0,1,321,208.4v-.007a18.717,18.717,0,0,1,12.048-10.09c6.377-1.464,21.109-.9,29.55,0a14.662,14.662,0,0,1,8.243,3.766C375.058,205.89,377.235,212.247,373.99,219.587Z" transform="translate(-319.924 -197.399)" fill="#9fd7dd"/>
              <path id="Trazado_1027463" data-name="Trazado 1027463" d="M375.069,228.15s14.188-11.527,11.271-18.393C386.34,209.758,392.084,216.107,375.069,228.15Z" transform="translate(-338.703 -201.608)" fill="#fff" opacity="0.71"/>
              <path id="Trazado_1027464" data-name="Trazado 1027464" d="M344.927,233.133l-5.652,8.534s-14.033-6.5-18.32-17.285a13.133,13.133,0,0,1,.04-10.307c-2.941,17.146,18.2,25.106,18.2,25.106Z" transform="translate(-319.924 -203.078)" fill="#fff" opacity="0.32"/>
              <path id="Trazado_1027465" data-name="Trazado 1027465" d="M392.074,222c-4.946,11.2-18.623,16.242-19.044,16.393.706-.369,27.935-14.917,16.018-33.712-.046-.066-.086-.139-.125-.2C393.143,208.3,395.32,214.657,392.074,222Z" transform="translate(-338.009 -199.809)" fill="#fff" opacity="0.53"/>
            </g>
          </g>
          <g id="Grupo_1172875" data-name="Grupo 1172875" transform="translate(123.495 19.776)">
            <g id="Grupo_1172860" data-name="Grupo 1172860" transform="translate(26.893 66.058)">
              <path id="Trazado_1027466" data-name="Trazado 1027466" d="M370.794,203.966c-3.957,8.514-12.5,12.991-16.255,14.614a5.97,5.97,0,0,1-3.917.29c-8.678-2.308-13.934-10.446-16.209-14.844a6.308,6.308,0,0,1-.29-5.177c3.3-8.6,1.774-18.293,1.774-18.293a68.935,68.935,0,0,0,32.972.659,63.428,63.428,0,0,0-.053,6.674,36.577,36.577,0,0,0,2.091,11.191A6.314,6.314,0,0,1,370.794,203.966Z" transform="translate(-333.701 -180.555)" fill="#f1a180"/>
              <path id="Trazado_1027467" data-name="Trazado 1027467" d="M370.794,203.966c-3.957,8.514-12.5,12.991-16.255,14.614a5.97,5.97,0,0,1-3.917.29c-8.678-2.308-13.934-10.446-16.209-14.844a6.308,6.308,0,0,1-.29-5.177c3.3-8.6,1.774-18.293,1.774-18.293a68.935,68.935,0,0,0,32.972.659,63.428,63.428,0,0,0-.053,6.674,61.757,61.757,0,0,1-11.059,1.9c-10.65.989-13.862-4.8-16.519,6.535s2.526,18.854,9.384,19.843S367.115,210.237,370.794,203.966Z" transform="translate(-333.701 -180.555)" fill="#a5482b" opacity="0.12"/>
            </g>
            <g id="Grupo_1172874" data-name="Grupo 1172874">
              <g id="Grupo_1172865" data-name="Grupo 1172865">
                <g id="Grupo_1172863" data-name="Grupo 1172863" transform="translate(0 29.422)">
                  <path id="Trazado_1027468" data-name="Trazado 1027468" d="M304.647,127.149s-5.3-4.834-10.133,0,1.859,19.244,12.922,16.641C307.436,143.79,304.833,131.146,304.647,127.149Z" transform="translate(-292.92 -125)" fill="#f1a180"/>
                  <path id="Trazado_1027469" data-name="Trazado 1027469" d="M304.647,127.149s-5.3-4.834-10.133,0,1.859,19.244,12.922,16.641C307.436,143.79,304.833,131.146,304.647,127.149Z" transform="translate(-292.92 -125)" fill="#a5482b" opacity="0.12"/>
                  <path id="Trazado_1027470" data-name="Trazado 1027470" d="M421.6,127.149s5.3-4.834,10.133,0-1.859,19.244-12.922,16.641C418.81,143.79,421.413,131.146,421.6,127.149Z" transform="translate(-335.791 -125)" fill="#f1a180"/>
                  <path id="Trazado_1027471" data-name="Trazado 1027471" d="M305.805,150.912a2.424,2.424,0,1,1-2.424-2.424A2.424,2.424,0,0,1,305.805,150.912Z" transform="translate(-295.657 -132.999)" fill="#fff"/>
                  <path id="Trazado_1027472" data-name="Trazado 1027472" d="M426.6,150.912a2.424,2.424,0,1,1-2.424-2.424A2.424,2.424,0,0,1,426.6,150.912Z" transform="translate(-336.792 -132.999)" fill="#fff"/>
                  <g id="Grupo_1172861" data-name="Grupo 1172861" transform="translate(4.618 4.199)" opacity="0.47">
                    <path id="Trazado_1027473" data-name="Trazado 1027473" d="M300.065,138.062a6.78,6.78,0,0,1,2.417-6.693" transform="translate(-299.922 -131.368)" fill="none" stroke="#5b2f28" stroke-linecap="round" stroke-miterlimit="10" stroke-width="1.6"/>
                    <path id="Trazado_1027474" data-name="Trazado 1027474" d="M305.809,139.911a8.24,8.24,0,0,1-4.852-5.02" transform="translate(-300.275 -132.568)" fill="none" stroke="#5b2f28" stroke-linecap="round" stroke-miterlimit="10" stroke-width="1.6"/>
                  </g>
                  <g id="Grupo_1172862" data-name="Grupo 1172862" transform="translate(87.384 4.199)" opacity="0.47">
                    <path id="Trazado_1027475" data-name="Trazado 1027475" d="M432.356,138.062a6.78,6.78,0,0,0-2.417-6.693" transform="translate(-426.964 -131.368)" fill="none" stroke="#5b2f28" stroke-linecap="round" stroke-miterlimit="10" stroke-width="1.6"/>
                    <path id="Trazado_1027476" data-name="Trazado 1027476" d="M425.428,139.911a8.239,8.239,0,0,0,4.852-5.02" transform="translate(-425.428 -132.568)" fill="none" stroke="#5b2f28" stroke-linecap="round" stroke-miterlimit="10" stroke-width="1.6"/>
                  </g>
                </g>
                <g id="Grupo_1172864" data-name="Grupo 1172864" transform="translate(10.934)">
                  <path id="Trazado_1027477" data-name="Trazado 1027477" d="M371.4,146.384a34.184,34.184,0,0,1-6.865,3.258.024.024,0,0,1-.019.007c-14.238,5.045-34.523,3.607-44.243-5.731-9.668-9.3-10.683-26.378-10.769-31.423a1.9,1.9,0,0,1,1.358-1.846c32.3-9.839,48.979-30.263,48.979-30.263,4.972,20.43,19.184,27.684,23.68,29.5.093.04.178.073.264.106a1.9,1.9,0,0,1,1.207,1.688C385.185,117.724,383.853,138.549,371.4,146.384Z" transform="translate(-309.5 -80.385)" fill="#f1a180"/>
                  <path id="Trazado_1027478" data-name="Trazado 1027478" d="M383.517,109.889c-4.385-.64-11.474-2.611-16.1-8.619-7.116-9.232-8.527-11.87-8.527-11.87s-7.333,7.782-23.239,16.585-12.761,52.48,28.865,43.663c-14.238,5.045-34.523,3.607-44.243-5.731-9.668-9.3-10.683-26.378-10.769-31.423a1.9,1.9,0,0,1,1.358-1.846c32.3-9.839,48.979-30.263,48.979-30.263C364.809,100.815,379.019,108.069,383.517,109.889Z" transform="translate(-309.5 -80.385)" fill="#a5482b" opacity="0.12"/>
                </g>
              </g>
              <g id="Grupo_1172873" data-name="Grupo 1172873" transform="translate(14.981 23.577)">
                <g id="Grupo_1172866" data-name="Grupo 1172866" transform="translate(17.878 8.887)">
                  <path id="Trazado_1027479" data-name="Trazado 1027479" d="M347.227,133.212c0,1.988-1,3.6-2.24,3.6s-2.24-1.611-2.24-3.6,1-3.6,2.24-3.6S347.227,131.225,347.227,133.212Z" transform="translate(-342.747 -129.613)" fill="#5b2f28"/>
                  <path id="Trazado_1027480" data-name="Trazado 1027480" d="M393.243,133.212c0,1.988-1,3.6-2.24,3.6s-2.24-1.611-2.24-3.6,1-3.6,2.24-3.6S393.243,131.225,393.243,133.212Z" transform="translate(-358.417 -129.613)" fill="#5b2f28"/>
                </g>
                <g id="Grupo_1172867" data-name="Grupo 1172867" transform="translate(30.478 16.834)" opacity="0.44">
                  <path id="Trazado_1027481" data-name="Trazado 1027481" d="M361.855,141.665a2.457,2.457,0,0,0,1.1,1.183,11.872,11.872,0,0,0,1.484.738c.5.233,1.06.442,1.571.737a2.733,2.733,0,0,0,1.349.291,4.962,4.962,0,0,0,1.454-.325c.245-.095.488-.194.742-.3l.783-.344c.522-.218,1.04-.429,1.523-.673a2.846,2.846,0,0,0,.656-.428.632.632,0,0,0,.213-.7.689.689,0,0,1,.2.419.984.984,0,0,1-.109.485,2.744,2.744,0,0,1-.586.735,9.67,9.67,0,0,1-1.433,1.045,6.716,6.716,0,0,1-3.415,1.271,3.267,3.267,0,0,1-1.914-.566c-.459-.306-.932-.592-1.431-.9a8.254,8.254,0,0,1-1.4-1.088A2.276,2.276,0,0,1,361.855,141.665Z" transform="translate(-361.854 -141.665)" fill="#5b2f28"/>
                </g>
                <g id="Grupo_1172868" data-name="Grupo 1172868" transform="translate(22.098 22.404)" opacity="0.64">
                  <path id="Trazado_1027482" data-name="Trazado 1027482" d="M349.147,150.111a33.376,33.376,0,0,0,4.53,3.02,28.87,28.87,0,0,0,4.9,2.19,27.387,27.387,0,0,0,5.2,1.289,42.613,42.613,0,0,0,5.432.434,18.628,18.628,0,0,1-5.528.475,19.635,19.635,0,0,1-2.783-.346c-.463-.075-.908-.228-1.363-.338l-.679-.181-.665-.229a25.379,25.379,0,0,1-2.589-1.087l-1.227-.681c-.406-.23-.789-.5-1.18-.754A16.762,16.762,0,0,1,349.147,150.111Z" transform="translate(-349.147 -150.111)" fill="#5b2f28"/>
                </g>
                <g id="Grupo_1172870" data-name="Grupo 1172870" transform="translate(0 16.556)" opacity="0.49">
                  <g id="Grupo_1172869" data-name="Grupo 1172869">
                    <ellipse id="Elipse_12041" data-name="Elipse 12041" cx="8.367" cy="6.647" rx="8.367" ry="6.647" fill="#ce6351"/>
                    <path id="Trazado_1027483" data-name="Trazado 1027483" d="M408.323,147.89c0,3.671-3.746,6.647-8.367,6.647s-8.368-2.976-8.368-6.647,3.746-6.647,8.368-6.647S408.323,144.219,408.323,147.89Z" transform="translate(-341.501 -141.243)" fill="#ce6351"/>
                  </g>
                </g>
                <g id="Grupo_1172872" data-name="Grupo 1172872" transform="translate(13.824)">
                  <g id="Grupo_1172871" data-name="Grupo 1172871">
                    <path id="Trazado_1027484" data-name="Trazado 1027484" d="M338.522,120.155a20.706,20.706,0,0,1,7.375-.139,1.576,1.576,0,0,0,1.761-.94,2.558,2.558,0,0,0,.179-1.157,1.55,1.55,0,0,0-1.2-1.343,16.077,16.077,0,0,0-8.963.44,1.615,1.615,0,0,0-1.054,1.793c0,.014,0,.027.007.041A1.611,1.611,0,0,0,338.522,120.155Z" transform="translate(-336.6 -116.138)" fill="#2b2c65"/>
                    <path id="Trazado_1027485" data-name="Trazado 1027485" d="M393.713,120.155a20.71,20.71,0,0,0-7.376-.139,1.576,1.576,0,0,1-1.761-.94,2.558,2.558,0,0,1-.179-1.157,1.552,1.552,0,0,1,1.2-1.343,16.077,16.077,0,0,1,8.963.44,1.616,1.616,0,0,1,1.055,1.793c0,.014-.005.027-.007.041A1.61,1.61,0,0,1,393.713,120.155Z" transform="translate(-352.874 -116.138)" fill="#2b2c65"/>
                  </g>
                </g>
              </g>
            </g>
          </g>
          <g id="Grupo_1172880" data-name="Grupo 1172880" transform="translate(29.439 177.906)">
            <g id="Grupo_1172876" data-name="Grupo 1172876">
              <path id="Trazado_1027486" data-name="Trazado 1027486" d="M155.818,393.6l-5.5-63.794a7.452,7.452,0,0,1,7.315-8.09l105.685-1.543a7.451,7.451,0,0,1,7.552,7.8L267.9,391.6a4.627,4.627,0,0,1-4.54,4.41l-102.85,1.823A4.627,4.627,0,0,1,155.818,393.6Z" transform="translate(-150.294 -320.175)" fill="#b4b3b9"/>
              <path id="Trazado_1027487" data-name="Trazado 1027487" d="M271.78,327.976,268.806,391.6a4.611,4.611,0,0,1-2.763,4.016,4.56,4.56,0,0,0,.785-2.36l2.974-63.625a7.452,7.452,0,0,0-7.551-7.8l-105.685,1.543a7.328,7.328,0,0,0-3.607,1,7.408,7.408,0,0,1,5.586-2.652l105.685-1.543A7.452,7.452,0,0,1,271.78,327.976Z" transform="translate(-151.202 -320.174)" fill="#fff" opacity="0.48"/>
              <path id="Trazado_1027488" data-name="Trazado 1027488" d="M267.881,435.026l-106.169,1.491a1.908,1.908,0,0,0-1.881,1.934h0a1.907,1.907,0,0,0,1.934,1.879l106.169-1.491a1.908,1.908,0,0,0,1.881-1.934h0A1.907,1.907,0,0,0,267.881,435.026Z" transform="translate(-153.542 -359.286)" fill="#949399"/>
              <circle id="Elipse_12042" data-name="Elipse 12042" cx="4.923" cy="4.923" r="4.923" transform="translate(54.225 42.484) rotate(-76.674)" fill="#8c8b91"/>
            </g>
            <g id="Grupo_1172879" data-name="Grupo 1172879" transform="translate(23.96 70.262)">
              <g id="Grupo_1172878" data-name="Grupo 1172878">
                <g id="Grupo_1172877" data-name="Grupo 1172877">
                  <path id="Trazado_1027489" data-name="Trazado 1027489" d="M218.1,442.8a3.4,3.4,0,0,1-3.508-.877,11.3,11.3,0,0,1-2.315-3.225c-.864-1.675-1.464-3.363-1.827-4.1a9.666,9.666,0,0,1-.725-5,3.28,3.28,0,0,1,1.451-2.559c1.391-.752,2.387-.125,3.139,1.049,1.24,1.952,1.781,5.408,2.236,6.6a9.886,9.886,0,0,0,2.1,3.238h3.548S222.468,441.343,218.1,442.8Z" transform="translate(-194.467 -426.719)" fill="#f1a180"/>
                  <path id="Trazado_1027490" data-name="Trazado 1027490" d="M211.833,441.924a7.341,7.341,0,0,1-1.827.877,3.4,3.4,0,0,1-3.5-.87,10.327,10.327,0,0,1-2.077-2.777c-1-1.814-1.675-3.752-2.071-4.55a9.666,9.666,0,0,1-.725-5,3.268,3.268,0,0,1,1.457-2.559c1.912-1.035,3.086.541,3.878,2.559.739,1.886,1.147,4.168,1.5,5.091a9.927,9.927,0,0,0,2.09,3.238h3.554A4.658,4.658,0,0,1,211.833,441.924Z" transform="translate(-191.712 -426.719)" fill="#f1a180"/>
                  <path id="Trazado_1027491" data-name="Trazado 1027491" d="M205.957,438.772a4.876,4.876,0,0,1-2.2,3.159,7.6,7.6,0,0,1-1.827.87c-1.715.574-3.119-.284-4.247-1.649a14.708,14.708,0,0,1-1.84-2.981c-.725-1.491-1.24-2.915-1.563-3.568a9.638,9.638,0,0,1-.758-4.669A3.477,3.477,0,0,1,195,427.046c1.912-1.035,3.086.541,3.878,2.559.739,1.886,1.147,4.168,1.5,5.091a10.005,10.005,0,0,0,2.1,3.238h3.548A3.573,3.573,0,0,1,205.957,438.772Z" transform="translate(-188.962 -426.719)" fill="#f1a180"/>
                  <path id="Trazado_1027492" data-name="Trazado 1027492" d="M197.186,439.733a4.54,4.54,0,0,1-1.84,1.965,7.117,7.117,0,0,1-1.365.614c-2.724.91-4.557-2.328-5.671-4.821-.435-.989-.765-1.86-.989-2.308-.791-1.583-1.266-5.546.633-6.575,1.55-.838,2.546.289,3.231,1.873.739,1.695,1.114,3.917,1.444,4.781a8.757,8.757,0,0,0,1.827,2.816h3.093A3.622,3.622,0,0,1,197.186,439.733Z" transform="translate(-186.628 -427.265)" fill="#f1a180"/>
                </g>
              </g>
              <path id="Trazado_1027493" data-name="Trazado 1027493" d="M211.126,443.511a3.4,3.4,0,0,1-3.508-.877,7.341,7.341,0,0,1-1.827.877,3.4,3.4,0,0,1-3.5-.87,7.6,7.6,0,0,1-1.827.87c-1.715.574-3.119-.284-4.247-1.649a7.12,7.12,0,0,1-1.365.614c-2.724.91-4.557-2.328-5.671-4.821a5.833,5.833,0,0,0,3.99-.1,3.78,3.78,0,0,0,1.207,1.326,7.04,7.04,0,0,0,3.68,1.016,17.89,17.89,0,0,0,2.156-.034l.435-.04q1.919-.168,3.845-.343c.27-.02.541-.046.811-.073,1.3-.112,2.6-.231,3.9-.344,0-.138-.007-.284-.02-.422-.119-1.846-1-3.568-1.589-5.342a7.377,7.377,0,0,1-.251-4.5c1.24,1.952,1.781,5.408,2.236,6.6a9.885,9.885,0,0,0,2.1,3.238h3.548S215.5,442.053,211.126,443.511Z" transform="translate(-187.496 -427.429)" fill="#a5482b" opacity="0.12"/>
            </g>
          </g>
        </g>
      </g>
      <g id="Grupo_1173045" data-name="Grupo 1173045" transform="translate(168.521 10153.568)">
        <path id="Trazado_1027759" data-name="Trazado 1027759" d="M284.484,135.828A1.831,1.831,0,1,1,282.653,134,1.831,1.831,0,0,1,284.484,135.828Z" transform="translate(-88.61 -13.737)" fill="#f79465"/>
        <path id="Trazado_1027760" data-name="Trazado 1027760" d="M14.178,7.089A7.089,7.089,0,1,1,7.089,0,7.089,7.089,0,0,1,14.178,7.089Z" transform="matrix(0.891, -0.454, 0.454, 0.891, 42.015, 58.327)" fill="#fff"/>
        <circle id="Elipse_12046" data-name="Elipse 12046" cx="7.247" cy="7.247" r="7.247" transform="translate(103.107 62.99) rotate(-45)" fill="#f79465"/>
        <circle id="Elipse_12047" data-name="Elipse 12047" cx="6.721" cy="6.721" r="6.721" transform="translate(30.486 189.509)" fill="#f79465"/>
        <circle id="Elipse_12048" data-name="Elipse 12048" cx="0.647" cy="0.647" r="0.647" transform="translate(396.534 213.882)" fill="#fff"/>
        <circle id="Elipse_12049" data-name="Elipse 12049" cx="0.647" cy="0.647" r="0.647" transform="translate(410.186 132.832)" fill="#fff"/>
        <path id="Trazado_1027761" data-name="Trazado 1027761" d="M417.638,213.317a.647.647,0,1,1-.647-.647A.647.647,0,0,1,417.638,213.317Z" transform="translate(-148.31 -109.919)" fill="#fff"/>
        <circle id="Elipse_12050" data-name="Elipse 12050" cx="0.647" cy="0.647" r="0.647" transform="translate(174.213 93.414)" fill="#fff"/>
        <path id="Trazado_1027762" data-name="Trazado 1027762" d="M103.1,34.186a.647.647,0,1,1-.647-.647A.647.647,0,0,1,103.1,34.186Z" transform="translate(-39.963 13.562)" fill="#fff"/>
        <circle id="Elipse_12051" data-name="Elipse 12051" cx="0.647" cy="0.647" r="0.647" transform="translate(21.501 42.106)" fill="#fff"/>
        <circle id="Elipse_12052" data-name="Elipse 12052" cx="0.647" cy="0.647" r="0.647" transform="translate(0 149.73)" fill="#fff"/>
        <circle id="Elipse_12053" data-name="Elipse 12053" cx="0.647" cy="0.647" r="0.647" transform="translate(6.338 245.33)" fill="#fff"/>
        <path id="Trazado_1027763" data-name="Trazado 1027763" d="M460.141,43.538a2.252,2.252,0,1,1-2.252-2.252A2.252,2.252,0,0,1,460.141,43.538Z" transform="translate(-138.921 -23.023)" fill="#f79465"/>
        <path id="Trazado_1027764" data-name="Trazado 1027764" d="M531.381,338.39a2.252,2.252,0,1,1-2.252-2.252A2.251,2.251,0,0,1,531.381,338.39Z" transform="translate(-171.748 -89.515)" fill="#f79465"/>
        <path id="Trazado_1027765" data-name="Trazado 1027765" d="M376.64,349.768a5.026,5.026,0,1,1-5.026-5.026A5.026,5.026,0,0,1,376.64,349.768Z" transform="translate(16.472 -139.618)" fill="#f79465"/>
        <path id="Trazado_1027766" data-name="Trazado 1027766" d="M517.614,32.563a4.994,4.994,0,1,1-4.995-4.994A4.994,4.994,0,0,1,517.614,32.563Z" transform="translate(-150.244 15.184)" fill="#f79465"/>
        <path id="Trazado_1027767" data-name="Trazado 1027767" d="M51.8,214.531a2.252,2.252,0,1,1-2.252-2.252A2.251,2.251,0,0,1,51.8,214.531Z" transform="translate(-14.596 -83.632)" fill="#f79465"/>
        <path id="Trazado_1027768" data-name="Trazado 1027768" d="M295.711,366.588a2.252,2.252,0,1,1-2.252-2.252A2.251,2.251,0,0,1,295.711,366.588Z" transform="translate(94.628 -269.629)" fill="#fff"/>
        <path id="Trazado_1027769" data-name="Trazado 1027769" d="M424.384,288.818a1.472,1.472,0,1,1-1.472-1.472A1.472,1.472,0,0,1,424.384,288.818Z" transform="translate(-162.08 -6.983)" fill="#fff"/>
        <path id="Trazado_1027770" data-name="Trazado 1027770" d="M450.225,310.551l6.147-10.048-2.383,11.3,8.5,2.035-8.529,1.931,2.264,11.357-6.043-10.155-8.077,3.352,5.765-6.575L442.19,307.1Z" transform="translate(-409.405 -300.503)" fill="#cee29d"/>
        <path id="Trazado_1027771" data-name="Trazado 1027771" d="M307.2,46.958l.008-7.28,3.208,6.534,6.927-2.242-5.224,5.071,4.273,5.892-6.436-3.4-4.285,5.883,1.244-7.172-6.921-2.255Z" transform="translate(-21.012 14.442)" fill="#fff"/>
        <path id="Trazado_1027772" data-name="Trazado 1027772" d="M56.224,128.144l6.42,3.525-7.317-.327-1.369,7.194-1.95-7.059-7.266.921,6.111-4.037-3.121-6.625,5.727,4.565,5.337-5.016Z" transform="translate(71.853 -109.397)" fill="#cee29d"/>
        <path id="Trazado_1027773" data-name="Trazado 1027773" d="M554.437,172.939l19.086-3.621L557.165,177.5l6.851,9.515-10.349-5.509-7.442,12.34,2.552-14.43-11.135-3.67,11.611-1.626L549.3,162.4Z" transform="translate(-238.866 40.551)" fill="#cee29d"/>
        <path id="Trazado_1027774" data-name="Trazado 1027774" d="M59.919,351.505l2.434,1.337-2.774-.124-.519,2.727-.739-2.676-2.754.349,2.317-1.53L56.7,349.076l2.171,1.731,2.023-1.9Z" transform="translate(-27.397 -72.139)" fill="#fff"/>
        <path id="Trazado_1027775" data-name="Trazado 1027775" d="M429.8,291.525a4.179,4.179,0,1,1-4.179-4.179A4.179,4.179,0,0,1,429.8,291.525Z" transform="translate(-55.486 -129.276)" fill="#fff"/>
        <path id="Trazado_1027776" data-name="Trazado 1027776" d="M425.124,289.188a1.842,1.842,0,1,1-1.842-1.842A1.842,1.842,0,0,1,425.124,289.188Z" transform="translate(-47.128 -168.547)" fill="#fff"/>
        <path id="Trazado_1027777" data-name="Trazado 1027777" d="M425.124,289.188a1.842,1.842,0,1,1-1.842-1.842A1.842,1.842,0,0,1,425.124,289.188Z" transform="translate(-28.59 -27.358)" fill="#fff"/>
        <path id="Trazado_1027778" data-name="Trazado 1027778" d="M429.8,291.525a4.179,4.179,0,1,1-4.179-4.179A4.179,4.179,0,0,1,429.8,291.525Z" transform="translate(-333.319 -184.595)" fill="#fff"/>
        <path id="Trazado_1027779" data-name="Trazado 1027779" d="M295.711,366.588a2.252,2.252,0,1,1-2.252-2.252A2.251,2.251,0,0,1,295.711,366.588Z" transform="translate(-3.551 -344.146)" fill="#fff"/>
      </g>
    </g>
  </g>
</svg>
