<svg xmlns="http://www.w3.org/2000/svg" xmlns:xlink="http://www.w3.org/1999/xlink" width="818.607" height="257.45" viewBox="0 0 818.607 257.45">
  <defs>
    <filter id="Elipse_11776" x="20.49" y="24.34" width="208.769" height="208.769" filterUnits="userSpaceOnUse">
      <feOffset dy="3" input="SourceAlpha"/>
      <feGaussianBlur stdDeviation="3" result="blur"/>
      <feFlood flood-opacity="0.161"/>
      <feComposite operator="in" in2="blur"/>
      <feComposite in="SourceGraphic"/>
    </filter>
    <filter id="Trazado_1011311" x="111.419" y="0" width="142.181" height="257.45" filterUnits="userSpaceOnUse">
      <feOffset dy="3" input="SourceAlpha"/>
      <feGaussianBlur stdDeviation="3" result="blur-2"/>
      <feFlood flood-opacity="0.161"/>
      <feComposite operator="in" in2="blur-2"/>
      <feComposite in="SourceGraphic"/>
    </filter>
    <filter id="Trazado_1011312" x="228.782" y="100.047" width="47.052" height="57.357" filterUnits="userSpaceOnUse">
      <feOffset dy="3" input="SourceAlpha"/>
      <feGaussianBlur stdDeviation="3" result="blur-3"/>
      <feFlood flood-opacity="0.161"/>
      <feComposite operator="in" in2="blur-3"/>
      <feComposite in="SourceGraphic"/>
    </filter>
    <filter id="Trazado_1011412" x="382.807" y="0" width="142.181" height="257.45" filterUnits="userSpaceOnUse">
      <feOffset dy="3" input="SourceAlpha"/>
      <feGaussianBlur stdDeviation="3" result="blur-4"/>
      <feFlood flood-opacity="0.161"/>
      <feComposite operator="in" in2="blur-4"/>
      <feComposite in="SourceGraphic"/>
    </filter>
    <filter id="Trazado_1011413" x="500.168" y="100.047" width="47.052" height="57.357" filterUnits="userSpaceOnUse">
      <feOffset dy="3" input="SourceAlpha"/>
      <feGaussianBlur stdDeviation="3" result="blur-5"/>
      <feFlood flood-opacity="0.161"/>
      <feComposite operator="in" in2="blur-5"/>
      <feComposite in="SourceGraphic"/>
    </filter>
    <filter id="Elipse_11778" x="563.265" y="24.822" width="208.769" height="208.769" filterUnits="userSpaceOnUse">
      <feOffset dy="3" input="SourceAlpha"/>
      <feGaussianBlur stdDeviation="3" result="blur-6"/>
      <feFlood flood-opacity="0.161"/>
      <feComposite operator="in" in2="blur-6"/>
      <feComposite in="SourceGraphic"/>
    </filter>
    <filter id="Trazado_1011513" x="654.194" y="0" width="142.181" height="257.45" filterUnits="userSpaceOnUse">
      <feOffset dy="3" input="SourceAlpha"/>
      <feGaussianBlur stdDeviation="3" result="blur-7"/>
      <feFlood flood-opacity="0.161"/>
      <feComposite operator="in" in2="blur-7"/>
      <feComposite in="SourceGraphic"/>
    </filter>
    <filter id="Trazado_1011514" x="771.555" y="100.047" width="47.052" height="57.357" filterUnits="userSpaceOnUse">
      <feOffset dy="3" input="SourceAlpha"/>
      <feGaussianBlur stdDeviation="3" result="blur-8"/>
      <feFlood flood-opacity="0.161"/>
      <feComposite operator="in" in2="blur-8"/>
      <feComposite in="SourceGraphic"/>
    </filter>
    <filter id="Trazado_1011543" x="0" y="98.418" width="61.58" height="61.581" filterUnits="userSpaceOnUse">
      <feOffset dy="3" input="SourceAlpha"/>
      <feGaussianBlur stdDeviation="3" result="blur-9"/>
      <feFlood flood-opacity="0.161"/>
      <feComposite operator="in" in2="blur-9"/>
      <feComposite in="SourceGraphic"/>
    </filter>
    <filter id="Elipse_11780" x="270.087" y="98.418" width="61.58" height="61.581" filterUnits="userSpaceOnUse">
      <feOffset dy="3" input="SourceAlpha"/>
      <feGaussianBlur stdDeviation="3" result="blur-10"/>
      <feFlood flood-opacity="0.161"/>
      <feComposite operator="in" in2="blur-10"/>
      <feComposite in="SourceGraphic"/>
    </filter>
    <filter id="Elipse_11781" x="540.176" y="98.418" width="61.58" height="61.581" filterUnits="userSpaceOnUse">
      <feOffset dy="3" input="SourceAlpha"/>
      <feGaussianBlur stdDeviation="3" result="blur-11"/>
      <feFlood flood-opacity="0.161"/>
      <feComposite operator="in" in2="blur-11"/>
      <feComposite in="SourceGraphic"/>
    </filter>
  </defs>
  <g id="Grupo_1173049" data-name="Grupo 1173049" transform="translate(-398.198 -2789.167)">
    <g id="Grupo_1172060" data-name="Grupo 1172060" transform="translate(0 40.886)">
      <rect id="Rectángulo_413658" data-name="Rectángulo 413658" width="692.79" height="58.774" transform="translate(450.779 2844.946)" fill="#cfcece"/>
      <g id="Grupo_1172032" data-name="Grupo 1172032" transform="translate(426.352 2777.287)">
        <g transform="matrix(1, 0, 0, 1, -28.15, -29.01)" filter="url(#Elipse_11776)">
          <circle id="Elipse_11776-2" data-name="Elipse 11776" cx="95.384" cy="95.384" r="95.384" transform="translate(29.49 30.34)" fill="#fff"/>
        </g>
        <path id="Trazado_1011214" data-name="Trazado 1011214" d="M349.568,1026.753a96.72,96.72,0,1,1,68.392-28.329A96.09,96.09,0,0,1,349.568,1026.753Zm0-190.769a94.048,94.048,0,1,0,94.047,94.048A94.154,94.154,0,0,0,349.568,835.984Z" transform="translate(-252.847 -833.311)" fill="#86b60c"/>
      </g>
      <g id="Grupo_1172035" data-name="Grupo 1172035" transform="translate(518.618 2754.282)">
        <g id="Grupo_1172034" data-name="Grupo 1172034">
          <g transform="matrix(1, 0, 0, 1, -120.42, -6)" filter="url(#Trazado_1011311)">
            <path id="Trazado_1011311-2" data-name="Trazado 1011311" d="M688.714,965.2a4.456,4.456,0,0,1,0-8.911,110.814,110.814,0,0,0,0-221.628,4.456,4.456,0,0,1,0-8.911,119.725,119.725,0,0,1,0,239.45Z" transform="translate(-563.84 -719.75)" fill="#86b60c"/>
          </g>
        </g>
        <g transform="matrix(1, 0, 0, 1, -120.42, -6)" filter="url(#Trazado_1011312)">
          <path id="Trazado_1011312-2" data-name="Trazado 1011312" d="M1233.02,1196.78a68.719,68.719,0,0,1,0,32.883,3.235,3.235,0,0,0,1.765,2.879,3.194,3.194,0,0,0,3.367-.267l22.591-16.442a3.231,3.231,0,0,0,0-5.224l-22.591-16.442A3.23,3.23,0,0,0,1233.02,1196.78Z" transform="translate(-995.24 -1087.5)" fill="#86b60c"/>
        </g>
      </g>
      <g id="Grupo_1172036" data-name="Grupo 1172036" transform="translate(501.464 2863.118)">
        <path id="Trazado_1011313" data-name="Trazado 1011313" d="M610.3,1240.89h0Z" transform="translate(-608.965 -1239.553)" fill="#86b60c"/>
        <path id="Trazado_1011314" data-name="Trazado 1011314" d="M645.934,1237.313H605.389a1.337,1.337,0,0,1,0-2.673h40.545a1.337,1.337,0,1,1,0,2.673Z" transform="translate(-604.052 -1234.64)" fill="#86b60c"/>
      </g>
      <g id="Grupo_1172037" data-name="Grupo 1172037" transform="translate(697.74 2777.287)">
        <circle id="Elipse_11777" data-name="Elipse 11777" cx="95.384" cy="95.384" r="95.384" transform="translate(1.337 1.335)" fill="#fff"/>
        <path id="Trazado_1011315" data-name="Trazado 1011315" d="M1618.516,1026.753a96.72,96.72,0,1,1,68.392-28.329A96.089,96.089,0,0,1,1618.516,1026.753Zm0-190.769a94.048,94.048,0,1,0,94.048,94.048A94.154,94.154,0,0,0,1618.516,835.984Z" transform="translate(-1521.795 -833.311)" fill="#36ceef"/>
      </g>
      <g id="Grupo_1172040" data-name="Grupo 1172040" transform="translate(790.006 2754.281)">
        <g id="Grupo_1172039" data-name="Grupo 1172039">
          <g transform="matrix(1, 0, 0, 1, -391.81, -6)" filter="url(#Trazado_1011412)">
            <path id="Trazado_1011412-2" data-name="Trazado 1011412" d="M1957.663,965.2a4.456,4.456,0,1,1,0-8.911,110.814,110.814,0,0,0,0-221.628,4.456,4.456,0,1,1,0-8.911,119.725,119.725,0,0,1,0,239.451Z" transform="translate(-1561.4 -719.75)" fill="#36ceef"/>
          </g>
        </g>
        <g transform="matrix(1, 0, 0, 1, -391.81, -6)" filter="url(#Trazado_1011413)">
          <path id="Trazado_1011413-2" data-name="Trazado 1011413" d="M2501.96,1196.78a68.723,68.723,0,0,1,0,32.883,3.235,3.235,0,0,0,1.765,2.879,3.194,3.194,0,0,0,3.367-.267l22.591-16.442a3.231,3.231,0,0,0,0-5.224l-22.591-16.442A3.23,3.23,0,0,0,2501.96,1196.78Z" transform="translate(-1992.79 -1087.5)" fill="#36ceef"/>
        </g>
      </g>
      <g id="Grupo_1172041" data-name="Grupo 1172041" transform="translate(772.85 2863.118)">
        <path id="Trazado_1011414" data-name="Trazado 1011414" d="M1879.24,1240.89h0Z" transform="translate(-1877.903 -1239.553)" fill="#36ceef"/>
        <path id="Trazado_1011415" data-name="Trazado 1011415" d="M1914.871,1237.313h-40.545a1.337,1.337,0,1,1,0-2.673h40.545a1.337,1.337,0,1,1,0,2.673Z" transform="translate(-1872.989 -1234.64)" fill="#36ceef"/>
      </g>
      <g id="Grupo_1172042" data-name="Grupo 1172042" transform="translate(969.127 2777.769)">
        <g transform="matrix(1, 0, 0, 1, -570.93, -29.49)" filter="url(#Elipse_11778)">
          <circle id="Elipse_11778-2" data-name="Elipse 11778" cx="95.384" cy="95.384" r="95.384" transform="translate(572.26 30.82)" fill="#fff"/>
        </g>
        <path id="Trazado_1011416" data-name="Trazado 1011416" d="M2887.458,1026.753a96.72,96.72,0,1,1,68.392-28.329A96.089,96.089,0,0,1,2887.458,1026.753Zm0-190.769a94.048,94.048,0,1,0,94.047,94.048A94.154,94.154,0,0,0,2887.458,835.984Z" transform="translate(-2790.737 -833.311)" fill="#ff9d1c"/>
      </g>
      <g id="Grupo_1172045" data-name="Grupo 1172045" transform="translate(1061.392 2754.281)">
        <g id="Grupo_1172044" data-name="Grupo 1172044">
          <g transform="matrix(1, 0, 0, 1, -663.19, -6)" filter="url(#Trazado_1011513)">
            <path id="Trazado_1011513-2" data-name="Trazado 1011513" d="M3226.6,965.2a4.456,4.456,0,1,1,0-8.911,110.814,110.814,0,1,0,0-221.628,4.456,4.456,0,1,1,0-8.911,119.725,119.725,0,0,1,0,239.451Z" transform="translate(-2558.95 -719.75)" fill="#ff9d1c"/>
          </g>
        </g>
        <g transform="matrix(1, 0, 0, 1, -663.19, -6)" filter="url(#Trazado_1011514)">
          <path id="Trazado_1011514-2" data-name="Trazado 1011514" d="M3770.9,1196.78a68.723,68.723,0,0,1,0,32.883,3.235,3.235,0,0,0,1.765,2.879,3.194,3.194,0,0,0,3.367-.267l22.591-16.442a3.231,3.231,0,0,0,0-5.224l-22.591-16.442A3.23,3.23,0,0,0,3770.9,1196.78Z" transform="translate(-2990.35 -1087.5)" fill="#ff9d1c"/>
        </g>
      </g>
      <g id="Grupo_1172046" data-name="Grupo 1172046" transform="translate(1044.239 2863.118)">
        <path id="Trazado_1011515" data-name="Trazado 1011515" d="M3148.19,1240.89h0Z" transform="translate(-3146.854 -1239.553)" fill="#ff9d1c"/>
        <path id="Trazado_1011516" data-name="Trazado 1011516" d="M3183.823,1237.313h-40.545a1.337,1.337,0,0,1,0-2.673h40.545a1.337,1.337,0,0,1,0,2.673Z" transform="translate(-3141.941 -1234.64)" fill="#ff9d1c"/>
      </g>
      <g transform="matrix(1, 0, 0, 1, 398.2, 2748.28)" filter="url(#Trazado_1011543)">
        <path id="Trazado_1011543-2" data-name="Trazado 1011543" d="M21.79,0A21.79,21.79,0,1,1,0,21.79,21.79,21.79,0,0,1,21.79,0Z" transform="translate(9 104.42)" fill="#86b60c"/>
      </g>
      <g id="Grupo_1172052" data-name="Grupo 1172052" transform="translate(420.802 2865.88)">
        <g id="Grupo_1172051" data-name="Grupo 1172051">
          <g id="Grupo_1172050" data-name="Grupo 1172050">
            <path id="Trazado_1011540" data-name="Trazado 1011540" d="M243.313,1263.784h-2.919a1.349,1.349,0,0,1-.808-.229,1.182,1.182,0,0,1-.44-.585l-.958-2.829h-6.171l-.958,2.829a1.292,1.292,0,0,1-1.225.813h-2.941l6.283-16.229h3.854Zm-10.426-6.2h4.433l-1.493-4.445q-.145-.423-.339-1t-.385-1.242q-.178.679-.367,1.258t-.357,1Z" transform="translate(-226.894 -1247.555)" fill="#fff"/>
          </g>
        </g>
      </g>
      <g transform="matrix(1, 0, 0, 1, 398.2, 2748.28)" filter="url(#Elipse_11780)">
        <circle id="Elipse_11780-2" data-name="Elipse 11780" cx="21.79" cy="21.79" r="21.79" transform="translate(279.09 104.42)" fill="#36ceef"/>
      </g>
      <g id="Grupo_1172055" data-name="Grupo 1172055" transform="translate(693.107 2865.88)">
        <g id="Grupo_1172054" data-name="Grupo 1172054">
          <g id="Grupo_1172053" data-name="Grupo 1172053">
            <path id="Trazado_1011541" data-name="Trazado 1011541" d="M1500.13,1263.784v-16.229h5.971a11.366,11.366,0,0,1,2.863.312,5.459,5.459,0,0,1,1.927.88,3.337,3.337,0,0,1,1.086,1.381,4.671,4.671,0,0,1,.339,1.816,3.558,3.558,0,0,1-.156,1.052,3.094,3.094,0,0,1-.49.953,3.653,3.653,0,0,1-.858.808,5.513,5.513,0,0,1-1.258.629,4.47,4.47,0,0,1,2.372,1.264,3.274,3.274,0,0,1,.769,2.244,4.639,4.639,0,0,1-.4,1.927,4.409,4.409,0,0,1-1.175,1.554,5.562,5.562,0,0,1-1.91,1.036,8.3,8.3,0,0,1-2.6.373Zm3.764-9.4h1.96a6.471,6.471,0,0,0,1.125-.089,2.344,2.344,0,0,0,.852-.312,1.428,1.428,0,0,0,.535-.613,2.3,2.3,0,0,0,.184-.98,2.766,2.766,0,0,0-.145-.963,1.379,1.379,0,0,0-.445-.618,1.869,1.869,0,0,0-.763-.334,5.221,5.221,0,0,0-1.1-.1h-2.206v4.01Zm0,2.517v4.044h2.651a3.326,3.326,0,0,0,1.22-.189,1.926,1.926,0,0,0,.741-.49,1.646,1.646,0,0,0,.368-.679,2.989,2.989,0,0,0,.1-.769,2.57,2.57,0,0,0-.117-.8,1.329,1.329,0,0,0-.4-.6,1.956,1.956,0,0,0-.752-.379,4.38,4.38,0,0,0-1.181-.134h-2.628Z" transform="translate(-1500.13 -1247.555)" fill="#fff"/>
          </g>
        </g>
      </g>
      <g transform="matrix(1, 0, 0, 1, 398.2, 2748.28)" filter="url(#Elipse_11781)">
        <circle id="Elipse_11781-2" data-name="Elipse 11781" cx="21.79" cy="21.79" r="21.79" transform="translate(549.18 104.42)" fill="#ff9d1c"/>
      </g>
      <g id="Grupo_1172058" data-name="Grupo 1172058" transform="translate(962.247 2865.701)">
        <g id="Grupo_1172057" data-name="Grupo 1172057">
          <g id="Grupo_1172056" data-name="Grupo 1172056">
            <path id="Trazado_1011542" data-name="Trazado 1011542" d="M2770.406,1258.924a.754.754,0,0,1,.268.05.726.726,0,0,1,.256.173l1.492,1.57a6.2,6.2,0,0,1-2.456,1.933,8.6,8.6,0,0,1-3.492.651,8.32,8.32,0,0,1-3.314-.629,7.161,7.161,0,0,1-2.484-1.738,7.648,7.648,0,0,1-1.565-2.629,9.711,9.711,0,0,1-.546-3.3,8.7,8.7,0,0,1,.624-3.336,7.779,7.779,0,0,1,1.743-2.623,7.865,7.865,0,0,1,2.679-1.715,9.344,9.344,0,0,1,3.442-.613,8.783,8.783,0,0,1,1.721.161,8.455,8.455,0,0,1,1.51.446,7.089,7.089,0,0,1,1.292.68,6.253,6.253,0,0,1,1.047.874l-1.27,1.7a1.623,1.623,0,0,1-.29.284.754.754,0,0,1-.468.128.837.837,0,0,1-.379-.089,4.217,4.217,0,0,1-.378-.217l-.44-.279a3.456,3.456,0,0,0-.568-.278,4.732,4.732,0,0,0-.769-.217,5.261,5.261,0,0,0-1.03-.089,4.716,4.716,0,0,0-1.871.362,4.111,4.111,0,0,0-1.454,1.036,4.808,4.808,0,0,0-.947,1.632,6.4,6.4,0,0,0-.34,2.149,6.682,6.682,0,0,0,.34,2.217,4.858,4.858,0,0,0,.925,1.632,3.916,3.916,0,0,0,1.364,1.008,4.079,4.079,0,0,0,1.671.345,7.957,7.957,0,0,0,.936-.05,3.835,3.835,0,0,0,.785-.172,3.66,3.66,0,0,0,.691-.318,4.57,4.57,0,0,0,.662-.485,1.336,1.336,0,0,1,.29-.184A.752.752,0,0,1,2770.406,1258.924Z" transform="translate(-2758.566 -1246.715)" fill="#fff"/>
          </g>
        </g>
      </g>
      <path id="Parrafo" d="M5.5,1.089h9.413V2.671H7.2v3.92h7.128V8.085H7.2v4.377h7.84V14H5.5Zm11.63,3.5h1.5V5.923a4.215,4.215,0,0,1,1.415-1.187,3.773,3.773,0,0,1,1.661-.36,2.739,2.739,0,0,1,2.707,1.4A4.962,4.962,0,0,1,24.8,7.962V14H23.192V8.067a3.212,3.212,0,0,0-.255-1.389A1.545,1.545,0,0,0,21.408,5.8a3.114,3.114,0,0,0-.923.114,2.377,2.377,0,0,0-1.143.773,2.329,2.329,0,0,0-.514.962,6.478,6.478,0,0,0-.119,1.419V14H17.127ZM27.456,1.959h1.6V4.587h1.5V5.879h-1.5v6.144a.665.665,0,0,0,.334.659,1.42,1.42,0,0,0,.615.1q.114,0,.246,0t.308-.022V14a3.532,3.532,0,0,1-.567.114,5.39,5.39,0,0,1-.637.035,1.717,1.717,0,0,1-1.5-.567,2.519,2.519,0,0,1-.4-1.472V5.879H26.182V4.587h1.274Zm4.73,2.628h1.5V6.213a3.592,3.592,0,0,1,.905-1.156,2.347,2.347,0,0,1,1.661-.681q.044,0,.149.009t.36.035V6.09a2.363,2.363,0,0,0-.259-.035q-.119-.009-.259-.009a2.258,2.258,0,0,0-1.837.769,2.684,2.684,0,0,0-.642,1.771V14H32.187Zm9.872-.211A4.294,4.294,0,0,1,44,4.846a3.582,3.582,0,0,1,1.433,1.217,4.2,4.2,0,0,1,.633,1.661A10.868,10.868,0,0,1,46.207,9.8h-6.9a4.026,4.026,0,0,0,.677,2.3,2.266,2.266,0,0,0,1.96.866,2.534,2.534,0,0,0,1.978-.817,2.755,2.755,0,0,0,.6-1.1h1.556a3.276,3.276,0,0,1-.409,1.156,4.111,4.111,0,0,1-.778,1.042,3.687,3.687,0,0,1-1.784.949,5.42,5.42,0,0,1-1.292.141,3.964,3.964,0,0,1-2.979-1.279,4.976,4.976,0,0,1-1.222-3.582,5.41,5.41,0,0,1,1.23-3.683A4.059,4.059,0,0,1,42.059,4.376Zm2.522,4.166A4.1,4.1,0,0,0,44.133,6.9a2.3,2.3,0,0,0-2.171-1.143,2.406,2.406,0,0,0-1.828.787,2.972,2.972,0,0,0-.782,2Zm4.344-3.955,2.514,7.664,2.628-7.664H55.8L52.247,14H50.559L47.088,4.587Zm8.228.044h1.608V14H57.153Zm0-3.542h1.608V2.882H57.153Zm4.941,9.958a2.3,2.3,0,0,0,.4,1.213,2.485,2.485,0,0,0,2.074.765,3.059,3.059,0,0,0,1.547-.382,1.27,1.27,0,0,0,.668-1.182,1.011,1.011,0,0,0-.536-.923,6.374,6.374,0,0,0-1.354-.448l-1.257-.316A6.131,6.131,0,0,1,61.857,9.1a2,2,0,0,1-1.02-1.775A2.713,2.713,0,0,1,61.8,5.167a3.839,3.839,0,0,1,2.588-.826,3.593,3.593,0,0,1,3.067,1.248,2.708,2.708,0,0,1,.571,1.705H66.533a1.83,1.83,0,0,0-.378-.976,2.41,2.41,0,0,0-1.89-.624,2.259,2.259,0,0,0-1.358.343,1.074,1.074,0,0,0-.461.905,1.114,1.114,0,0,0,.606.984,3.644,3.644,0,0,0,1.037.387l1.046.255a8.087,8.087,0,0,1,2.285.8,2.118,2.118,0,0,1,.923,1.907,2.906,2.906,0,0,1-.954,2.171,4.059,4.059,0,0,1-2.9.914,3.9,3.9,0,0,1-2.975-.954,3.606,3.606,0,0,1-.936-2.36Zm8.378-9.088h1.6V4.587h1.5V5.879h-1.5v6.144a.665.665,0,0,0,.334.659,1.42,1.42,0,0,0,.615.1q.114,0,.246,0t.308-.022V14a3.532,3.532,0,0,1-.567.114,5.39,5.39,0,0,1-.637.035,1.717,1.717,0,0,1-1.5-.567,2.519,2.519,0,0,1-.4-1.472V5.879H69.2V4.587h1.274Zm5.9,9.536a1.3,1.3,0,0,0,.5,1.081,1.857,1.857,0,0,0,1.187.4,3.608,3.608,0,0,0,1.617-.387,2.176,2.176,0,0,0,1.318-2.1V9.21a2.707,2.707,0,0,1-.747.308,6.366,6.366,0,0,1-.9.176l-.958.123a3.664,3.664,0,0,0-1.292.36A1.4,1.4,0,0,0,76.371,11.5ZM80.2,8.3a.859.859,0,0,0,.729-.457,1.391,1.391,0,0,0,.105-.606,1.285,1.285,0,0,0-.576-1.173,3.089,3.089,0,0,0-1.648-.365,2.094,2.094,0,0,0-1.758.668,2.2,2.2,0,0,0-.378,1.1H75.2A2.718,2.718,0,0,1,76.332,5.04a4.637,4.637,0,0,1,2.518-.681,5.124,5.124,0,0,1,2.7.633A2.147,2.147,0,0,1,82.576,6.96v5.423a.694.694,0,0,0,.1.4.487.487,0,0,0,.426.149q.105,0,.237-.013t.281-.04v1.169a4.406,4.406,0,0,1-.562.132,4.111,4.111,0,0,1-.527.026,1.3,1.3,0,0,1-1.187-.58,2.239,2.239,0,0,1-.272-.87,4.025,4.025,0,0,1-1.389,1.1,4.3,4.3,0,0,1-2,.466,2.967,2.967,0,0,1-2.14-.8,2.642,2.642,0,0,1-.831-1.991,2.564,2.564,0,0,1,.817-2.03,3.889,3.889,0,0,1,2.145-.888Zm5.908,2.751a2.3,2.3,0,0,0,.4,1.213,2.485,2.485,0,0,0,2.074.765,3.059,3.059,0,0,0,1.547-.382A1.27,1.27,0,0,0,90.8,11.46a1.011,1.011,0,0,0-.536-.923,6.374,6.374,0,0,0-1.354-.448l-1.257-.316A6.131,6.131,0,0,1,85.874,9.1a2,2,0,0,1-1.02-1.775,2.713,2.713,0,0,1,.962-2.162,3.839,3.839,0,0,1,2.588-.826,3.593,3.593,0,0,1,3.067,1.248,2.708,2.708,0,0,1,.571,1.705H90.55a1.83,1.83,0,0,0-.378-.976,2.41,2.41,0,0,0-1.89-.624,2.259,2.259,0,0,0-1.358.343,1.074,1.074,0,0,0-.461.905,1.114,1.114,0,0,0,.606.984,3.644,3.644,0,0,0,1.037.387l1.046.255a8.087,8.087,0,0,1,2.285.8,2.118,2.118,0,0,1,.923,1.907,2.906,2.906,0,0,1-.954,2.171,4.059,4.059,0,0,1-2.9.914,3.9,3.9,0,0,1-2.975-.954,3.606,3.606,0,0,1-.936-2.36Zm16.694-6.732a4.1,4.1,0,0,1,2.588.773,3.705,3.705,0,0,1,1.2,2.663h-1.538a2.839,2.839,0,0,0-.642-1.446,2.027,2.027,0,0,0-1.608-.576,2.222,2.222,0,0,0-2.162,1.477,5.865,5.865,0,0,0-.422,2.364,4.449,4.449,0,0,0,.6,2.382,2.317,2.317,0,0,0,3.441.365,3.311,3.311,0,0,0,.8-1.648h1.538a4.129,4.129,0,0,1-1.318,2.738,4.113,4.113,0,0,1-2.7.866,3.6,3.6,0,0,1-2.944-1.349,5.164,5.164,0,0,1-1.1-3.371,5.678,5.678,0,0,1,1.2-3.858A3.891,3.891,0,0,1,102.805,4.314Zm9.107,8.666a2.182,2.182,0,0,0,2.158-1.191,5.933,5.933,0,0,0,.584-2.65A4.718,4.718,0,0,0,114.233,7a2.373,2.373,0,0,0-2.3-1.3A2.271,2.271,0,0,0,109.821,6.8a5.133,5.133,0,0,0-.659,2.672,4.465,4.465,0,0,0,.659,2.5A2.322,2.322,0,0,0,111.913,12.98Zm.062-8.666a4.262,4.262,0,0,1,3.076,1.213A4.736,4.736,0,0,1,116.307,9.1a6.122,6.122,0,0,1-1.107,3.762,4.006,4.006,0,0,1-3.437,1.485,3.88,3.88,0,0,1-3.085-1.314A5.19,5.19,0,0,1,107.536,9.5a5.615,5.615,0,0,1,1.2-3.779A4.041,4.041,0,0,1,111.974,4.314Zm6.216.272h1.5V5.923a4.215,4.215,0,0,1,1.415-1.187,3.773,3.773,0,0,1,1.661-.36,2.739,2.739,0,0,1,2.707,1.4,4.962,4.962,0,0,1,.387,2.188V14h-1.608V8.067A3.212,3.212,0,0,0,124,6.679,1.545,1.545,0,0,0,122.47,5.8a3.114,3.114,0,0,0-.923.114,2.377,2.377,0,0,0-1.143.773,2.329,2.329,0,0,0-.514.962,6.478,6.478,0,0,0-.119,1.419V14H118.19Zm-81.006,23.5h1.582V41H37.184Zm4.458,3.542H43.25V41H41.642Zm2.8-3.832L42.1,30.339H40.886l1.608-2.54Zm2.7,8.6a4.666,4.666,0,0,0,.642,2.531,2.248,2.248,0,0,0,2.057,1.02,2.166,2.166,0,0,0,1.806-.945,4.462,4.462,0,0,0,.708-2.711,4.009,4.009,0,0,0-.729-2.641,2.276,2.276,0,0,0-1.8-.857,2.378,2.378,0,0,0-1.938.914A4.186,4.186,0,0,0,47.146,36.4Zm2.382-4.983a3.349,3.349,0,0,1,1.811.457,4.253,4.253,0,0,1,.958.923V28.045h1.521V41H52.393V39.69a3.423,3.423,0,0,1-1.31,1.257,3.748,3.748,0,0,1-1.731.387,3.506,3.506,0,0,1-2.725-1.323,5.172,5.172,0,0,1-1.151-3.52,6.076,6.076,0,0,1,1.05-3.564A3.439,3.439,0,0,1,49.528,31.42Zm10.549-.044a4.294,4.294,0,0,1,1.942.47,3.582,3.582,0,0,1,1.433,1.217,4.2,4.2,0,0,1,.633,1.661,10.868,10.868,0,0,1,.141,2.074h-6.9A4.026,4.026,0,0,0,58,39.1a2.266,2.266,0,0,0,1.96.866,2.534,2.534,0,0,0,1.978-.817,2.755,2.755,0,0,0,.6-1.1h1.556a3.276,3.276,0,0,1-.409,1.156,4.111,4.111,0,0,1-.778,1.042,3.687,3.687,0,0,1-1.784.949,5.42,5.42,0,0,1-1.292.141,3.964,3.964,0,0,1-2.979-1.279,4.976,4.976,0,0,1-1.222-3.582,5.41,5.41,0,0,1,1.23-3.683A4.059,4.059,0,0,1,60.076,31.376ZM62.6,35.542A4.1,4.1,0,0,0,62.15,33.9a2.3,2.3,0,0,0-2.171-1.143,2.406,2.406,0,0,0-1.828.787,2.972,2.972,0,0,0-.782,2Zm3.614-3.955h1.5v1.626a3.592,3.592,0,0,1,.905-1.156,2.347,2.347,0,0,1,1.661-.681q.044,0,.149.009t.36.035v1.67a2.363,2.363,0,0,0-.259-.035q-.119-.009-.259-.009a2.258,2.258,0,0,0-1.837.769,2.684,2.684,0,0,0-.642,1.771V41H66.213Zm9.872-.211a4.294,4.294,0,0,1,1.942.47,3.582,3.582,0,0,1,1.433,1.217,4.2,4.2,0,0,1,.633,1.661,10.868,10.868,0,0,1,.141,2.074h-6.9a4.026,4.026,0,0,0,.677,2.3,2.266,2.266,0,0,0,1.96.866,2.534,2.534,0,0,0,1.978-.817,2.755,2.755,0,0,0,.6-1.1H80.1a3.276,3.276,0,0,1-.409,1.156,4.111,4.111,0,0,1-.778,1.042,3.687,3.687,0,0,1-1.784.949,5.42,5.42,0,0,1-1.292.141,3.964,3.964,0,0,1-2.979-1.279,4.976,4.976,0,0,1-1.222-3.582,5.41,5.41,0,0,1,1.23-3.683A4.059,4.059,0,0,1,76.085,31.376Zm2.522,4.166a4.1,4.1,0,0,0-.448-1.644,2.3,2.3,0,0,0-2.171-1.143,2.406,2.406,0,0,0-1.828.787,2.972,2.972,0,0,0-.782,2Zm4.511,2.5a2.3,2.3,0,0,0,.4,1.213,2.485,2.485,0,0,0,2.074.765,3.059,3.059,0,0,0,1.547-.382A1.27,1.27,0,0,0,87.8,38.46a1.011,1.011,0,0,0-.536-.923,6.374,6.374,0,0,0-1.354-.448l-1.257-.316A6.131,6.131,0,0,1,82.88,36.1a2,2,0,0,1-1.02-1.775,2.713,2.713,0,0,1,.962-2.162,3.839,3.839,0,0,1,2.588-.826,3.593,3.593,0,0,1,3.067,1.248,2.708,2.708,0,0,1,.571,1.705H87.556a1.83,1.83,0,0,0-.378-.976,2.41,2.41,0,0,0-1.89-.624,2.259,2.259,0,0,0-1.358.343,1.074,1.074,0,0,0-.461.905,1.114,1.114,0,0,0,.606.984,3.644,3.644,0,0,0,1.037.387l1.046.255a8.087,8.087,0,0,1,2.285.8,2.118,2.118,0,0,1,.923,1.907,2.906,2.906,0,0,1-.954,2.171,4.059,4.059,0,0,1-2.9.914,3.9,3.9,0,0,1-2.975-.954,3.606,3.606,0,0,1-.936-2.36Zm8.439,1.037h1.837V41H91.557Z" transform="translate(457.573 2878.72)" fill="#212429"/>
      <path id="Parrafo-2" data-name="Parrafo" d="M13.494,1.089h9.413V2.671H15.2v3.92h7.128V8.085H15.2v4.377h7.84V14H13.494Zm12.4,3.5,2.514,7.664,2.628-7.664H32.77L29.219,14H27.532L24.06,4.587ZM35.338,11.5a1.3,1.3,0,0,0,.5,1.081,1.857,1.857,0,0,0,1.187.4,3.608,3.608,0,0,0,1.617-.387,2.176,2.176,0,0,0,1.318-2.1V9.21a2.707,2.707,0,0,1-.747.308,6.366,6.366,0,0,1-.9.176l-.958.123a3.664,3.664,0,0,0-1.292.36A1.4,1.4,0,0,0,35.338,11.5ZM39.17,8.3a.859.859,0,0,0,.729-.457,1.391,1.391,0,0,0,.105-.606,1.285,1.285,0,0,0-.576-1.173,3.089,3.089,0,0,0-1.648-.365,2.094,2.094,0,0,0-1.758.668,2.2,2.2,0,0,0-.378,1.1H34.169A2.718,2.718,0,0,1,35.3,5.04a4.637,4.637,0,0,1,2.518-.681,5.124,5.124,0,0,1,2.7.633A2.147,2.147,0,0,1,41.544,6.96v5.423a.694.694,0,0,0,.1.4.487.487,0,0,0,.426.149q.105,0,.237-.013t.281-.04v1.169a4.406,4.406,0,0,1-.562.132,4.111,4.111,0,0,1-.527.026,1.3,1.3,0,0,1-1.187-.58,2.239,2.239,0,0,1-.272-.87,4.025,4.025,0,0,1-1.389,1.1,4.3,4.3,0,0,1-2,.466,2.967,2.967,0,0,1-2.14-.8,2.642,2.642,0,0,1-.831-1.991A2.564,2.564,0,0,1,34.5,9.5a3.889,3.889,0,0,1,2.145-.888Zm5.012-7.207h1.582V14H44.182Zm5.539,3.5v6.249a2.635,2.635,0,0,0,.229,1.178,1.6,1.6,0,0,0,1.573.844,2.224,2.224,0,0,0,2.25-1.477A5.858,5.858,0,0,0,54.1,9.21V4.587H55.68V14H54.186l.018-1.389a3.191,3.191,0,0,1-.765.905,3.365,3.365,0,0,1-2.2.738A2.834,2.834,0,0,1,48.5,12.91a4,4,0,0,1-.4-1.925v-6.4ZM59.364,11.5a1.3,1.3,0,0,0,.5,1.081,1.857,1.857,0,0,0,1.187.4,3.608,3.608,0,0,0,1.617-.387,2.176,2.176,0,0,0,1.318-2.1V9.21a2.707,2.707,0,0,1-.747.308,6.366,6.366,0,0,1-.9.176l-.958.123a3.664,3.664,0,0,0-1.292.36A1.4,1.4,0,0,0,59.364,11.5ZM63.2,8.3a.859.859,0,0,0,.729-.457,1.391,1.391,0,0,0,.105-.606,1.285,1.285,0,0,0-.576-1.173,3.089,3.089,0,0,0-1.648-.365,2.094,2.094,0,0,0-1.758.668,2.2,2.2,0,0,0-.378,1.1H58.2A2.718,2.718,0,0,1,59.325,5.04a4.637,4.637,0,0,1,2.518-.681,5.124,5.124,0,0,1,2.7.633A2.147,2.147,0,0,1,65.569,6.96v5.423a.694.694,0,0,0,.1.4.487.487,0,0,0,.426.149q.105,0,.237-.013t.281-.04v1.169a4.406,4.406,0,0,1-.562.132,4.111,4.111,0,0,1-.527.026,1.3,1.3,0,0,1-1.187-.58,2.239,2.239,0,0,1-.272-.87,4.025,4.025,0,0,1-1.389,1.1,4.3,4.3,0,0,1-2,.466,2.967,2.967,0,0,1-2.14-.8,2.642,2.642,0,0,1-.831-1.991,2.564,2.564,0,0,1,.817-2.03,3.889,3.889,0,0,1,2.145-.888Zm8.6-3.981a4.1,4.1,0,0,1,2.588.773,3.705,3.705,0,0,1,1.2,2.663H74.044A2.839,2.839,0,0,0,73.4,6.305a2.027,2.027,0,0,0-1.608-.576,2.222,2.222,0,0,0-2.162,1.477A5.865,5.865,0,0,0,69.21,9.57a4.449,4.449,0,0,0,.6,2.382,2.317,2.317,0,0,0,3.441.365,3.311,3.311,0,0,0,.8-1.648h1.538a4.129,4.129,0,0,1-1.318,2.738,4.113,4.113,0,0,1-2.7.866,3.6,3.6,0,0,1-2.944-1.349,5.164,5.164,0,0,1-1.1-3.371,5.678,5.678,0,0,1,1.2-3.858A3.891,3.891,0,0,1,71.794,4.314Zm5.372.316h1.608V14H77.166Zm0-3.542h1.608V2.882H77.166ZM84.9,12.98A2.182,2.182,0,0,0,87.06,11.79a5.933,5.933,0,0,0,.584-2.65A4.718,4.718,0,0,0,87.222,7a2.373,2.373,0,0,0-2.3-1.3A2.271,2.271,0,0,0,82.81,6.8a5.133,5.133,0,0,0-.659,2.672,4.465,4.465,0,0,0,.659,2.5A2.322,2.322,0,0,0,84.9,12.98Zm.062-8.666A4.262,4.262,0,0,1,88.04,5.527,4.736,4.736,0,0,1,89.3,9.1a6.122,6.122,0,0,1-1.107,3.762,4.006,4.006,0,0,1-3.437,1.485,3.88,3.88,0,0,1-3.085-1.314A5.19,5.19,0,0,1,80.525,9.5a5.615,5.615,0,0,1,1.2-3.779A4.041,4.041,0,0,1,84.963,4.314Zm6.216.272h1.5V5.923A4.215,4.215,0,0,1,94.1,4.736a3.773,3.773,0,0,1,1.661-.36,2.739,2.739,0,0,1,2.707,1.4,4.962,4.962,0,0,1,.387,2.188V14H97.244V8.067a3.212,3.212,0,0,0-.255-1.389A1.545,1.545,0,0,0,95.459,5.8a3.114,3.114,0,0,0-.923.114,2.377,2.377,0,0,0-1.143.773,2.329,2.329,0,0,0-.514.962,6.478,6.478,0,0,0-.119,1.419V14H91.179Zm13.932-.211a4.294,4.294,0,0,1,1.942.47,3.582,3.582,0,0,1,1.433,1.217,4.2,4.2,0,0,1,.633,1.661A10.868,10.868,0,0,1,109.26,9.8h-6.9a4.026,4.026,0,0,0,.677,2.3,2.266,2.266,0,0,0,1.96.866,2.534,2.534,0,0,0,1.978-.817,2.755,2.755,0,0,0,.6-1.1h1.556a3.276,3.276,0,0,1-.409,1.156,4.111,4.111,0,0,1-.778,1.042,3.687,3.687,0,0,1-1.784.949,5.42,5.42,0,0,1-1.292.141,3.964,3.964,0,0,1-2.979-1.279,4.976,4.976,0,0,1-1.222-3.582,5.41,5.41,0,0,1,1.23-3.683A4.059,4.059,0,0,1,105.112,4.376Zm2.522,4.166a4.1,4.1,0,0,0-.448-1.644,2.3,2.3,0,0,0-2.171-1.143,2.406,2.406,0,0,0-1.828.787,2.972,2.972,0,0,0-.782,2Zm4.511,2.5a2.3,2.3,0,0,0,.4,1.213,2.485,2.485,0,0,0,2.074.765,3.059,3.059,0,0,0,1.547-.382,1.27,1.27,0,0,0,.668-1.182,1.011,1.011,0,0,0-.536-.923,6.374,6.374,0,0,0-1.354-.448l-1.257-.316a6.131,6.131,0,0,1-1.775-.668,2,2,0,0,1-1.02-1.775,2.713,2.713,0,0,1,.962-2.162,3.839,3.839,0,0,1,2.588-.826,3.593,3.593,0,0,1,3.067,1.248,2.708,2.708,0,0,1,.571,1.705h-1.494a1.83,1.83,0,0,0-.378-.976,2.41,2.41,0,0,0-1.89-.624,2.259,2.259,0,0,0-1.358.343,1.074,1.074,0,0,0-.461.905,1.114,1.114,0,0,0,.606.984,3.644,3.644,0,0,0,1.037.387l1.046.255a8.087,8.087,0,0,1,2.285.8,2.118,2.118,0,0,1,.923,1.907,2.906,2.906,0,0,1-.954,2.171,4.059,4.059,0,0,1-2.9.914,3.9,3.9,0,0,1-2.975-.954,3.606,3.606,0,0,1-.936-2.36ZM5.6,36.4a4.666,4.666,0,0,0,.642,2.531A2.248,2.248,0,0,0,8.3,39.954a2.166,2.166,0,0,0,1.806-.945,4.462,4.462,0,0,0,.708-2.711,4.009,4.009,0,0,0-.729-2.641,2.276,2.276,0,0,0-1.8-.857,2.378,2.378,0,0,0-1.938.914A4.186,4.186,0,0,0,5.6,36.4ZM7.987,31.42a3.349,3.349,0,0,1,1.811.457,4.253,4.253,0,0,1,.958.923V28.045h1.521V41H10.852V39.69a3.423,3.423,0,0,1-1.31,1.257,3.748,3.748,0,0,1-1.731.387,3.506,3.506,0,0,1-2.725-1.323,5.172,5.172,0,0,1-1.151-3.52,6.076,6.076,0,0,1,1.05-3.564A3.439,3.439,0,0,1,7.987,31.42Zm10.549-.044a4.294,4.294,0,0,1,1.942.47,3.582,3.582,0,0,1,1.433,1.217,4.2,4.2,0,0,1,.633,1.661,10.868,10.868,0,0,1,.141,2.074h-6.9a4.026,4.026,0,0,0,.677,2.3,2.266,2.266,0,0,0,1.96.866,2.534,2.534,0,0,0,1.978-.817,2.755,2.755,0,0,0,.6-1.1h1.556a3.276,3.276,0,0,1-.409,1.156,4.111,4.111,0,0,1-.778,1.042,3.687,3.687,0,0,1-1.784.949,5.42,5.42,0,0,1-1.292.141,3.964,3.964,0,0,1-2.979-1.279,4.976,4.976,0,0,1-1.222-3.582,5.41,5.41,0,0,1,1.23-3.683A4.059,4.059,0,0,1,18.535,31.376Zm2.522,4.166A4.1,4.1,0,0,0,20.61,33.9a2.3,2.3,0,0,0-2.171-1.143,2.406,2.406,0,0,0-1.828.787,2.972,2.972,0,0,0-.782,2Zm9.575.861a4.666,4.666,0,0,0,.642,2.531,2.248,2.248,0,0,0,2.057,1.02,2.166,2.166,0,0,0,1.806-.945,4.462,4.462,0,0,0,.708-2.711,4.009,4.009,0,0,0-.729-2.641,2.276,2.276,0,0,0-1.8-.857,2.378,2.378,0,0,0-1.938.914A4.186,4.186,0,0,0,30.633,36.4Zm2.382-4.983a3.349,3.349,0,0,1,1.811.457,4.253,4.253,0,0,1,.958.923V28.045H37.3V41H35.88V39.69a3.423,3.423,0,0,1-1.31,1.257,3.748,3.748,0,0,1-1.731.387,3.506,3.506,0,0,1-2.725-1.323,5.172,5.172,0,0,1-1.151-3.52,6.076,6.076,0,0,1,1.05-3.564A3.439,3.439,0,0,1,33.015,31.42Zm10.549-.044a4.294,4.294,0,0,1,1.942.47,3.582,3.582,0,0,1,1.433,1.217,4.2,4.2,0,0,1,.633,1.661,10.868,10.868,0,0,1,.141,2.074h-6.9a4.026,4.026,0,0,0,.677,2.3,2.266,2.266,0,0,0,1.96.866,2.534,2.534,0,0,0,1.978-.817,2.755,2.755,0,0,0,.6-1.1H47.58a3.276,3.276,0,0,1-.409,1.156,4.111,4.111,0,0,1-.778,1.042,3.687,3.687,0,0,1-1.784.949,5.42,5.42,0,0,1-1.292.141,3.964,3.964,0,0,1-2.979-1.279,4.976,4.976,0,0,1-1.222-3.582,5.41,5.41,0,0,1,1.23-3.683A4.059,4.059,0,0,1,43.563,31.376Zm2.522,4.166a4.1,4.1,0,0,0-.448-1.644,2.3,2.3,0,0,0-2.171-1.143,2.406,2.406,0,0,0-1.828.787,2.972,2.972,0,0,0-.782,2Zm4.511,2.5a2.3,2.3,0,0,0,.4,1.213,2.485,2.485,0,0,0,2.074.765,3.059,3.059,0,0,0,1.547-.382,1.27,1.27,0,0,0,.668-1.182,1.011,1.011,0,0,0-.536-.923,6.374,6.374,0,0,0-1.354-.448l-1.257-.316a6.131,6.131,0,0,1-1.775-.668,2,2,0,0,1-1.02-1.775,2.713,2.713,0,0,1,.962-2.162,3.839,3.839,0,0,1,2.588-.826,3.593,3.593,0,0,1,3.067,1.248,2.708,2.708,0,0,1,.571,1.705H55.035a1.83,1.83,0,0,0-.378-.976,2.41,2.41,0,0,0-1.89-.624,2.259,2.259,0,0,0-1.358.343,1.074,1.074,0,0,0-.461.905,1.114,1.114,0,0,0,.606.984,3.644,3.644,0,0,0,1.037.387l1.046.255a8.087,8.087,0,0,1,2.285.8,2.118,2.118,0,0,1,.923,1.907,2.906,2.906,0,0,1-.954,2.171,4.059,4.059,0,0,1-2.9.914,3.9,3.9,0,0,1-2.975-.954,3.606,3.606,0,0,1-.936-2.36Zm11.981-6.671a4.294,4.294,0,0,1,1.942.47,3.582,3.582,0,0,1,1.433,1.217,4.2,4.2,0,0,1,.633,1.661,10.868,10.868,0,0,1,.141,2.074h-6.9a4.026,4.026,0,0,0,.677,2.3,2.266,2.266,0,0,0,1.96.866,2.534,2.534,0,0,0,1.978-.817,2.755,2.755,0,0,0,.6-1.1h1.556a3.276,3.276,0,0,1-.409,1.156,4.111,4.111,0,0,1-.778,1.042,3.687,3.687,0,0,1-1.784.949,5.42,5.42,0,0,1-1.292.141,3.964,3.964,0,0,1-2.979-1.279,4.976,4.976,0,0,1-1.222-3.582,5.41,5.41,0,0,1,1.23-3.683A4.059,4.059,0,0,1,62.578,31.376ZM65.1,35.542a4.1,4.1,0,0,0-.448-1.644,2.3,2.3,0,0,0-2.171-1.143,2.406,2.406,0,0,0-1.828.787,2.972,2.972,0,0,0-.782,2Zm3.57-3.955h1.564v1.336a5.258,5.258,0,0,1,1.02-1.011,3.066,3.066,0,0,1,1.775-.536,2.794,2.794,0,0,1,1.811.554,2.894,2.894,0,0,1,.7.932,3.419,3.419,0,0,1,1.239-1.121,3.457,3.457,0,0,1,1.6-.365,2.616,2.616,0,0,1,2.584,1.371,4.482,4.482,0,0,1,.369,1.986V41H79.692V34.461a1.523,1.523,0,0,0-.47-1.292,1.861,1.861,0,0,0-1.147-.352,2.277,2.277,0,0,0-1.6.624,2.74,2.74,0,0,0-.672,2.083V41H74.19V34.856a3.192,3.192,0,0,0-.229-1.4,1.394,1.394,0,0,0-1.345-.659,2.32,2.32,0,0,0-1.63.694,3.4,3.4,0,0,0-.734,2.514V41H68.67Zm18.969,8.35a2.257,2.257,0,0,0,1.841-.927,4.413,4.413,0,0,0,.734-2.773,5.176,5.176,0,0,0-.325-1.934,2.383,2.383,0,0,0-4.5.088,6.514,6.514,0,0,0-.325,2.232,4.732,4.732,0,0,0,.325,1.854A2.243,2.243,0,0,0,87.639,39.937Zm-4.1-8.306h1.538v1.248a3.84,3.84,0,0,1,1.037-.993A3.338,3.338,0,0,1,88,31.358a3.537,3.537,0,0,1,2.716,1.226,5.023,5.023,0,0,1,1.116,3.5q0,3.076-1.608,4.395a3.634,3.634,0,0,1-2.373.835,3.221,3.221,0,0,1-1.784-.466,4.111,4.111,0,0,1-.94-.905v4.808H83.543ZM97.6,31.376a4.294,4.294,0,0,1,1.942.47,3.582,3.582,0,0,1,1.433,1.217,4.2,4.2,0,0,1,.633,1.661,10.868,10.868,0,0,1,.141,2.074h-6.9a4.026,4.026,0,0,0,.677,2.3,2.266,2.266,0,0,0,1.96.866,2.534,2.534,0,0,0,1.978-.817,2.755,2.755,0,0,0,.6-1.1h1.556a3.276,3.276,0,0,1-.409,1.156,4.111,4.111,0,0,1-.778,1.042,3.687,3.687,0,0,1-1.784.949,5.42,5.42,0,0,1-1.292.141,3.964,3.964,0,0,1-2.979-1.279,4.976,4.976,0,0,1-1.222-3.582,5.41,5.41,0,0,1,1.23-3.683A4.059,4.059,0,0,1,97.6,31.376Zm2.522,4.166a4.1,4.1,0,0,0-.448-1.644A2.3,2.3,0,0,0,97.5,32.756a2.406,2.406,0,0,0-1.828.787,2.972,2.972,0,0,0-.782,2Zm3.57-3.955h1.5v1.336a4.215,4.215,0,0,1,1.415-1.187,3.773,3.773,0,0,1,1.661-.36,2.739,2.739,0,0,1,2.707,1.4,4.962,4.962,0,0,1,.387,2.188V41h-1.608V35.067a3.212,3.212,0,0,0-.255-1.389,1.545,1.545,0,0,0-1.529-.879,3.114,3.114,0,0,0-.923.114,2.377,2.377,0,0,0-1.143.773,2.329,2.329,0,0,0-.514.962,6.478,6.478,0,0,0-.119,1.419V41h-1.582Zm4.649-2.918a4.415,4.415,0,0,0,.448.167,1.411,1.411,0,0,0,.413.062.791.791,0,0,0,.7-.308,1.171,1.171,0,0,0,.158-.5h.923a2.426,2.426,0,0,1-.708,1.538,1.786,1.786,0,0,1-1.147.422,2.237,2.237,0,0,1-.492-.07,4.083,4.083,0,0,1-.527-.158l-.466-.167q-.413-.149-.672-.224a1.821,1.821,0,0,0-.505-.075.677.677,0,0,0-.505.2,1.133,1.133,0,0,0-.268.615h-.861a3.219,3.219,0,0,1,.378-1.134,1.637,1.637,0,0,1,1.485-.809,2.855,2.855,0,0,1,.664.088A6.577,6.577,0,0,1,108.341,28.669Zm9.1,11.312A2.182,2.182,0,0,0,119.6,38.79a5.933,5.933,0,0,0,.584-2.65A4.718,4.718,0,0,0,119.759,34a2.373,2.373,0,0,0-2.3-1.3,2.271,2.271,0,0,0-2.109,1.107,5.133,5.133,0,0,0-.659,2.672,4.465,4.465,0,0,0,.659,2.5A2.322,2.322,0,0,0,117.439,39.98Zm.062-8.666a4.262,4.262,0,0,1,3.076,1.213,4.736,4.736,0,0,1,1.257,3.568,6.122,6.122,0,0,1-1.107,3.762,4.006,4.006,0,0,1-3.437,1.485,3.88,3.88,0,0,1-3.085-1.314,5.19,5.19,0,0,1-1.143-3.529,5.615,5.615,0,0,1,1.2-3.779A4.041,4.041,0,0,1,117.5,31.314Zm6.594,7.77h1.837V41h-1.837Z" transform="translate(728.961 2878.72)" fill="#212429"/>
      <path id="Parrafo-3" data-name="Parrafo" d="M12.492,1.089h9.413V2.671H14.2v3.92h7.128V8.085H14.2v4.377h7.84V14H12.492Zm11.63,3.5h1.5V5.923A4.215,4.215,0,0,1,27.04,4.736a3.773,3.773,0,0,1,1.661-.36,2.739,2.739,0,0,1,2.707,1.4,4.962,4.962,0,0,1,.387,2.188V14H30.186V8.067a3.212,3.212,0,0,0-.255-1.389A1.545,1.545,0,0,0,28.4,5.8a3.114,3.114,0,0,0-.923.114,2.377,2.377,0,0,0-1.143.773,2.329,2.329,0,0,0-.514.962A6.478,6.478,0,0,0,25.7,9.069V14H24.122Zm13.642-.272a4.1,4.1,0,0,1,2.588.773,3.705,3.705,0,0,1,1.2,2.663H40.014a2.839,2.839,0,0,0-.642-1.446,2.027,2.027,0,0,0-1.608-.576A2.222,2.222,0,0,0,35.6,7.206,5.865,5.865,0,0,0,35.18,9.57a4.449,4.449,0,0,0,.6,2.382,2.317,2.317,0,0,0,3.441.365,3.311,3.311,0,0,0,.8-1.648h1.538a4.129,4.129,0,0,1-1.318,2.738,4.113,4.113,0,0,1-2.7.866,3.6,3.6,0,0,1-2.944-1.349,5.164,5.164,0,0,1-1.1-3.371,5.678,5.678,0,0,1,1.2-3.858A3.891,3.891,0,0,1,37.764,4.314Zm6.954.272v6.249a2.635,2.635,0,0,0,.229,1.178,1.6,1.6,0,0,0,1.573.844,2.224,2.224,0,0,0,2.25-1.477A5.858,5.858,0,0,0,49.1,9.21V4.587h1.582V14H49.183l.018-1.389a3.191,3.191,0,0,1-.765.905,3.365,3.365,0,0,1-2.2.738A2.834,2.834,0,0,1,43.5,12.91a4,4,0,0,1-.4-1.925v-6.4Zm12.35-.211a4.294,4.294,0,0,1,1.942.47,3.582,3.582,0,0,1,1.433,1.217,4.2,4.2,0,0,1,.633,1.661A10.868,10.868,0,0,1,61.217,9.8h-6.9a4.026,4.026,0,0,0,.677,2.3,2.266,2.266,0,0,0,1.96.866,2.534,2.534,0,0,0,1.978-.817,2.755,2.755,0,0,0,.6-1.1h1.556a3.276,3.276,0,0,1-.409,1.156,4.111,4.111,0,0,1-.778,1.042,3.687,3.687,0,0,1-1.784.949,5.42,5.42,0,0,1-1.292.141,3.964,3.964,0,0,1-2.979-1.279,4.976,4.976,0,0,1-1.222-3.582,5.41,5.41,0,0,1,1.23-3.683A4.059,4.059,0,0,1,57.069,4.376Zm2.522,4.166A4.1,4.1,0,0,0,59.143,6.9a2.3,2.3,0,0,0-2.171-1.143,2.406,2.406,0,0,0-1.828.787,2.972,2.972,0,0,0-.782,2Zm4.511,2.5a2.3,2.3,0,0,0,.4,1.213,2.485,2.485,0,0,0,2.074.765,3.059,3.059,0,0,0,1.547-.382,1.27,1.27,0,0,0,.668-1.182,1.011,1.011,0,0,0-.536-.923,6.374,6.374,0,0,0-1.354-.448L65.64,9.772A6.131,6.131,0,0,1,63.864,9.1a2,2,0,0,1-1.02-1.775,2.713,2.713,0,0,1,.962-2.162A3.839,3.839,0,0,1,66.4,4.341a3.593,3.593,0,0,1,3.067,1.248,2.708,2.708,0,0,1,.571,1.705H68.54a1.83,1.83,0,0,0-.378-.976,2.41,2.41,0,0,0-1.89-.624,2.259,2.259,0,0,0-1.358.343,1.074,1.074,0,0,0-.461.905,1.114,1.114,0,0,0,.606.984,3.644,3.644,0,0,0,1.037.387l1.046.255a8.087,8.087,0,0,1,2.285.8,2.118,2.118,0,0,1,.923,1.907,2.906,2.906,0,0,1-.954,2.171,4.059,4.059,0,0,1-2.9.914,3.9,3.9,0,0,1-2.975-.954,3.606,3.606,0,0,1-.936-2.36Zm8.378-9.088h1.6V4.587h1.5V5.879h-1.5v6.144a.665.665,0,0,0,.334.659,1.42,1.42,0,0,0,.615.1q.114,0,.246,0t.308-.022V14a3.532,3.532,0,0,1-.567.114,5.39,5.39,0,0,1-.637.035,1.717,1.717,0,0,1-1.5-.567,2.519,2.519,0,0,1-.4-1.472V5.879H71.205V4.587h1.274Zm5.9,9.536a1.3,1.3,0,0,0,.5,1.081,1.857,1.857,0,0,0,1.187.4,3.608,3.608,0,0,0,1.617-.387A2.176,2.176,0,0,0,83,10.484V9.21a2.707,2.707,0,0,1-.747.308,6.366,6.366,0,0,1-.9.176l-.958.123a3.664,3.664,0,0,0-1.292.36A1.4,1.4,0,0,0,78.379,11.5Zm3.832-3.2a.859.859,0,0,0,.729-.457,1.391,1.391,0,0,0,.105-.606,1.285,1.285,0,0,0-.576-1.173,3.089,3.089,0,0,0-1.648-.365,2.094,2.094,0,0,0-1.758.668,2.2,2.2,0,0,0-.378,1.1H77.21A2.718,2.718,0,0,1,78.339,5.04a4.637,4.637,0,0,1,2.518-.681,5.124,5.124,0,0,1,2.7.633A2.147,2.147,0,0,1,84.584,6.96v5.423a.694.694,0,0,0,.1.4.487.487,0,0,0,.426.149q.105,0,.237-.013t.281-.04v1.169a4.406,4.406,0,0,1-.562.132,4.111,4.111,0,0,1-.527.026,1.3,1.3,0,0,1-1.187-.58,2.239,2.239,0,0,1-.272-.87,4.025,4.025,0,0,1-1.389,1.1,4.3,4.3,0,0,1-2,.466,2.967,2.967,0,0,1-2.14-.8,2.642,2.642,0,0,1-.831-1.991,2.564,2.564,0,0,1,.817-2.03,3.889,3.889,0,0,1,2.145-.888Zm5.908,2.751a2.3,2.3,0,0,0,.4,1.213,2.485,2.485,0,0,0,2.074.765,3.059,3.059,0,0,0,1.547-.382A1.27,1.27,0,0,0,92.8,11.46a1.011,1.011,0,0,0-.536-.923,6.374,6.374,0,0,0-1.354-.448l-1.257-.316A6.131,6.131,0,0,1,87.881,9.1a2,2,0,0,1-1.02-1.775,2.713,2.713,0,0,1,.962-2.162,3.839,3.839,0,0,1,2.588-.826A3.593,3.593,0,0,1,93.48,5.589a2.708,2.708,0,0,1,.571,1.705H92.557a1.83,1.83,0,0,0-.378-.976,2.41,2.41,0,0,0-1.89-.624,2.259,2.259,0,0,0-1.358.343,1.074,1.074,0,0,0-.461.905,1.114,1.114,0,0,0,.606.984,3.644,3.644,0,0,0,1.037.387l1.046.255a8.087,8.087,0,0,1,2.285.8,2.118,2.118,0,0,1,.923,1.907,2.906,2.906,0,0,1-.954,2.171,4.059,4.059,0,0,1-2.9.914,3.9,3.9,0,0,1-2.975-.954,3.606,3.606,0,0,1-.936-2.36ZM102.185,9.4a4.666,4.666,0,0,0,.642,2.531,2.248,2.248,0,0,0,2.057,1.02,2.166,2.166,0,0,0,1.806-.945A4.462,4.462,0,0,0,107.4,9.3a4.009,4.009,0,0,0-.729-2.641,2.276,2.276,0,0,0-1.8-.857,2.378,2.378,0,0,0-1.938.914A4.186,4.186,0,0,0,102.185,9.4Zm2.382-4.983a3.349,3.349,0,0,1,1.811.457,4.253,4.253,0,0,1,.958.923V1.045h1.521V14h-1.424V12.69a3.423,3.423,0,0,1-1.31,1.257,3.748,3.748,0,0,1-1.731.387,3.506,3.506,0,0,1-2.725-1.323,5.172,5.172,0,0,1-1.151-3.52,6.076,6.076,0,0,1,1.05-3.564A3.439,3.439,0,0,1,104.567,4.42Zm10.549-.044a4.294,4.294,0,0,1,1.942.47,3.582,3.582,0,0,1,1.433,1.217,4.2,4.2,0,0,1,.633,1.661,10.868,10.868,0,0,1,.141,2.074h-6.9a4.026,4.026,0,0,0,.677,2.3,2.266,2.266,0,0,0,1.96.866,2.534,2.534,0,0,0,1.978-.817,2.755,2.755,0,0,0,.6-1.1h1.556a3.276,3.276,0,0,1-.409,1.156,4.111,4.111,0,0,1-.778,1.042,3.687,3.687,0,0,1-1.784.949,5.42,5.42,0,0,1-1.292.141,3.964,3.964,0,0,1-2.979-1.279,4.976,4.976,0,0,1-1.222-3.582,5.41,5.41,0,0,1,1.23-3.683A4.059,4.059,0,0,1,115.115,4.376Zm2.522,4.166A4.1,4.1,0,0,0,117.19,6.9a2.3,2.3,0,0,0-2.171-1.143,2.406,2.406,0,0,0-1.828.787,2.972,2.972,0,0,0-.782,2ZM10.26,31.314a4.1,4.1,0,0,1,2.588.773,3.705,3.705,0,0,1,1.2,2.663H12.51a2.839,2.839,0,0,0-.642-1.446,2.027,2.027,0,0,0-1.608-.576A2.222,2.222,0,0,0,8.1,34.206a5.865,5.865,0,0,0-.422,2.364,4.449,4.449,0,0,0,.6,2.382,2.05,2.05,0,0,0,1.881.967,2.057,2.057,0,0,0,1.56-.6,3.311,3.311,0,0,0,.8-1.648h1.538a4.129,4.129,0,0,1-1.318,2.738,4.113,4.113,0,0,1-2.7.866,3.6,3.6,0,0,1-2.944-1.349,5.164,5.164,0,0,1-1.1-3.371,5.678,5.678,0,0,1,1.2-3.858A3.891,3.891,0,0,1,10.26,31.314Zm5.416-3.226h1.582V41H15.676Zm3.957,3.542h1.608V41H19.633Zm0-3.542h1.608v1.793H19.633Zm4,3.5H25.2v1.336a5.258,5.258,0,0,1,1.02-1.011,3.066,3.066,0,0,1,1.775-.536,2.794,2.794,0,0,1,1.811.554,2.894,2.894,0,0,1,.7.932,3.419,3.419,0,0,1,1.239-1.121,3.457,3.457,0,0,1,1.6-.365,2.616,2.616,0,0,1,2.584,1.371,4.482,4.482,0,0,1,.369,1.986V41H34.655V34.461a1.523,1.523,0,0,0-.47-1.292,1.861,1.861,0,0,0-1.147-.352,2.277,2.277,0,0,0-1.6.624,2.74,2.74,0,0,0-.672,2.083V41H29.154V34.856a3.192,3.192,0,0,0-.229-1.4A1.394,1.394,0,0,0,27.58,32.8a2.32,2.32,0,0,0-1.63.694,3.4,3.4,0,0,0-.734,2.514V41H23.634ZM39.843,38.5a1.3,1.3,0,0,0,.5,1.081,1.857,1.857,0,0,0,1.187.4,3.608,3.608,0,0,0,1.617-.387,2.176,2.176,0,0,0,1.318-2.1V36.21a2.707,2.707,0,0,1-.747.308,6.366,6.366,0,0,1-.9.176l-.958.123a3.664,3.664,0,0,0-1.292.36A1.4,1.4,0,0,0,39.843,38.5Zm3.832-3.2a.859.859,0,0,0,.729-.457,1.391,1.391,0,0,0,.105-.606,1.285,1.285,0,0,0-.576-1.173,3.089,3.089,0,0,0-1.648-.365,2.094,2.094,0,0,0-1.758.668,2.2,2.2,0,0,0-.378,1.1H38.674A2.718,2.718,0,0,1,39.8,32.04a4.637,4.637,0,0,1,2.518-.681,5.124,5.124,0,0,1,2.7.633,2.147,2.147,0,0,1,1.028,1.969v5.423a.694.694,0,0,0,.1.4.487.487,0,0,0,.426.149q.105,0,.237-.013t.281-.04v1.169a4.406,4.406,0,0,1-.562.132A4.111,4.111,0,0,1,46,41.2a1.3,1.3,0,0,1-1.187-.58,2.239,2.239,0,0,1-.272-.87,4.025,4.025,0,0,1-1.389,1.1,4.3,4.3,0,0,1-2,.466,2.967,2.967,0,0,1-2.14-.8,2.642,2.642,0,0,1-.831-1.991,2.564,2.564,0,0,1,.817-2.03,3.889,3.889,0,0,1,2.145-.888Zm15.85-3.709h1.749q-.334.905-1.485,4.131-.861,2.426-1.441,3.955a26.739,26.739,0,0,1-1.934,4.395,2.21,2.21,0,0,1-1.934.791,3.794,3.794,0,0,1-.514-.026,4.062,4.062,0,0,1-.444-.1V43.294a5.458,5.458,0,0,0,.6.141,2.333,2.333,0,0,0,.325.026,1.139,1.139,0,0,0,.646-.145,1.338,1.338,0,0,0,.347-.356q.044-.07.316-.721t.4-.967l-3.48-9.686h1.793l2.522,7.664Zm11.755-.272a4.1,4.1,0,0,1,2.588.773,3.705,3.705,0,0,1,1.2,2.663H73.53a2.839,2.839,0,0,0-.642-1.446,2.027,2.027,0,0,0-1.608-.576,2.222,2.222,0,0,0-2.162,1.477A5.865,5.865,0,0,0,68.7,36.57a4.449,4.449,0,0,0,.6,2.382,2.317,2.317,0,0,0,3.441.365,3.311,3.311,0,0,0,.8-1.648h1.538a3.72,3.72,0,0,1-4.017,3.6,3.6,3.6,0,0,1-2.944-1.349,5.164,5.164,0,0,1-1.1-3.371,5.678,5.678,0,0,1,1.2-3.858A3.891,3.891,0,0,1,71.28,31.314Zm6.954.272v6.249a2.635,2.635,0,0,0,.229,1.178,1.6,1.6,0,0,0,1.573.844,2.224,2.224,0,0,0,2.25-1.477,5.858,5.858,0,0,0,.325-2.171V31.587h1.582V41H82.7l.018-1.389a3.191,3.191,0,0,1-.765.905,3.365,3.365,0,0,1-2.2.738,2.834,2.834,0,0,1-2.742-1.345,4,4,0,0,1-.4-1.925v-6.4Zm8.474-3.5H88.29V41H86.708Zm4.273.87h1.6v2.628h1.5v1.292h-1.5v6.144a.665.665,0,0,0,.334.659,1.42,1.42,0,0,0,.615.1q.114,0,.246,0t.308-.022V41a3.532,3.532,0,0,1-.567.114,5.39,5.39,0,0,1-.637.035,1.717,1.717,0,0,1-1.5-.567,2.519,2.519,0,0,1-.4-1.472V32.879H89.707V31.587h1.274Zm6.268,2.628v6.249a2.635,2.635,0,0,0,.229,1.178,1.6,1.6,0,0,0,1.573.844,2.224,2.224,0,0,0,2.25-1.477,5.858,5.858,0,0,0,.325-2.171V31.587h1.582V41h-1.494l.018-1.389a3.191,3.191,0,0,1-.765.905,3.365,3.365,0,0,1-2.2.738,2.834,2.834,0,0,1-2.742-1.345,4,4,0,0,1-.4-1.925v-6.4Zm8.474,0h1.5v1.626a3.592,3.592,0,0,1,.905-1.156,2.347,2.347,0,0,1,1.661-.681q.044,0,.149.009t.36.035v1.67a2.363,2.363,0,0,0-.259-.035q-.119-.009-.259-.009a2.258,2.258,0,0,0-1.837.769,2.684,2.684,0,0,0-.642,1.771V41h-1.582Zm7.165,6.908a1.3,1.3,0,0,0,.5,1.081,1.857,1.857,0,0,0,1.187.4,3.608,3.608,0,0,0,1.617-.387,2.176,2.176,0,0,0,1.318-2.1V36.21a2.707,2.707,0,0,1-.747.308,6.366,6.366,0,0,1-.9.176l-.958.123a3.664,3.664,0,0,0-1.292.36A1.4,1.4,0,0,0,112.889,38.5Zm3.832-3.2a.859.859,0,0,0,.729-.457,1.391,1.391,0,0,0,.105-.606,1.285,1.285,0,0,0-.576-1.173,3.089,3.089,0,0,0-1.648-.365,2.094,2.094,0,0,0-1.758.668,2.2,2.2,0,0,0-.378,1.1H111.72a2.718,2.718,0,0,1,1.129-2.421,4.637,4.637,0,0,1,2.518-.681,5.124,5.124,0,0,1,2.7.633,2.147,2.147,0,0,1,1.028,1.969v5.423a.694.694,0,0,0,.1.4.487.487,0,0,0,.426.149q.105,0,.237-.013t.281-.04v1.169a4.406,4.406,0,0,1-.562.132,4.111,4.111,0,0,1-.527.026,1.3,1.3,0,0,1-1.187-.58,2.239,2.239,0,0,1-.272-.87,4.025,4.025,0,0,1-1.389,1.1,4.3,4.3,0,0,1-2,.466,2.967,2.967,0,0,1-2.14-.8,2.642,2.642,0,0,1-.831-1.991,2.564,2.564,0,0,1,.817-2.03,3.889,3.889,0,0,1,2.145-.888Zm5.346,3.788H123.9V41h-1.837Z" transform="translate(1000.348 2878.72)" fill="#212429"/>
      <g id="leadership" transform="translate(488.24 2795.138)">
        <g id="Grupo_1172059" data-name="Grupo 1172059" transform="translate(0.002 0)">
          <path id="Trazado_1011544" data-name="Trazado 1011544" d="M62.348,20.439,47.936,6.027l.573-.573a2.165,2.165,0,0,0,0-3.063L46.753.636a2.163,2.163,0,0,0-3.062,0L35.348,8.977a.923.923,0,0,0,1.3,1.3L45,1.938a.318.318,0,0,1,.451,0L47.2,3.7a.319.319,0,0,1,0,.453l-22.8,22.8a3.91,3.91,0,0,0-1.333.32l-1.7-1.7L33.608,13.326a.923.923,0,0,0-1.3-1.3L20.068,24.258l-2.5-2.5a3.906,3.906,0,0,0-6.584,1.963A3.905,3.905,0,0,0,5.57,29.129,3.9,3.9,0,0,0,3.11,35.1a3.9,3.9,0,0,0-1.964,6.582l.747.747-1.62,1.62a.923.923,0,0,0,1.3,1.3l1.62-1.62,2.21,2.21L.272,51.081a.923.923,0,0,0,1.3,1.3l5.135-5.135L14.83,55.4a.923.923,0,0,0,1.308-1.3l-5.026-5.047a3.9,3.9,0,0,0,3.009-4.132c.109.009.219.015.329.015A3.9,3.9,0,0,0,18.339,40.7a3.906,3.906,0,0,0,3.091-1.122l3.214-3.214.142.142v3.344a.912.912,0,0,1-.269.649l-1.648,1.648a4.353,4.353,0,0,0,0,6.149l2.89,2.89a.923.923,0,0,0,1.3-1.3l-2.89-2.89a2.506,2.506,0,0,1,0-3.54L25.821,41.8a2.745,2.745,0,0,0,.809-1.954V36.123a.923.923,0,0,0-.27-.652l-1.065-1.065a.923.923,0,0,0-1.3,0l-3.866,3.866a2.07,2.07,0,0,1-2.884.028,2.007,2.007,0,0,1-.609-1.442,2.169,2.169,0,0,1,.628-1.546l5.927-5.927a2.062,2.062,0,0,1,2.913,0l2.986,2.986a6.436,6.436,0,0,1,1.867,4.078l.523,7.108a.923.923,0,0,0,.268.585L50.312,62.71a.923.923,0,0,0,1.3-1.3L33.29,43.079l-.5-6.766a8.283,8.283,0,0,0-2.4-5.247L27.4,28.08a3.892,3.892,0,0,0-.867-.653l4.969-4.969,6.46,6.459a.923.923,0,0,0,1.3-1.3l-6.46-6.459L46.631,7.332,61.043,21.744a.32.32,0,0,1-.087.515L53.11,26.048a3.424,3.424,0,0,0-1.584,1.586l-3.788,7.842a.32.32,0,0,1-.515.088l-4.908-4.908a.923.923,0,0,0-1.3,1.3l4.907,4.907a2.165,2.165,0,0,0,3.481-.589l3.789-7.844a1.57,1.57,0,0,1,.726-.727l7.845-3.789a2.165,2.165,0,0,0,.589-3.48Zm-49,2.619a2.062,2.062,0,0,1,2.913,0l5.322,5.322-2.913,2.913-5.322-5.322a2.062,2.062,0,0,1,0-2.913ZM12.293,45.25a2.06,2.06,0,0,1-3.516,1.456L2.451,40.38a2.06,2.06,0,0,1,2.913-2.913l6.326,6.326A2.046,2.046,0,0,1,12.293,45.25Zm3.614-2.761a2.062,2.062,0,0,1-2.913,0L4.911,34.406a2.06,2.06,0,0,1,2.913-2.913l8.083,8.083A2.062,2.062,0,0,1,15.907,42.489Zm.048-8.482a4.012,4.012,0,0,0-1.067,1.941L7.371,28.431a2.06,2.06,0,0,1,2.913-2.913l7.08,7.08Z" transform="translate(-0.002 0)" fill="#86b60c"/>
          <path id="Trazado_1011545" data-name="Trazado 1011545" d="M144.628,462.672a.923.923,0,0,0-1.308,1.3l4.236,4.256a.923.923,0,0,0,1.308-1.3Z" transform="translate(-125.456 -405.521)" fill="#86b60c"/>
          <path id="Trazado_1011546" data-name="Trazado 1011546" d="M318.3,115.715l-1.577,1.115a2.271,2.271,0,0,0,.637,4.024l1.845.573a.426.426,0,0,1,.281.281l.573,1.845a2.258,2.258,0,0,0,1.814,1.569,2.315,2.315,0,0,0,.362.029,2.255,2.255,0,0,0,1.848-.961l1.115-1.577a.432.432,0,0,1,.354-.18l1.932.025a2.271,2.271,0,0,0,1.849-3.63l-1.155-1.548a.427.427,0,0,1-.062-.392l.62-1.83a2.271,2.271,0,0,0-2.881-2.881l-1.829.62a.427.427,0,0,1-.392-.062l-1.548-1.155a2.272,2.272,0,0,0-3.63,1.849l.025,1.932a.427.427,0,0,1-.18.354Zm1.065,1.506a2.271,2.271,0,0,0,.96-1.883l-.025-1.932a.415.415,0,0,1,.233-.385.445.445,0,0,1,.2-.049.412.412,0,0,1,.25.087l1.548,1.155a2.269,2.269,0,0,0,2.088.331l1.829-.62a.426.426,0,0,1,.541.541l-.62,1.829a2.271,2.271,0,0,0,.331,2.088l1.155,1.548a.426.426,0,0,1-.347.681l-1.932-.025a2.266,2.266,0,0,0-1.884.96l-1.115,1.577a.426.426,0,0,1-.755-.12l-.573-1.845a2.27,2.27,0,0,0-1.495-1.495l-1.845-.573a.426.426,0,0,1-.12-.755Z" transform="translate(-276.925 -97.457)" fill="#86b60c"/>
        </g>
      </g>
      <path id="growth" d="M58.769,81.5h-.388V52.087a2.135,2.135,0,0,0-2.133-2.133H54.887a67.08,67.08,0,0,0,4.56-5.564l.607.45a1.588,1.588,0,0,0,2.533-1.23l.191-6.574a1.588,1.588,0,0,0-2.094-1.551l-6.233,2.1a1.588,1.588,0,0,0-.439,2.782l1,.739c-.9,1.23-1.855,2.437-2.845,3.6a.92.92,0,1,0,1.4,1.194c1.221-1.432,2.389-2.932,3.473-4.459a.92.92,0,0,0-.2-1.272L55.5,39.173l5.431-1.828-.166,5.728-.967-.716a.92.92,0,0,0-1.3.206A65.909,65.909,0,0,1,35.12,62.833,65.906,65.906,0,0,1,5.028,70.139H2.761a.92.92,0,1,1,0-1.841H5.029a63.419,63.419,0,0,0,25-5.1A63.458,63.458,0,0,0,50.885,48.849a.92.92,0,1,0-1.323-1.279,62.025,62.025,0,0,1-7.4,6.532H34.8a2.135,2.135,0,0,0-2.133,2.132v3.714q-1.232.613-2.5,1.174V59.816a2.135,2.135,0,0,0-2.132-2.133H20.7a2.135,2.135,0,0,0-2.132,2.133v5.15q-1.242.278-2.5.506V62.736A2.135,2.135,0,0,0,13.94,60.6H6.6a2.135,2.135,0,0,0-2.132,2.133v3.722h-1.7a2.761,2.761,0,1,0,0,5.522h1.7V81.5h-.5A3.891,3.891,0,0,0,.083,85.391v2.522a1.582,1.582,0,0,0,1.58,1.58H61.075a1.582,1.582,0,0,0,1.58-1.58V85.391A3.891,3.891,0,0,0,58.769,81.5ZM34.511,56.234a.292.292,0,0,1,.292-.292h4.763q-2.448,1.644-5.055,3.051Zm-14.1,3.582a.292.292,0,0,1,.292-.292h7.342a.292.292,0,0,1,.292.292V61.9a61.962,61.962,0,0,1-7.926,2.62V59.816ZM6.6,62.444H13.94a.292.292,0,0,1,.292.292v3.04a62,62,0,0,1-7.926.668V62.736a.292.292,0,0,1,.292-.292ZM53.145,51.795h3.1a.292.292,0,0,1,.292.292V81.5H48.614V56q2.359-2,4.531-4.2ZM35.964,64.468a66.976,66.976,0,0,0,6.473-3.818v9.8a.92.92,0,1,0,1.841,0V59.379q1.269-.909,2.5-1.878v24h-2.5V74.376a.92.92,0,1,0-1.841,0V81.5H34.511V65.194Q35.242,64.839,35.964,64.468ZM20.408,70.192a67.957,67.957,0,0,0,7.926-2.374V81.5H20.408Zm9.767-3.08q1.258-.5,2.5-1.059V81.5h-2.5ZM6.305,71.966a67.227,67.227,0,0,0,7.926-.624v3.05a.92.92,0,0,0,1.841,0v-3.33q1.252-.209,2.5-.465V81.5h-2.5V78.317a.92.92,0,1,0-1.841,0V81.5H6.305ZM60.815,87.653H1.924V85.391A2.048,2.048,0,0,1,3.97,83.345h54.8a2.048,2.048,0,0,1,2.046,2.045Z" transform="translate(763.069 2768.625)" fill="#36ceef"/>
      <g id="united" transform="translate(1035.152 2795.518)">
        <path id="Trazado_1011547" data-name="Trazado 1011547" d="M202.433,447.754l-.18.881.174-.882a.9.9,0,1,0-.348,1.764l.016,0a.919.919,0,0,0,.17.016.9.9,0,0,0,.168-1.783Zm0,0" transform="translate(-177.21 -394.05)" fill="#ff9d1c"/>
        <path id="Trazado_1011548" data-name="Trazado 1011548" d="M261.758,450.26l.089.895-.092-.894a.9.9,0,0,0,.091,1.794c.031,0,.062,0,.093,0l.025,0a.9.9,0,0,0-.206-1.787Zm0,0" transform="translate(-229.659 -396.267)" fill="#ff9d1c"/>
        <path id="Trazado_1011549" data-name="Trazado 1011549" d="M232.048,451.232h-.013a.894.894,0,0,0-.932.859.9.9,0,0,0,.864.939h.042a.9.9,0,0,0,.04-1.8Zm0,0" transform="translate(-203.392 -397.125)" fill="#ff9d1c"/>
        <path id="Trazado_1011550" data-name="Trazado 1011550" d="M173.785,439.847l-.011,0a.894.894,0,0,0-1.145.544.9.9,0,1,0,1.156-.54Zm0,0" transform="translate(-151.884 -387.057)" fill="#ff9d1c"/>
        <path id="Trazado_1011551" data-name="Trazado 1011551" d="M291.03,444.832l.222.872-.224-.871a.9.9,0,0,0,.223,1.77.89.89,0,0,0,.225-.029l.024-.006a.9.9,0,0,0-.47-1.736Zm0,0" transform="translate(-255.538 -391.468)" fill="#ff9d1c"/>
        <path id="Trazado_1011552" data-name="Trazado 1011552" d="M319.133,435.029l.356.825-.359-.824a.9.9,0,1,0,.718,1.649l.022-.01a.9.9,0,0,0-.737-1.64Zm0,0" transform="translate(-280.39 -382.799)" fill="#ff9d1c"/>
        <path id="Trazado_1011553" data-name="Trazado 1011553" d="M147.381,80.488a.9.9,0,1,0-.42-1.694l-.011.006a.9.9,0,0,0,.431,1.688Zm0,0" transform="translate(-128.915 -69.253)" fill="#ff9d1c"/>
        <path id="Trazado_1011554" data-name="Trazado 1011554" d="M63.718,164.941a.9.9,0,0,0,1.215-.379l.016-.031a.9.9,0,1,0-1.23.41Zm0,0" transform="translate(-55.655 -143.661)" fill="#ff9d1c"/>
        <path id="Trazado_1011555" data-name="Trazado 1011555" d="M52.208,192.745a.9.9,0,0,0,1.14-.563l.012-.036a.9.9,0,1,0-1.152.6Zm0,0" transform="translate(-45.41 -168.082)" fill="#ff9d1c"/>
        <path id="Trazado_1011556" data-name="Trazado 1011556" d="M79.333,139.232a.9.9,0,0,0,1.256-.2l.012-.016a.9.9,0,0,0-1.463-1.046l.725.533-.727-.529a.9.9,0,0,0,.2,1.256Zm0,0" transform="translate(-69.495 -121.098)" fill="#ff9d1c"/>
        <path id="Trazado_1011557" data-name="Trazado 1011557" d="M121.944,96.628a.9.9,0,1,0-.521-1.634l-.022.016a.9.9,0,0,0,.543,1.618Zm0,0" transform="translate(-106.531 -83.451)" fill="#ff9d1c"/>
        <path id="Trazado_1011558" data-name="Trazado 1011558" d="M49.68,310.8a.9.9,0,1,0-.012-.039Zm0,0" transform="translate(-43.685 -272.495)" fill="#ff9d1c"/>
        <path id="Trazado_1011559" data-name="Trazado 1011559" d="M99.289,116.413a.9.9,0,1,0-.628-1.542l-.015.015a.9.9,0,0,0,.643,1.527Zm0,0" transform="translate(-86.593 -100.865)" fill="#ff9d1c"/>
        <path id="Trazado_1011560" data-name="Trazado 1011560" d="M45.141,280.977a.9.9,0,0,0-1.785.222l.005.036a.9.9,0,0,0,1.78-.259Zm0,0" transform="translate(-38.152 -246.597)" fill="#ff9d1c"/>
        <path id="Trazado_1011561" data-name="Trazado 1011561" d="M42.464,251.959h.027a.9.9,0,0,0,.9-.873v-.038a.9.9,0,1,0-.926.911Zm0,0" transform="translate(-36.604 -220.154)" fill="#ff9d1c"/>
        <path id="Trazado_1011562" data-name="Trazado 1011562" d="M45.073,221.981a.929.929,0,0,0,.16.014.9.9,0,0,0,.884-.741c0-.013,0-.026.006-.039a.9.9,0,1,0-1.05.766Zm0,0" transform="translate(-39.017 -193.783)" fill="#ff9d1c"/>
        <path id="Trazado_1011563" data-name="Trazado 1011563" d="M403.081,143.174a.9.9,0,0,0,1.481-1.021l-.748.5.745-.5a.9.9,0,1,0-1.489,1.009Zm0,0" transform="translate(-354.603 -124.757)" fill="#ff9d1c"/>
        <path id="Trazado_1011564" data-name="Trazado 1011564" d="M436.739,229.028a.9.9,0,0,0-.793.994l0,.039a.9.9,0,0,0,.889.772.922.922,0,0,0,.128-.009.906.906,0,0,0-.229-1.8Zm0,0" transform="translate(-383.67 -201.561)" fill="#ff9d1c"/>
        <path id="Trazado_1011565" data-name="Trazado 1011565" d="M429.675,199.439l0,.012a.9.9,0,0,0,.862.646.886.886,0,0,0,.254-.037.9.9,0,0,0,.609-1.117l0-.012a.9.9,0,1,0-1.726.508Zm0,0" transform="translate(-378.123 -174.51)" fill="#ff9d1c"/>
        <path id="Trazado_1011566" data-name="Trazado 1011566" d="M418.631,170.264a.9.9,0,0,0,.811.5.9.9,0,0,0,.805-1.293l-.815.38.814-.382a.9.9,0,0,0-1.629.763Zm0,0" transform="translate(-368.349 -148.698)" fill="#ff9d1c"/>
        <path id="Trazado_1011567" data-name="Trazado 1011567" d="M383.46,118.888a.905.905,0,1,0-.027-.029Zm0,0" transform="translate(-337.248 -103.279)" fill="#ff9d1c"/>
        <path id="Trazado_1011568" data-name="Trazado 1011568" d="M438.242,260.385a.9.9,0,0,0-.077,1.808h.051a.9.9,0,0,0,.9-.85v-.037A.9.9,0,0,0,438.242,260.385Zm0,0" transform="translate(-384.88 -229.163)" fill="#ff9d1c"/>
        <path id="Trazado_1011569" data-name="Trazado 1011569" d="M334.02,80.958l.022.012a.9.9,0,0,0,1.211-.37.9.9,0,0,0-.365-1.217l-.435.787.432-.789a.9.9,0,1,0-.865,1.577Zm0,0" transform="translate(-293.559 -69.765)" fill="#ff9d1c"/>
        <path id="Trazado_1011570" data-name="Trazado 1011570" d="M360.234,97.959l.014.011a.9.9,0,0,0,1.087-1.433l-.006,0a.9.9,0,1,0-1.1,1.427Zm0,0" transform="translate(-316.731 -84.793)" fill="#ff9d1c"/>
        <path id="Trazado_1011571" data-name="Trazado 1011571" d="M60.836,44.836l-4.221-4.229a1.9,1.9,0,0,0-2.689,0l-.1.1-.277-.277a3.63,3.63,0,0,1-.787-1.178.877.877,0,0,0-.064-.167,3.637,3.637,0,0,1-.209-1.222v-1.2a.906.906,0,1,0-.006-1.6A5.07,5.07,0,0,0,51,31.685l-4.1-4.1a4.859,4.859,0,0,0-6.214-.558l-.435-.437V16.3a5.107,5.107,0,0,0-1.267-3.368,3.629,3.629,0,0,1-.9-2.4V9.786h.062a1.9,1.9,0,0,0,1.9-1.9V1.9a1.9,1.9,0,0,0-1.9-1.9h-16.8a1.9,1.9,0,0,0-1.9,1.9V7.884a1.9,1.9,0,0,0,1.9,1.9h.139v.394a3.608,3.608,0,0,1-1.061,2.566l-1.813,1.816a5.074,5.074,0,0,0-1.492,3.608v5.8a4.849,4.849,0,0,0,.522,2.192,4.829,4.829,0,0,0-3.155,1.418l-4.1,4.1A5.074,5.074,0,0,0,8.9,35.293v2.569A3.608,3.608,0,0,1,7.84,40.428l-.274.274,0,0-.1-.1a1.9,1.9,0,0,0-2.689,0L.555,44.836a1.906,1.906,0,0,0,0,2.689L2,48.974A.9.9,0,1,0,3.273,47.7L1.828,46.255a.1.1,0,0,1,0-.148L6.05,41.878a.1.1,0,0,1,.143,0l.734.735h0L16.949,52.653l1.123,1.125a.1.1,0,0,1,0,.148L13.85,58.154a.1.1,0,0,1-.143,0l-7.887-7.9a.9.9,0,0,0-1.273,1.271l7.888,7.9a1.9,1.9,0,0,0,2.689,0L19.345,55.2a1.906,1.906,0,0,0,0-2.689l-.046-.046.533-.533a3.614,3.614,0,0,1,2.326-1.055,5.089,5.089,0,0,0,3.274-1.485L29.31,45.5a3.079,3.079,0,0,0,2.226-2.346,3.066,3.066,0,0,0,4.382-2.775V38.246a3.065,3.065,0,0,0,4.336-2.8V29.138l2.766,2.78a.9.9,0,0,0,1.275-1.269l-2.306-2.318a3.063,3.063,0,0,1,3.641.523l4.1,4.1a3.288,3.288,0,0,1,.966,2.337v2.569A5.4,5.4,0,0,0,52.277,41.7l.279.28-1.3,1.307-7.889,7.9-.44-.441-.014-.013-.077-.078a5.415,5.415,0,0,0-3.482-1.578,3.3,3.3,0,0,1-2.121-.963l-2.955-2.939a.9.9,0,1,0-1.268,1.275l2.953,2.937a5.089,5.089,0,0,0,3.275,1.485,3.615,3.615,0,0,1,2.326,1.054l.044.044a.865.865,0,0,0,.074.075l.415.415-.046.046a1.906,1.906,0,0,0,0,2.689l4.221,4.229a1.9,1.9,0,0,0,2.689,0l11.879-11.9a1.906,1.906,0,0,0,0-2.689Zm-7.744-8.942-.017,0-.164-.033ZM24.159,48.117a3.291,3.291,0,0,1-2.118.961,5.415,5.415,0,0,0-3.483,1.578l-.531.532-.478-.479-.018-.018-8.7-8.713.279-.28A5.4,5.4,0,0,0,10.7,37.862V35.293a3.286,3.286,0,0,1,.966-2.337l4.1-4.1a3.062,3.062,0,0,1,3.645-.52L17.1,30.648a.9.9,0,0,0,1.273,1.271l2.759-2.764V40.381a3.066,3.066,0,0,0,4.4,2.767,3.082,3.082,0,0,0,1.524,2.071Zm14.3-12.666a1.269,1.269,0,1,1-2.538,0V25.42a.9.9,0,0,0-1.8,0V40.381a1.268,1.268,0,0,1-2.519.21V25.409a.909.909,0,0,0-1.817.01V40.381a3.084,3.084,0,0,0,.019.337V42.53a1.269,1.269,0,1,1-2.537,0V25.4a.9.9,0,0,0-1.8,0V40.381a1.269,1.269,0,1,1-2.537,0V23.653a.9.9,0,1,0-1.8,0v3.094a.883.883,0,0,0-.216.1,3.077,3.077,0,0,1-1.993-2.878v-5.8a3.288,3.288,0,0,1,.966-2.337L21.7,14.017a5.394,5.394,0,0,0,1.587-3.837V9.786h1.808a.9.9,0,1,0,0-1.8H21.349a.1.1,0,0,1-.1-.1V1.9a.1.1,0,0,1,.1-.1h16.8a.1.1,0,0,1,.1.1V7.884a.1.1,0,0,1-.1.1H29.316a.9.9,0,1,0,0,1.8h6.971v.754a5.43,5.43,0,0,0,1.347,3.582,3.306,3.306,0,0,1,.821,2.181Zm21.107,10.8-11.879,11.9a.1.1,0,0,1-.072.03.1.1,0,0,1-.072-.03l-4.221-4.229a.1.1,0,0,1,0-.148L44,53.1h0l6.9-6.908,4.3-4.31a.1.1,0,0,1,.143,0l4.222,4.229a.1.1,0,0,1,0,.148Zm0,0" fill="#ff9d1c"/>
        <path id="Trazado_1011572" data-name="Trazado 1011572" d="M194.774,32.8a.959.959,0,1,0,.958.959A.959.959,0,0,0,194.774,32.8Zm0,0" transform="translate(-170.577 -28.871)" fill="#ff9d1c"/>
        <path id="Trazado_1011573" data-name="Trazado 1011573" d="M456.372,374.688a.959.959,0,1,0,.957.959A.96.96,0,0,0,456.372,374.688Zm0,0" transform="translate(-400.808 -329.761)" fill="#ff9d1c"/>
        <path id="Trazado_1011574" data-name="Trazado 1011574" d="M110.927,444.162a.958.958,0,1,0-.957.959A.96.96,0,0,0,110.927,444.162Zm0,0" transform="translate(-95.941 -390.061)" fill="#ff9d1c"/>
      </g>
    </g>
  </g>
</svg>
