<svg xmlns="http://www.w3.org/2000/svg" xmlns:xlink="http://www.w3.org/1999/xlink" width="768.76" height="212.015" viewBox="0 0 768.76 212.015">
  <defs>
    <filter id="Rectángulo_409638" x="0" y="41.994" width="200.986" height="134.032" filterUnits="userSpaceOnUse">
      <feOffset dy="3" input="SourceAlpha"/>
      <feGaussianBlur stdDeviation="3" result="blur"/>
      <feFlood flood-opacity="0.161"/>
      <feComposite operator="in" in2="blur"/>
      <feComposite in="SourceGraphic"/>
    </filter>
    <filter id="Rectángulo_409638-2" x="261.101" y="41.994" width="200.986" height="134.032" filterUnits="userSpaceOnUse">
      <feOffset dy="3" input="SourceAlpha"/>
      <feGaussianBlur stdDeviation="3" result="blur-2"/>
      <feFlood flood-opacity="0.161"/>
      <feComposite operator="in" in2="blur-2"/>
      <feComposite in="SourceGraphic"/>
    </filter>
    <filter id="Rectángulo_409638-3" x="522.201" y="41.994" width="200.986" height="134.032" filterUnits="userSpaceOnUse">
      <feOffset dy="3" input="SourceAlpha"/>
      <feGaussianBlur stdDeviation="3" result="blur-3"/>
      <feFlood flood-opacity="0.161"/>
      <feComposite operator="in" in2="blur-3"/>
      <feComposite in="SourceGraphic"/>
    </filter>
  </defs>
  <g id="Grupo_1172081" data-name="Grupo 1172081" transform="translate(-399 -6679)">
    <g id="Grupo_1158627" data-name="Grupo 1158627" transform="translate(-25.148 3782)">
      <g id="Grupo_1154846" data-name="Grupo 1154846" transform="translate(433.148 2897)">
        <g transform="matrix(1, 0, 0, 1, -9, 0)" filter="url(#Rectángulo_409638)">
          <rect id="Rectángulo_409638-4" data-name="Rectángulo 409638" width="182.986" height="116.032" transform="translate(9 47.99)" fill="#86b60c"/>
        </g>
        <path id="Trazado_991350" data-name="Trazado 991350" d="M268.405,227.706H180.473l74.181,106.01L180.473,439.721h87.932L342.59,333.716Z" transform="translate(-105.031 -227.706)" fill="#86b60c"/>
      </g>
      <path id="Contenido" d="M22.359,9.342H19.608V14H16.919V1.045h5.643a4.6,4.6,0,0,1,3.111,1,3.882,3.882,0,0,1,1.16,3.1,3.976,3.976,0,0,1-1.16,3.243A5.109,5.109,0,0,1,22.359,9.342Zm1.266-2.7a1.874,1.874,0,0,0,.527-1.477,1.753,1.753,0,0,0-.532-1.441,2.308,2.308,0,0,0-1.49-.431H19.608V7.109h2.522A2.2,2.2,0,0,0,23.625,6.644Zm9.853.088a2.078,2.078,0,0,0-2.03.984,3.829,3.829,0,0,0-.29,1.705V14H28.634V4.42h2.391V6.09a5.3,5.3,0,0,1,1.011-1.31,2.752,2.752,0,0,1,1.828-.589q.07,0,.119,0l.215.013V6.775q-.237-.026-.422-.035T33.477,6.731Zm10.178-1.1a5.59,5.59,0,0,1,1.213,3.595,5.553,5.553,0,0,1-1.213,3.608,4.456,4.456,0,0,1-3.683,1.5,4.456,4.456,0,0,1-3.683-1.5,5.553,5.553,0,0,1-1.213-3.608A5.59,5.59,0,0,1,36.29,5.633a4.426,4.426,0,0,1,3.683-1.521A4.426,4.426,0,0,1,43.655,5.633Zm-3.691.6a2,2,0,0,0-1.692.778,3.6,3.6,0,0,0-.593,2.219,3.619,3.619,0,0,0,.593,2.224,2.216,2.216,0,0,0,3.379,0,3.639,3.639,0,0,0,.589-2.224,3.619,3.619,0,0,0-.589-2.219A1.99,1.99,0,0,0,39.964,6.23ZM55.38,1.063V14H52.945V12.673a3.533,3.533,0,0,1-1.222,1.239,3.43,3.43,0,0,1-1.705.387,3.56,3.56,0,0,1-2.826-1.358,5.215,5.215,0,0,1-1.147-3.485A6,6,0,0,1,47.175,5.6a3.674,3.674,0,0,1,3.019-1.406,3.09,3.09,0,0,1,1.547.382,3.043,3.043,0,0,1,1.1,1.059V1.063ZM48.63,9.271a3.767,3.767,0,0,0,.527,2.118,1.756,1.756,0,0,0,1.582.8,1.849,1.849,0,0,0,1.617-.791,3.5,3.5,0,0,0,.554-2.048,3.141,3.141,0,0,0-.888-2.514,1.91,1.91,0,0,0-1.266-.457,1.759,1.759,0,0,0-1.613.831A3.848,3.848,0,0,0,48.63,9.271ZM63.8,12.646q-.035.044-.176.264a1.764,1.764,0,0,1-.334.387,3.488,3.488,0,0,1-1.138.721,3.879,3.879,0,0,1-1.288.193A2.87,2.87,0,0,1,58,12.682a5.852,5.852,0,0,1-.413-2.487V4.42h2.566v5.774a3.023,3.023,0,0,0,.193,1.23,1.338,1.338,0,0,0,1.345.729,1.758,1.758,0,0,0,1.758-1.037,3.754,3.754,0,0,0,.246-1.485V4.42h2.54V14H63.8Zm13.14-4.79H74.373a2.223,2.223,0,0,0-.36-.967,1.511,1.511,0,0,0-1.31-.58,1.725,1.725,0,0,0-1.731,1.257,5.255,5.255,0,0,0-.246,1.775,4.832,4.832,0,0,0,.246,1.7,1.671,1.671,0,0,0,1.688,1.2,1.488,1.488,0,0,0,1.248-.475,2.362,2.362,0,0,0,.448-1.23h2.558a4.191,4.191,0,0,1-.826,2.162A4.016,4.016,0,0,1,72.6,14.334a4.082,4.082,0,0,1-3.4-1.371,5.548,5.548,0,0,1-1.09-3.56,5.63,5.63,0,0,1,1.2-3.841,4.191,4.191,0,0,1,3.322-1.371A5,5,0,0,1,75.581,5,3.761,3.761,0,0,1,76.939,7.856Zm6.108,4.359v1.872l-1.187.044a3.184,3.184,0,0,1-2.426-.615,1.832,1.832,0,0,1-.422-1.327v-5.9H77.677V4.508h1.336V1.836h2.479V4.508h1.556V6.292H81.492v5.063a1.14,1.14,0,0,0,.149.734,1.645,1.645,0,0,0,.914.145q.114,0,.242,0T83.048,12.216Zm4.184-7.8V14h-2.54V4.42Zm0-3.454V3.277h-2.54V.966ZM88.717,4.42h2.813l2,7.066L95.563,4.42h2.689L94.8,14H92.153Zm13.526,0V14H99.7V4.42Zm0-3.454V3.277H99.7V.966Zm11.145.1V14h-2.435V12.673a3.533,3.533,0,0,1-1.222,1.239,3.43,3.43,0,0,1-1.705.387,3.56,3.56,0,0,1-2.826-1.358,5.215,5.215,0,0,1-1.147-3.485A6,6,0,0,1,105.183,5.6,3.674,3.674,0,0,1,108.2,4.191a3.09,3.09,0,0,1,1.547.382,3.043,3.043,0,0,1,1.1,1.059V1.063Zm-6.75,8.209a3.767,3.767,0,0,0,.527,2.118,1.756,1.756,0,0,0,1.582.8,1.849,1.849,0,0,0,1.617-.791,3.5,3.5,0,0,0,.554-2.048,3.141,3.141,0,0,0-.888-2.514,1.91,1.91,0,0,0-1.266-.457,1.759,1.759,0,0,0-1.613.831A3.848,3.848,0,0,0,106.637,9.271Zm9.387-3.814a4.09,4.09,0,0,1,3.41-1.266,6.059,6.059,0,0,1,2.795.624,2.4,2.4,0,0,1,1.222,2.355v4.395q0,.457.018,1.107a1.392,1.392,0,0,0,.149.668.9.9,0,0,0,.369.29V14h-2.725a2.79,2.79,0,0,1-.158-.545q-.044-.255-.07-.58a5.146,5.146,0,0,1-1.2.958,3.6,3.6,0,0,1-1.828.466,3.143,3.143,0,0,1-2.149-.743,2.649,2.649,0,0,1-.848-2.1,2.732,2.732,0,0,1,1.362-2.558,6.049,6.049,0,0,1,2.2-.615l.853-.105a3.91,3.91,0,0,0,.993-.22.753.753,0,0,0,.536-.712.845.845,0,0,0-.409-.813,2.553,2.553,0,0,0-1.2-.224,1.563,1.563,0,0,0-1.257.439,1.827,1.827,0,0,0-.352.879h-2.417A3.676,3.676,0,0,1,116.024,5.457Zm1.863,6.732a1.309,1.309,0,0,0,.861.29,2.551,2.551,0,0,0,1.49-.475,2.024,2.024,0,0,0,.708-1.731V9.342a2.722,2.722,0,0,1-.479.242,4.006,4.006,0,0,1-.664.171l-.562.105a3.632,3.632,0,0,0-1.134.343,1.149,1.149,0,0,0-.58,1.063A1.1,1.1,0,0,0,117.887,12.189ZM134.393,1.063V14h-2.435V12.673a3.533,3.533,0,0,1-1.222,1.239,3.43,3.43,0,0,1-1.705.387,3.56,3.56,0,0,1-2.826-1.358,5.215,5.215,0,0,1-1.147-3.485A6,6,0,0,1,126.189,5.6a3.674,3.674,0,0,1,3.019-1.406,3.09,3.09,0,0,1,1.547.382,3.043,3.043,0,0,1,1.1,1.059V1.063Zm-6.75,8.209a3.766,3.766,0,0,0,.527,2.118,1.756,1.756,0,0,0,1.582.8,1.849,1.849,0,0,0,1.617-.791,3.5,3.5,0,0,0,.554-2.048,3.141,3.141,0,0,0-.888-2.514,1.91,1.91,0,0,0-1.266-.457,1.759,1.759,0,0,0-1.613.831A3.848,3.848,0,0,0,127.643,9.271Z" transform="translate(468.701 2991.508)" fill="#fff"/>
    </g>
    <g id="Grupo_1158628" data-name="Grupo 1158628" transform="translate(-13.475 3782)">
      <g id="Grupo_1154847" data-name="Grupo 1154847" transform="translate(682.575 2897)">
        <g transform="matrix(1, 0, 0, 1, -270.1, 0)" filter="url(#Rectángulo_409638-2)">
          <rect id="Rectángulo_409638-5" data-name="Rectángulo 409638" width="182.986" height="116.032" transform="translate(270.1 47.99)" fill="#36ceef"/>
        </g>
        <path id="Trazado_991350-2" data-name="Trazado 991350" d="M268.405,227.706H180.473l74.181,106.01L180.473,439.721h87.932L342.59,333.716Z" transform="translate(-105.031 -227.706)" fill="#36ceef"/>
      </g>
      <path id="Contenido-2" data-name="Contenido" d="M13.043,12.128a4.767,4.767,0,0,0,1.556-.211,1.5,1.5,0,0,0,1.134-1.5,1.109,1.109,0,0,0-.562-.993A6.049,6.049,0,0,0,13.4,8.814l-1.371-.308a8.664,8.664,0,0,1-2.795-.993,3.159,3.159,0,0,1-1.31-2.8A3.744,3.744,0,0,1,9.193,1.818,5.351,5.351,0,0,1,12.911.667,5.653,5.653,0,0,1,16.4,1.752,3.876,3.876,0,0,1,17.921,4.9h-2.6A1.858,1.858,0,0,0,14.3,3.242a3.419,3.419,0,0,0-1.573-.325,2.937,2.937,0,0,0-1.67.422,1.343,1.343,0,0,0-.624,1.178,1.115,1.115,0,0,0,.615,1.037,7.531,7.531,0,0,0,1.688.536l2.232.536a5.772,5.772,0,0,1,2.215.94,3.168,3.168,0,0,1,1.16,2.646,3.734,3.734,0,0,1-1.358,2.949,5.689,5.689,0,0,1-3.836,1.173,6.223,6.223,0,0,1-3.981-1.156A3.841,3.841,0,0,1,7.717,10H10.3a2.66,2.66,0,0,0,.483,1.327A2.781,2.781,0,0,0,13.043,12.128ZM20.5,5.457a4.09,4.09,0,0,1,3.41-1.266,6.059,6.059,0,0,1,2.795.624,2.4,2.4,0,0,1,1.222,2.355v4.395q0,.457.018,1.107a1.392,1.392,0,0,0,.149.668.9.9,0,0,0,.369.29V14H25.743a2.79,2.79,0,0,1-.158-.545q-.044-.255-.07-.58a5.146,5.146,0,0,1-1.2.958,3.6,3.6,0,0,1-1.828.466,3.143,3.143,0,0,1-2.149-.743,2.649,2.649,0,0,1-.848-2.1,2.732,2.732,0,0,1,1.362-2.558,6.049,6.049,0,0,1,2.2-.615l.853-.105a3.91,3.91,0,0,0,.993-.22.753.753,0,0,0,.536-.712.845.845,0,0,0-.409-.813,2.553,2.553,0,0,0-1.2-.224,1.563,1.563,0,0,0-1.257.439,1.827,1.827,0,0,0-.352.879H19.8A3.676,3.676,0,0,1,20.5,5.457Zm1.863,6.732a1.309,1.309,0,0,0,.861.29A2.551,2.551,0,0,0,24.719,12a2.024,2.024,0,0,0,.708-1.731V9.342a2.722,2.722,0,0,1-.479.242,4.006,4.006,0,0,1-.664.171l-.562.105a3.632,3.632,0,0,0-1.134.343,1.149,1.149,0,0,0-.58,1.063A1.1,1.1,0,0,0,22.368,12.189Zm12.173.026v1.872l-1.187.044a3.184,3.184,0,0,1-2.426-.615,1.832,1.832,0,0,1-.422-1.327v-5.9H29.171V4.508h1.336V1.836h2.479V4.508h1.556V6.292H32.985v5.063a1.14,1.14,0,0,0,.149.734,1.645,1.645,0,0,0,.914.145q.114,0,.242,0T34.541,12.216Zm4.184-7.8V14h-2.54V4.42Zm0-3.454V3.277h-2.54V.966Zm9.026,3.894a3.086,3.086,0,0,1,1.292,2.479h-2.5a1.482,1.482,0,0,0-.272-.765,1.714,1.714,0,0,0-1.406-.51,2.021,2.021,0,0,0-1.165.255.734.734,0,0,0-.347.6.654.654,0,0,0,.369.624,15.98,15.98,0,0,0,2.61.694A4.8,4.8,0,0,1,48.568,9.3a2.415,2.415,0,0,1,.738,1.8,2.911,2.911,0,0,1-1.059,2.325,4.976,4.976,0,0,1-3.274.9,4.929,4.929,0,0,1-3.335-.954,3.1,3.1,0,0,1-1.077-2.43H43.1a1.673,1.673,0,0,0,.343.949,2.317,2.317,0,0,0,1.723.5,2.626,2.626,0,0,0,1.173-.22.737.737,0,0,0,.083-1.3,14.3,14.3,0,0,0-2.61-.756A5.437,5.437,0,0,1,41.519,9.1a2.191,2.191,0,0,1-.668-1.723A2.988,2.988,0,0,1,41.893,5.1a4.183,4.183,0,0,1,2.931-.954A5.427,5.427,0,0,1,47.751,4.859Zm7.9-3.894V3q-.211-.026-.708-.04a.814.814,0,0,0-.686.22.8.8,0,0,0-.189.514v.809h1.644V6.274H54.07V14h-2.5V6.274h-1.4V4.508h1.371V3.893a3.237,3.237,0,0,1,.519-2.118q.545-.861,2.628-.861.237,0,.431.013Zm1.863,4.491a4.09,4.09,0,0,1,3.41-1.266,6.059,6.059,0,0,1,2.795.624,2.4,2.4,0,0,1,1.222,2.355v4.395q0,.457.018,1.107a1.392,1.392,0,0,0,.149.668.9.9,0,0,0,.369.29V14H62.754a2.79,2.79,0,0,1-.158-.545q-.044-.255-.07-.58a5.146,5.146,0,0,1-1.2.958A3.6,3.6,0,0,1,59.5,14.3a3.143,3.143,0,0,1-2.149-.743,2.649,2.649,0,0,1-.848-2.1,2.732,2.732,0,0,1,1.362-2.558,6.049,6.049,0,0,1,2.2-.615l.853-.105a3.91,3.91,0,0,0,.993-.22.753.753,0,0,0,.536-.712.845.845,0,0,0-.409-.813,2.553,2.553,0,0,0-1.2-.224,1.563,1.563,0,0,0-1.257.439,1.827,1.827,0,0,0-.352.879H56.812A3.676,3.676,0,0,1,57.515,5.457Zm1.863,6.732a1.309,1.309,0,0,0,.861.29A2.551,2.551,0,0,0,61.73,12a2.024,2.024,0,0,0,.708-1.731V9.342a2.722,2.722,0,0,1-.479.242,4.006,4.006,0,0,1-.664.171l-.562.105A3.632,3.632,0,0,0,59.6,10.2a1.149,1.149,0,0,0-.58,1.063A1.1,1.1,0,0,0,59.379,12.189ZM75.454,7.856H72.887a2.223,2.223,0,0,0-.36-.967,1.511,1.511,0,0,0-1.31-.58,1.725,1.725,0,0,0-1.731,1.257,5.255,5.255,0,0,0-.246,1.775,4.832,4.832,0,0,0,.246,1.7,1.671,1.671,0,0,0,1.688,1.2,1.488,1.488,0,0,0,1.248-.475,2.362,2.362,0,0,0,.448-1.23h2.558A4.191,4.191,0,0,1,74.6,12.69a4.016,4.016,0,0,1-3.489,1.644,4.082,4.082,0,0,1-3.4-1.371,5.548,5.548,0,0,1-1.09-3.56,5.63,5.63,0,0,1,1.2-3.841,4.191,4.191,0,0,1,3.322-1.371A5,5,0,0,1,74.1,5,3.761,3.761,0,0,1,75.454,7.856Zm10.011,0H82.9a2.223,2.223,0,0,0-.36-.967,1.511,1.511,0,0,0-1.31-.58A1.725,1.725,0,0,0,79.5,7.566a5.255,5.255,0,0,0-.246,1.775,4.832,4.832,0,0,0,.246,1.7,1.671,1.671,0,0,0,1.688,1.2,1.488,1.488,0,0,0,1.248-.475,2.362,2.362,0,0,0,.448-1.23h2.558a4.191,4.191,0,0,1-.826,2.162,4.016,4.016,0,0,1-3.489,1.644,4.082,4.082,0,0,1-3.4-1.371,5.548,5.548,0,0,1-1.09-3.56,5.63,5.63,0,0,1,1.2-3.841,4.191,4.191,0,0,1,3.322-1.371A5,5,0,0,1,84.107,5,3.761,3.761,0,0,1,85.465,7.856Zm4.3-3.437V14h-2.54V4.42Zm0-3.454V3.277h-2.54V.966Zm10.415,4.667a5.59,5.59,0,0,1,1.213,3.595,5.553,5.553,0,0,1-1.213,3.608,5.274,5.274,0,0,1-7.365,0A5.553,5.553,0,0,1,91.6,9.228a5.59,5.59,0,0,1,1.213-3.595,5.22,5.22,0,0,1,7.365,0Zm-3.691.6a2,2,0,0,0-1.692.778A3.6,3.6,0,0,0,94.2,9.228a3.619,3.619,0,0,0,.593,2.224,2.216,2.216,0,0,0,3.379,0,3.639,3.639,0,0,0,.589-2.224,3.619,3.619,0,0,0-.589-2.219A1.99,1.99,0,0,0,96.486,6.23Zm-1.477-3.1L96.7.5h2.795L96.82,3.128Zm12.683,3.146a1.744,1.744,0,0,0-1.749,1.081,3.713,3.713,0,0,0-.246,1.459V14h-2.5V4.438h2.417v1.4a4.252,4.252,0,0,1,.914-1.063,3.177,3.177,0,0,1,1.96-.58,3.7,3.7,0,0,1,2.43.778,3.163,3.163,0,0,1,.945,2.58V14H109.3V8.173a2.659,2.659,0,0,0-.2-1.16A1.422,1.422,0,0,0,107.692,6.274ZM127.9,1.063V14h-2.435V12.673a3.533,3.533,0,0,1-1.222,1.239,3.43,3.43,0,0,1-1.705.387,3.56,3.56,0,0,1-2.826-1.358,5.215,5.215,0,0,1-1.147-3.485A6,6,0,0,1,119.694,5.6a3.674,3.674,0,0,1,3.019-1.406,3.09,3.09,0,0,1,1.547.382,3.043,3.043,0,0,1,1.1,1.059V1.063Zm-6.75,8.209a3.767,3.767,0,0,0,.527,2.118,1.756,1.756,0,0,0,1.582.8,1.849,1.849,0,0,0,1.617-.791,3.5,3.5,0,0,0,.554-2.048,3.141,3.141,0,0,0-.888-2.514,1.91,1.91,0,0,0-1.266-.457,1.759,1.759,0,0,0-1.613.831A3.848,3.848,0,0,0,121.148,9.271Zm17.227,1.916a3.178,3.178,0,0,1-.888,1.731,4.349,4.349,0,0,1-3.445,1.4,4.858,4.858,0,0,1-3.226-1.178,4.75,4.75,0,0,1-1.4-3.832,5.326,5.326,0,0,1,1.261-3.814,4.312,4.312,0,0,1,3.274-1.327,5.021,5.021,0,0,1,2.153.448,3.772,3.772,0,0,1,1.582,1.415,4.828,4.828,0,0,1,.729,1.978,12.771,12.771,0,0,1,.079,1.9h-6.557a2.381,2.381,0,0,0,.905,2.021,2.132,2.132,0,0,0,1.248.36,1.8,1.8,0,0,0,1.257-.439,2.087,2.087,0,0,0,.466-.659ZM135.9,8.252a2.181,2.181,0,0,0-.6-1.507,1.87,1.87,0,0,0-1.34-.514,1.7,1.7,0,0,0-1.349.545,2.72,2.72,0,0,0-.6,1.477Zm4.342-7.207h2.5V14h-2.5Zm-86.3,33.812H51.372a2.223,2.223,0,0,0-.36-.967,1.511,1.511,0,0,0-1.31-.58,1.725,1.725,0,0,0-1.731,1.257,5.255,5.255,0,0,0-.246,1.775,4.832,4.832,0,0,0,.246,1.7,1.671,1.671,0,0,0,1.688,1.2,1.488,1.488,0,0,0,1.248-.475,2.362,2.362,0,0,0,.448-1.23h2.558a4.191,4.191,0,0,1-.826,2.162A4.016,4.016,0,0,1,49.6,41.334a4.082,4.082,0,0,1-3.4-1.371,5.548,5.548,0,0,1-1.09-3.56,5.63,5.63,0,0,1,1.2-3.841,4.191,4.191,0,0,1,3.322-1.371A5,5,0,0,1,52.58,32,3.761,3.761,0,0,1,53.938,34.856Zm1.775-6.812h2.5V41h-2.5Zm7.523,3.375V41H60.7V31.42Zm0-3.454v2.312H60.7V27.966ZM73.863,38.188a3.178,3.178,0,0,1-.888,1.731,4.349,4.349,0,0,1-3.445,1.4A4.858,4.858,0,0,1,66.3,40.139a4.75,4.75,0,0,1-1.4-3.832,5.326,5.326,0,0,1,1.261-3.814,4.312,4.312,0,0,1,3.274-1.327,5.021,5.021,0,0,1,2.153.448,3.772,3.772,0,0,1,1.582,1.415,4.828,4.828,0,0,1,.729,1.978,12.771,12.771,0,0,1,.079,1.9H67.429a2.381,2.381,0,0,0,.905,2.021,2.132,2.132,0,0,0,1.248.36,1.8,1.8,0,0,0,1.257-.439,2.087,2.087,0,0,0,.466-.659Zm-2.479-2.936a2.181,2.181,0,0,0-.6-1.507,1.87,1.87,0,0,0-1.34-.514,1.7,1.7,0,0,0-1.349.545,2.72,2.72,0,0,0-.6,1.477Zm8.8-1.978a1.744,1.744,0,0,0-1.749,1.081,3.713,3.713,0,0,0-.246,1.459V41h-2.5V31.438h2.417v1.4a4.252,4.252,0,0,1,.914-1.063,3.177,3.177,0,0,1,1.96-.58,3.7,3.7,0,0,1,2.43.778,3.163,3.163,0,0,1,.945,2.58V41H81.791V35.173a2.659,2.659,0,0,0-.2-1.16A1.422,1.422,0,0,0,80.182,33.274Zm10.872,5.941v1.872l-1.187.044a3.184,3.184,0,0,1-2.426-.615,1.832,1.832,0,0,1-.422-1.327v-5.9H85.684V31.508H87.02V28.836H89.5v2.672h1.556v1.784H89.5v5.063a1.14,1.14,0,0,0,.149.734,1.645,1.645,0,0,0,.914.145q.114,0,.242,0T91.054,39.216Zm9.809-1.028a3.178,3.178,0,0,1-.888,1.731,4.349,4.349,0,0,1-3.445,1.4A4.858,4.858,0,0,1,93.3,40.139a4.75,4.75,0,0,1-1.4-3.832,5.326,5.326,0,0,1,1.261-3.814,4.312,4.312,0,0,1,3.274-1.327,5.021,5.021,0,0,1,2.153.448,3.772,3.772,0,0,1,1.582,1.415,4.828,4.828,0,0,1,.729,1.978,12.771,12.771,0,0,1,.079,1.9H94.429a2.381,2.381,0,0,0,.905,2.021,2.132,2.132,0,0,0,1.248.36,1.8,1.8,0,0,0,1.257-.439,2.087,2.087,0,0,0,.466-.659Zm-2.479-2.936a2.181,2.181,0,0,0-.6-1.507,1.87,1.87,0,0,0-1.34-.514,1.7,1.7,0,0,0-1.349.545,2.72,2.72,0,0,0-.6,1.477Zm4.245,3.129h2.663V41H102.63Z" transform="translate(716.474 2978.811)" fill="#212429"/>
    </g>
    <g id="Grupo_1158629" data-name="Grupo 1158629" transform="translate(-1.952 3782)">
      <g id="Grupo_1154848" data-name="Grupo 1154848" transform="translate(932.153 2897)">
        <g transform="matrix(1, 0, 0, 1, -531.2, 0)" filter="url(#Rectángulo_409638-3)">
          <rect id="Rectángulo_409638-6" data-name="Rectángulo 409638" width="182.986" height="116.032" transform="translate(531.2 47.99)" fill="#ff9d1c"/>
        </g>
        <path id="Trazado_991350-3" data-name="Trazado 991350" d="M268.405,227.706H180.473l74.181,106.01L180.473,439.721h87.932L342.59,333.716Z" transform="translate(-105.031 -227.706)" fill="#ff9d1c"/>
      </g>
      <path id="Contenido-3" data-name="Contenido" d="M26.987,13.033a5.281,5.281,0,0,1-3.709,1.327,5.588,5.588,0,0,1-4.395-1.793,7.177,7.177,0,0,1-1.6-4.939A7.115,7.115,0,0,1,19.1,2.4,5.421,5.421,0,0,1,23.128.8a5.443,5.443,0,0,1,4.781,2.145,4.643,4.643,0,0,1,.9,2.417H26.1a3.656,3.656,0,0,0-.677-1.406,2.753,2.753,0,0,0-2.188-.844A2.713,2.713,0,0,0,20.9,4.3a5.725,5.725,0,0,0-.853,3.371,5.025,5.025,0,0,0,.9,3.265,2.847,2.847,0,0,0,2.29,1.085,2.619,2.619,0,0,0,2.171-.932,4.047,4.047,0,0,0,.686-1.5H28.78A5.826,5.826,0,0,1,26.987,13.033ZM30.7,1.045h2.5V14H30.7ZM38.219,4.42V14h-2.54V4.42Zm0-3.454V3.277h-2.54V.966Zm7.8,6.091a1.227,1.227,0,0,0-1.239-.694,1.479,1.479,0,0,0-1.441.694,2.675,2.675,0,0,0-.2,1.178V14H40.6V4.438h2.435v1.4a4.031,4.031,0,0,1,.879-1.063,3.478,3.478,0,0,1,3.665-.079,2.812,2.812,0,0,1,.826,1.151A3.185,3.185,0,0,1,49.627,4.6a3.728,3.728,0,0,1,1.723-.4,3.335,3.335,0,0,1,1.248.246,2.784,2.784,0,0,1,1.116.861,2.752,2.752,0,0,1,.545,1.23,8.5,8.5,0,0,1,.088,1.415L54.329,14H51.763V7.9a2,2,0,0,0-.176-.9,1.249,1.249,0,0,0-1.23-.668,1.44,1.44,0,0,0-1.433.861,2.7,2.7,0,0,0-.2,1.1V14H46.2V8.3A3.2,3.2,0,0,0,46.024,7.057Zm10.986-1.6a4.09,4.09,0,0,1,3.41-1.266,6.059,6.059,0,0,1,2.795.624,2.4,2.4,0,0,1,1.222,2.355v4.395q0,.457.018,1.107a1.392,1.392,0,0,0,.149.668.9.9,0,0,0,.369.29V14H62.248a2.79,2.79,0,0,1-.158-.545q-.044-.255-.07-.58a5.146,5.146,0,0,1-1.2.958A3.6,3.6,0,0,1,59,14.3a3.143,3.143,0,0,1-2.149-.743,2.649,2.649,0,0,1-.848-2.1,2.732,2.732,0,0,1,1.362-2.558,6.049,6.049,0,0,1,2.2-.615l.853-.105a3.91,3.91,0,0,0,.993-.22.753.753,0,0,0,.536-.712.845.845,0,0,0-.409-.813,2.553,2.553,0,0,0-1.2-.224,1.563,1.563,0,0,0-1.257.439,1.827,1.827,0,0,0-.352.879H56.307A3.676,3.676,0,0,1,57.01,5.457Zm1.863,6.732a1.309,1.309,0,0,0,.861.29A2.551,2.551,0,0,0,61.224,12a2.024,2.024,0,0,0,.708-1.731V9.342a2.722,2.722,0,0,1-.479.242,4.006,4.006,0,0,1-.664.171l-.562.105a3.632,3.632,0,0,0-1.134.343,1.149,1.149,0,0,0-.58,1.063A1.1,1.1,0,0,0,58.873,12.189ZM71.714,1.045h2.5V14h-2.5Zm5.309,4.412a4.09,4.09,0,0,1,3.41-1.266,6.059,6.059,0,0,1,2.795.624,2.4,2.4,0,0,1,1.222,2.355v4.395q0,.457.018,1.107a1.392,1.392,0,0,0,.149.668.9.9,0,0,0,.369.29V14H82.261a2.79,2.79,0,0,1-.158-.545q-.044-.255-.07-.58a5.146,5.146,0,0,1-1.2.958,3.6,3.6,0,0,1-1.828.466,3.143,3.143,0,0,1-2.149-.743,2.649,2.649,0,0,1-.848-2.1,2.732,2.732,0,0,1,1.362-2.558,6.049,6.049,0,0,1,2.2-.615l.853-.105a3.91,3.91,0,0,0,.993-.22.753.753,0,0,0,.536-.712.845.845,0,0,0-.409-.813,2.553,2.553,0,0,0-1.2-.224,1.563,1.563,0,0,0-1.257.439,1.827,1.827,0,0,0-.352.879H76.32A3.676,3.676,0,0,1,77.023,5.457Zm1.863,6.732a1.309,1.309,0,0,0,.861.29A2.551,2.551,0,0,0,81.237,12a2.024,2.024,0,0,0,.708-1.731V9.342a2.722,2.722,0,0,1-.479.242,4.006,4.006,0,0,1-.664.171l-.562.105a3.632,3.632,0,0,0-1.134.343,1.149,1.149,0,0,0-.58,1.063A1.1,1.1,0,0,0,78.886,12.189Zm12.99,2.065a3.418,3.418,0,0,1-1.907-.475,3.809,3.809,0,0,1-.932-.984V14H86.585V1.063h2.5V5.668a3.655,3.655,0,0,1,1.046-1.02,3.107,3.107,0,0,1,1.723-.439,3.548,3.548,0,0,1,2.958,1.362,5.53,5.53,0,0,1,1.068,3.516,6.181,6.181,0,0,1-1.055,3.7A3.42,3.42,0,0,1,91.876,14.255Zm1.371-4.9a4.636,4.636,0,0,0-.264-1.687A1.837,1.837,0,0,0,91.138,6.4a1.864,1.864,0,0,0-1.872,1.239A4.651,4.651,0,0,0,89,9.342a3.572,3.572,0,0,0,.545,2.039,1.866,1.866,0,0,0,1.661.809,1.719,1.719,0,0,0,1.5-.782A3.572,3.572,0,0,0,93.247,9.351Zm12.41-3.718a5.59,5.59,0,0,1,1.213,3.595,5.553,5.553,0,0,1-1.213,3.608,5.274,5.274,0,0,1-7.365,0,5.553,5.553,0,0,1-1.213-3.608,5.59,5.59,0,0,1,1.213-3.595,5.22,5.22,0,0,1,7.365,0Zm-3.691.6a2,2,0,0,0-1.692.778,3.6,3.6,0,0,0-.593,2.219,3.619,3.619,0,0,0,.593,2.224,2.216,2.216,0,0,0,3.379,0,3.639,3.639,0,0,0,.589-2.224,3.619,3.619,0,0,0-.589-2.219A1.99,1.99,0,0,0,101.966,6.23Zm11.514.5a2.078,2.078,0,0,0-2.03.984,3.829,3.829,0,0,0-.29,1.705V14h-2.522V4.42h2.391V6.09a5.3,5.3,0,0,1,1.011-1.31,2.752,2.752,0,0,1,1.828-.589q.07,0,.119,0l.215.013V6.775q-.237-.026-.422-.035T113.48,6.731Zm2.549-1.274a4.09,4.09,0,0,1,3.41-1.266,6.059,6.059,0,0,1,2.795.624,2.4,2.4,0,0,1,1.222,2.355v4.395q0,.457.018,1.107a1.392,1.392,0,0,0,.149.668.9.9,0,0,0,.369.29V14h-2.725a2.79,2.79,0,0,1-.158-.545q-.044-.255-.07-.58a5.146,5.146,0,0,1-1.2.958,3.6,3.6,0,0,1-1.828.466,3.143,3.143,0,0,1-2.149-.743,2.649,2.649,0,0,1-.848-2.1,2.732,2.732,0,0,1,1.362-2.558,6.049,6.049,0,0,1,2.2-.615l.853-.105a3.91,3.91,0,0,0,.993-.22.753.753,0,0,0,.536-.712.845.845,0,0,0-.409-.813,2.553,2.553,0,0,0-1.2-.224,1.563,1.563,0,0,0-1.257.439,1.827,1.827,0,0,0-.352.879h-2.417A3.676,3.676,0,0,1,116.029,5.457Zm1.863,6.732a1.309,1.309,0,0,0,.861.29,2.551,2.551,0,0,0,1.49-.475,2.024,2.024,0,0,0,.708-1.731V9.342a2.722,2.722,0,0,1-.479.242,4.006,4.006,0,0,1-.664.171l-.562.105a3.632,3.632,0,0,0-1.134.343,1.149,1.149,0,0,0-.58,1.063A1.1,1.1,0,0,0,117.892,12.189Zm7.84-11.145h2.5V14h-2.5Zm4.9,10.336H133.3V14h-2.663Z" transform="translate(966.762 2991.508)" fill="#0b0a0a"/>
    </g>
  </g>
</svg>
