<svg xmlns="http://www.w3.org/2000/svg" xmlns:xlink="http://www.w3.org/1999/xlink" width="113" height="113" viewBox="0 0 113 113">
  <defs>
    <filter id="Trazado_982547" x="0" y="0" width="113" height="113" filterUnits="userSpaceOnUse">
      <feOffset dy="3" input="SourceAlpha"/>
      <feGaussianBlur stdDeviation="3" result="blur"/>
      <feFlood flood-opacity="0.161"/>
      <feComposite operator="in" in2="blur"/>
      <feComposite in="SourceGraphic"/>
    </filter>
  </defs>
  <g id="Grupo_1172821" data-name="Grupo 1172821" transform="translate(-585.525 -9746)">
    <g id="Grupo_1172432" data-name="Grupo 1172432" transform="translate(0.026 4126.355)">
      <g id="Grupo_1171929" data-name="Grupo 1171929" transform="translate(0 4321.5)">
        <g id="Grupo_1171047" data-name="Grupo 1171047" transform="translate(594.5 1304.145)">
          <g id="Grupo_1148525" data-name="Grupo 1148525" transform="translate(0)">
            <g transform="matrix(1, 0, 0, 1, -9, -6)" filter="url(#Trazado_982547)">
              <g id="Trazado_982547-2" data-name="Trazado 982547" transform="translate(9 6)" fill="#f2f7e5">
                <path d="M 47.5 93.5 C 41.28937149047852 93.5 35.26533508300781 92.28397369384766 29.59518623352051 89.88570404052734 C 24.11771965026855 87.56893157958984 19.19813346862793 84.25196075439453 14.97309303283691 80.02691650390625 C 10.74804019927979 75.80186462402344 7.431066513061523 70.88229370117188 5.114293098449707 65.40481567382812 C 2.716026782989502 59.73468017578125 1.5 53.71062850952148 1.5 47.5 C 1.5 41.28937149047852 2.716026782989502 35.26533508300781 5.114293098449707 29.59518623352051 C 7.431066513061523 24.11771965026855 10.74804019927979 19.19813346862793 14.97309303283691 14.97309303283691 C 19.19813346862793 10.74804019927979 24.11771965026855 7.431066513061523 29.59518623352051 5.114293098449707 C 35.26533508300781 2.716026782989502 41.28937149047852 1.5 47.5 1.5 C 53.71062850952148 1.5 59.73468017578125 2.716026782989502 65.40481567382812 5.114293098449707 C 70.88229370117188 7.431066513061523 75.80186462402344 10.74804019927979 80.02691650390625 14.97309303283691 C 84.25196075439453 19.19813346862793 87.56893157958984 24.11771965026855 89.88570404052734 29.59518623352051 C 92.28397369384766 35.26533508300781 93.5 41.28937149047852 93.5 47.5 C 93.5 53.71062850952148 92.28397369384766 59.73468017578125 89.88570404052734 65.40481567382812 C 87.56893157958984 70.88229370117188 84.25196075439453 75.80186462402344 80.02691650390625 80.02691650390625 C 75.80186462402344 84.25196075439453 70.88229370117188 87.56893157958984 65.40481567382812 89.88570404052734 C 59.73468017578125 92.28397369384766 53.71062850952148 93.5 47.5 93.5 Z" stroke="none"/>
                <path d="M 47.5 3 C 41.49121475219727 3 35.66376876831055 4.176155090332031 30.17950439453125 6.495796203613281 C 24.88084411621094 8.736953735351562 20.12152099609375 11.94598388671875 16.03375244140625 16.03375244140625 C 11.94598388671875 20.12152099609375 8.736953735351562 24.88084411621094 6.495796203613281 30.17950439453125 C 4.176155090332031 35.66376876831055 3 41.49121475219727 3 47.5 C 3 53.50878524780273 4.176155090332031 59.33623123168945 6.495796203613281 64.82049560546875 C 8.736953735351562 70.11915588378906 11.94598388671875 74.87847900390625 16.03375244140625 78.96624755859375 C 20.12152099609375 83.05401611328125 24.88084411621094 86.26304626464844 30.17950439453125 88.50419616699219 C 35.66376876831055 90.82384490966797 41.49121475219727 92 47.5 92 C 53.50878524780273 92 59.33623123168945 90.82384490966797 64.82049560546875 88.50419616699219 C 70.11915588378906 86.26304626464844 74.87847900390625 83.05401611328125 78.96624755859375 78.96624755859375 C 83.05401611328125 74.87847900390625 86.26304626464844 70.11915588378906 88.50419616699219 64.82049560546875 C 90.82384490966797 59.33623123168945 92 53.50878524780273 92 47.5 C 92 41.49121475219727 90.82384490966797 35.66376876831055 88.50419616699219 30.17950439453125 C 86.26304626464844 24.88084411621094 83.05401611328125 20.12152099609375 78.96624755859375 16.03375244140625 C 74.87847900390625 11.94598388671875 70.11915588378906 8.736953735351562 64.82049560546875 6.495796203613281 C 59.33623123168945 4.176155090332031 53.50878524780273 3 47.5 3 M 47.5 0 C 73.7335205078125 0 95 21.2664794921875 95 47.5 C 95 73.7335205078125 73.7335205078125 95 47.5 95 C 21.2664794921875 95 0 73.7335205078125 0 47.5 C 0 21.2664794921875 21.2664794921875 0 47.5 0 Z" stroke="none" fill="#86b60c"/>
              </g>
            </g>
          </g>
        </g>
      </g>
    </g>
    <g id="heart_749621" transform="translate(611.525 9761.899)">
      <path id="Trazado_1027355" data-name="Trazado 1027355" d="M51.029,14.693A16.179,16.179,0,0,1,67.212,30.876c0,18.206-30.343,42.481-30.343,42.481S6.525,47.059,6.525,30.876a16.181,16.181,0,0,1,30.343-7.829A16.181,16.181,0,0,1,51.029,14.693Z" transform="translate(-5.728 -6.665)" fill="#fd6149"/>
      <path id="Trazado_1027356" data-name="Trazado 1027356" d="M28.775,15.88a16.169,16.169,0,0,0-22.25,15c0,16.183,30.343,42.481,30.343,42.481A52.165,52.165,0,0,1,42.315,67.9c-8.528-8.569-23.652-25.4-23.652-37.026A16.174,16.174,0,0,1,28.775,15.88Z" transform="translate(-5.728 -6.665)" fill="#df412d"/>
      <g id="Grupo_1172818" data-name="Grupo 1172818" transform="translate(19.942 21.105)">
        <path id="Trazado_1027357" data-name="Trazado 1027357" d="M259.288,204.949a4.046,4.046,0,1,1,2.589,6.88,4.03,4.03,0,0,1-6.88,3.132,4.045,4.045,0,0,0,0-5.722v-4.291Z" transform="translate(-243.799 -193.751)" fill="#00b8ab"/>
        <path id="Trazado_1027358" data-name="Trazado 1027358" d="M168.775,122.957a4.046,4.046,0,1,1,5.722,5.722v4.291h-4.291a4.045,4.045,0,0,0-5.722,0,4.03,4.03,0,0,1,3.133-6.88A4.012,4.012,0,0,1,168.775,122.957Z" transform="translate(-163.299 -121.772)" fill="#00b8ab"/>
      </g>
      <g id="Grupo_1172819" data-name="Grupo 1172819" transform="translate(19.942 21.105)">
        <path id="Trazado_1027359" data-name="Trazado 1027359" d="M255,122.957a4.03,4.03,0,0,1,6.88,3.132,4.03,4.03,0,0,1,3.132,6.88,4.045,4.045,0,0,0-5.722,0H255v-4.291A4.045,4.045,0,0,0,255,122.957Z" transform="translate(-243.799 -121.772)" fill="#31e8bb"/>
        <path id="Trazado_1027360" data-name="Trazado 1027360" d="M174.5,204.949v4.291a4.046,4.046,0,1,1-6.88,2.589,4.039,4.039,0,1,1,2.589-6.88Z" transform="translate(-163.299 -193.751)" fill="#31e8bb"/>
      </g>
      <path id="Trazado_1027361" data-name="Trazado 1027361" d="M31.272,92.418C27.055,88.649,1.839,65.509,1.839,51.156A15.2,15.2,0,0,1,7.563,39.238L6.413,37.8A17.03,17.03,0,0,0,0,51.156C0,58.1,5.182,67.491,15.4,79.074A183.087,183.087,0,0,0,30.661,94.332l.592.513.6-.5a164.434,164.434,0,0,0,21.508-22.4L51.9,70.826A161.591,161.591,0,0,1,31.272,92.418Z" transform="translate(0 -26.953)"/>
      <path id="Trazado_1027362" data-name="Trazado 1027362" d="M106.891,7.1a17.126,17.126,0,0,0-14.16,7.52A17.106,17.106,0,0,0,70.019,9.388l.92,1.592a15.27,15.27,0,0,1,20.988,5.841l.8,1.449.8-1.449a15.262,15.262,0,0,1,28.62,7.383c0,4.812-2.326,10.571-6.913,17.119l1.506,1.055c4.808-6.863,7.246-12.978,7.246-18.174A17.122,17.122,0,0,0,106.891,7.1Z" transform="translate(-61.468 0)"/>
      <path id="Trazado_1027363" data-name="Trazado 1027363" d="M43.252,58.577a7.33,7.33,0,0,1,4.032-6.756,12.757,12.757,0,0,1,4.255-1.434l-.2-1.827a14.424,14.424,0,0,0-4.9,1.627,9.175,9.175,0,0,0-5.024,8.389Z" transform="translate(-36.356 -36.396)" fill="#fff"/>
      <path id="Trazado_1027364" data-name="Trazado 1027364" d="M179.554,119.926a4.92,4.92,0,0,0-2.89-1.4,4.953,4.953,0,0,0-7.774-3.436,4.972,4.972,0,0,0-6.371.547,4.921,4.921,0,0,0-1.4,2.89,4.953,4.953,0,0,0-3.436,7.774,4.972,4.972,0,0,0,.547,6.371,4.921,4.921,0,0,0,2.89,1.4,4.955,4.955,0,0,0,7.772,3.436,4.946,4.946,0,0,0,7.774-3.436,4.921,4.921,0,0,0,2.89-1.4,4.972,4.972,0,0,0,.546-6.371,4.963,4.963,0,0,0-.547-6.372ZM168.24,135.66a3.111,3.111,0,0,1-5.313-2.418l.074-1.055-1.055.074a3.118,3.118,0,1,1,2-5.313l.269.269h3.753v3.753l.269.269A3.129,3.129,0,0,1,168.24,135.66Zm0-14.3-.269.269v3.753h-3.013a4.966,4.966,0,0,0-5.93-.381,3.108,3.108,0,0,1,2.918-4.663l1.055.074-.074-1.055a3.111,3.111,0,0,1,5.311-2.42l0,0A3.129,3.129,0,0,1,168.24,121.356Zm10.013,10.013a3.108,3.108,0,0,1-2.418.891l-1.055-.074.074,1.055a3.114,3.114,0,0,1-4.664,2.917,4.976,4.976,0,0,0-.38-5.929v-3.013h3.753l.269-.269a3.13,3.13,0,0,1,4.421,0h0A3.131,3.131,0,0,1,178.253,131.369Zm.5-6.371a4.976,4.976,0,0,0-5.93.381H169.81v-3.013a4.977,4.977,0,0,0,.381-5.93,3.109,3.109,0,0,1,4.663,2.918l-.074,1.055,1.055-.074A3.115,3.115,0,0,1,178.753,125Z" transform="translate(-137.628 -94.002)"/>
      <g id="Grupo_1172820" data-name="Grupo 1172820" transform="translate(25.608 26.638)">
        <rect id="Rectángulo_414513" data-name="Rectángulo 414513" width="1.839" height="2.023" transform="translate(1.43 8.582) rotate(45)" fill="#fff"/>
        <rect id="Rectángulo_414514" data-name="Rectángulo 414514" width="1.839" height="2.023" transform="translate(10.013) rotate(45)" fill="#fff"/>
      </g>
      <rect id="Rectángulo_414515" data-name="Rectángulo 414515" width="1.839" height="2.023" transform="translate(27.038 26.639) rotate(45)"/>
      <rect id="Rectángulo_414516" data-name="Rectángulo 414516" width="1.839" height="2.023" transform="translate(35.622 35.221) rotate(45)"/>
      <rect id="Rectángulo_414517" data-name="Rectángulo 414517" width="2.023" height="1.839" transform="translate(30.252 48.57)" fill="#fff"/>
      <rect id="Rectángulo_414518" data-name="Rectángulo 414518" width="2.023" height="1.839" transform="translate(30.252 52.616)"/>
      <rect id="Rectángulo_414519" data-name="Rectángulo 414519" width="2.023" height="1.839" transform="translate(30.252 56.661)" fill="#fff"/>
    </g>
  </g>
</svg>
