<svg xmlns="http://www.w3.org/2000/svg" xmlns:xlink="http://www.w3.org/1999/xlink" width="113" height="113" viewBox="0 0 113 113">
  <defs>
    <filter id="Trazado_982547" x="0" y="0" width="113" height="113" filterUnits="userSpaceOnUse">
      <feOffset dy="3" input="SourceAlpha"/>
      <feGaussianBlur stdDeviation="3" result="blur"/>
      <feFlood flood-opacity="0.161"/>
      <feComposite operator="in" in2="blur"/>
      <feComposite in="SourceGraphic"/>
    </filter>
  </defs>
  <g id="Grupo_1172824" data-name="Grupo 1172824" transform="translate(-902.525 -9746)">
    <g id="Grupo_1172433" data-name="Grupo 1172433" transform="translate(1.025 4126.355)">
      <g id="Grupo_1171930" data-name="Grupo 1171930" transform="translate(0 4321.5)">
        <g id="Grupo_1171048" data-name="Grupo 1171048" transform="translate(910.5 1304.145)">
          <g id="Grupo_1148525" data-name="Grupo 1148525" transform="translate(0)">
            <g transform="matrix(1, 0, 0, 1, -9, -6)" filter="url(#Trazado_982547)">
              <g id="Trazado_982547-2" data-name="Trazado 982547" transform="translate(9 6)" fill="#f2f7e5">
                <path d="M 47.5 93.5 C 41.28937149047852 93.5 35.26533508300781 92.28397369384766 29.59518623352051 89.88570404052734 C 24.11771965026855 87.56893157958984 19.19813346862793 84.25196075439453 14.97309303283691 80.02691650390625 C 10.74804019927979 75.80186462402344 7.431066513061523 70.88229370117188 5.114293098449707 65.40481567382812 C 2.716026782989502 59.73468017578125 1.5 53.71062850952148 1.5 47.5 C 1.5 41.28937149047852 2.716026782989502 35.26533508300781 5.114293098449707 29.59518623352051 C 7.431066513061523 24.11771965026855 10.74804019927979 19.19813346862793 14.97309303283691 14.97309303283691 C 19.19813346862793 10.74804019927979 24.11771965026855 7.431066513061523 29.59518623352051 5.114293098449707 C 35.26533508300781 2.716026782989502 41.28937149047852 1.5 47.5 1.5 C 53.71062850952148 1.5 59.73468017578125 2.716026782989502 65.40481567382812 5.114293098449707 C 70.88229370117188 7.431066513061523 75.80186462402344 10.74804019927979 80.02691650390625 14.97309303283691 C 84.25196075439453 19.19813346862793 87.56893157958984 24.11771965026855 89.88570404052734 29.59518623352051 C 92.28397369384766 35.26533508300781 93.5 41.28937149047852 93.5 47.5 C 93.5 53.71062850952148 92.28397369384766 59.73468017578125 89.88570404052734 65.40481567382812 C 87.56893157958984 70.88229370117188 84.25196075439453 75.80186462402344 80.02691650390625 80.02691650390625 C 75.80186462402344 84.25196075439453 70.88229370117188 87.56893157958984 65.40481567382812 89.88570404052734 C 59.73468017578125 92.28397369384766 53.71062850952148 93.5 47.5 93.5 Z" stroke="none"/>
                <path d="M 47.5 3 C 41.49121475219727 3 35.66376876831055 4.176155090332031 30.17950439453125 6.495796203613281 C 24.88084411621094 8.736953735351562 20.12152099609375 11.94598388671875 16.03375244140625 16.03375244140625 C 11.94598388671875 20.12152099609375 8.736953735351562 24.88084411621094 6.495796203613281 30.17950439453125 C 4.176155090332031 35.66376876831055 3 41.49121475219727 3 47.5 C 3 53.50878524780273 4.176155090332031 59.33623123168945 6.495796203613281 64.82049560546875 C 8.736953735351562 70.11915588378906 11.94598388671875 74.87847900390625 16.03375244140625 78.96624755859375 C 20.12152099609375 83.05401611328125 24.88084411621094 86.26304626464844 30.17950439453125 88.50419616699219 C 35.66376876831055 90.82384490966797 41.49121475219727 92 47.5 92 C 53.50878524780273 92 59.33623123168945 90.82384490966797 64.82049560546875 88.50419616699219 C 70.11915588378906 86.26304626464844 74.87847900390625 83.05401611328125 78.96624755859375 78.96624755859375 C 83.05401611328125 74.87847900390625 86.26304626464844 70.11915588378906 88.50419616699219 64.82049560546875 C 90.82384490966797 59.33623123168945 92 53.50878524780273 92 47.5 C 92 41.49121475219727 90.82384490966797 35.66376876831055 88.50419616699219 30.17950439453125 C 86.26304626464844 24.88084411621094 83.05401611328125 20.12152099609375 78.96624755859375 16.03375244140625 C 74.87847900390625 11.94598388671875 70.11915588378906 8.736953735351562 64.82049560546875 6.495796203613281 C 59.33623123168945 4.176155090332031 53.50878524780273 3 47.5 3 M 47.5 0 C 73.7335205078125 0 95 21.2664794921875 95 47.5 C 95 73.7335205078125 73.7335205078125 95 47.5 95 C 21.2664794921875 95 0 73.7335205078125 0 47.5 C 0 21.2664794921875 21.2664794921875 0 47.5 0 Z" stroke="none" fill="#86b60c"/>
              </g>
            </g>
          </g>
        </g>
      </g>
    </g>
    <g id="work-life_12467181" transform="translate(923.025 9765.601)">
      <g id="Color" transform="translate(2.676 4.518)">
        <path id="Trazado_1027365" data-name="Trazado 1027365" d="M27.115,24.058a6.521,6.521,0,0,1-.423,2.353,6.8,6.8,0,0,1-2.917,3.646,7.055,7.055,0,0,1-7.434,0,6.8,6.8,0,0,1-2.917-3.646,6.747,6.747,0,0,1,0-4.705,7.03,7.03,0,0,1,13.268,0A6.521,6.521,0,0,1,27.115,24.058Z" transform="translate(12.878 13.877)" fill="#f2f2f2"/>
        <path id="Trazado_1027366" data-name="Trazado 1027366" d="M6,17h4.705v4.705H6Z" transform="translate(3.41 13.877)" fill="#f2f2f2"/>
        <g id="Grupo_1172822" data-name="Grupo 1172822" transform="translate(2.353 26.172)">
          <path id="Trazado_1027367" data-name="Trazado 1027367" d="M25.6,23.705H6.353a2.353,2.353,0,1,1,0-4.705H25.6a6.747,6.747,0,0,0,0,4.705Z" transform="translate(-1.647 -9.59)" fill="#ffc943"/>
          <path id="Trazado_1027368" data-name="Trazado 1027368" d="M7.705,19.705A4.719,4.719,0,0,1,3,15H21.82a4.74,4.74,0,0,1-4.705,4.705Z" transform="translate(-3 -15)" fill="#ffc943"/>
          <path id="Trazado_1027369" data-name="Trazado 1027369" d="M25.127,22.55,30.82,37.724H12L17.693,22.55a7.055,7.055,0,0,0,7.434,0Z" transform="translate(9.173 -4.788)" fill="#ffc943"/>
          <path id="Trazado_1027370" data-name="Trazado 1027370" d="M40.416,21.353a2.359,2.359,0,0,1-2.353,2.353H18.82a6.747,6.747,0,0,0,0-4.705H38.064A2.359,2.359,0,0,1,40.416,21.353Z" transform="translate(18.397 -9.59)" fill="#ffc943"/>
          <path id="Trazado_1027371" data-name="Trazado 1027371" d="M39.82,15a4.719,4.719,0,0,1-4.705,4.705h-9.41A4.74,4.74,0,0,1,21,15Z" transform="translate(21.345 -15)" fill="#ffc943"/>
        </g>
        <path id="Trazado_1027372" data-name="Trazado 1027372" d="M24,17h4.705v4.705H24Z" transform="translate(27.755 13.877)" fill="#f2f2f2"/>
        <path id="Trazado_1027373" data-name="Trazado 1027373" d="M43.5,10.756a6.82,6.82,0,0,1-2.023,4.87l-9.716,9.716L22.02,15.626a6.887,6.887,0,0,1,9.739-9.739,6.9,6.9,0,0,1,9.716,0,6.781,6.781,0,0,1,2.023,4.87Z" transform="translate(22.372 -3.875)" fill="#f45151"/>
        <path id="Trazado_1027374" data-name="Trazado 1027374" d="M25.525,7.96V19.723a2.359,2.359,0,0,1-2.353,2.353H4.353A2.359,2.359,0,0,1,2,19.723V7.96a2.387,2.387,0,0,1,.682-1.67l4.023,4.023H20.82L24.843,6.29a2.387,2.387,0,0,1,.682,1.67Z" transform="translate(-2 -0.609)" fill="#43b3ff"/>
        <path id="Trazado_1027375" data-name="Trazado 1027375" d="M24.451,6.682l-4.023,4.023H6.313L2.29,6.682A2.387,2.387,0,0,1,3.96,6H22.78a2.387,2.387,0,0,1,1.67.682Z" transform="translate(-1.608 -1.001)" fill="#f2f2f2"/>
      </g>
      <g id="Line" transform="translate(1.5 3.399)">
        <g id="Grupo_1172823" data-name="Grupo 1172823">
          <circle id="Elipse_12035" data-name="Elipse 12035" cx="1.176" cy="1.176" r="1.176" transform="translate(32.935 37.878)"/>
          <path id="Trazado_1027376" data-name="Trazado 1027376" d="M60.137,21.558a5.883,5.883,0,0,0,5.881-5.881A1.165,1.165,0,0,0,64.842,14.5H46.022a1.165,1.165,0,0,0-1.176,1.176,5.883,5.883,0,0,0,5.881,5.881H51.9V23.91H41.67a8.188,8.188,0,0,0-14.821,0H16.615V21.558h1.176a5.883,5.883,0,0,0,5.881-5.881A1.165,1.165,0,0,0,22.5,14.5H3.676A1.165,1.165,0,0,0,2.5,15.676a5.883,5.883,0,0,0,5.881,5.881H9.558V23.91H8.381a3.529,3.529,0,0,0,0,7.058H26.849a8.235,8.235,0,0,0,2.282,2.87l-5.1,13.6H22.5a1.176,1.176,0,1,0,0,2.353h7.058a1.176,1.176,0,1,0,0-2.353H26.543l4.635-12.374a8.069,8.069,0,0,0,6.164,0l4.635,12.374H38.964a1.176,1.176,0,1,0,0,2.353h7.058a1.176,1.176,0,1,0,0-2.353H44.492l-5.1-13.6a8.235,8.235,0,0,0,2.282-2.87H60.137a3.529,3.529,0,0,0,0-7.058H58.961V21.558ZM8.381,19.205a3.518,3.518,0,0,1-3.317-2.353H21.108a3.518,3.518,0,0,1-3.317,2.353H8.381Zm5.881,2.353V23.91H11.91V21.558Zm11.88,7.058H8.381a1.176,1.176,0,1,1,0-2.353H26.143a9.5,9.5,0,0,0-.118,1.176A9.5,9.5,0,0,0,26.143,28.615Zm8.116,4.705a5.881,5.881,0,1,1,5.881-5.881A5.883,5.883,0,0,1,34.259,33.32Zm25.878-7.058a1.176,1.176,0,0,1,0,2.353H42.375a9.505,9.505,0,0,0,.118-1.176,9.5,9.5,0,0,0-.118-1.176ZM54.255,23.91V21.558h2.353V23.91Zm-3.529-4.705a3.518,3.518,0,0,1-3.317-2.353H63.454a3.518,3.518,0,0,1-3.317,2.353h-9.41Z" transform="translate(-0.147 11.615)"/>
          <path id="Trazado_1027377" data-name="Trazado 1027377" d="M43,5.707a8.237,8.237,0,0,0-10.563-.729,8.237,8.237,0,0,0-10.563.729A8.006,8.006,0,0,0,19.52,11.4a8.088,8.088,0,0,0,2.353,5.693l9.739,9.716a1.137,1.137,0,0,0,1.647,0L43,17.093A8.079,8.079,0,0,0,43,5.707Zm-1.67,9.716-8.892,8.892-8.893-8.892a5.681,5.681,0,0,1,4.023-9.716,5.752,5.752,0,0,1,4.046,1.647,1.179,1.179,0,0,0,1.647,0,5.872,5.872,0,0,1,8.069,0,5.694,5.694,0,0,1,0,8.069Z" transform="translate(22.872 -3.399)"/>
          <path id="Trazado_1027378" data-name="Trazado 1027378" d="M27.844,7.853a.782.782,0,0,1,.781.78,1.176,1.176,0,0,0,2.353,0A3.137,3.137,0,0,0,27.844,5.5a1.176,1.176,0,0,0,0,2.353Z" transform="translate(32.54 -0.558)"/>
          <path id="Trazado_1027379" data-name="Trazado 1027379" d="M23.849,8.205H20.2a5.883,5.883,0,0,0-11.527,0H5.029A3.524,3.524,0,0,0,1.5,11.734V23.5a3.524,3.524,0,0,0,3.529,3.529h18.82A3.524,3.524,0,0,0,27.378,23.5V11.734A3.524,3.524,0,0,0,23.849,8.205Zm-9.41-2.353a3.541,3.541,0,0,1,3.317,2.353H11.122a3.541,3.541,0,0,1,3.317-2.353Zm8.916,4.705L21,12.91H7.875L5.523,10.558ZM25.025,23.5a1.165,1.165,0,0,1-1.176,1.176H5.029A1.165,1.165,0,0,1,3.853,23.5V12.228L6.558,14.91a1.1,1.1,0,0,0,.823.353H8.558v1.176a1.176,1.176,0,1,0,2.353,0V15.263h7.058v1.176a1.176,1.176,0,1,0,2.353,0V15.263H21.5a1.1,1.1,0,0,0,.823-.353l2.705-2.682Z" transform="translate(-1.5 -3.263)"/>
          <circle id="Elipse_12036" data-name="Elipse 12036" cx="1.176" cy="1.176" r="1.176" transform="translate(32.935 59.05)"/>
        </g>
      </g>
    </g>
  </g>
</svg>
