<svg xmlns="http://www.w3.org/2000/svg" xmlns:xlink="http://www.w3.org/1999/xlink" width="113" height="113" viewBox="0 0 113 113">
  <defs>
    <filter id="Trazado_982547" x="0" y="0" width="113" height="113" filterUnits="userSpaceOnUse">
      <feOffset dy="3" input="SourceAlpha"/>
      <feGaussianBlur stdDeviation="3" result="blur"/>
      <feFlood flood-opacity="0.161"/>
      <feComposite operator="in" in2="blur"/>
      <feComposite in="SourceGraphic"/>
    </filter>
  </defs>
  <g id="Grupo_1172827" data-name="Grupo 1172827" transform="translate(-1217.025 -9746.395)">
    <g id="Grupo_1172434" data-name="Grupo 1172434" transform="translate(0.525 4126.75)">
      <g id="Grupo_1171931" data-name="Grupo 1171931" transform="translate(0 4321.5)">
        <g id="Grupo_1171049" data-name="Grupo 1171049" transform="translate(1225.5 1304.145)">
          <g id="Grupo_1148525" data-name="Grupo 1148525" transform="translate(0)">
            <g transform="matrix(1, 0, 0, 1, -9, -6)" filter="url(#Trazado_982547)">
              <g id="Trazado_982547-2" data-name="Trazado 982547" transform="translate(9 6)" fill="#f2f7e5">
                <path d="M 47.5 93.5 C 41.28937149047852 93.5 35.26533508300781 92.28397369384766 29.59518623352051 89.88570404052734 C 24.11771965026855 87.56893157958984 19.19813346862793 84.25196075439453 14.97309303283691 80.02691650390625 C 10.74804019927979 75.80186462402344 7.431066513061523 70.88229370117188 5.114293098449707 65.40481567382812 C 2.716026782989502 59.73468017578125 1.5 53.71062850952148 1.5 47.5 C 1.5 41.28937149047852 2.716026782989502 35.26533508300781 5.114293098449707 29.59518623352051 C 7.431066513061523 24.11771965026855 10.74804019927979 19.19813346862793 14.97309303283691 14.97309303283691 C 19.19813346862793 10.74804019927979 24.11771965026855 7.431066513061523 29.59518623352051 5.114293098449707 C 35.26533508300781 2.716026782989502 41.28937149047852 1.5 47.5 1.5 C 53.71062850952148 1.5 59.73468017578125 2.716026782989502 65.40481567382812 5.114293098449707 C 70.88229370117188 7.431066513061523 75.80186462402344 10.74804019927979 80.02691650390625 14.97309303283691 C 84.25196075439453 19.19813346862793 87.56893157958984 24.11771965026855 89.88570404052734 29.59518623352051 C 92.28397369384766 35.26533508300781 93.5 41.28937149047852 93.5 47.5 C 93.5 53.71062850952148 92.28397369384766 59.73468017578125 89.88570404052734 65.40481567382812 C 87.56893157958984 70.88229370117188 84.25196075439453 75.80186462402344 80.02691650390625 80.02691650390625 C 75.80186462402344 84.25196075439453 70.88229370117188 87.56893157958984 65.40481567382812 89.88570404052734 C 59.73468017578125 92.28397369384766 53.71062850952148 93.5 47.5 93.5 Z" stroke="none"/>
                <path d="M 47.5 3 C 41.49121475219727 3 35.66376876831055 4.176155090332031 30.17950439453125 6.495796203613281 C 24.88084411621094 8.736953735351562 20.12152099609375 11.94598388671875 16.03375244140625 16.03375244140625 C 11.94598388671875 20.12152099609375 8.736953735351562 24.88084411621094 6.495796203613281 30.17950439453125 C 4.176155090332031 35.66376876831055 3 41.49121475219727 3 47.5 C 3 53.50878524780273 4.176155090332031 59.33623123168945 6.495796203613281 64.82049560546875 C 8.736953735351562 70.11915588378906 11.94598388671875 74.87847900390625 16.03375244140625 78.96624755859375 C 20.12152099609375 83.05401611328125 24.88084411621094 86.26304626464844 30.17950439453125 88.50419616699219 C 35.66376876831055 90.82384490966797 41.49121475219727 92 47.5 92 C 53.50878524780273 92 59.33623123168945 90.82384490966797 64.82049560546875 88.50419616699219 C 70.11915588378906 86.26304626464844 74.87847900390625 83.05401611328125 78.96624755859375 78.96624755859375 C 83.05401611328125 74.87847900390625 86.26304626464844 70.11915588378906 88.50419616699219 64.82049560546875 C 90.82384490966797 59.33623123168945 92 53.50878524780273 92 47.5 C 92 41.49121475219727 90.82384490966797 35.66376876831055 88.50419616699219 30.17950439453125 C 86.26304626464844 24.88084411621094 83.05401611328125 20.12152099609375 78.96624755859375 16.03375244140625 C 74.87847900390625 11.94598388671875 70.11915588378906 8.736953735351562 64.82049560546875 6.495796203613281 C 59.33623123168945 4.176155090332031 53.50878524780273 3 47.5 3 M 47.5 0 C 73.7335205078125 0 95 21.2664794921875 95 47.5 C 95 73.7335205078125 73.7335205078125 95 47.5 95 C 21.2664794921875 95 0 73.7335205078125 0 47.5 C 0 21.2664794921875 21.2664794921875 0 47.5 0 Z" stroke="none" fill="#86b60c"/>
              </g>
            </g>
          </g>
        </g>
      </g>
    </g>
    <g id="benefits_14177837" transform="translate(1234.384 9760.369)">
      <g id="Grupo_1172825" data-name="Grupo 1172825" transform="translate(13.141 7.5)">
        <path id="Trazado_1027380" data-name="Trazado 1027380" d="M64.443,297.567H20.737v21.926a2.313,2.313,0,0,0,2.313,2.313H62.13a2.313,2.313,0,0,0,2.313-2.313V297.567Z" transform="translate(-19.859 -264.026)" fill="#7abdff"/>
        <path id="Trazado_1027381" data-name="Trazado 1027381" d="M275.545,297.567H265.208a16.1,16.1,0,0,0-.523,24.239h8.547a2.313,2.313,0,0,0,2.313-2.313V297.567Z" transform="translate(-230.961 -264.026)" fill="#4dadff"/>
        <path id="Trazado_1027382" data-name="Trazado 1027382" d="M313.049,68.392h.725a1.016,1.016,0,0,0,.612-1.827L307.949,61.7a1.016,1.016,0,0,0-1.224,0l-6.437,4.861a1.016,1.016,0,0,0,.612,1.827h.725a.85.85,0,0,1,.85.85V83.881a1.149,1.149,0,0,0,1.149,1.149h7.426a1.149,1.149,0,0,0,1.149-1.149V69.242A.85.85,0,0,1,313.049,68.392Z" transform="translate(-266.726 -55.255)" fill="#b1eba0"/>
        <path id="Trazado_1027383" data-name="Trazado 1027383" d="M158.418,14.392h.725a1.016,1.016,0,0,0,.612-1.827L153.318,7.7a1.016,1.016,0,0,0-1.224,0l-6.437,4.861a1.016,1.016,0,0,0,.612,1.827h.725a.85.85,0,0,1,.85.85V36.125a1.149,1.149,0,0,0,1.149,1.149h7.426a1.149,1.149,0,0,0,1.149-1.149V15.242A.85.85,0,0,1,158.418,14.392Z" transform="translate(-129.975 -7.5)" fill="#b1eba0"/>
        <path id="Trazado_1027384" data-name="Trazado 1027384" d="M322.313,168.8v9.974a1.149,1.149,0,0,0,1.149,1.149h7.426a1.149,1.149,0,0,0,1.149-1.149V168.8Z" transform="translate(-286.563 -150.153)" fill="#8ddea9"/>
        <path id="Trazado_1027385" data-name="Trazado 1027385" d="M167.682,168.8v9.974a1.149,1.149,0,0,0,1.149,1.149h7.426a1.149,1.149,0,0,0,1.149-1.149V168.8Z" transform="translate(-149.812 -150.153)" fill="#8ddea9"/>
        <path id="Trazado_1027386" data-name="Trazado 1027386" d="M52.635,224.46H19.109a5.968,5.968,0,0,1-5.968-5.968V211.66a2.313,2.313,0,0,1,2.313-2.313H56.29A2.313,2.313,0,0,1,58.6,211.66v6.832A5.968,5.968,0,0,1,52.635,224.46Z" transform="translate(-13.141 -186.007)" fill="#419aff"/>
        <path id="Trazado_1027387" data-name="Trazado 1027387" d="M290.317,265.107q-.436-.023-.878-.024a16.1,16.1,0,0,0-14.288,8.669h9.2a5.968,5.968,0,0,0,5.968-5.968Z" transform="translate(-244.855 -235.298)" fill="#3988ff"/>
        <path id="Trazado_1027388" data-name="Trazado 1027388" d="M174.825,324.7h-5.278a2.269,2.269,0,0,1-2.269-2.269h0a2.269,2.269,0,0,1,2.269-2.269h5.278a2.269,2.269,0,0,1,2.269,2.269h0A2.269,2.269,0,0,1,174.825,324.7Z" transform="translate(-149.455 -284.007)" fill="#eef7ff"/>
        <circle id="Elipse_12037" data-name="Elipse 12037" cx="11.891" cy="11.891" r="11.891" transform="translate(32.693 33.998)" fill="#fadc00"/>
        <circle id="Elipse_12038" data-name="Elipse 12038" cx="7.736" cy="7.736" r="7.736" transform="translate(36.848 38.152)" fill="#fcef53"/>
      </g>
      <g id="Grupo_1172826" data-name="Grupo 1172826" transform="translate(13.141 7.5)">
        <path id="Trazado_1027389" data-name="Trazado 1027389" d="M312.2,84.971V69.242a.85.85,0,0,1,.85-.85h.725a1.016,1.016,0,0,0,.612-1.827L307.949,61.7a1.016,1.016,0,0,0-1.224,0l-6.437,4.861a1.016,1.016,0,0,0,.612,1.827h.725a.85.85,0,0,1,.85.85v4.835" transform="translate(-266.726 -55.255)" fill="none" stroke="#000" stroke-linecap="round" stroke-linejoin="round" stroke-miterlimit="10" stroke-width="1.5"/>
        <path id="Trazado_1027390" data-name="Trazado 1027390" d="M157.568,30.839v-15.6a.85.85,0,0,1,.85-.85h.725a1.016,1.016,0,0,0,.612-1.827L153.318,7.7a1.016,1.016,0,0,0-1.224,0l-6.437,4.861a1.016,1.016,0,0,0,.612,1.827h.725a.85.85,0,0,1,.85.85v15.6" transform="translate(-129.975 -7.5)" fill="none" stroke="#000" stroke-linecap="round" stroke-linejoin="round" stroke-miterlimit="10" stroke-width="1.5"/>
        <path id="Trazado_1027391" data-name="Trazado 1027391" d="M30.964,224.46H19.109a5.968,5.968,0,0,1-5.968-5.968V211.66a2.313,2.313,0,0,1,2.313-2.313H56.29A2.313,2.313,0,0,1,58.6,211.66v6.832a6.005,6.005,0,0,1-.093,1.056" transform="translate(-13.141 -186.007)" fill="none" stroke="#000" stroke-linecap="round" stroke-linejoin="round" stroke-miterlimit="10" stroke-width="1.5"/>
        <line id="Línea_749" data-name="Línea 749" x1="6.881" transform="translate(28.195 38.453)" fill="none" stroke="#000" stroke-linecap="round" stroke-linejoin="round" stroke-miterlimit="10" stroke-width="1.5"/>
        <path id="Trazado_1027392" data-name="Trazado 1027392" d="M174.825,324.7h-5.278a2.269,2.269,0,0,1-2.269-2.269h0a2.269,2.269,0,0,1,2.269-2.269h5.278a2.269,2.269,0,0,1,2.269,2.269h0A2.269,2.269,0,0,1,174.825,324.7Z" transform="translate(-149.455 -284.007)" fill="none" stroke="#000" stroke-linecap="round" stroke-linejoin="round" stroke-miterlimit="10" stroke-width="1.5"/>
        <path id="Trazado_1027393" data-name="Trazado 1027393" d="M151.9,168.8h-17.4v-2.989a2.313,2.313,0,0,1,2.313-2.313h12.77a2.313,2.313,0,0,1,2.313,2.313Z" transform="translate(-120.472 -145.462)" fill="none" stroke="#000" stroke-linecap="round" stroke-linejoin="round" stroke-miterlimit="10" stroke-width="1.5"/>
        <circle id="Elipse_12039" data-name="Elipse 12039" cx="11.891" cy="11.891" r="11.891" transform="translate(32.693 33.998)" fill="none" stroke="#000" stroke-linecap="round" stroke-linejoin="round" stroke-miterlimit="10" stroke-width="1.5"/>
        <circle id="Elipse_12040" data-name="Elipse 12040" cx="7.736" cy="7.736" r="7.736" transform="translate(36.848 38.152)" fill="none" stroke="#000" stroke-linecap="round" stroke-linejoin="round" stroke-miterlimit="10" stroke-width="1.5"/>
        <path id="Trazado_1027394" data-name="Trazado 1027394" d="M20.737,447.291V451.9a2.313,2.313,0,0,0,2.313,2.313H62.13" transform="translate(-19.859 -396.438)" fill="none" stroke="#000" stroke-linecap="round" stroke-linejoin="round" stroke-miterlimit="10" stroke-width="1.5"/>
        <line id="Línea_750" data-name="Línea 750" y2="11.089" transform="translate(0.878 35.602)" fill="none" stroke="#000" stroke-linecap="round" stroke-linejoin="round" stroke-miterlimit="10" stroke-width="1.5"/>
        <path id="Trazado_1027395" data-name="Trazado 1027395" d="M386.353,375.788a2.024,2.024,0,0,0-1.9-.343,1.416,1.416,0,0,0-.6,2.332,6.83,6.83,0,0,0,1.872.887c1.875.663,1.182,3.307-.725,3.32a2.552,2.552,0,0,1-1.746-.47" transform="translate(-340.455 -332.813)" fill="none" stroke="#000" stroke-linecap="round" stroke-linejoin="round" stroke-miterlimit="10" stroke-width="1.5"/>
        <line id="Línea_751" data-name="Línea 751" y2="1.243" transform="translate(44.542 49.17)" fill="none" stroke="#000" stroke-linecap="round" stroke-linejoin="round" stroke-miterlimit="10" stroke-width="1.5"/>
        <line id="Línea_752" data-name="Línea 752" y2="1.171" transform="translate(44.542 41.364)" fill="none" stroke="#000" stroke-linecap="round" stroke-linejoin="round" stroke-miterlimit="10" stroke-width="1.5"/>
        <line id="Línea_753" data-name="Línea 753" x2="6.471" transform="translate(5.615 48.672)" fill="none" stroke="#000" stroke-linecap="round" stroke-linejoin="round" stroke-miterlimit="10" stroke-width="1.5"/>
        <line id="Línea_754" data-name="Línea 754" x2="10.243" transform="translate(5.615 52.726)" fill="none" stroke="#000" stroke-linecap="round" stroke-linejoin="round" stroke-miterlimit="10" stroke-width="1.5"/>
      </g>
    </g>
  </g>
</svg>
