<svg xmlns="http://www.w3.org/2000/svg" width="495.618" height="533.585" viewBox="0 0 495.618 533.585">
  <g id="Grupo_1173050" data-name="Grupo 1173050" transform="translate(-552.191 -3950.975)">
    <g id="Grupo_1172065" data-name="Grupo 1172065" transform="translate(-37.023 -2.107)">
      <path id="Trazado_1027781" data-name="Trazado 1027781" d="M42.85,10.082H35.158v4.071h8.766V17h-12V1.166H43.537v2.8H35.158V7.332H42.85Zm9.4,4.63a5.826,5.826,0,0,0,1.9-.258,1.837,1.837,0,0,0,1.386-1.837,1.355,1.355,0,0,0-.687-1.214,7.393,7.393,0,0,0-2.159-.741l-1.676-.376A10.59,10.59,0,0,1,47.6,9.072,3.861,3.861,0,0,1,46,5.646a4.576,4.576,0,0,1,1.547-3.534A6.54,6.54,0,0,1,52.088.7a6.909,6.909,0,0,1,4.27,1.327,4.737,4.737,0,0,1,1.853,3.851h-3.18a2.271,2.271,0,0,0-1.246-2.03,4.179,4.179,0,0,0-1.923-.4,3.59,3.59,0,0,0-2.041.516,1.642,1.642,0,0,0-.763,1.439,1.362,1.362,0,0,0,.752,1.268,9.2,9.2,0,0,0,2.063.655l2.729.655a7.054,7.054,0,0,1,2.707,1.149,3.871,3.871,0,0,1,1.418,3.233,4.563,4.563,0,0,1-1.66,3.6,6.953,6.953,0,0,1-4.689,1.434A7.606,7.606,0,0,1,47.512,16a4.694,4.694,0,0,1-1.772-3.883H48.9a3.251,3.251,0,0,0,.591,1.622A3.4,3.4,0,0,0,52.249,14.712ZM67.9,11.307H64.538V17H61.251V1.166h6.9a5.617,5.617,0,0,1,3.8,1.225,4.745,4.745,0,0,1,1.418,3.792q0,2.8-1.418,3.964A6.244,6.244,0,0,1,67.9,11.307Zm1.547-3.3a2.29,2.29,0,0,0,.645-1.8,2.143,2.143,0,0,0-.65-1.762,2.82,2.82,0,0,0-1.821-.526H64.538V8.578h3.083A2.694,2.694,0,0,0,69.447,8.009Zm17.424,2.073H79.18v4.071h8.766V17h-12V1.166H87.559v2.8H79.18V7.332h7.691ZM101.7,15.818a6.454,6.454,0,0,1-4.533,1.622,6.83,6.83,0,0,1-5.371-2.191,8.771,8.771,0,0,1-1.955-6.037A8.7,8.7,0,0,1,92.06,2.82,6.626,6.626,0,0,1,96.979.865q4,0,5.844,2.621a5.674,5.674,0,0,1,1.1,2.954H100.61a4.469,4.469,0,0,0-.827-1.719A3.364,3.364,0,0,0,97.108,3.69a3.316,3.316,0,0,0-2.847,1.456,7,7,0,0,0-1.042,4.12,6.141,6.141,0,0,0,1.1,3.991,3.479,3.479,0,0,0,2.8,1.327,3.2,3.2,0,0,0,2.653-1.139,4.946,4.946,0,0,0,.838-1.837h3.276A7.12,7.12,0,0,1,101.7,15.818Zm4.458-14.652h3.287V17h-3.287Zm17.6,2.8h-7.938V7.611h6.95v2.75h-6.95V17h-3.287V1.188h11.226Zm1.955-2.8h3.287V17H125.7Zm17.542,14.652a6.454,6.454,0,0,1-4.533,1.622,6.83,6.83,0,0,1-5.371-2.191,8.771,8.771,0,0,1-1.955-6.037A8.7,8.7,0,0,1,133.61,2.82,6.626,6.626,0,0,1,138.53.865q4,0,5.844,2.621a5.674,5.674,0,0,1,1.1,2.954h-3.309a4.469,4.469,0,0,0-.827-1.719,3.364,3.364,0,0,0-2.675-1.031,3.316,3.316,0,0,0-2.847,1.456,7,7,0,0,0-1.042,4.12,6.141,6.141,0,0,0,1.1,3.991,3.479,3.479,0,0,0,2.8,1.327,3.2,3.2,0,0,0,2.653-1.139,4.946,4.946,0,0,0,.838-1.837h3.276A7.12,7.12,0,0,1,143.246,15.818Zm13.986-2.073H151.4L150.3,17h-3.459L152.5,1.166h3.738L161.841,17h-3.588Zm-.924-2.729-1.977-6.23-2.041,6.23Zm13.288,3.7a5.826,5.826,0,0,0,1.9-.258,1.837,1.837,0,0,0,1.386-1.837A1.355,1.355,0,0,0,172.2,11.4a7.393,7.393,0,0,0-2.159-.741l-1.676-.376a10.589,10.589,0,0,1-3.416-1.214,3.861,3.861,0,0,1-1.6-3.427,4.576,4.576,0,0,1,1.547-3.534A6.54,6.54,0,0,1,169.436.7a6.909,6.909,0,0,1,4.27,1.327,4.737,4.737,0,0,1,1.853,3.851h-3.18a2.271,2.271,0,0,0-1.246-2.03,4.179,4.179,0,0,0-1.923-.4,3.59,3.59,0,0,0-2.041.516,1.642,1.642,0,0,0-.763,1.439,1.362,1.362,0,0,0,.752,1.268,9.2,9.2,0,0,0,2.063.655l2.729.655a7.054,7.054,0,0,1,2.707,1.149,3.871,3.871,0,0,1,1.418,3.233,4.563,4.563,0,0,1-1.66,3.6,6.953,6.953,0,0,1-4.689,1.434A7.606,7.606,0,0,1,164.859,16a4.694,4.694,0,0,1-1.772-3.883h3.158a3.251,3.251,0,0,0,.591,1.622A3.4,3.4,0,0,0,169.6,14.712Z" transform="translate(626.5 4149.653) rotate(60)" fill="#212429"/>
      <path id="Trazado_1027780" data-name="Trazado 1027780" d="M13.5,1.166v2.8H8.764V17H5.434V3.97H.675v-2.8Zm8.658,9.625H18.744V17H15.51V1.166h7.767a7.236,7.236,0,0,1,2.562.408,4,4,0,0,1,1.52,1.106,4.9,4.9,0,0,1,.816,1.332,4.341,4.341,0,0,1,.3,1.665A4.744,4.744,0,0,1,27.907,7.9a3.182,3.182,0,0,1-1.88,1.542,2.956,2.956,0,0,1,1.552,1.251,5.21,5.21,0,0,1,.457,2.476v1.063a8.135,8.135,0,0,0,.086,1.472,1.322,1.322,0,0,0,.6.9V17H25.082q-.15-.526-.215-.849a7.8,7.8,0,0,1-.14-1.364l-.021-1.472a2.875,2.875,0,0,0-.553-2.02A2.935,2.935,0,0,0,22.16,10.791Zm2.009-2.879a1.764,1.764,0,0,0,.988-1.783A1.968,1.968,0,0,0,24.2,4.2a3.613,3.613,0,0,0-1.611-.279H18.744V8.17h3.749A4.178,4.178,0,0,0,24.168,7.912Zm16.425,5.833H34.76L33.665,17H30.206l5.65-15.834h3.738L45.2,17H41.614Zm-.924-2.729-1.977-6.23-2.041,6.23Zm13.288,3.7a5.826,5.826,0,0,0,1.9-.258,1.837,1.837,0,0,0,1.386-1.837,1.355,1.355,0,0,0-.687-1.214,7.393,7.393,0,0,0-2.159-.741l-1.676-.376a10.59,10.59,0,0,1-3.416-1.214,3.861,3.861,0,0,1-1.6-3.427,4.576,4.576,0,0,1,1.547-3.534A6.54,6.54,0,0,1,52.8.7a6.909,6.909,0,0,1,4.27,1.327,4.737,4.737,0,0,1,1.853,3.851H55.74a2.271,2.271,0,0,0-1.246-2.03,4.179,4.179,0,0,0-1.923-.4,3.59,3.59,0,0,0-2.041.516,1.642,1.642,0,0,0-.763,1.439,1.362,1.362,0,0,0,.752,1.268,9.2,9.2,0,0,0,2.063.655l2.729.655a7.054,7.054,0,0,1,2.707,1.149,3.871,3.871,0,0,1,1.418,3.233,4.563,4.563,0,0,1-1.66,3.6,6.953,6.953,0,0,1-4.689,1.434A7.606,7.606,0,0,1,48.22,16a4.694,4.694,0,0,1-1.772-3.883h3.158a3.251,3.251,0,0,0,.591,1.622A3.4,3.4,0,0,0,52.958,14.712ZM74.689,17H71.38L64.914,5.753V17H61.831V1.166H65.3L71.606,12.22V1.166h3.083ZM76.6,1.166h3.534l3.438,12.021,3.47-12.021H90.48L85.077,17H81.951Zm26.866,8.916H95.776v4.071h8.766V17h-12V1.166h11.612v2.8H95.776V7.332h7.691Zm10.377.709h-3.416V17h-3.233V1.166h7.767a7.236,7.236,0,0,1,2.562.408,4,4,0,0,1,1.52,1.106,4.9,4.9,0,0,1,.816,1.332,4.341,4.341,0,0,1,.3,1.665,4.744,4.744,0,0,1-.569,2.218,3.182,3.182,0,0,1-1.88,1.542,2.956,2.956,0,0,1,1.552,1.251,5.21,5.21,0,0,1,.457,2.476v1.063a8.135,8.135,0,0,0,.086,1.472,1.322,1.322,0,0,0,.6.9V17h-3.642q-.15-.526-.215-.849a7.8,7.8,0,0,1-.14-1.364l-.021-1.472a2.875,2.875,0,0,0-.553-2.02A2.935,2.935,0,0,0,113.844,10.791Zm2.009-2.879a1.764,1.764,0,0,0,.988-1.783,1.968,1.968,0,0,0-.956-1.934,3.613,3.613,0,0,0-1.611-.279h-3.846V8.17h3.749A4.178,4.178,0,0,0,115.853,7.912Zm12.9,6.8a5.826,5.826,0,0,0,1.9-.258,1.837,1.837,0,0,0,1.386-1.837,1.355,1.355,0,0,0-.687-1.214,7.393,7.393,0,0,0-2.159-.741l-1.676-.376A10.59,10.59,0,0,1,124.1,9.072a3.861,3.861,0,0,1-1.6-3.427,4.576,4.576,0,0,1,1.547-3.534A6.54,6.54,0,0,1,128.593.7a6.909,6.909,0,0,1,4.27,1.327,4.737,4.737,0,0,1,1.853,3.851h-3.18a2.271,2.271,0,0,0-1.246-2.03,4.179,4.179,0,0,0-1.923-.4,3.59,3.59,0,0,0-2.041.516,1.642,1.642,0,0,0-.763,1.439,1.362,1.362,0,0,0,.752,1.268,9.2,9.2,0,0,0,2.063.655l2.729.655a7.054,7.054,0,0,1,2.707,1.149,3.871,3.871,0,0,1,1.418,3.233,4.563,4.563,0,0,1-1.66,3.6,6.953,6.953,0,0,1-4.689,1.434A7.606,7.606,0,0,1,124.017,16a4.694,4.694,0,0,1-1.772-3.883H125.4a3.251,3.251,0,0,0,.591,1.622A3.4,3.4,0,0,0,128.754,14.712Zm18.2-.967h-5.833L140.023,17h-3.459l5.65-15.834h3.738L151.56,17h-3.588Zm-.924-2.729-1.977-6.23-2.041,6.23Zm7.541-9.851h3.309V14.153h7.842V17h-11.15Zm24.46,8.916h-7.691v4.071H179.1V17h-12V1.166h11.612v2.8h-8.379V7.332h7.691Zm9.4,4.63a5.826,5.826,0,0,0,1.9-.258,1.837,1.837,0,0,0,1.386-1.837,1.355,1.355,0,0,0-.687-1.214,7.393,7.393,0,0,0-2.159-.741l-1.676-.376a10.589,10.589,0,0,1-3.416-1.214,3.861,3.861,0,0,1-1.6-3.427,4.576,4.576,0,0,1,1.547-3.534A6.54,6.54,0,0,1,187.267.7a6.909,6.909,0,0,1,4.27,1.327,4.737,4.737,0,0,1,1.853,3.851h-3.18a2.271,2.271,0,0,0-1.246-2.03,4.179,4.179,0,0,0-1.923-.4A3.59,3.59,0,0,0,185,3.97a1.642,1.642,0,0,0-.763,1.439,1.362,1.362,0,0,0,.752,1.268,9.2,9.2,0,0,0,2.063.655l2.729.655a7.054,7.054,0,0,1,2.707,1.149,3.871,3.871,0,0,1,1.418,3.233,4.563,4.563,0,0,1-1.66,3.6,6.953,6.953,0,0,1-4.689,1.434A7.606,7.606,0,0,1,182.691,16a4.694,4.694,0,0,1-1.772-3.883h3.158a3.251,3.251,0,0,0,.591,1.622A3.4,3.4,0,0,0,187.428,14.712Z" transform="translate(737.417 3952.378)" fill="#212429"/>
      <g id="Grupo_1172063" data-name="Grupo 1172063" transform="translate(35 64.891)">
        <path id="Trazado_1011583" data-name="Trazado 1011583" d="M3129.672,3920.474h240.979" transform="translate(-2440.239)" fill="#496406" stroke="#496406" stroke-linecap="round" stroke-width="5"/>
        <path id="Trazado_1011584" data-name="Trazado 1011584" d="M3451.243,3910.487c.447.178,11.531,10.1,11.531,10.1l-11.531,8.938" transform="translate(-2526.597)" fill="none" stroke="#496406" stroke-linecap="round" stroke-width="5"/>
      </g>
      <g id="Grupo_1172064" data-name="Grupo 1172064" transform="translate(3643.856 1602.953) rotate(60)">
        <path id="Trazado_1011583-2" data-name="Trazado 1011583" d="M3129.672,3920.474H3300.6" transform="translate(-2416.226)" fill="#496406" stroke="#496406" stroke-linecap="round" stroke-width="5"/>
        <path id="Trazado_1011584-2" data-name="Trazado 1011584" d="M3451.243,3910.487c.447.178,11.531,10.1,11.531,10.1l-11.531,8.938" transform="translate(-2572.637 0.467)" fill="none" stroke="#496406" stroke-linecap="round" stroke-width="5"/>
      </g>
      <g id="OBJECTS" transform="translate(1084.833 4486.668) rotate(180)">
        <path id="Trazado_1011577" data-name="Trazado 1011577" d="M90.158,0,0,156.159H180.316Z" transform="translate(164.815)" fill="#86b60c"/>
        <path id="Trazado_1011578" data-name="Trazado 1011578" d="M78.826,0,0,136.529H495.618L416.792,0Z" transform="translate(0 344.234)" fill="#36ceef"/>
        <path id="Trazado_1011579" data-name="Trazado 1011579" d="M259.142,0H78.826L0,136.531H337.966Z" transform="translate(85.989 173.872)" fill="#ff9d1c"/>
        <path id="Trazado_1011581" data-name="Trazado 1011581" d="M337.966,17.715H31.77L0,0H306.2Z" transform="translate(85.989 310.403)" fill="#8b550e"/>
        <path id="Trazado_1011582" data-name="Trazado 1011582" d="M179.824,17.713H16.9L0,0H162.92Z" transform="translate(164.815 156.159)" fill="#496406"/>
      </g>
      <path id="Trazado_1027784" data-name="Trazado 1027784" d="M10.551.948a4.409,4.409,0,0,1,3.171,1.077,3.8,3.8,0,0,1,1.252,2.446H13.554a2.957,2.957,0,0,0-.963-1.648,3.053,3.053,0,0,0-2.025-.608A3.247,3.247,0,0,0,8,3.332,5.091,5.091,0,0,0,7.02,6.756,4.973,4.973,0,0,0,7.9,9.821,3.084,3.084,0,0,0,10.536,11,2.782,2.782,0,0,0,12.99,9.759a4.707,4.707,0,0,0,.667-1.714h1.421a4.855,4.855,0,0,1-1.26,2.849,4.483,4.483,0,0,1-3.457,1.384,4.563,4.563,0,0,1-3.149-1.135A5.915,5.915,0,0,1,5.534,6.507a5.922,5.922,0,0,1,1.26-3.9A4.6,4.6,0,0,1,10.551.948Zm9.237,10.2a1.818,1.818,0,0,0,1.8-.992,4.944,4.944,0,0,0,.487-2.208,3.932,3.932,0,0,0-.352-1.787A1.978,1.978,0,0,0,19.8,5.079,1.892,1.892,0,0,0,18.045,6,4.278,4.278,0,0,0,17.5,8.228a3.721,3.721,0,0,0,.549,2.087A1.935,1.935,0,0,0,19.788,11.15Zm.051-7.222A3.552,3.552,0,0,1,22.4,4.939,3.947,3.947,0,0,1,23.45,7.913a5.1,5.1,0,0,1-.923,3.135,3.338,3.338,0,0,1-2.864,1.238,3.233,3.233,0,0,1-2.571-1.095A4.325,4.325,0,0,1,16.14,8.25a4.679,4.679,0,0,1,1-3.149A3.368,3.368,0,0,1,19.839,3.929Zm5.18.227h1.3V5.269a4.382,4.382,0,0,1,.85-.842,2.555,2.555,0,0,1,1.479-.447,2.328,2.328,0,0,1,1.509.461,2.412,2.412,0,0,1,.586.776,2.85,2.85,0,0,1,1.033-.934,2.881,2.881,0,0,1,1.333-.3,2.18,2.18,0,0,1,2.153,1.143,3.735,3.735,0,0,1,.308,1.655V12H34.2V6.551a1.269,1.269,0,0,0-.392-1.077,1.551,1.551,0,0,0-.956-.293,1.9,1.9,0,0,0-1.337.52,2.284,2.284,0,0,0-.56,1.736V12h-1.34V6.88a2.66,2.66,0,0,0-.19-1.165,1.161,1.161,0,0,0-1.121-.549,1.934,1.934,0,0,0-1.359.579,2.836,2.836,0,0,0-.612,2.095V12H25.019Zm15.807,6.958a1.881,1.881,0,0,0,1.534-.773,3.677,3.677,0,0,0,.612-2.311A4.313,4.313,0,0,0,42.7,6.419a1.986,1.986,0,0,0-3.75.073,5.428,5.428,0,0,0-.271,1.86A3.944,3.944,0,0,0,38.951,9.9,1.87,1.87,0,0,0,40.826,11.114ZM37.413,4.192h1.282v1.04a3.2,3.2,0,0,1,.864-.828,2.782,2.782,0,0,1,1.567-.439A2.947,2.947,0,0,1,43.39,4.987a4.186,4.186,0,0,1,.93,2.919,4.482,4.482,0,0,1-1.34,3.662,3.028,3.028,0,0,1-1.978.7,2.684,2.684,0,0,1-1.487-.388,3.426,3.426,0,0,1-.784-.754v4.006H37.413ZM49.126,3.98a3.578,3.578,0,0,1,1.619.392,2.985,2.985,0,0,1,1.194,1.014,3.5,3.5,0,0,1,.527,1.384A9.057,9.057,0,0,1,52.583,8.5h-5.75a3.355,3.355,0,0,0,.564,1.915,1.888,1.888,0,0,0,1.633.721,2.111,2.111,0,0,0,1.648-.681,2.3,2.3,0,0,0,.5-.916h1.3a2.73,2.73,0,0,1-.341.963,3.426,3.426,0,0,1-.648.868A3.072,3.072,0,0,1,50,12.161a4.517,4.517,0,0,1-1.077.117,3.3,3.3,0,0,1-2.483-1.066A4.146,4.146,0,0,1,45.42,8.228a4.508,4.508,0,0,1,1.025-3.069A3.383,3.383,0,0,1,49.126,3.98Zm2.1,3.472a3.416,3.416,0,0,0-.374-1.37,1.915,1.915,0,0,0-1.809-.952,2.005,2.005,0,0,0-1.523.656,2.476,2.476,0,0,0-.652,1.666Zm3.239-5.486H55.8v2.19h1.252V5.232H55.8v5.12a.554.554,0,0,0,.278.549,1.183,1.183,0,0,0,.513.081q.1,0,.205,0t.256-.018V12a2.943,2.943,0,0,1-.472.1,4.491,4.491,0,0,1-.531.029,1.431,1.431,0,0,1-1.252-.472,2.1,2.1,0,0,1-.33-1.227V5.232H53.4V4.156h1.062ZM61.639,3.98a3.578,3.578,0,0,1,1.619.392,2.985,2.985,0,0,1,1.194,1.014,3.5,3.5,0,0,1,.527,1.384A9.057,9.057,0,0,1,65.1,8.5h-5.75a3.355,3.355,0,0,0,.564,1.915,1.888,1.888,0,0,0,1.633.721,2.111,2.111,0,0,0,1.648-.681,2.3,2.3,0,0,0,.5-.916h1.3a2.73,2.73,0,0,1-.341.963A3.426,3.426,0,0,1,64,11.37a3.072,3.072,0,0,1-1.487.791,4.517,4.517,0,0,1-1.077.117,3.3,3.3,0,0,1-2.483-1.066,4.146,4.146,0,0,1-1.018-2.985,4.508,4.508,0,0,1,1.025-3.069A3.383,3.383,0,0,1,61.639,3.98Zm2.1,3.472a3.416,3.416,0,0,0-.374-1.37,1.915,1.915,0,0,0-1.809-.952,2.005,2.005,0,0,0-1.523.656,2.476,2.476,0,0,0-.652,1.666Zm2.975-3.3h1.252V5.269a3.513,3.513,0,0,1,1.179-.989,3.145,3.145,0,0,1,1.384-.3,2.282,2.282,0,0,1,2.256,1.165,4.135,4.135,0,0,1,.322,1.824V12H71.77V7.056A2.677,2.677,0,0,0,71.557,5.9a1.288,1.288,0,0,0-1.274-.732,2.6,2.6,0,0,0-.769.1,1.981,1.981,0,0,0-.952.645,1.94,1.94,0,0,0-.428.8,5.4,5.4,0,0,0-.1,1.183V12H66.716Zm11.369-.227a3.42,3.42,0,0,1,2.157.645,3.088,3.088,0,0,1,1,2.219H79.96a2.366,2.366,0,0,0-.535-1.2,1.689,1.689,0,0,0-1.34-.48,1.852,1.852,0,0,0-1.8,1.23,4.888,4.888,0,0,0-.352,1.97,3.708,3.708,0,0,0,.5,1.985,1.931,1.931,0,0,0,2.867.3,2.759,2.759,0,0,0,.663-1.373h1.282a3.44,3.44,0,0,1-1.1,2.281,3.428,3.428,0,0,1-2.249.721A3,3,0,0,1,75.441,11.1a4.3,4.3,0,0,1-.916-2.809,4.732,4.732,0,0,1,1-3.215A3.242,3.242,0,0,1,78.085,3.929Zm4.477.264H83.9V12h-1.34Zm0-2.952H83.9V2.735h-1.34Zm4.345,8.672a1.086,1.086,0,0,0,.417.9,1.548,1.548,0,0,0,.989.33,3.006,3.006,0,0,0,1.348-.322,1.814,1.814,0,0,0,1.1-1.75V8.008a2.255,2.255,0,0,1-.623.256,5.3,5.3,0,0,1-.747.146l-.8.1a3.053,3.053,0,0,0-1.077.3A1.17,1.17,0,0,0,86.906,9.913ZM90.1,7.247a.716.716,0,0,0,.608-.381A1.159,1.159,0,0,0,90.8,6.36a1.071,1.071,0,0,0-.48-.978,2.574,2.574,0,0,0-1.373-.3,1.745,1.745,0,0,0-1.465.557,1.831,1.831,0,0,0-.315.916h-1.23a2.265,2.265,0,0,1,.941-2.018,3.864,3.864,0,0,1,2.1-.568,4.27,4.27,0,0,1,2.249.527,1.789,1.789,0,0,1,.857,1.641v4.519a.579.579,0,0,0,.084.33.406.406,0,0,0,.355.125q.088,0,.2-.011t.234-.033v.974a3.672,3.672,0,0,1-.469.11,3.426,3.426,0,0,1-.439.022,1.084,1.084,0,0,1-.989-.483,1.866,1.866,0,0,1-.227-.725,3.354,3.354,0,0,1-1.157.916A3.58,3.58,0,0,1,88,12.264a2.472,2.472,0,0,1-1.783-.663,2.2,2.2,0,0,1-.692-1.659A2.137,2.137,0,0,1,86.21,8.25,3.241,3.241,0,0,1,88,7.51Zm4.923,2.292a1.917,1.917,0,0,0,.33,1.011,2.071,2.071,0,0,0,1.729.637,2.549,2.549,0,0,0,1.289-.319,1.058,1.058,0,0,0,.557-.985.842.842,0,0,0-.447-.769,5.312,5.312,0,0,0-1.128-.374L96.3,8.477a5.109,5.109,0,0,1-1.479-.557,1.664,1.664,0,0,1-.85-1.479,2.261,2.261,0,0,1,.8-1.8,3.2,3.2,0,0,1,2.157-.688,2.994,2.994,0,0,1,2.556,1.04,2.257,2.257,0,0,1,.476,1.421H98.721a1.525,1.525,0,0,0-.315-.813,2.009,2.009,0,0,0-1.575-.52,1.882,1.882,0,0,0-1.132.286.9.9,0,0,0-.385.754.929.929,0,0,0,.505.82,3.037,3.037,0,0,0,.864.322l.872.212a6.739,6.739,0,0,1,1.9.667,1.765,1.765,0,0,1,.769,1.589,2.422,2.422,0,0,1-.795,1.809,3.383,3.383,0,0,1-2.421.762,3.248,3.248,0,0,1-2.479-.795,3.005,3.005,0,0,1-.78-1.967ZM46.259,38.114a1.881,1.881,0,0,0,1.534-.773,3.677,3.677,0,0,0,.612-2.311,4.313,4.313,0,0,0-.271-1.611,1.986,1.986,0,0,0-3.75.073,5.428,5.428,0,0,0-.271,1.86,3.944,3.944,0,0,0,.271,1.545A1.87,1.87,0,0,0,46.259,38.114Zm-3.413-6.921h1.282v1.04a3.2,3.2,0,0,1,.864-.828,2.782,2.782,0,0,1,1.567-.439,2.947,2.947,0,0,1,2.263,1.022,4.186,4.186,0,0,1,.93,2.919,4.482,4.482,0,0,1-1.34,3.662,3.028,3.028,0,0,1-1.978.7,2.684,2.684,0,0,1-1.487-.388,3.426,3.426,0,0,1-.784-.754v4.006H42.846ZM54.405,38.15a1.818,1.818,0,0,0,1.8-.992,4.944,4.944,0,0,0,.487-2.208,3.932,3.932,0,0,0-.352-1.787,1.978,1.978,0,0,0-1.919-1.084A1.892,1.892,0,0,0,52.662,33a4.278,4.278,0,0,0-.549,2.227,3.721,3.721,0,0,0,.549,2.087A1.935,1.935,0,0,0,54.405,38.15Zm.051-7.222a3.552,3.552,0,0,1,2.563,1.011,3.947,3.947,0,0,1,1.047,2.974,5.1,5.1,0,0,1-.923,3.135,3.338,3.338,0,0,1-2.864,1.238,3.233,3.233,0,0,1-2.571-1.095,4.325,4.325,0,0,1-.952-2.941,4.679,4.679,0,0,1,1-3.149A3.368,3.368,0,0,1,54.457,30.929Zm5.216.227h1.252v1.355a2.994,2.994,0,0,1,.754-.963,1.956,1.956,0,0,1,1.384-.568q.037,0,.125.007l.3.029v1.392a1.969,1.969,0,0,0-.216-.029q-.1-.007-.216-.007a1.881,1.881,0,0,0-1.531.641,2.237,2.237,0,0,0-.535,1.476V39H59.673ZM17.2,57.929a3.42,3.42,0,0,1,2.157.645,3.088,3.088,0,0,1,1,2.219H19.073a2.366,2.366,0,0,0-.535-1.2,1.689,1.689,0,0,0-1.34-.48,1.852,1.852,0,0,0-1.8,1.23,4.888,4.888,0,0,0-.352,1.97,3.708,3.708,0,0,0,.5,1.985,1.708,1.708,0,0,0,1.567.806,1.714,1.714,0,0,0,1.3-.5,2.759,2.759,0,0,0,.663-1.373h1.282a3.44,3.44,0,0,1-1.1,2.281,3.428,3.428,0,0,1-2.249.721A3,3,0,0,1,14.554,65.1a4.3,4.3,0,0,1-.916-2.809,4.732,4.732,0,0,1,1-3.215A3.242,3.242,0,0,1,17.2,57.929Zm7.589,7.222a1.818,1.818,0,0,0,1.8-.992,4.944,4.944,0,0,0,.487-2.208,3.932,3.932,0,0,0-.352-1.787A1.978,1.978,0,0,0,24.8,59.079,1.892,1.892,0,0,0,23.044,60a4.278,4.278,0,0,0-.549,2.227,3.721,3.721,0,0,0,.549,2.087A1.935,1.935,0,0,0,24.787,65.15Zm.051-7.222A3.552,3.552,0,0,1,27.4,58.939a3.947,3.947,0,0,1,1.047,2.974,5.1,5.1,0,0,1-.923,3.135,3.338,3.338,0,0,1-2.864,1.238,3.233,3.233,0,0,1-2.571-1.095,4.325,4.325,0,0,1-.952-2.941,4.679,4.679,0,0,1,1-3.149A3.368,3.368,0,0,1,24.839,57.929Zm5.216-2.688h1.318V66H30.055Zm4.308,8.672a1.086,1.086,0,0,0,.417.9,1.548,1.548,0,0,0,.989.33,3.006,3.006,0,0,0,1.348-.322,1.814,1.814,0,0,0,1.1-1.75V62.008a2.255,2.255,0,0,1-.623.256,5.3,5.3,0,0,1-.747.146l-.8.1a3.053,3.053,0,0,0-1.077.3A1.17,1.17,0,0,0,34.363,63.913Zm3.193-2.666a.716.716,0,0,0,.608-.381,1.159,1.159,0,0,0,.088-.505,1.071,1.071,0,0,0-.48-.978,2.574,2.574,0,0,0-1.373-.3,1.745,1.745,0,0,0-1.465.557,1.831,1.831,0,0,0-.315.916h-1.23a2.265,2.265,0,0,1,.941-2.018,3.864,3.864,0,0,1,2.1-.568,4.27,4.27,0,0,1,2.249.527,1.789,1.789,0,0,1,.857,1.641v4.519a.579.579,0,0,0,.084.33.406.406,0,0,0,.355.125q.088,0,.2-.011t.234-.033v.974a3.672,3.672,0,0,1-.469.11,3.426,3.426,0,0,1-.439.022,1.084,1.084,0,0,1-.989-.483,1.866,1.866,0,0,1-.227-.725,3.354,3.354,0,0,1-1.157.916,3.58,3.58,0,0,1-1.663.388,2.472,2.472,0,0,1-1.783-.663,2.2,2.2,0,0,1-.692-1.659,2.137,2.137,0,0,1,.681-1.692,3.241,3.241,0,0,1,1.787-.74ZM41.594,55.2h1.282v3.9a2.873,2.873,0,0,1,2.336-1.157,3.056,3.056,0,0,1,2.377,1.007,4.29,4.29,0,0,1,.912,2.97,5.094,5.094,0,0,1-.9,3.091,2.922,2.922,0,0,1-2.5,1.23,2.559,2.559,0,0,1-1.509-.432A3.644,3.644,0,0,1,42.81,65v1H41.594Zm3.428,9.88a1.762,1.762,0,0,0,1.6-.85,4.183,4.183,0,0,0,.531-2.241,3.679,3.679,0,0,0-.531-2.051,1.749,1.749,0,0,0-1.564-.813,2.181,2.181,0,0,0-1.578.667,2.993,2.993,0,0,0-.677,2.2,4.856,4.856,0,0,0,.278,1.794A1.923,1.923,0,0,0,45.021,65.084Zm8.131.066a1.818,1.818,0,0,0,1.8-.992,4.944,4.944,0,0,0,.487-2.208,3.932,3.932,0,0,0-.352-1.787,1.978,1.978,0,0,0-1.919-1.084A1.892,1.892,0,0,0,51.41,60a4.278,4.278,0,0,0-.549,2.227,3.721,3.721,0,0,0,.549,2.087A1.935,1.935,0,0,0,53.153,65.15Zm.051-7.222a3.552,3.552,0,0,1,2.563,1.011,3.947,3.947,0,0,1,1.047,2.974,5.1,5.1,0,0,1-.923,3.135,3.338,3.338,0,0,1-2.864,1.238,3.233,3.233,0,0,1-2.571-1.095,4.325,4.325,0,0,1-.952-2.941,4.679,4.679,0,0,1,1-3.149A3.368,3.368,0,0,1,53.2,57.929Zm5.216.227h1.252v1.355a2.994,2.994,0,0,1,.754-.963,1.956,1.956,0,0,1,1.384-.568q.037,0,.125.007l.3.029v1.392a1.969,1.969,0,0,0-.216-.029q-.1-.007-.216-.007a1.881,1.881,0,0,0-1.531.641,2.237,2.237,0,0,0-.535,1.476V66H58.42Zm5.971,5.757a1.086,1.086,0,0,0,.417.9,1.548,1.548,0,0,0,.989.33,3.006,3.006,0,0,0,1.348-.322,1.814,1.814,0,0,0,1.1-1.75V62.008a2.255,2.255,0,0,1-.623.256,5.3,5.3,0,0,1-.747.146l-.8.1a3.053,3.053,0,0,0-1.077.3A1.17,1.17,0,0,0,64.391,63.913Zm3.193-2.666a.716.716,0,0,0,.608-.381,1.159,1.159,0,0,0,.088-.505,1.071,1.071,0,0,0-.48-.978,2.574,2.574,0,0,0-1.373-.3,1.745,1.745,0,0,0-1.465.557,1.831,1.831,0,0,0-.315.916h-1.23a2.265,2.265,0,0,1,.941-2.018,3.864,3.864,0,0,1,2.1-.568,4.27,4.27,0,0,1,2.249.527,1.789,1.789,0,0,1,.857,1.641v4.519a.579.579,0,0,0,.084.33.406.406,0,0,0,.355.125q.088,0,.2-.011t.234-.033v.974a3.672,3.672,0,0,1-.469.11,3.426,3.426,0,0,1-.439.022,1.084,1.084,0,0,1-.989-.483,1.866,1.866,0,0,1-.227-.725,3.354,3.354,0,0,1-1.157.916,3.58,3.58,0,0,1-1.663.388,2.472,2.472,0,0,1-1.783-.663,2.2,2.2,0,0,1-.692-1.659A2.137,2.137,0,0,1,63.7,62.25a3.241,3.241,0,0,1,1.787-.74Zm4.975.923a3.888,3.888,0,0,0,.535,2.109,1.873,1.873,0,0,0,1.714.85,1.805,1.805,0,0,0,1.505-.787,3.718,3.718,0,0,0,.59-2.26,3.341,3.341,0,0,0-.608-2.2,1.9,1.9,0,0,0-1.5-.714,1.982,1.982,0,0,0-1.615.762A3.489,3.489,0,0,0,72.559,62.169Zm1.985-4.153a2.791,2.791,0,0,1,1.509.381,3.544,3.544,0,0,1,.8.769V55.2h1.267V66H76.932V64.909a2.852,2.852,0,0,1-1.091,1.047,3.124,3.124,0,0,1-1.443.322,2.922,2.922,0,0,1-2.271-1.1,4.31,4.31,0,0,1-.959-2.933,5.064,5.064,0,0,1,.875-2.97A2.865,2.865,0,0,1,74.544,58.017Zm8.637,7.134a1.818,1.818,0,0,0,1.8-.992,4.944,4.944,0,0,0,.487-2.208,3.932,3.932,0,0,0-.352-1.787A1.978,1.978,0,0,0,83.2,59.079,1.892,1.892,0,0,0,81.438,60a4.278,4.278,0,0,0-.549,2.227,3.721,3.721,0,0,0,.549,2.087A1.935,1.935,0,0,0,83.181,65.15Zm.051-7.222A3.552,3.552,0,0,1,85.8,58.939a3.947,3.947,0,0,1,1.047,2.974,5.1,5.1,0,0,1-.923,3.135,3.338,3.338,0,0,1-2.864,1.238,3.233,3.233,0,0,1-2.571-1.095,4.325,4.325,0,0,1-.952-2.941,4.679,4.679,0,0,1,1-3.149A3.368,3.368,0,0,1,83.232,57.929Zm5.216.227H89.7v1.355a2.994,2.994,0,0,1,.754-.963,1.956,1.956,0,0,1,1.384-.568q.037,0,.125.007l.3.029v1.392a1.969,1.969,0,0,0-.216-.029q-.1-.007-.216-.007a1.881,1.881,0,0,0-1.531.641,2.237,2.237,0,0,0-.535,1.476V66H88.448Z" transform="translate(778.835 4337.177)" fill="#fff"/>
      <path id="Trazado_1027783" data-name="Trazado 1027783" d="M16.591.737A5.291,5.291,0,0,1,20.4,2.029a4.563,4.563,0,0,1,1.5,2.936H20.194a3.549,3.549,0,0,0-1.156-1.978,3.663,3.663,0,0,0-2.43-.729A3.9,3.9,0,0,0,13.528,3.6a6.11,6.11,0,0,0-1.173,4.109,5.968,5.968,0,0,0,1.059,3.678,3.7,3.7,0,0,0,3.16,1.411,3.338,3.338,0,0,0,2.944-1.485,5.649,5.649,0,0,0,.8-2.057h1.705a5.826,5.826,0,0,1-1.512,3.419,5.379,5.379,0,0,1-4.148,1.661,5.475,5.475,0,0,1-3.779-1.362q-2.013-1.8-2.013-5.563a7.107,7.107,0,0,1,1.512-4.685A5.522,5.522,0,0,1,16.591.737ZM27.674,12.98a2.182,2.182,0,0,0,2.158-1.191,5.933,5.933,0,0,0,.584-2.65A4.718,4.718,0,0,0,29.994,7a2.373,2.373,0,0,0-2.3-1.3A2.271,2.271,0,0,0,25.582,6.8a5.133,5.133,0,0,0-.659,2.672,4.465,4.465,0,0,0,.659,2.5A2.322,2.322,0,0,0,27.674,12.98Zm.062-8.666a4.262,4.262,0,0,1,3.076,1.213A4.736,4.736,0,0,1,32.068,9.1a6.122,6.122,0,0,1-1.107,3.762,4.006,4.006,0,0,1-3.437,1.485,3.88,3.88,0,0,1-3.085-1.314A5.19,5.19,0,0,1,23.3,9.5a5.615,5.615,0,0,1,1.2-3.779A4.041,4.041,0,0,1,27.735,4.314Zm6.214.272h1.564V5.923a5.258,5.258,0,0,1,1.02-1.011,3.066,3.066,0,0,1,1.775-.536,2.794,2.794,0,0,1,1.811.554,2.894,2.894,0,0,1,.7.932,3.419,3.419,0,0,1,1.239-1.121,3.457,3.457,0,0,1,1.6-.365,2.616,2.616,0,0,1,2.584,1.371,4.482,4.482,0,0,1,.369,1.986V14H44.97V7.461a1.523,1.523,0,0,0-.47-1.292,1.861,1.861,0,0,0-1.147-.352,2.277,2.277,0,0,0-1.6.624,2.74,2.74,0,0,0-.672,2.083V14H39.468V7.856a3.192,3.192,0,0,0-.229-1.4A1.394,1.394,0,0,0,37.9,5.8a2.32,2.32,0,0,0-1.63.694,3.4,3.4,0,0,0-.734,2.514V14H33.949Zm18.967,8.35a2.257,2.257,0,0,0,1.841-.927,4.413,4.413,0,0,0,.734-2.773A5.176,5.176,0,0,0,55.166,7.3a2.383,2.383,0,0,0-4.5.088,6.514,6.514,0,0,0-.325,2.232,4.732,4.732,0,0,0,.325,1.854A2.243,2.243,0,0,0,52.916,12.937Zm-4.1-8.306h1.538V5.879A3.84,3.84,0,0,1,51.4,4.886a3.338,3.338,0,0,1,1.881-.527,3.537,3.537,0,0,1,2.716,1.226,5.023,5.023,0,0,1,1.116,3.5q0,3.076-1.608,4.395a3.634,3.634,0,0,1-2.373.835,3.221,3.221,0,0,1-1.784-.466,4.111,4.111,0,0,1-.94-.905v4.808H48.82Zm14.054-.255a4.294,4.294,0,0,1,1.942.47,3.582,3.582,0,0,1,1.433,1.217,4.2,4.2,0,0,1,.633,1.661A10.868,10.868,0,0,1,67.022,9.8h-6.9a4.026,4.026,0,0,0,.677,2.3,2.266,2.266,0,0,0,1.96.866,2.534,2.534,0,0,0,1.978-.817,2.755,2.755,0,0,0,.6-1.1H66.89a3.276,3.276,0,0,1-.409,1.156,4.111,4.111,0,0,1-.778,1.042,3.687,3.687,0,0,1-1.784.949,5.42,5.42,0,0,1-1.292.141,3.964,3.964,0,0,1-2.979-1.279,4.976,4.976,0,0,1-1.222-3.582,5.41,5.41,0,0,1,1.23-3.683A4.059,4.059,0,0,1,62.874,4.376ZM65.4,8.542A4.1,4.1,0,0,0,64.948,6.9a2.3,2.3,0,0,0-2.171-1.143,2.406,2.406,0,0,0-1.828.787,2.972,2.972,0,0,0-.782,2Zm3.885-6.583h1.6V4.587h1.5V5.879h-1.5v6.144a.665.665,0,0,0,.334.659,1.42,1.42,0,0,0,.615.1q.114,0,.246,0t.308-.022V14a3.532,3.532,0,0,1-.567.114,5.39,5.39,0,0,1-.637.035,1.717,1.717,0,0,1-1.5-.567,2.519,2.519,0,0,1-.4-1.472V5.879H68.007V4.587h1.274Zm8.6,2.417a4.294,4.294,0,0,1,1.942.47A3.582,3.582,0,0,1,81.26,6.063a4.2,4.2,0,0,1,.633,1.661A10.868,10.868,0,0,1,82.034,9.8h-6.9a4.026,4.026,0,0,0,.677,2.3,2.266,2.266,0,0,0,1.96.866,2.534,2.534,0,0,0,1.978-.817,2.755,2.755,0,0,0,.6-1.1H81.9a3.276,3.276,0,0,1-.409,1.156,4.111,4.111,0,0,1-.778,1.042,3.687,3.687,0,0,1-1.784.949,5.42,5.42,0,0,1-1.292.141,3.964,3.964,0,0,1-2.979-1.279,4.976,4.976,0,0,1-1.222-3.582,5.41,5.41,0,0,1,1.23-3.683A4.059,4.059,0,0,1,77.885,4.376Zm2.522,4.166A4.1,4.1,0,0,0,79.96,6.9a2.3,2.3,0,0,0-2.171-1.143,2.406,2.406,0,0,0-1.828.787,2.972,2.972,0,0,0-.782,2Zm3.568-3.955h1.5V5.923a4.215,4.215,0,0,1,1.415-1.187,3.773,3.773,0,0,1,1.661-.36,2.739,2.739,0,0,1,2.707,1.4,4.962,4.962,0,0,1,.387,2.188V14H90.041V8.067a3.212,3.212,0,0,0-.255-1.389A1.545,1.545,0,0,0,88.257,5.8a3.114,3.114,0,0,0-.923.114,2.377,2.377,0,0,0-1.143.773,2.329,2.329,0,0,0-.514.962,6.478,6.478,0,0,0-.119,1.419V14H83.976Zm13.641-.272a4.1,4.1,0,0,1,2.588.773,3.705,3.705,0,0,1,1.2,2.663H99.867a2.839,2.839,0,0,0-.642-1.446,2.027,2.027,0,0,0-1.608-.576,2.222,2.222,0,0,0-2.162,1.477,5.865,5.865,0,0,0-.422,2.364,4.449,4.449,0,0,0,.6,2.382,2.317,2.317,0,0,0,3.441.365,3.311,3.311,0,0,0,.8-1.648H101.4a4.129,4.129,0,0,1-1.318,2.738,4.113,4.113,0,0,1-2.7.866,3.6,3.6,0,0,1-2.944-1.349,5.164,5.164,0,0,1-1.1-3.371,5.678,5.678,0,0,1,1.2-3.858A3.891,3.891,0,0,1,97.617,4.314Zm5.37.316H104.6V14h-1.608Zm0-3.542H104.6V2.882h-1.608ZM108.2,11.5a1.3,1.3,0,0,0,.5,1.081,1.857,1.857,0,0,0,1.187.4,3.608,3.608,0,0,0,1.617-.387,2.176,2.176,0,0,0,1.318-2.1V9.21a2.707,2.707,0,0,1-.747.308,6.366,6.366,0,0,1-.9.176l-.958.123a3.664,3.664,0,0,0-1.292.36A1.4,1.4,0,0,0,108.2,11.5Zm3.832-3.2a.859.859,0,0,0,.729-.457,1.391,1.391,0,0,0,.105-.606,1.285,1.285,0,0,0-.576-1.173,3.089,3.089,0,0,0-1.648-.365,2.094,2.094,0,0,0-1.758.668,2.2,2.2,0,0,0-.378,1.1H107.03a2.718,2.718,0,0,1,1.129-2.421,4.637,4.637,0,0,1,2.518-.681,5.124,5.124,0,0,1,2.7.633A2.147,2.147,0,0,1,114.4,6.96v5.423a.694.694,0,0,0,.1.4.487.487,0,0,0,.426.149q.105,0,.237-.013t.281-.04v1.169a4.406,4.406,0,0,1-.562.132,4.111,4.111,0,0,1-.527.026,1.3,1.3,0,0,1-1.187-.58,2.239,2.239,0,0,1-.272-.87,4.025,4.025,0,0,1-1.389,1.1,4.3,4.3,0,0,1-2,.466,2.967,2.967,0,0,1-2.14-.8,2.642,2.642,0,0,1-.831-1.991,2.564,2.564,0,0,1,.817-2.03,3.889,3.889,0,0,1,2.145-.888Zm5.906,2.751a2.3,2.3,0,0,0,.4,1.213,2.485,2.485,0,0,0,2.074.765,3.059,3.059,0,0,0,1.547-.382,1.27,1.27,0,0,0,.668-1.182,1.011,1.011,0,0,0-.536-.923,6.374,6.374,0,0,0-1.354-.448l-1.257-.316A6.131,6.131,0,0,1,117.7,9.1a2,2,0,0,1-1.02-1.775,2.713,2.713,0,0,1,.962-2.162,3.839,3.839,0,0,1,2.588-.826A3.593,3.593,0,0,1,123.3,5.589a2.708,2.708,0,0,1,.571,1.705h-1.494A1.83,1.83,0,0,0,122,6.318a2.41,2.41,0,0,0-1.89-.624,2.259,2.259,0,0,0-1.358.343,1.074,1.074,0,0,0-.461.905,1.114,1.114,0,0,0,.606.984,3.644,3.644,0,0,0,1.037.387l1.046.255a8.087,8.087,0,0,1,2.285.8,2.118,2.118,0,0,1,.923,1.907,2.906,2.906,0,0,1-.954,2.171,4.059,4.059,0,0,1-2.9.914,3.9,3.9,0,0,1-2.975-.954,3.606,3.606,0,0,1-.936-2.36Zm17.033,1.89a2.257,2.257,0,0,0,1.841-.927,4.413,4.413,0,0,0,.734-2.773A5.176,5.176,0,0,0,137.22,7.3a2.383,2.383,0,0,0-4.5.088,6.514,6.514,0,0,0-.325,2.232,4.732,4.732,0,0,0,.325,1.854A2.243,2.243,0,0,0,134.97,12.937Zm-4.1-8.306h1.538V5.879a3.84,3.84,0,0,1,1.037-.993,3.338,3.338,0,0,1,1.881-.527,3.537,3.537,0,0,1,2.716,1.226,5.023,5.023,0,0,1,1.116,3.5q0,3.076-1.608,4.395a3.634,3.634,0,0,1-2.373.835,3.221,3.221,0,0,1-1.784-.466,4.111,4.111,0,0,1-.94-.905v4.808h-1.582Zm13.869,8.35A2.182,2.182,0,0,0,146.9,11.79a5.933,5.933,0,0,0,.584-2.65A4.718,4.718,0,0,0,147.064,7a2.373,2.373,0,0,0-2.3-1.3A2.271,2.271,0,0,0,142.652,6.8a5.133,5.133,0,0,0-.659,2.672,4.465,4.465,0,0,0,.659,2.5A2.322,2.322,0,0,0,144.744,12.98Zm.062-8.666a4.262,4.262,0,0,1,3.076,1.213A4.736,4.736,0,0,1,149.138,9.1a6.122,6.122,0,0,1-1.107,3.762,4.006,4.006,0,0,1-3.437,1.485,3.88,3.88,0,0,1-3.085-1.314A5.19,5.19,0,0,1,140.367,9.5a5.615,5.615,0,0,1,1.2-3.779A4.041,4.041,0,0,1,144.805,4.314Zm6.258.272h1.5V6.213a3.592,3.592,0,0,1,.905-1.156,2.347,2.347,0,0,1,1.661-.681q.044,0,.149.009t.36.035V6.09a2.363,2.363,0,0,0-.259-.035q-.119-.009-.259-.009a2.258,2.258,0,0,0-1.837.769,2.684,2.684,0,0,0-.642,1.771V14h-1.582ZM24.646,38.5a1.3,1.3,0,0,0,.5,1.081,1.857,1.857,0,0,0,1.187.4,3.608,3.608,0,0,0,1.617-.387,2.176,2.176,0,0,0,1.318-2.1V36.21a2.707,2.707,0,0,1-.747.308,6.366,6.366,0,0,1-.9.176l-.958.123a3.664,3.664,0,0,0-1.292.36A1.4,1.4,0,0,0,24.646,38.5Zm3.832-3.2a.859.859,0,0,0,.729-.457,1.391,1.391,0,0,0,.105-.606,1.285,1.285,0,0,0-.576-1.173,3.089,3.089,0,0,0-1.648-.365,2.094,2.094,0,0,0-1.758.668,2.2,2.2,0,0,0-.378,1.1H23.477a2.718,2.718,0,0,1,1.129-2.421,4.637,4.637,0,0,1,2.518-.681,5.124,5.124,0,0,1,2.7.633,2.147,2.147,0,0,1,1.028,1.969v5.423a.694.694,0,0,0,.1.4.487.487,0,0,0,.426.149q.105,0,.237-.013t.281-.04v1.169a4.406,4.406,0,0,1-.562.132,4.111,4.111,0,0,1-.527.026,1.3,1.3,0,0,1-1.187-.58,2.239,2.239,0,0,1-.272-.87,4.025,4.025,0,0,1-1.389,1.1,4.3,4.3,0,0,1-2,.466,2.967,2.967,0,0,1-2.14-.8,2.642,2.642,0,0,1-.831-1.991,2.564,2.564,0,0,1,.817-2.03,3.889,3.889,0,0,1,2.145-.888Zm.668-7.5L26.8,30.339H25.586l1.608-2.54Zm4.342,3.788h1.5v1.626a3.592,3.592,0,0,1,.905-1.156,2.347,2.347,0,0,1,1.661-.681q.044,0,.149.009t.36.035v1.67a2.363,2.363,0,0,0-.259-.035q-.119-.009-.259-.009a2.258,2.258,0,0,0-1.837.769,2.684,2.684,0,0,0-.642,1.771V41H33.488Zm9.87-.211a4.294,4.294,0,0,1,1.942.47,3.582,3.582,0,0,1,1.433,1.217,4.2,4.2,0,0,1,.633,1.661,10.868,10.868,0,0,1,.141,2.074h-6.9a4.026,4.026,0,0,0,.677,2.3,2.266,2.266,0,0,0,1.96.866,2.534,2.534,0,0,0,1.978-.817,2.755,2.755,0,0,0,.6-1.1h1.556a3.276,3.276,0,0,1-.409,1.156,4.111,4.111,0,0,1-.778,1.042,3.687,3.687,0,0,1-1.784.949,5.42,5.42,0,0,1-1.292.141,3.964,3.964,0,0,1-2.979-1.279,4.976,4.976,0,0,1-1.222-3.582,5.41,5.41,0,0,1,1.23-3.683A4.059,4.059,0,0,1,43.358,31.376Zm2.522,4.166a4.1,4.1,0,0,0-.448-1.644,2.3,2.3,0,0,0-2.171-1.143,2.406,2.406,0,0,0-1.828.787,2.972,2.972,0,0,0-.782,2ZM50.661,38.5a1.3,1.3,0,0,0,.5,1.081,1.857,1.857,0,0,0,1.187.4,3.608,3.608,0,0,0,1.617-.387,2.176,2.176,0,0,0,1.318-2.1V36.21a2.707,2.707,0,0,1-.747.308,6.366,6.366,0,0,1-.9.176l-.958.123a3.664,3.664,0,0,0-1.292.36A1.4,1.4,0,0,0,50.661,38.5Zm3.832-3.2a.859.859,0,0,0,.729-.457,1.391,1.391,0,0,0,.105-.606,1.285,1.285,0,0,0-.576-1.173,3.089,3.089,0,0,0-1.648-.365,2.094,2.094,0,0,0-1.758.668,2.2,2.2,0,0,0-.378,1.1H49.492a2.718,2.718,0,0,1,1.129-2.421,4.637,4.637,0,0,1,2.518-.681,5.124,5.124,0,0,1,2.7.633,2.147,2.147,0,0,1,1.028,1.969v5.423a.694.694,0,0,0,.1.4.487.487,0,0,0,.426.149q.105,0,.237-.013t.281-.04v1.169a4.406,4.406,0,0,1-.562.132,4.111,4.111,0,0,1-.527.026,1.3,1.3,0,0,1-1.187-.58,2.239,2.239,0,0,1-.272-.87,4.025,4.025,0,0,1-1.389,1.1,4.3,4.3,0,0,1-2,.466,2.967,2.967,0,0,1-2.14-.8,2.642,2.642,0,0,1-.831-1.991,2.564,2.564,0,0,1,.817-2.03,3.889,3.889,0,0,1,2.145-.888ZM65.462,36.4a4.666,4.666,0,0,0,.642,2.531,2.248,2.248,0,0,0,2.057,1.02,2.166,2.166,0,0,0,1.806-.945,4.462,4.462,0,0,0,.708-2.711,4.009,4.009,0,0,0-.729-2.641,2.276,2.276,0,0,0-1.8-.857,2.378,2.378,0,0,0-1.938.914A4.186,4.186,0,0,0,65.462,36.4Zm2.382-4.983a3.349,3.349,0,0,1,1.811.457,4.253,4.253,0,0,1,.958.923V28.045h1.521V41H70.709V39.69a3.423,3.423,0,0,1-1.31,1.257,3.748,3.748,0,0,1-1.731.387,3.506,3.506,0,0,1-2.725-1.323,5.172,5.172,0,0,1-1.151-3.52,6.076,6.076,0,0,1,1.05-3.564A3.439,3.439,0,0,1,67.844,31.42Zm10.547-.044a4.294,4.294,0,0,1,1.942.47,3.582,3.582,0,0,1,1.433,1.217,4.2,4.2,0,0,1,.633,1.661,10.868,10.868,0,0,1,.141,2.074h-6.9a4.026,4.026,0,0,0,.677,2.3,2.266,2.266,0,0,0,1.96.866,2.534,2.534,0,0,0,1.978-.817,2.755,2.755,0,0,0,.6-1.1h1.556A3.276,3.276,0,0,1,82,39.2a4.111,4.111,0,0,1-.778,1.042,3.687,3.687,0,0,1-1.784.949,5.42,5.42,0,0,1-1.292.141,3.964,3.964,0,0,1-2.979-1.279,4.976,4.976,0,0,1-1.222-3.582,5.41,5.41,0,0,1,1.23-3.683A4.059,4.059,0,0,1,78.391,31.376Zm2.522,4.166a4.1,4.1,0,0,0-.448-1.644,2.3,2.3,0,0,0-2.171-1.143,2.406,2.406,0,0,0-1.828.787,2.972,2.972,0,0,0-.782,2ZM89.8,28.959h1.6v2.628h1.5v1.292H91.4v6.144a.665.665,0,0,0,.334.659,1.42,1.42,0,0,0,.615.1q.114,0,.246,0t.308-.022V41a3.532,3.532,0,0,1-.567.114,5.39,5.39,0,0,1-.637.035,1.717,1.717,0,0,1-1.5-.567,2.519,2.519,0,0,1-.4-1.472V32.879H88.525V31.587H89.8Zm4.729,2.628h1.5v1.626a3.592,3.592,0,0,1,.905-1.156,2.347,2.347,0,0,1,1.661-.681q.044,0,.149.009t.36.035v1.67a2.363,2.363,0,0,0-.259-.035q-.119-.009-.259-.009a2.258,2.258,0,0,0-1.837.769,2.684,2.684,0,0,0-.642,1.771V41H94.528Zm7.163,6.908a1.3,1.3,0,0,0,.5,1.081,1.857,1.857,0,0,0,1.187.4A3.608,3.608,0,0,0,105,39.585a2.176,2.176,0,0,0,1.318-2.1V36.21a2.707,2.707,0,0,1-.747.308,6.366,6.366,0,0,1-.9.176l-.958.123a3.664,3.664,0,0,0-1.292.36A1.4,1.4,0,0,0,101.691,38.5Zm3.832-3.2a.859.859,0,0,0,.729-.457,1.391,1.391,0,0,0,.105-.606,1.285,1.285,0,0,0-.576-1.173,3.089,3.089,0,0,0-1.648-.365,2.094,2.094,0,0,0-1.758.668,2.2,2.2,0,0,0-.378,1.1h-1.477a2.718,2.718,0,0,1,1.129-2.421,4.637,4.637,0,0,1,2.518-.681,5.124,5.124,0,0,1,2.7.633A2.147,2.147,0,0,1,107.9,33.96v5.423a.694.694,0,0,0,.1.4.487.487,0,0,0,.426.149q.105,0,.237-.013t.281-.04v1.169a4.406,4.406,0,0,1-.562.132,4.111,4.111,0,0,1-.527.026,1.3,1.3,0,0,1-1.187-.58,2.239,2.239,0,0,1-.272-.87,4.025,4.025,0,0,1-1.389,1.1,4.3,4.3,0,0,1-2,.466,2.967,2.967,0,0,1-2.14-.8,2.642,2.642,0,0,1-.831-1.991,2.564,2.564,0,0,1,.817-2.03A3.889,3.889,0,0,1,103,35.612Zm4.843-7.251H111.9v4.685a3.447,3.447,0,0,1,2.8-1.389,3.667,3.667,0,0,1,2.852,1.208,5.148,5.148,0,0,1,1.094,3.564,6.112,6.112,0,0,1-1.081,3.709,3.507,3.507,0,0,1-3,1.477,3.071,3.071,0,0,1-1.811-.519,4.372,4.372,0,0,1-.94-.984V41h-1.459ZM114.479,39.9a2.114,2.114,0,0,0,1.92-1.02,5.02,5.02,0,0,0,.637-2.689,4.414,4.414,0,0,0-.637-2.461,2.1,2.1,0,0,0-1.876-.976,2.617,2.617,0,0,0-1.894.8,3.592,3.592,0,0,0-.813,2.637,5.827,5.827,0,0,0,.334,2.153A2.308,2.308,0,0,0,114.479,39.9Zm7.233-1.406a1.3,1.3,0,0,0,.5,1.081,1.857,1.857,0,0,0,1.187.4,3.608,3.608,0,0,0,1.617-.387,2.176,2.176,0,0,0,1.318-2.1V36.21a2.707,2.707,0,0,1-.747.308,6.366,6.366,0,0,1-.9.176l-.958.123a3.664,3.664,0,0,0-1.292.36A1.4,1.4,0,0,0,121.712,38.5Zm3.832-3.2a.859.859,0,0,0,.729-.457,1.391,1.391,0,0,0,.105-.606,1.285,1.285,0,0,0-.576-1.173,3.089,3.089,0,0,0-1.648-.365,2.094,2.094,0,0,0-1.758.668,2.2,2.2,0,0,0-.378,1.1h-1.477a2.718,2.718,0,0,1,1.129-2.421,4.637,4.637,0,0,1,2.518-.681,5.124,5.124,0,0,1,2.7.633,2.147,2.147,0,0,1,1.028,1.969v5.423a.694.694,0,0,0,.1.4.487.487,0,0,0,.426.149q.105,0,.237-.013t.281-.04v1.169a4.406,4.406,0,0,1-.562.132,4.111,4.111,0,0,1-.527.026,1.3,1.3,0,0,1-1.187-.58,2.239,2.239,0,0,1-.272-.87,4.025,4.025,0,0,1-1.389,1.1,4.3,4.3,0,0,1-2,.466,2.967,2.967,0,0,1-2.14-.8,2.642,2.642,0,0,1-.831-1.991,2.564,2.564,0,0,1,.817-2.03,3.889,3.889,0,0,1,2.145-.888Zm6.548-5.379H130.51V28.089h1.582Zm-3.076,13.465a3.149,3.149,0,0,0,1.279-.189q.215-.154.215-.962v-10.6h1.582V42.4a2.84,2.84,0,0,1-.334,1.538,2.31,2.31,0,0,1-2.1.861q-.114,0-.242-.009t-.4-.035Zm9.229-3.4A2.182,2.182,0,0,0,140.4,38.79a5.933,5.933,0,0,0,.584-2.65A4.718,4.718,0,0,0,140.565,34a2.373,2.373,0,0,0-2.3-1.3,2.271,2.271,0,0,0-2.109,1.107,5.133,5.133,0,0,0-.659,2.672,4.465,4.465,0,0,0,.659,2.5A2.322,2.322,0,0,0,138.244,39.98Zm.062-8.666a4.262,4.262,0,0,1,3.076,1.213,4.736,4.736,0,0,1,1.257,3.568,6.122,6.122,0,0,1-1.107,3.762,4.006,4.006,0,0,1-3.437,1.485,3.88,3.88,0,0,1-3.085-1.314,5.19,5.19,0,0,1-1.143-3.529,5.615,5.615,0,0,1,1.2-3.779A4.041,4.041,0,0,1,138.306,31.314Z" transform="translate(748.835 4221.671)" fill="#212429"/>
      <path id="Trazado_1027782" data-name="Trazado 1027782" d="M30.308.737a5.291,5.291,0,0,1,3.806,1.292,4.563,4.563,0,0,1,1.5,2.936H33.912a3.549,3.549,0,0,0-1.156-1.978,3.663,3.663,0,0,0-2.43-.729A3.9,3.9,0,0,0,27.245,3.6a6.11,6.11,0,0,0-1.173,4.109,5.968,5.968,0,0,0,1.059,3.678,3.7,3.7,0,0,0,3.16,1.411,3.338,3.338,0,0,0,2.944-1.485,5.649,5.649,0,0,0,.8-2.057H35.74a5.826,5.826,0,0,1-1.512,3.419,5.379,5.379,0,0,1-4.148,1.661A5.475,5.475,0,0,1,26.3,12.972q-2.013-1.8-2.013-5.563A7.107,7.107,0,0,1,25.8,2.724,5.522,5.522,0,0,1,30.308.737ZM41.391,12.98a2.182,2.182,0,0,0,2.158-1.191,5.933,5.933,0,0,0,.584-2.65A4.718,4.718,0,0,0,43.712,7a2.373,2.373,0,0,0-2.3-1.3A2.271,2.271,0,0,0,39.3,6.8a5.133,5.133,0,0,0-.659,2.672,4.465,4.465,0,0,0,.659,2.5A2.322,2.322,0,0,0,41.391,12.98Zm.062-8.666a4.262,4.262,0,0,1,3.076,1.213A4.736,4.736,0,0,1,45.786,9.1a6.122,6.122,0,0,1-1.107,3.762,4.006,4.006,0,0,1-3.437,1.485,3.88,3.88,0,0,1-3.085-1.314A5.19,5.19,0,0,1,37.014,9.5a5.615,5.615,0,0,1,1.2-3.779A4.041,4.041,0,0,1,41.453,4.314Zm6.214.272h1.564V5.923a5.258,5.258,0,0,1,1.02-1.011,3.066,3.066,0,0,1,1.775-.536,2.794,2.794,0,0,1,1.811.554,2.894,2.894,0,0,1,.7.932,3.419,3.419,0,0,1,1.239-1.121,3.457,3.457,0,0,1,1.6-.365,2.616,2.616,0,0,1,2.584,1.371,4.482,4.482,0,0,1,.369,1.986V14H58.688V7.461a1.523,1.523,0,0,0-.47-1.292,1.861,1.861,0,0,0-1.147-.352,2.277,2.277,0,0,0-1.6.624,2.74,2.74,0,0,0-.672,2.083V14H53.186V7.856a3.192,3.192,0,0,0-.229-1.4A1.394,1.394,0,0,0,51.613,5.8a2.32,2.32,0,0,0-1.63.694,3.4,3.4,0,0,0-.734,2.514V14H47.667Zm18.967,8.35a2.257,2.257,0,0,0,1.841-.927,4.413,4.413,0,0,0,.734-2.773A5.176,5.176,0,0,0,68.883,7.3a2.383,2.383,0,0,0-4.5.088,6.514,6.514,0,0,0-.325,2.232,4.732,4.732,0,0,0,.325,1.854A2.243,2.243,0,0,0,66.633,12.937Zm-4.1-8.306h1.538V5.879a3.84,3.84,0,0,1,1.037-.993,3.338,3.338,0,0,1,1.881-.527A3.537,3.537,0,0,1,69.71,5.584a5.023,5.023,0,0,1,1.116,3.5q0,3.076-1.608,4.395a3.634,3.634,0,0,1-2.373.835,3.221,3.221,0,0,1-1.784-.466,4.111,4.111,0,0,1-.94-.905v4.808H62.538Zm14.054-.255a4.294,4.294,0,0,1,1.942.47,3.582,3.582,0,0,1,1.433,1.217A4.2,4.2,0,0,1,80.6,7.725,10.868,10.868,0,0,1,80.74,9.8h-6.9a4.026,4.026,0,0,0,.677,2.3,2.266,2.266,0,0,0,1.96.866,2.534,2.534,0,0,0,1.978-.817,2.755,2.755,0,0,0,.6-1.1h1.556A3.276,3.276,0,0,1,80.2,12.2a4.111,4.111,0,0,1-.778,1.042,3.687,3.687,0,0,1-1.784.949,5.42,5.42,0,0,1-1.292.141,3.964,3.964,0,0,1-2.979-1.279,4.976,4.976,0,0,1-1.222-3.582,5.41,5.41,0,0,1,1.23-3.683A4.059,4.059,0,0,1,76.591,4.376Zm2.522,4.166A4.1,4.1,0,0,0,78.666,6.9a2.3,2.3,0,0,0-2.171-1.143,2.406,2.406,0,0,0-1.828.787,2.972,2.972,0,0,0-.782,2ZM83,1.959h1.6V4.587h1.5V5.879H84.6v6.144a.665.665,0,0,0,.334.659,1.42,1.42,0,0,0,.615.1q.114,0,.246,0t.308-.022V14a3.532,3.532,0,0,1-.567.114,5.39,5.39,0,0,1-.637.035,1.717,1.717,0,0,1-1.5-.567A2.519,2.519,0,0,1,83,12.11V5.879H81.724V4.587H83Zm8.6,2.417a4.294,4.294,0,0,1,1.942.47,3.582,3.582,0,0,1,1.433,1.217,4.2,4.2,0,0,1,.633,1.661A10.868,10.868,0,0,1,95.752,9.8h-6.9a4.026,4.026,0,0,0,.677,2.3,2.266,2.266,0,0,0,1.96.866,2.534,2.534,0,0,0,1.978-.817,2.755,2.755,0,0,0,.6-1.1H95.62a3.276,3.276,0,0,1-.409,1.156,4.111,4.111,0,0,1-.778,1.042,3.687,3.687,0,0,1-1.784.949,5.42,5.42,0,0,1-1.292.141,3.964,3.964,0,0,1-2.979-1.279,4.976,4.976,0,0,1-1.222-3.582,5.41,5.41,0,0,1,1.23-3.683A4.059,4.059,0,0,1,91.6,4.376Zm2.522,4.166A4.1,4.1,0,0,0,93.677,6.9a2.3,2.3,0,0,0-2.171-1.143,2.406,2.406,0,0,0-1.828.787,2.972,2.972,0,0,0-.782,2Zm3.568-3.955h1.5V5.923a4.215,4.215,0,0,1,1.415-1.187,3.773,3.773,0,0,1,1.661-.36,2.739,2.739,0,0,1,2.707,1.4,4.962,4.962,0,0,1,.387,2.188V14h-1.608V8.067a3.212,3.212,0,0,0-.255-1.389,1.545,1.545,0,0,0-1.529-.879,3.114,3.114,0,0,0-.923.114,2.377,2.377,0,0,0-1.143.773,2.329,2.329,0,0,0-.514.962,6.478,6.478,0,0,0-.119,1.419V14H97.694Zm13.641-.272a4.1,4.1,0,0,1,2.588.773,3.705,3.705,0,0,1,1.2,2.663h-1.538a2.839,2.839,0,0,0-.642-1.446,2.027,2.027,0,0,0-1.608-.576,2.222,2.222,0,0,0-2.162,1.477,5.865,5.865,0,0,0-.422,2.364,4.449,4.449,0,0,0,.6,2.382,2.317,2.317,0,0,0,3.441.365,3.311,3.311,0,0,0,.8-1.648h1.538a4.129,4.129,0,0,1-1.318,2.738,4.113,4.113,0,0,1-2.7.866,3.6,3.6,0,0,1-2.944-1.349,5.164,5.164,0,0,1-1.1-3.371,5.678,5.678,0,0,1,1.2-3.858A3.891,3.891,0,0,1,111.335,4.314Zm5.37.316h1.608V14H116.7Zm0-3.542h1.608V2.882H116.7ZM121.917,11.5a1.3,1.3,0,0,0,.5,1.081,1.857,1.857,0,0,0,1.187.4,3.608,3.608,0,0,0,1.617-.387,2.176,2.176,0,0,0,1.318-2.1V9.21a2.707,2.707,0,0,1-.747.308,6.366,6.366,0,0,1-.9.176l-.958.123a3.664,3.664,0,0,0-1.292.36A1.4,1.4,0,0,0,121.917,11.5Zm3.832-3.2a.859.859,0,0,0,.729-.457,1.391,1.391,0,0,0,.105-.606,1.285,1.285,0,0,0-.576-1.173,3.089,3.089,0,0,0-1.648-.365,2.094,2.094,0,0,0-1.758.668,2.2,2.2,0,0,0-.378,1.1h-1.477a2.718,2.718,0,0,1,1.129-2.421,4.637,4.637,0,0,1,2.518-.681,5.124,5.124,0,0,1,2.7.633,2.147,2.147,0,0,1,1.028,1.969v5.423a.694.694,0,0,0,.1.4.487.487,0,0,0,.426.149q.105,0,.237-.013t.281-.04v1.169a4.406,4.406,0,0,1-.562.132,4.111,4.111,0,0,1-.527.026,1.3,1.3,0,0,1-1.187-.58,2.239,2.239,0,0,1-.272-.87,4.025,4.025,0,0,1-1.389,1.1,4.3,4.3,0,0,1-2,.466,2.967,2.967,0,0,1-2.14-.8,2.642,2.642,0,0,1-.831-1.991,2.564,2.564,0,0,1,.817-2.03,3.889,3.889,0,0,1,2.145-.888Zm5.906,2.751a2.3,2.3,0,0,0,.4,1.213,2.485,2.485,0,0,0,2.074.765,3.059,3.059,0,0,0,1.547-.382,1.27,1.27,0,0,0,.668-1.182,1.011,1.011,0,0,0-.536-.923,6.374,6.374,0,0,0-1.354-.448l-1.257-.316a6.131,6.131,0,0,1-1.775-.668,2,2,0,0,1-1.02-1.775,2.713,2.713,0,0,1,.962-2.162,3.839,3.839,0,0,1,2.588-.826,3.593,3.593,0,0,1,3.067,1.248,2.708,2.708,0,0,1,.571,1.705h-1.494a1.83,1.83,0,0,0-.378-.976,2.41,2.41,0,0,0-1.89-.624,2.259,2.259,0,0,0-1.358.343,1.074,1.074,0,0,0-.461.905,1.114,1.114,0,0,0,.606.984,3.644,3.644,0,0,0,1.037.387l1.046.255a8.087,8.087,0,0,1,2.285.8,2.118,2.118,0,0,1,.923,1.907,2.906,2.906,0,0,1-.954,2.171,4.059,4.059,0,0,1-2.9.914,3.9,3.9,0,0,1-2.975-.954,3.606,3.606,0,0,1-.936-2.36ZM18.377,39.98a2.182,2.182,0,0,0,2.158-1.191,5.933,5.933,0,0,0,.584-2.65A4.718,4.718,0,0,0,20.7,34a2.373,2.373,0,0,0-2.3-1.3A2.271,2.271,0,0,0,16.285,33.8a5.133,5.133,0,0,0-.659,2.672,4.465,4.465,0,0,0,.659,2.5A2.322,2.322,0,0,0,18.377,39.98Zm.062-8.666a4.262,4.262,0,0,1,3.076,1.213A4.736,4.736,0,0,1,22.772,36.1a6.122,6.122,0,0,1-1.107,3.762,4.006,4.006,0,0,1-3.437,1.485,3.88,3.88,0,0,1-3.085-1.314A5.19,5.19,0,0,1,14,36.5a5.615,5.615,0,0,1,1.2-3.779A4.041,4.041,0,0,1,18.439,31.314Zm6.258.272h1.5v1.626a3.592,3.592,0,0,1,.905-1.156,2.347,2.347,0,0,1,1.661-.681q.044,0,.149.009t.36.035v1.67a2.363,2.363,0,0,0-.259-.035q-.119-.009-.259-.009a2.258,2.258,0,0,0-1.837.769,2.684,2.684,0,0,0-.642,1.771V41H24.7Zm9.272-.167a3.431,3.431,0,0,1,1.934.545,4.343,4.343,0,0,1,.914.9V31.675h1.459v8.561a6.313,6.313,0,0,1-.527,2.83,3.786,3.786,0,0,1-3.718,1.916,4.56,4.56,0,0,1-2.558-.681,2.656,2.656,0,0,1-1.16-2.131h1.608a1.79,1.79,0,0,0,.457.976,2.33,2.33,0,0,0,1.688.527,2.322,2.322,0,0,0,2.382-1.283,7.227,7.227,0,0,0,.308-2.7,3.1,3.1,0,0,1-1.143,1.072,4.1,4.1,0,0,1-4.443-.734,4.774,4.774,0,0,1-1.147-3.59,5.437,5.437,0,0,1,1.156-3.691A3.574,3.574,0,0,1,33.969,31.42Zm2.848,4.834a3.924,3.924,0,0,0-.721-2.593,2.309,2.309,0,0,0-1.837-.844,2.268,2.268,0,0,0-2.285,1.564,6.134,6.134,0,0,0-.325,2.188,3.885,3.885,0,0,0,.646,2.421,2.085,2.085,0,0,0,1.736.831,2.437,2.437,0,0,0,2.4-1.538A4.961,4.961,0,0,0,36.817,36.254ZM41.87,38.5a1.3,1.3,0,0,0,.5,1.081,1.857,1.857,0,0,0,1.187.4,3.608,3.608,0,0,0,1.617-.387,2.176,2.176,0,0,0,1.318-2.1V36.21a2.707,2.707,0,0,1-.747.308,6.366,6.366,0,0,1-.9.176l-.958.123a3.664,3.664,0,0,0-1.292.36A1.4,1.4,0,0,0,41.87,38.5ZM45.7,35.3a.859.859,0,0,0,.729-.457,1.391,1.391,0,0,0,.105-.606,1.285,1.285,0,0,0-.576-1.173,3.089,3.089,0,0,0-1.648-.365,2.094,2.094,0,0,0-1.758.668,2.2,2.2,0,0,0-.378,1.1H40.7a2.718,2.718,0,0,1,1.129-2.421,4.637,4.637,0,0,1,2.518-.681,5.124,5.124,0,0,1,2.7.633,2.147,2.147,0,0,1,1.028,1.969v5.423a.694.694,0,0,0,.1.4.487.487,0,0,0,.426.149q.105,0,.237-.013t.281-.04v1.169a4.406,4.406,0,0,1-.562.132,4.111,4.111,0,0,1-.527.026,1.3,1.3,0,0,1-1.187-.58,2.239,2.239,0,0,1-.272-.87,4.025,4.025,0,0,1-1.389,1.1,4.3,4.3,0,0,1-2,.466,2.967,2.967,0,0,1-2.14-.8,2.642,2.642,0,0,1-.831-1.991,2.564,2.564,0,0,1,.817-2.03,3.889,3.889,0,0,1,2.145-.888Zm4.966-3.709h1.5v1.336a4.215,4.215,0,0,1,1.415-1.187,3.773,3.773,0,0,1,1.661-.36,2.739,2.739,0,0,1,2.707,1.4,4.962,4.962,0,0,1,.387,2.188V41H56.733V35.067a3.212,3.212,0,0,0-.255-1.389,1.545,1.545,0,0,0-1.529-.879,3.114,3.114,0,0,0-.923.114,2.377,2.377,0,0,0-1.143.773,2.329,2.329,0,0,0-.514.962,6.478,6.478,0,0,0-.119,1.419V41H50.668Zm10.011.044h1.608V41H60.679Zm0-3.542h1.608v1.793H60.679Zm3.3,11.663L69.556,33H64.388V31.587h7.295v1.292l-5.546,6.706H71.85V41H63.975ZM74.891,38.5a1.3,1.3,0,0,0,.5,1.081,1.857,1.857,0,0,0,1.187.4,3.608,3.608,0,0,0,1.617-.387,2.176,2.176,0,0,0,1.318-2.1V36.21a2.707,2.707,0,0,1-.747.308,6.366,6.366,0,0,1-.9.176l-.958.123a3.664,3.664,0,0,0-1.292.36A1.4,1.4,0,0,0,74.891,38.5Zm3.832-3.2a.859.859,0,0,0,.729-.457,1.391,1.391,0,0,0,.105-.606,1.285,1.285,0,0,0-.576-1.173,3.089,3.089,0,0,0-1.648-.365,2.094,2.094,0,0,0-1.758.668,2.2,2.2,0,0,0-.378,1.1H73.722a2.718,2.718,0,0,1,1.129-2.421,4.637,4.637,0,0,1,2.518-.681,5.124,5.124,0,0,1,2.7.633A2.147,2.147,0,0,1,81.1,33.96v5.423a.694.694,0,0,0,.1.4.487.487,0,0,0,.426.149q.105,0,.237-.013t.281-.04v1.169a4.406,4.406,0,0,1-.562.132,4.111,4.111,0,0,1-.527.026,1.3,1.3,0,0,1-1.187-.58,2.239,2.239,0,0,1-.272-.87,4.025,4.025,0,0,1-1.389,1.1,4.3,4.3,0,0,1-2,.466,2.967,2.967,0,0,1-2.14-.8,2.642,2.642,0,0,1-.831-1.991,2.564,2.564,0,0,1,.817-2.03,3.889,3.889,0,0,1,2.145-.888Zm8.6-3.981a4.1,4.1,0,0,1,2.588.773,3.705,3.705,0,0,1,1.2,2.663H89.568a2.839,2.839,0,0,0-.642-1.446,2.027,2.027,0,0,0-1.608-.576,2.222,2.222,0,0,0-2.162,1.477,5.865,5.865,0,0,0-.422,2.364,4.449,4.449,0,0,0,.6,2.382,2.317,2.317,0,0,0,3.441.365,3.311,3.311,0,0,0,.8-1.648h1.538a3.72,3.72,0,0,1-4.017,3.6,3.6,3.6,0,0,1-2.944-1.349,5.164,5.164,0,0,1-1.1-3.371,5.678,5.678,0,0,1,1.2-3.858A3.891,3.891,0,0,1,87.318,31.314Zm5.37.316H94.3V41H92.689Zm0-3.542H94.3v1.793H92.689Zm7.734,11.892a2.182,2.182,0,0,0,2.158-1.191,5.933,5.933,0,0,0,.584-2.65A4.718,4.718,0,0,0,102.743,34a2.373,2.373,0,0,0-2.3-1.3A2.271,2.271,0,0,0,98.331,33.8a5.133,5.133,0,0,0-.659,2.672,4.465,4.465,0,0,0,.659,2.5A2.322,2.322,0,0,0,100.423,39.98Zm.062-8.666a4.262,4.262,0,0,1,3.076,1.213,4.736,4.736,0,0,1,1.257,3.568,6.122,6.122,0,0,1-1.107,3.762,4.006,4.006,0,0,1-3.437,1.485,3.88,3.88,0,0,1-3.085-1.314A5.19,5.19,0,0,1,96.046,36.5a5.615,5.615,0,0,1,1.2-3.779A4.041,4.041,0,0,1,100.484,31.314Zm6.214.272h1.5v1.336a4.215,4.215,0,0,1,1.415-1.187,3.773,3.773,0,0,1,1.661-.36,2.739,2.739,0,0,1,2.707,1.4,4.962,4.962,0,0,1,.387,2.188V41h-1.608V35.067a3.212,3.212,0,0,0-.255-1.389,1.545,1.545,0,0,0-1.529-.879,3.114,3.114,0,0,0-.923.114,2.377,2.377,0,0,0-1.143.773,2.329,2.329,0,0,0-.514.962,6.478,6.478,0,0,0-.119,1.419V41H106.7ZM117.922,38.5a1.3,1.3,0,0,0,.5,1.081,1.857,1.857,0,0,0,1.187.4,3.608,3.608,0,0,0,1.617-.387,2.176,2.176,0,0,0,1.318-2.1V36.21a2.707,2.707,0,0,1-.747.308,6.366,6.366,0,0,1-.9.176l-.958.123a3.664,3.664,0,0,0-1.292.36A1.4,1.4,0,0,0,117.922,38.5Zm3.832-3.2a.859.859,0,0,0,.729-.457,1.391,1.391,0,0,0,.105-.606,1.285,1.285,0,0,0-.576-1.173,3.089,3.089,0,0,0-1.648-.365,2.094,2.094,0,0,0-1.758.668,2.2,2.2,0,0,0-.378,1.1h-1.477a2.718,2.718,0,0,1,1.129-2.421,4.637,4.637,0,0,1,2.518-.681,5.124,5.124,0,0,1,2.7.633,2.147,2.147,0,0,1,1.028,1.969v5.423a.694.694,0,0,0,.1.4.487.487,0,0,0,.426.149q.105,0,.237-.013t.281-.04v1.169a4.406,4.406,0,0,1-.562.132,4.111,4.111,0,0,1-.527.026,1.3,1.3,0,0,1-1.187-.58,2.239,2.239,0,0,1-.272-.87,4.025,4.025,0,0,1-1.389,1.1,4.3,4.3,0,0,1-2,.466,2.967,2.967,0,0,1-2.14-.8,2.642,2.642,0,0,1-.831-1.991,2.564,2.564,0,0,1,.817-2.03,3.889,3.889,0,0,1,2.145-.888Zm5.01-7.207h1.582V41h-1.582Zm7.875,3.287a4.294,4.294,0,0,1,1.942.47,3.582,3.582,0,0,1,1.433,1.217,4.2,4.2,0,0,1,.633,1.661,10.868,10.868,0,0,1,.141,2.074h-6.9a4.026,4.026,0,0,0,.677,2.3,2.266,2.266,0,0,0,1.96.866,2.534,2.534,0,0,0,1.978-.817,2.755,2.755,0,0,0,.6-1.1h1.556a3.276,3.276,0,0,1-.409,1.156,4.111,4.111,0,0,1-.778,1.042,3.687,3.687,0,0,1-1.784.949,5.42,5.42,0,0,1-1.292.141,3.964,3.964,0,0,1-2.979-1.279,4.976,4.976,0,0,1-1.222-3.582,5.41,5.41,0,0,1,1.23-3.683A4.059,4.059,0,0,1,134.639,31.376Zm2.522,4.166a4.1,4.1,0,0,0-.448-1.644,2.3,2.3,0,0,0-2.171-1.143,2.406,2.406,0,0,0-1.828.787,2.972,2.972,0,0,0-.782,2Zm4.509,2.5a2.3,2.3,0,0,0,.4,1.213,2.485,2.485,0,0,0,2.074.765,3.059,3.059,0,0,0,1.547-.382,1.27,1.27,0,0,0,.668-1.182,1.011,1.011,0,0,0-.536-.923,6.374,6.374,0,0,0-1.354-.448l-1.257-.316a6.131,6.131,0,0,1-1.775-.668,2,2,0,0,1-1.02-1.775,2.713,2.713,0,0,1,.962-2.162,3.839,3.839,0,0,1,2.588-.826,3.593,3.593,0,0,1,3.067,1.248,2.708,2.708,0,0,1,.571,1.705h-1.494a1.83,1.83,0,0,0-.378-.976,2.41,2.41,0,0,0-1.89-.624,2.259,2.259,0,0,0-1.358.343,1.074,1.074,0,0,0-.461.905,1.114,1.114,0,0,0,.606.984,3.644,3.644,0,0,0,1.037.387l1.046.255a8.087,8.087,0,0,1,2.285.8,2.118,2.118,0,0,1,.923,1.907,2.906,2.906,0,0,1-.954,2.171,4.059,4.059,0,0,1-2.9.914,3.9,3.9,0,0,1-2.975-.954,3.606,3.606,0,0,1-.936-2.36Z" transform="translate(756.023 4045.05)" fill="#212429"/>
    </g>
  </g>
</svg>
